<?xml version="1.0" encoding="utf-8" standalone="no"?>
<!DOCTYPE svg PUBLIC "-//W3C//DTD SVG 1.1//EN"
  "http://www.w3.org/Graphics/SVG/1.1/DTD/svg11.dtd">
<!-- Created with matplotlib (http://matplotlib.org/) -->
<svg height="345.6pt" version="1.1" viewBox="0 0 460.8 345.6" width="460.8pt" xmlns="http://www.w3.org/2000/svg" xmlns:xlink="http://www.w3.org/1999/xlink">
 <defs>
  <style type="text/css">
*{stroke-linecap:butt;stroke-linejoin:round;}
  </style>
 </defs>
 <g id="figure_1">
  <g id="patch_1">
   <path d="M 0 345.6 
L 460.8 345.6 
L 460.8 0 
L 0 0 
z
" style="fill:#ffffff;"/>
  </g>
  <g id="axes_1">
   <g id="patch_2">
    <path d="M 57.6 307.584 
L 414.72 307.584 
L 414.72 41.472 
L 57.6 41.472 
z
" style="fill:#ffffff;"/>
   </g>
   <g id="patch_3">
    <path clip-path="url(#pc09217978f)" d="M 86.635336 307.584 
L 92.616322 307.584 
L 92.616322 302.19166 
L 86.635336 302.19166 
z
" style="fill:#1f77b4;opacity:0.4;"/>
   </g>
   <g id="patch_4">
    <path clip-path="url(#pc09217978f)" d="M 92.616322 307.584 
L 98.597309 307.584 
L 98.597309 307.584 
L 92.616322 307.584 
z
" style="fill:#1f77b4;opacity:0.4;"/>
   </g>
   <g id="patch_5">
    <path clip-path="url(#pc09217978f)" d="M 98.597309 307.584 
L 104.578296 307.584 
L 104.578296 307.584 
L 98.597309 307.584 
z
" style="fill:#1f77b4;opacity:0.4;"/>
   </g>
   <g id="patch_6">
    <path clip-path="url(#pc09217978f)" d="M 104.578296 307.584 
L 110.559282 307.584 
L 110.559282 302.19166 
L 104.578296 302.19166 
z
" style="fill:#1f77b4;opacity:0.4;"/>
   </g>
   <g id="patch_7">
    <path clip-path="url(#pc09217978f)" d="M 110.559282 307.584 
L 116.540269 307.584 
L 116.540269 307.584 
L 110.559282 307.584 
z
" style="fill:#1f77b4;opacity:0.4;"/>
   </g>
   <g id="patch_8">
    <path clip-path="url(#pc09217978f)" d="M 116.540269 307.584 
L 122.521255 307.584 
L 122.521255 307.584 
L 116.540269 307.584 
z
" style="fill:#1f77b4;opacity:0.4;"/>
   </g>
   <g id="patch_9">
    <path clip-path="url(#pc09217978f)" d="M 122.521255 307.584 
L 128.502242 307.584 
L 128.502242 302.19166 
L 122.521255 302.19166 
z
" style="fill:#1f77b4;opacity:0.4;"/>
   </g>
   <g id="patch_10">
    <path clip-path="url(#pc09217978f)" d="M 128.502242 307.584 
L 134.483228 307.584 
L 134.483228 307.584 
L 128.502242 307.584 
z
" style="fill:#1f77b4;opacity:0.4;"/>
   </g>
   <g id="patch_11">
    <path clip-path="url(#pc09217978f)" d="M 134.483228 307.584 
L 140.464215 307.584 
L 140.464215 307.584 
L 134.483228 307.584 
z
" style="fill:#1f77b4;opacity:0.4;"/>
   </g>
   <g id="patch_12">
    <path clip-path="url(#pc09217978f)" d="M 140.464215 307.584 
L 146.445202 307.584 
L 146.445202 307.584 
L 140.464215 307.584 
z
" style="fill:#1f77b4;opacity:0.4;"/>
   </g>
   <g id="patch_13">
    <path clip-path="url(#pc09217978f)" d="M 146.445202 307.584 
L 152.426188 307.584 
L 152.426188 307.584 
L 146.445202 307.584 
z
" style="fill:#1f77b4;opacity:0.4;"/>
   </g>
   <g id="patch_14">
    <path clip-path="url(#pc09217978f)" d="M 152.426188 307.584 
L 158.407175 307.584 
L 158.407175 296.799319 
L 152.426188 296.799319 
z
" style="fill:#1f77b4;opacity:0.4;"/>
   </g>
   <g id="patch_15">
    <path clip-path="url(#pc09217978f)" d="M 158.407175 307.584 
L 164.388161 307.584 
L 164.388161 221.306553 
L 158.407175 221.306553 
z
" style="fill:#1f77b4;opacity:0.4;"/>
   </g>
   <g id="patch_16">
    <path clip-path="url(#pc09217978f)" d="M 164.388161 307.584 
L 170.369148 307.584 
L 170.369148 161.990809 
L 164.388161 161.990809 
z
" style="fill:#1f77b4;opacity:0.4;"/>
   </g>
   <g id="patch_17">
    <path clip-path="url(#pc09217978f)" d="M 170.369148 307.584 
L 176.350134 307.584 
L 176.350134 54.144 
L 170.369148 54.144 
z
" style="fill:#1f77b4;opacity:0.4;"/>
   </g>
   <g id="patch_18">
    <path clip-path="url(#pc09217978f)" d="M 176.350134 307.584 
L 182.331121 307.584 
L 182.331121 108.067404 
L 176.350134 108.067404 
z
" style="fill:#1f77b4;opacity:0.4;"/>
   </g>
   <g id="patch_19">
    <path clip-path="url(#pc09217978f)" d="M 182.331121 307.584 
L 188.312107 307.584 
L 188.312107 259.052936 
L 182.331121 259.052936 
z
" style="fill:#1f77b4;opacity:0.4;"/>
   </g>
   <g id="patch_20">
    <path clip-path="url(#pc09217978f)" d="M 188.312107 307.584 
L 194.293094 307.584 
L 194.293094 275.229957 
L 188.312107 275.229957 
z
" style="fill:#1f77b4;opacity:0.4;"/>
   </g>
   <g id="patch_21">
    <path clip-path="url(#pc09217978f)" d="M 194.293094 307.584 
L 200.274081 307.584 
L 200.274081 286.014638 
L 194.293094 286.014638 
z
" style="fill:#1f77b4;opacity:0.4;"/>
   </g>
   <g id="patch_22">
    <path clip-path="url(#pc09217978f)" d="M 200.274081 307.584 
L 206.255067 307.584 
L 206.255067 286.014638 
L 200.274081 286.014638 
z
" style="fill:#1f77b4;opacity:0.4;"/>
   </g>
   <g id="patch_23">
    <path clip-path="url(#pc09217978f)" d="M 206.255067 307.584 
L 212.236054 307.584 
L 212.236054 296.799319 
L 206.255067 296.799319 
z
" style="fill:#1f77b4;opacity:0.4;"/>
   </g>
   <g id="patch_24">
    <path clip-path="url(#pc09217978f)" d="M 212.236054 307.584 
L 218.21704 307.584 
L 218.21704 291.406979 
L 212.236054 291.406979 
z
" style="fill:#1f77b4;opacity:0.4;"/>
   </g>
   <g id="patch_25">
    <path clip-path="url(#pc09217978f)" d="M 218.21704 307.584 
L 224.198027 307.584 
L 224.198027 291.406979 
L 218.21704 291.406979 
z
" style="fill:#1f77b4;opacity:0.4;"/>
   </g>
   <g id="patch_26">
    <path clip-path="url(#pc09217978f)" d="M 224.198027 307.584 
L 230.179013 307.584 
L 230.179013 291.406979 
L 224.198027 291.406979 
z
" style="fill:#1f77b4;opacity:0.4;"/>
   </g>
   <g id="patch_27">
    <path clip-path="url(#pc09217978f)" d="M 230.179013 307.584 
L 236.16 307.584 
L 236.16 307.584 
L 230.179013 307.584 
z
" style="fill:#1f77b4;opacity:0.4;"/>
   </g>
   <g id="patch_28">
    <path clip-path="url(#pc09217978f)" d="M 236.16 307.584 
L 242.140987 307.584 
L 242.140987 302.19166 
L 236.16 302.19166 
z
" style="fill:#1f77b4;opacity:0.4;"/>
   </g>
   <g id="patch_29">
    <path clip-path="url(#pc09217978f)" d="M 242.140987 307.584 
L 248.121973 307.584 
L 248.121973 291.406979 
L 242.140987 291.406979 
z
" style="fill:#1f77b4;opacity:0.4;"/>
   </g>
   <g id="patch_30">
    <path clip-path="url(#pc09217978f)" d="M 248.121973 307.584 
L 254.10296 307.584 
L 254.10296 307.584 
L 248.121973 307.584 
z
" style="fill:#1f77b4;opacity:0.4;"/>
   </g>
   <g id="patch_31">
    <path clip-path="url(#pc09217978f)" d="M 254.10296 307.584 
L 260.083946 307.584 
L 260.083946 296.799319 
L 254.10296 296.799319 
z
" style="fill:#1f77b4;opacity:0.4;"/>
   </g>
   <g id="patch_32">
    <path clip-path="url(#pc09217978f)" d="M 260.083946 307.584 
L 266.064933 307.584 
L 266.064933 296.799319 
L 260.083946 296.799319 
z
" style="fill:#1f77b4;opacity:0.4;"/>
   </g>
   <g id="patch_33">
    <path clip-path="url(#pc09217978f)" d="M 266.064933 307.584 
L 272.045919 307.584 
L 272.045919 307.584 
L 266.064933 307.584 
z
" style="fill:#1f77b4;opacity:0.4;"/>
   </g>
   <g id="patch_34">
    <path clip-path="url(#pc09217978f)" d="M 272.045919 307.584 
L 278.026906 307.584 
L 278.026906 307.584 
L 272.045919 307.584 
z
" style="fill:#1f77b4;opacity:0.4;"/>
   </g>
   <g id="patch_35">
    <path clip-path="url(#pc09217978f)" d="M 278.026906 307.584 
L 284.007893 307.584 
L 284.007893 302.19166 
L 278.026906 302.19166 
z
" style="fill:#1f77b4;opacity:0.4;"/>
   </g>
   <g id="patch_36">
    <path clip-path="url(#pc09217978f)" d="M 284.007893 307.584 
L 289.988879 307.584 
L 289.988879 307.584 
L 284.007893 307.584 
z
" style="fill:#1f77b4;opacity:0.4;"/>
   </g>
   <g id="patch_37">
    <path clip-path="url(#pc09217978f)" d="M 289.988879 307.584 
L 295.969866 307.584 
L 295.969866 302.19166 
L 289.988879 302.19166 
z
" style="fill:#1f77b4;opacity:0.4;"/>
   </g>
   <g id="patch_38">
    <path clip-path="url(#pc09217978f)" d="M 295.969866 307.584 
L 301.950852 307.584 
L 301.950852 302.19166 
L 295.969866 302.19166 
z
" style="fill:#1f77b4;opacity:0.4;"/>
   </g>
   <g id="patch_39">
    <path clip-path="url(#pc09217978f)" d="M 301.950852 307.584 
L 307.931839 307.584 
L 307.931839 302.19166 
L 301.950852 302.19166 
z
" style="fill:#1f77b4;opacity:0.4;"/>
   </g>
   <g id="patch_40">
    <path clip-path="url(#pc09217978f)" d="M 307.931839 307.584 
L 313.912825 307.584 
L 313.912825 307.584 
L 307.931839 307.584 
z
" style="fill:#1f77b4;opacity:0.4;"/>
   </g>
   <g id="patch_41">
    <path clip-path="url(#pc09217978f)" d="M 313.912825 307.584 
L 319.893812 307.584 
L 319.893812 307.584 
L 313.912825 307.584 
z
" style="fill:#1f77b4;opacity:0.4;"/>
   </g>
   <g id="patch_42">
    <path clip-path="url(#pc09217978f)" d="M 319.893812 307.584 
L 325.874798 307.584 
L 325.874798 307.584 
L 319.893812 307.584 
z
" style="fill:#1f77b4;opacity:0.4;"/>
   </g>
   <g id="patch_43">
    <path clip-path="url(#pc09217978f)" d="M 325.874798 307.584 
L 331.855785 307.584 
L 331.855785 307.584 
L 325.874798 307.584 
z
" style="fill:#1f77b4;opacity:0.4;"/>
   </g>
   <g id="patch_44">
    <path clip-path="url(#pc09217978f)" d="M 331.855785 307.584 
L 337.836772 307.584 
L 337.836772 302.19166 
L 331.855785 302.19166 
z
" style="fill:#1f77b4;opacity:0.4;"/>
   </g>
   <g id="patch_45">
    <path clip-path="url(#pc09217978f)" d="M 337.836772 307.584 
L 343.817758 307.584 
L 343.817758 302.19166 
L 337.836772 302.19166 
z
" style="fill:#1f77b4;opacity:0.4;"/>
   </g>
   <g id="patch_46">
    <path clip-path="url(#pc09217978f)" d="M 343.817758 307.584 
L 349.798745 307.584 
L 349.798745 307.584 
L 343.817758 307.584 
z
" style="fill:#1f77b4;opacity:0.4;"/>
   </g>
   <g id="patch_47">
    <path clip-path="url(#pc09217978f)" d="M 349.798745 307.584 
L 355.779731 307.584 
L 355.779731 307.584 
L 349.798745 307.584 
z
" style="fill:#1f77b4;opacity:0.4;"/>
   </g>
   <g id="patch_48">
    <path clip-path="url(#pc09217978f)" d="M 355.779731 307.584 
L 361.760718 307.584 
L 361.760718 302.19166 
L 355.779731 302.19166 
z
" style="fill:#1f77b4;opacity:0.4;"/>
   </g>
   <g id="patch_49">
    <path clip-path="url(#pc09217978f)" d="M 361.760718 307.584 
L 367.741704 307.584 
L 367.741704 302.19166 
L 361.760718 302.19166 
z
" style="fill:#1f77b4;opacity:0.4;"/>
   </g>
   <g id="patch_50">
    <path clip-path="url(#pc09217978f)" d="M 367.741704 307.584 
L 373.722691 307.584 
L 373.722691 307.584 
L 367.741704 307.584 
z
" style="fill:#1f77b4;opacity:0.4;"/>
   </g>
   <g id="patch_51">
    <path clip-path="url(#pc09217978f)" d="M 373.722691 307.584 
L 379.703678 307.584 
L 379.703678 302.19166 
L 373.722691 302.19166 
z
" style="fill:#1f77b4;opacity:0.4;"/>
   </g>
   <g id="patch_52">
    <path clip-path="url(#pc09217978f)" d="M 379.703678 307.584 
L 385.684664 307.584 
L 385.684664 291.406979 
L 379.703678 291.406979 
z
" style="fill:#1f77b4;opacity:0.4;"/>
   </g>
   <g id="matplotlib.axis_1">
    <g id="xtick_1">
     <g id="line2d_1">
      <defs>
       <path d="M 0 0 
L 0 3.5 
" id="me805f5d3c9" style="stroke:#000000;stroke-width:0.8;"/>
      </defs>
      <g>
       <use style="stroke:#000000;stroke-width:0.8;" x="67.071499" xlink:href="#me805f5d3c9" y="307.584"/>
      </g>
     </g>
     <g id="text_1">
      <!-- 0.02 -->
      <defs>
       <path d="M 31.78125 66.40625 
Q 24.171875 66.40625 20.328125 58.90625 
Q 16.5 51.421875 16.5 36.375 
Q 16.5 21.390625 20.328125 13.890625 
Q 24.171875 6.390625 31.78125 6.390625 
Q 39.453125 6.390625 43.28125 13.890625 
Q 47.125 21.390625 47.125 36.375 
Q 47.125 51.421875 43.28125 58.90625 
Q 39.453125 66.40625 31.78125 66.40625 
z
M 31.78125 74.21875 
Q 44.046875 74.21875 50.515625 64.515625 
Q 56.984375 54.828125 56.984375 36.375 
Q 56.984375 17.96875 50.515625 8.265625 
Q 44.046875 -1.421875 31.78125 -1.421875 
Q 19.53125 -1.421875 13.0625 8.265625 
Q 6.59375 17.96875 6.59375 36.375 
Q 6.59375 54.828125 13.0625 64.515625 
Q 19.53125 74.21875 31.78125 74.21875 
z
" id="DejaVuSans-30"/>
       <path d="M 10.6875 12.40625 
L 21 12.40625 
L 21 0 
L 10.6875 0 
z
" id="DejaVuSans-2e"/>
       <path d="M 19.1875 8.296875 
L 53.609375 8.296875 
L 53.609375 0 
L 7.328125 0 
L 7.328125 8.296875 
Q 12.9375 14.109375 22.625 23.890625 
Q 32.328125 33.6875 34.8125 36.53125 
Q 39.546875 41.84375 41.421875 45.53125 
Q 43.3125 49.21875 43.3125 52.78125 
Q 43.3125 58.59375 39.234375 62.25 
Q 35.15625 65.921875 28.609375 65.921875 
Q 23.96875 65.921875 18.8125 64.3125 
Q 13.671875 62.703125 7.8125 59.421875 
L 7.8125 69.390625 
Q 13.765625 71.78125 18.9375 73 
Q 24.125 74.21875 28.421875 74.21875 
Q 39.75 74.21875 46.484375 68.546875 
Q 53.21875 62.890625 53.21875 53.421875 
Q 53.21875 48.921875 51.53125 44.890625 
Q 49.859375 40.875 45.40625 35.40625 
Q 44.1875 33.984375 37.640625 27.21875 
Q 31.109375 20.453125 19.1875 8.296875 
z
" id="DejaVuSans-32"/>
      </defs>
      <g transform="translate(55.938687 322.182437)scale(0.1 -0.1)">
       <use xlink:href="#DejaVuSans-30"/>
       <use x="63.623047" xlink:href="#DejaVuSans-2e"/>
       <use x="95.410156" xlink:href="#DejaVuSans-30"/>
       <use x="159.033203" xlink:href="#DejaVuSans-32"/>
      </g>
     </g>
    </g>
    <g id="xtick_2">
     <g id="line2d_2">
      <g>
       <use style="stroke:#000000;stroke-width:0.8;" x="117.540281" xlink:href="#me805f5d3c9" y="307.584"/>
      </g>
     </g>
     <g id="text_2">
      <!-- 0.04 -->
      <defs>
       <path d="M 37.796875 64.3125 
L 12.890625 25.390625 
L 37.796875 25.390625 
z
M 35.203125 72.90625 
L 47.609375 72.90625 
L 47.609375 25.390625 
L 58.015625 25.390625 
L 58.015625 17.1875 
L 47.609375 17.1875 
L 47.609375 0 
L 37.796875 0 
L 37.796875 17.1875 
L 4.890625 17.1875 
L 4.890625 26.703125 
z
" id="DejaVuSans-34"/>
      </defs>
      <g transform="translate(106.407469 322.182437)scale(0.1 -0.1)">
       <use xlink:href="#DejaVuSans-30"/>
       <use x="63.623047" xlink:href="#DejaVuSans-2e"/>
       <use x="95.410156" xlink:href="#DejaVuSans-30"/>
       <use x="159.033203" xlink:href="#DejaVuSans-34"/>
      </g>
     </g>
    </g>
    <g id="xtick_3">
     <g id="line2d_3">
      <g>
       <use style="stroke:#000000;stroke-width:0.8;" x="168.009063" xlink:href="#me805f5d3c9" y="307.584"/>
      </g>
     </g>
     <g id="text_3">
      <!-- 0.06 -->
      <defs>
       <path d="M 33.015625 40.375 
Q 26.375 40.375 22.484375 35.828125 
Q 18.609375 31.296875 18.609375 23.390625 
Q 18.609375 15.53125 22.484375 10.953125 
Q 26.375 6.390625 33.015625 6.390625 
Q 39.65625 6.390625 43.53125 10.953125 
Q 47.40625 15.53125 47.40625 23.390625 
Q 47.40625 31.296875 43.53125 35.828125 
Q 39.65625 40.375 33.015625 40.375 
z
M 52.59375 71.296875 
L 52.59375 62.3125 
Q 48.875 64.0625 45.09375 64.984375 
Q 41.3125 65.921875 37.59375 65.921875 
Q 27.828125 65.921875 22.671875 59.328125 
Q 17.53125 52.734375 16.796875 39.40625 
Q 19.671875 43.65625 24.015625 45.921875 
Q 28.375 48.1875 33.59375 48.1875 
Q 44.578125 48.1875 50.953125 41.515625 
Q 57.328125 34.859375 57.328125 23.390625 
Q 57.328125 12.15625 50.6875 5.359375 
Q 44.046875 -1.421875 33.015625 -1.421875 
Q 20.359375 -1.421875 13.671875 8.265625 
Q 6.984375 17.96875 6.984375 36.375 
Q 6.984375 53.65625 15.1875 63.9375 
Q 23.390625 74.21875 37.203125 74.21875 
Q 40.921875 74.21875 44.703125 73.484375 
Q 48.484375 72.75 52.59375 71.296875 
z
" id="DejaVuSans-36"/>
      </defs>
      <g transform="translate(156.876251 322.182437)scale(0.1 -0.1)">
       <use xlink:href="#DejaVuSans-30"/>
       <use x="63.623047" xlink:href="#DejaVuSans-2e"/>
       <use x="95.410156" xlink:href="#DejaVuSans-30"/>
       <use x="159.033203" xlink:href="#DejaVuSans-36"/>
      </g>
     </g>
    </g>
    <g id="xtick_4">
     <g id="line2d_4">
      <g>
       <use style="stroke:#000000;stroke-width:0.8;" x="218.477845" xlink:href="#me805f5d3c9" y="307.584"/>
      </g>
     </g>
     <g id="text_4">
      <!-- 0.08 -->
      <defs>
       <path d="M 31.78125 34.625 
Q 24.75 34.625 20.71875 30.859375 
Q 16.703125 27.09375 16.703125 20.515625 
Q 16.703125 13.921875 20.71875 10.15625 
Q 24.75 6.390625 31.78125 6.390625 
Q 38.8125 6.390625 42.859375 10.171875 
Q 46.921875 13.96875 46.921875 20.515625 
Q 46.921875 27.09375 42.890625 30.859375 
Q 38.875 34.625 31.78125 34.625 
z
M 21.921875 38.8125 
Q 15.578125 40.375 12.03125 44.71875 
Q 8.5 49.078125 8.5 55.328125 
Q 8.5 64.0625 14.71875 69.140625 
Q 20.953125 74.21875 31.78125 74.21875 
Q 42.671875 74.21875 48.875 69.140625 
Q 55.078125 64.0625 55.078125 55.328125 
Q 55.078125 49.078125 51.53125 44.71875 
Q 48 40.375 41.703125 38.8125 
Q 48.828125 37.15625 52.796875 32.3125 
Q 56.78125 27.484375 56.78125 20.515625 
Q 56.78125 9.90625 50.3125 4.234375 
Q 43.84375 -1.421875 31.78125 -1.421875 
Q 19.734375 -1.421875 13.25 4.234375 
Q 6.78125 9.90625 6.78125 20.515625 
Q 6.78125 27.484375 10.78125 32.3125 
Q 14.796875 37.15625 21.921875 38.8125 
z
M 18.3125 54.390625 
Q 18.3125 48.734375 21.84375 45.5625 
Q 25.390625 42.390625 31.78125 42.390625 
Q 38.140625 42.390625 41.71875 45.5625 
Q 45.3125 48.734375 45.3125 54.390625 
Q 45.3125 60.0625 41.71875 63.234375 
Q 38.140625 66.40625 31.78125 66.40625 
Q 25.390625 66.40625 21.84375 63.234375 
Q 18.3125 60.0625 18.3125 54.390625 
z
" id="DejaVuSans-38"/>
      </defs>
      <g transform="translate(207.345033 322.182437)scale(0.1 -0.1)">
       <use xlink:href="#DejaVuSans-30"/>
       <use x="63.623047" xlink:href="#DejaVuSans-2e"/>
       <use x="95.410156" xlink:href="#DejaVuSans-30"/>
       <use x="159.033203" xlink:href="#DejaVuSans-38"/>
      </g>
     </g>
    </g>
    <g id="xtick_5">
     <g id="line2d_5">
      <g>
       <use style="stroke:#000000;stroke-width:0.8;" x="268.946627" xlink:href="#me805f5d3c9" y="307.584"/>
      </g>
     </g>
     <g id="text_5">
      <!-- 0.10 -->
      <defs>
       <path d="M 12.40625 8.296875 
L 28.515625 8.296875 
L 28.515625 63.921875 
L 10.984375 60.40625 
L 10.984375 69.390625 
L 28.421875 72.90625 
L 38.28125 72.90625 
L 38.28125 8.296875 
L 54.390625 8.296875 
L 54.390625 0 
L 12.40625 0 
z
" id="DejaVuSans-31"/>
      </defs>
      <g transform="translate(257.813815 322.182437)scale(0.1 -0.1)">
       <use xlink:href="#DejaVuSans-30"/>
       <use x="63.623047" xlink:href="#DejaVuSans-2e"/>
       <use x="95.410156" xlink:href="#DejaVuSans-31"/>
       <use x="159.033203" xlink:href="#DejaVuSans-30"/>
      </g>
     </g>
    </g>
    <g id="xtick_6">
     <g id="line2d_6">
      <g>
       <use style="stroke:#000000;stroke-width:0.8;" x="319.415409" xlink:href="#me805f5d3c9" y="307.584"/>
      </g>
     </g>
     <g id="text_6">
      <!-- 0.12 -->
      <g transform="translate(308.282597 322.182437)scale(0.1 -0.1)">
       <use xlink:href="#DejaVuSans-30"/>
       <use x="63.623047" xlink:href="#DejaVuSans-2e"/>
       <use x="95.410156" xlink:href="#DejaVuSans-31"/>
       <use x="159.033203" xlink:href="#DejaVuSans-32"/>
      </g>
     </g>
    </g>
    <g id="xtick_7">
     <g id="line2d_7">
      <g>
       <use style="stroke:#000000;stroke-width:0.8;" x="369.884191" xlink:href="#me805f5d3c9" y="307.584"/>
      </g>
     </g>
     <g id="text_7">
      <!-- 0.14 -->
      <g transform="translate(358.751379 322.182437)scale(0.1 -0.1)">
       <use xlink:href="#DejaVuSans-30"/>
       <use x="63.623047" xlink:href="#DejaVuSans-2e"/>
       <use x="95.410156" xlink:href="#DejaVuSans-31"/>
       <use x="159.033203" xlink:href="#DejaVuSans-34"/>
      </g>
     </g>
    </g>
   </g>
   <g id="matplotlib.axis_2">
    <g id="ytick_1">
     <g id="line2d_8">
      <defs>
       <path d="M 0 0 
L -3.5 0 
" id="md0bb90a7a0" style="stroke:#000000;stroke-width:0.8;"/>
      </defs>
      <g>
       <use style="stroke:#000000;stroke-width:0.8;" x="57.6" xlink:href="#md0bb90a7a0" y="307.584"/>
      </g>
     </g>
     <g id="text_8">
      <!-- 0 -->
      <g transform="translate(44.2375 311.383219)scale(0.1 -0.1)">
       <use xlink:href="#DejaVuSans-30"/>
      </g>
     </g>
    </g>
    <g id="ytick_2">
     <g id="line2d_9">
      <g>
       <use style="stroke:#000000;stroke-width:0.8;" x="57.6" xlink:href="#md0bb90a7a0" y="260.039505"/>
      </g>
     </g>
     <g id="text_9">
      <!-- 20 -->
      <g transform="translate(37.875 263.838723)scale(0.1 -0.1)">
       <use xlink:href="#DejaVuSans-32"/>
       <use x="63.623047" xlink:href="#DejaVuSans-30"/>
      </g>
     </g>
    </g>
    <g id="ytick_3">
     <g id="line2d_10">
      <g>
       <use style="stroke:#000000;stroke-width:0.8;" x="57.6" xlink:href="#md0bb90a7a0" y="212.495009"/>
      </g>
     </g>
     <g id="text_10">
      <!-- 40 -->
      <g transform="translate(37.875 216.294228)scale(0.1 -0.1)">
       <use xlink:href="#DejaVuSans-34"/>
       <use x="63.623047" xlink:href="#DejaVuSans-30"/>
      </g>
     </g>
    </g>
    <g id="ytick_4">
     <g id="line2d_11">
      <g>
       <use style="stroke:#000000;stroke-width:0.8;" x="57.6" xlink:href="#md0bb90a7a0" y="164.950514"/>
      </g>
     </g>
     <g id="text_11">
      <!-- 60 -->
      <g transform="translate(37.875 168.749733)scale(0.1 -0.1)">
       <use xlink:href="#DejaVuSans-36"/>
       <use x="63.623047" xlink:href="#DejaVuSans-30"/>
      </g>
     </g>
    </g>
    <g id="ytick_5">
     <g id="line2d_12">
      <g>
       <use style="stroke:#000000;stroke-width:0.8;" x="57.6" xlink:href="#md0bb90a7a0" y="117.406019"/>
      </g>
     </g>
     <g id="text_12">
      <!-- 80 -->
      <g transform="translate(37.875 121.205238)scale(0.1 -0.1)">
       <use xlink:href="#DejaVuSans-38"/>
       <use x="63.623047" xlink:href="#DejaVuSans-30"/>
      </g>
     </g>
    </g>
    <g id="ytick_6">
     <g id="line2d_13">
      <g>
       <use style="stroke:#000000;stroke-width:0.8;" x="57.6" xlink:href="#md0bb90a7a0" y="69.861524"/>
      </g>
     </g>
     <g id="text_13">
      <!-- 100 -->
      <g transform="translate(31.5125 73.660742)scale(0.1 -0.1)">
       <use xlink:href="#DejaVuSans-31"/>
       <use x="63.623047" xlink:href="#DejaVuSans-30"/>
       <use x="127.246094" xlink:href="#DejaVuSans-30"/>
      </g>
     </g>
    </g>
   </g>
   <g id="line2d_14">
    <path clip-path="url(#pc09217978f)" d="M 73.832727 307.544339 
L 76.389062 307.430543 
L 78.945397 307.019403 
L 81.501732 306.13874 
L 84.058067 305.036043 
L 86.614402 304.499623 
L 89.170737 305.022586 
L 91.727072 306.121728 
L 94.283407 307.002256 
L 96.839742 307.384334 
L 99.396077 307.354099 
L 101.952412 306.912556 
L 104.508747 306.006781 
L 107.065082 304.966471 
L 109.621417 304.549037 
L 112.177752 305.110956 
L 114.734087 306.039152 
L 117.290422 306.41275 
L 119.846757 305.889644 
L 122.403092 304.951724 
L 124.959427 304.541214 
L 127.515762 305.129117 
L 130.072097 306.213516 
L 132.628432 307.054492 
L 135.184767 307.441893 
L 140.297437 307.560549 
L 142.853772 307.464752 
L 145.410107 307.068397 
L 147.966442 305.902434 
L 150.522777 303.190594 
L 153.079112 297.474393 
L 155.635447 285.666713 
L 158.191782 263.846845 
L 160.748117 231.970177 
L 163.304452 196.338048 
L 165.860787 163.120023 
L 168.417122 132.779204 
L 170.973457 105.95715 
L 173.529792 89.521488 
L 176.086127 92.389241 
L 178.642462 118.313445 
L 181.198797 161.182756 
L 183.755132 206.455566 
L 186.311467 241.494557 
L 188.867802 263.540918 
L 191.424137 276.284114 
L 193.980472 283.394679 
L 196.536807 287.127598 
L 199.093142 288.84214 
L 201.649477 288.921936 
L 204.205812 288.077155 
L 206.762147 288.060742 
L 209.318482 289.710463 
L 211.874817 291.993428 
L 214.431152 293.637241 
L 216.987487 294.206727 
L 222.100157 293.750825 
L 224.656492 294.062285 
L 227.212827 295.220871 
L 229.769162 297.449411 
L 232.325497 300.147835 
L 234.881832 302.009662 
L 237.438168 302.452469 
L 239.994503 301.66464 
L 245.107173 298.333461 
L 247.663508 298.027491 
L 250.219843 298.769551 
L 252.776178 299.158145 
L 257.888848 298.689512 
L 260.445183 299.077113 
L 263.001518 300.319497 
L 265.557853 302.492333 
L 268.114188 304.864877 
L 270.670523 306.500754 
L 273.226858 307.156586 
L 275.783193 307.034297 
L 278.339528 306.288327 
L 280.895863 305.219918 
L 283.452198 304.508184 
L 286.008533 304.563138 
L 288.564868 304.824238 
L 291.121203 304.372825 
L 293.677538 303.06554 
L 296.233873 301.623626 
L 298.790208 300.865031 
L 301.346543 301.183444 
L 303.902878 302.520301 
L 306.459213 304.388577 
L 309.015548 306.048531 
L 311.571883 307.042007 
L 314.128218 307.446513 
L 319.240888 307.577355 
L 324.353558 307.43988 
L 326.909893 307.045874 
L 329.466228 306.184338 
L 332.022563 305.027999 
L 334.578898 304.201088 
L 337.135233 304.031352 
L 342.247903 304.144913 
L 344.804238 304.462806 
L 347.360573 305.147054 
L 349.916908 305.569263 
L 352.473243 305.215023 
L 355.029578 304.396433 
L 357.585913 303.78464 
L 360.142248 303.594891 
L 362.698583 303.714421 
L 365.254918 304.21186 
L 367.811253 304.990919 
L 370.367588 305.434118 
L 372.923923 305.078498 
L 375.480258 304.174709 
L 378.036593 302.991304 
L 380.592928 301.159948 
L 383.149263 298.873355 
L 385.705598 297.98405 
L 388.261933 299.879096 
L 390.818268 303.256204 
L 393.374603 305.899688 
L 395.930938 307.129577 
L 398.487273 307.495232 
L 398.487273 307.495232 
" style="fill:none;stroke:#1f77b4;stroke-linecap:square;stroke-width:1.5;"/>
   </g>
   <g id="patch_53">
    <path d="M 57.6 307.584 
L 57.6 41.472 
" style="fill:none;stroke:#000000;stroke-linecap:square;stroke-linejoin:miter;stroke-width:0.8;"/>
   </g>
   <g id="patch_54">
    <path d="M 414.72 307.584 
L 414.72 41.472 
" style="fill:none;stroke:#000000;stroke-linecap:square;stroke-linejoin:miter;stroke-width:0.8;"/>
   </g>
   <g id="patch_55">
    <path d="M 57.6 307.584 
L 414.72 307.584 
" style="fill:none;stroke:#000000;stroke-linecap:square;stroke-linejoin:miter;stroke-width:0.8;"/>
   </g>
   <g id="patch_56">
    <path d="M 57.6 41.472 
L 414.72 41.472 
" style="fill:none;stroke:#000000;stroke-linecap:square;stroke-linejoin:miter;stroke-width:0.8;"/>
   </g>
  </g>
 </g>
 <defs>
  <clipPath id="pc09217978f">
   <rect height="266.112" width="357.12" x="57.6" y="41.472"/>
  </clipPath>
 </defs>
</svg>
