<?xml version="1.0" encoding="utf-8" standalone="no"?>
<!DOCTYPE svg PUBLIC "-//W3C//DTD SVG 1.1//EN"
  "http://www.w3.org/Graphics/SVG/1.1/DTD/svg11.dtd">
<!-- Created with matplotlib (http://matplotlib.org/) -->
<svg height="345.6pt" version="1.1" viewBox="0 0 460.8 345.6" width="460.8pt" xmlns="http://www.w3.org/2000/svg" xmlns:xlink="http://www.w3.org/1999/xlink">
 <defs>
  <style type="text/css">
*{stroke-linecap:butt;stroke-linejoin:round;}
  </style>
 </defs>
 <g id="figure_1">
  <g id="patch_1">
   <path d="M 0 345.6 
L 460.8 345.6 
L 460.8 0 
L 0 0 
z
" style="fill:#ffffff;"/>
  </g>
  <g id="axes_1">
   <g id="patch_2">
    <path d="M 57.6 307.584 
L 414.72 307.584 
L 414.72 41.472 
L 57.6 41.472 
z
" style="fill:#ffffff;"/>
   </g>
   <g id="PolyCollection_1">
    <path clip-path="url(#p8cac2fa29c)" d="M 83.601425 307.582123 
L 83.601425 307.584 
L 85.423461 307.584 
L 87.245497 307.584 
L 89.067532 307.584 
L 90.889568 307.584 
L 92.711603 307.584 
L 94.533639 307.584 
L 96.355674 307.584 
L 98.17771 307.584 
L 99.999746 307.584 
L 101.821781 307.584 
L 103.643817 307.584 
L 105.465852 307.584 
L 107.287888 307.584 
L 109.109923 307.584 
L 110.931959 307.584 
L 112.753995 307.584 
L 114.57603 307.584 
L 116.398066 307.584 
L 118.220101 307.584 
L 120.042137 307.584 
L 121.864172 307.584 
L 123.686208 307.584 
L 125.508244 307.584 
L 127.330279 307.584 
L 129.152315 307.584 
L 130.97435 307.584 
L 132.796386 307.584 
L 134.618421 307.584 
L 136.440457 307.584 
L 138.262493 307.584 
L 140.084528 307.584 
L 141.906564 307.584 
L 143.728599 307.584 
L 145.550635 307.584 
L 147.37267 307.584 
L 149.194706 307.584 
L 151.016742 307.584 
L 152.838777 307.584 
L 154.660813 307.584 
L 156.482848 307.584 
L 158.304884 307.584 
L 160.126919 307.584 
L 161.948955 307.584 
L 163.770991 307.584 
L 165.593026 307.584 
L 167.415062 307.584 
L 169.237097 307.584 
L 171.059133 307.584 
L 172.881168 307.584 
L 174.703204 307.584 
L 176.52524 307.584 
L 178.347275 307.584 
L 180.169311 307.584 
L 181.991346 307.584 
L 183.813382 307.584 
L 185.635417 307.584 
L 187.457453 307.584 
L 189.279489 307.584 
L 191.101524 307.584 
L 192.92356 307.584 
L 194.745595 307.584 
L 196.567631 307.584 
L 198.389666 307.584 
L 200.211702 307.584 
L 202.033738 307.584 
L 203.855773 307.584 
L 205.677809 307.584 
L 207.499844 307.584 
L 209.32188 307.584 
L 211.143915 307.584 
L 212.965951 307.584 
L 214.787987 307.584 
L 216.610022 307.584 
L 218.432058 307.584 
L 220.254093 307.584 
L 222.076129 307.584 
L 223.898164 307.584 
L 225.7202 307.584 
L 227.542236 307.584 
L 229.364271 307.584 
L 231.186307 307.584 
L 233.008342 307.584 
L 234.830378 307.584 
L 236.652413 307.584 
L 238.474449 307.584 
L 240.296484 307.584 
L 242.11852 307.584 
L 243.940556 307.584 
L 245.762591 307.584 
L 247.584627 307.584 
L 249.406662 307.584 
L 251.228698 307.584 
L 253.050733 307.584 
L 254.872769 307.584 
L 256.694805 307.584 
L 258.51684 307.584 
L 260.338876 307.584 
L 262.160911 307.584 
L 263.982947 307.584 
L 265.804982 307.584 
L 267.627018 307.584 
L 269.449054 307.584 
L 271.271089 307.584 
L 273.093125 307.584 
L 274.91516 307.584 
L 276.737196 307.584 
L 278.559231 307.584 
L 280.381267 307.584 
L 282.203303 307.584 
L 284.025338 307.584 
L 285.847374 307.584 
L 287.669409 307.584 
L 289.491445 307.584 
L 291.31348 307.584 
L 293.135516 307.584 
L 294.957552 307.584 
L 296.779587 307.584 
L 298.601623 307.584 
L 300.423658 307.584 
L 302.245694 307.584 
L 304.067729 307.584 
L 305.889765 307.584 
L 307.711801 307.584 
L 309.533836 307.584 
L 311.355872 307.584 
L 313.177907 307.584 
L 314.999943 307.584 
L 314.999943 307.581182 
L 314.999943 307.581182 
L 313.177907 307.579007 
L 311.355872 307.574906 
L 309.533836 307.567793 
L 307.711801 307.556135 
L 305.889765 307.537955 
L 304.067729 307.51094 
L 302.245694 307.47271 
L 300.423658 307.421266 
L 298.601623 307.355571 
L 296.779587 307.276192 
L 294.957552 307.185828 
L 293.135516 307.089538 
L 291.31348 306.994511 
L 289.491445 306.909303 
L 287.669409 306.842614 
L 285.847374 306.801842 
L 284.025338 306.791726 
L 282.203303 306.813434 
L 280.381267 306.864329 
L 278.559231 306.938471 
L 276.737196 307.027716 
L 274.91516 307.123126 
L 273.093125 307.216312 
L 271.271089 307.300435 
L 269.449054 307.370644 
L 267.627018 307.423908 
L 265.804982 307.458241 
L 263.982947 307.471304 
L 262.160911 307.458195 
L 260.338876 307.407967 
L 258.51684 307.298012 
L 256.694805 307.085056 
L 254.872769 306.691334 
L 253.050733 305.984813 
L 251.228698 304.753584 
L 249.406662 302.67717 
L 247.584627 299.301535 
L 245.762591 294.029466 
L 243.940556 286.142072 
L 242.11852 274.867675 
L 240.296484 259.508496 
L 238.474449 239.621394 
L 236.652413 215.227839 
L 234.830378 187.005643 
L 233.008342 156.399886 
L 231.186307 125.592671 
L 229.364271 97.296682 
L 227.542236 74.383138 
L 225.7202 59.408206 
L 223.898164 54.144 
L 222.076129 59.232892 
L 220.254093 74.058386 
L 218.432058 96.868408 
L 216.610022 125.116839 
L 214.787987 155.931122 
L 212.965951 186.587391 
L 211.143915 214.88625 
L 209.32188 239.363838 
L 207.499844 259.326205 
L 205.677809 274.741073 
L 203.855773 286.046951 
L 202.033738 293.942418 
L 200.211702 299.203634 
L 198.389666 302.555613 
L 196.567631 304.601546 
L 194.745595 305.800108 
L 192.92356 306.474538 
L 191.101524 306.837678 
L 189.279489 307.021114 
L 187.457453 307.101499 
L 185.635417 307.121129 
L 183.813382 307.102548 
L 181.991346 307.058147 
L 180.169311 306.996063 
L 178.347275 306.923489 
L 176.52524 306.84818 
L 174.703204 306.778699 
L 172.881168 306.723782 
L 171.059133 306.691197 
L 169.237097 306.686481 
L 167.415062 306.71194 
L 165.593026 306.766203 
L 163.770991 306.844478 
L 161.948955 306.939453 
L 160.126919 307.042613 
L 158.304884 307.145643 
L 156.482848 307.241605 
L 154.660813 307.325666 
L 152.838777 307.395312 
L 151.016742 307.450114 
L 149.194706 307.491204 
L 147.37267 307.520646 
L 145.550635 307.540852 
L 143.728599 307.554147 
L 141.906564 307.562501 
L 140.084528 307.567415 
L 138.262493 307.569929 
L 136.440457 307.570683 
L 134.618421 307.570014 
L 132.796386 307.568044 
L 130.97435 307.564769 
L 129.152315 307.560131 
L 127.330279 307.554095 
L 125.508244 307.546708 
L 123.686208 307.538168 
L 121.864172 307.528865 
L 120.042137 307.519393 
L 118.220101 307.510512 
L 116.398066 307.503073 
L 114.57603 307.497884 
L 112.753995 307.495583 
L 110.931959 307.496507 
L 109.109923 307.500628 
L 107.287888 307.507548 
L 105.465852 307.516568 
L 103.643817 307.526817 
L 101.821781 307.537392 
L 99.999746 307.547496 
L 98.17771 307.556532 
L 96.355674 307.564145 
L 94.533639 307.570212 
L 92.711603 307.574795 
L 90.889568 307.578072 
L 89.067532 307.580272 
L 87.245497 307.581606 
L 85.423461 307.582215 
L 83.601425 307.582123 
z
" style="fill:#1f77b4;fill-opacity:0.25;"/>
   </g>
   <g id="PolyCollection_2">
    <path clip-path="url(#p8cac2fa29c)" d="M 133.502363 307.583825 
L 133.502363 307.584 
L 135.588858 307.584 
L 137.675353 307.584 
L 139.761849 307.584 
L 141.848344 307.584 
L 143.934839 307.584 
L 146.021335 307.584 
L 148.10783 307.584 
L 150.194325 307.584 
L 152.280821 307.584 
L 154.367316 307.584 
L 156.453811 307.584 
L 158.540307 307.584 
L 160.626802 307.584 
L 162.713298 307.584 
L 164.799793 307.584 
L 166.886288 307.584 
L 168.972784 307.584 
L 171.059279 307.584 
L 173.145774 307.584 
L 175.23227 307.584 
L 177.318765 307.584 
L 179.40526 307.584 
L 181.491756 307.584 
L 183.578251 307.584 
L 185.664746 307.584 
L 187.751242 307.584 
L 189.837737 307.584 
L 191.924233 307.584 
L 194.010728 307.584 
L 196.097223 307.584 
L 198.183719 307.584 
L 200.270214 307.584 
L 202.356709 307.584 
L 204.443205 307.584 
L 206.5297 307.584 
L 208.616195 307.584 
L 210.702691 307.584 
L 212.789186 307.584 
L 214.875681 307.584 
L 216.962177 307.584 
L 219.048672 307.584 
L 221.135167 307.584 
L 223.221663 307.584 
L 225.308158 307.584 
L 227.394654 307.584 
L 229.481149 307.584 
L 231.567644 307.584 
L 233.65414 307.584 
L 235.740635 307.584 
L 237.82713 307.584 
L 239.913626 307.584 
L 242.000121 307.584 
L 244.086616 307.584 
L 246.173112 307.584 
L 248.259607 307.584 
L 250.346102 307.584 
L 252.432598 307.584 
L 254.519093 307.584 
L 256.605589 307.584 
L 258.692084 307.584 
L 260.778579 307.584 
L 262.865075 307.584 
L 264.95157 307.584 
L 267.038065 307.584 
L 269.124561 307.584 
L 271.211056 307.584 
L 273.297551 307.584 
L 275.384047 307.584 
L 277.470542 307.584 
L 279.557037 307.584 
L 281.643533 307.584 
L 283.730028 307.584 
L 285.816524 307.584 
L 287.903019 307.584 
L 289.989514 307.584 
L 292.07601 307.584 
L 294.162505 307.584 
L 296.249 307.584 
L 298.335496 307.584 
L 300.421991 307.584 
L 302.508486 307.584 
L 304.594982 307.584 
L 306.681477 307.584 
L 308.767972 307.584 
L 310.854468 307.584 
L 312.940963 307.584 
L 315.027458 307.584 
L 317.113954 307.584 
L 319.200449 307.584 
L 321.286945 307.584 
L 323.37344 307.584 
L 325.459935 307.584 
L 327.546431 307.584 
L 329.632926 307.584 
L 331.719421 307.584 
L 333.805917 307.584 
L 335.892412 307.584 
L 337.978907 307.584 
L 340.065403 307.584 
L 342.151898 307.584 
L 344.238393 307.584 
L 346.324889 307.584 
L 348.411384 307.584 
L 350.49788 307.584 
L 352.584375 307.584 
L 354.67087 307.584 
L 356.757366 307.584 
L 358.843861 307.584 
L 360.930356 307.584 
L 363.016852 307.584 
L 365.103347 307.584 
L 367.189842 307.584 
L 369.276338 307.584 
L 371.362833 307.584 
L 373.449328 307.584 
L 375.535824 307.584 
L 377.622319 307.584 
L 379.708815 307.584 
L 381.79531 307.584 
L 383.881805 307.584 
L 385.968301 307.584 
L 388.054796 307.584 
L 390.141291 307.584 
L 392.227787 307.584 
L 394.314282 307.584 
L 396.400777 307.584 
L 398.487273 307.584 
L 398.487273 307.583791 
L 398.487273 307.583791 
L 396.400777 307.583642 
L 394.314282 307.583319 
L 392.227787 307.582714 
L 390.141291 307.581663 
L 388.054796 307.579938 
L 385.968301 307.577258 
L 383.881805 307.573314 
L 381.79531 307.56783 
L 379.708815 307.56064 
L 377.622319 307.551785 
L 375.535824 307.541595 
L 373.449328 307.530724 
L 371.362833 307.520111 
L 369.276338 307.510859 
L 367.189842 307.504036 
L 365.103347 307.500457 
L 363.016852 307.500505 
L 360.930356 307.504049 
L 358.843861 307.510478 
L 356.757366 307.518856 
L 354.67087 307.52813 
L 352.584375 307.53734 
L 350.49788 307.54577 
L 348.411384 307.553005 
L 346.324889 307.558906 
L 344.238393 307.563523 
L 342.151898 307.566984 
L 340.065403 307.569397 
L 337.978907 307.570786 
L 335.892412 307.571073 
L 333.805917 307.570108 
L 331.719421 307.56772 
L 329.632926 307.56379 
L 327.546431 307.558307 
L 325.459935 307.551398 
L 323.37344 307.543317 
L 321.286945 307.534406 
L 319.200449 307.525017 
L 317.113954 307.515451 
L 315.027458 307.50591 
L 312.940963 307.496486 
L 310.854468 307.487185 
L 308.767972 307.477971 
L 306.681477 307.468801 
L 304.594982 307.459638 
L 302.508486 307.450423 
L 300.421991 307.441008 
L 298.335496 307.431063 
L 296.249 307.419987 
L 294.162505 307.406858 
L 292.07601 307.390462 
L 289.989514 307.369423 
L 287.903019 307.342456 
L 285.816524 307.308695 
L 283.730028 307.268048 
L 281.643533 307.221486 
L 279.557037 307.171153 
L 277.470542 307.120225 
L 275.384047 307.07249 
L 273.297551 307.03169 
L 271.211056 307.000709 
L 269.124561 306.980724 
L 267.038065 306.97029 
L 264.95157 306.964122 
L 262.865075 306.950867 
L 260.778579 306.908595 
L 258.692084 306.795924 
L 256.605589 306.536015 
L 254.519093 305.990432 
L 252.432598 304.921058 
L 250.346102 302.942159 
L 248.259607 299.472429 
L 246.173112 293.708037 
L 244.086616 284.649172 
L 242.000121 271.216898 
L 239.913626 252.485091 
L 237.82713 228.016874 
L 235.740635 198.240121 
L 233.65414 164.740895 
L 231.567644 130.32842 
L 229.481149 98.759442 
L 227.394654 74.110522 
L 225.308158 59.924626 
L 223.221663 58.373752 
L 221.135167 69.710333 
L 219.048672 92.19888 
L 216.962177 122.553416 
L 214.875681 156.728246 
L 212.789186 190.799078 
L 210.702691 221.671806 
L 208.616195 247.454749 
L 206.5297 267.47043 
L 204.443205 282.000217 
L 202.356709 291.908883 
L 200.270214 298.283879 
L 198.183719 302.171548 
L 196.097223 304.433113 
L 194.010728 305.701012 
L 191.924233 306.398354 
L 189.837737 306.78601 
L 187.751242 307.013078 
L 185.664746 307.158641 
L 183.578251 307.261534 
L 181.491756 307.339406 
L 179.40526 307.399884 
L 177.318765 307.446517 
L 175.23227 307.481583 
L 173.145774 307.50715 
L 171.059279 307.525287 
L 168.972784 307.537956 
L 166.886288 307.546856 
L 164.799793 307.553327 
L 162.713298 307.558333 
L 160.626802 307.562502 
L 158.540307 307.566184 
L 156.453811 307.569536 
L 154.367316 307.572585 
L 152.280821 307.575294 
L 150.194325 307.577611 
L 148.10783 307.579504 
L 146.021335 307.580974 
L 143.934839 307.582055 
L 141.848344 307.582807 
L 139.761849 307.5833 
L 137.675353 307.583601 
L 135.588858 307.583765 
L 133.502363 307.583825 
z
" style="fill:#ff7f0e;fill-opacity:0.25;"/>
   </g>
   <g id="PolyCollection_3">
    <path clip-path="url(#p8cac2fa29c)" d="M 73.832727 307.58388 
L 73.832727 307.584 
L 75.855266 307.584 
L 77.877805 307.584 
L 79.900343 307.584 
L 81.922882 307.584 
L 83.94542 307.584 
L 85.967959 307.584 
L 87.990498 307.584 
L 90.013036 307.584 
L 92.035575 307.584 
L 94.058113 307.584 
L 96.080652 307.584 
L 98.103191 307.584 
L 100.125729 307.584 
L 102.148268 307.584 
L 104.170807 307.584 
L 106.193345 307.584 
L 108.215884 307.584 
L 110.238422 307.584 
L 112.260961 307.584 
L 114.2835 307.584 
L 116.306038 307.584 
L 118.328577 307.584 
L 120.351116 307.584 
L 122.373654 307.584 
L 124.396193 307.584 
L 126.418731 307.584 
L 128.44127 307.584 
L 130.463809 307.584 
L 132.486347 307.584 
L 134.508886 307.584 
L 136.531425 307.584 
L 138.553963 307.584 
L 140.576502 307.584 
L 142.59904 307.584 
L 144.621579 307.584 
L 146.644118 307.584 
L 148.666656 307.584 
L 150.689195 307.584 
L 152.711733 307.584 
L 154.734272 307.584 
L 156.756811 307.584 
L 158.779349 307.584 
L 160.801888 307.584 
L 162.824427 307.584 
L 164.846965 307.584 
L 166.869504 307.584 
L 168.892042 307.584 
L 170.914581 307.584 
L 172.93712 307.584 
L 174.959658 307.584 
L 176.982197 307.584 
L 179.004736 307.584 
L 181.027274 307.584 
L 183.049813 307.584 
L 185.072351 307.584 
L 187.09489 307.584 
L 189.117429 307.584 
L 191.139967 307.584 
L 193.162506 307.584 
L 195.185045 307.584 
L 197.207583 307.584 
L 199.230122 307.584 
L 201.25266 307.584 
L 203.275199 307.584 
L 205.297738 307.584 
L 207.320276 307.584 
L 209.342815 307.584 
L 211.365353 307.584 
L 213.387892 307.584 
L 215.410431 307.584 
L 217.432969 307.584 
L 219.455508 307.584 
L 221.478047 307.584 
L 223.500585 307.584 
L 225.523124 307.584 
L 227.545662 307.584 
L 229.568201 307.584 
L 231.59074 307.584 
L 233.613278 307.584 
L 235.635817 307.584 
L 237.658356 307.584 
L 239.680894 307.584 
L 241.703433 307.584 
L 243.725971 307.584 
L 245.74851 307.584 
L 247.771049 307.584 
L 249.793587 307.584 
L 251.816126 307.584 
L 253.838665 307.584 
L 255.861203 307.584 
L 257.883742 307.584 
L 259.90628 307.584 
L 261.928819 307.584 
L 263.951358 307.584 
L 265.973896 307.584 
L 267.996435 307.584 
L 270.018973 307.584 
L 272.041512 307.584 
L 274.064051 307.584 
L 276.086589 307.584 
L 278.109128 307.584 
L 280.131667 307.584 
L 282.154205 307.584 
L 284.176744 307.584 
L 286.199282 307.584 
L 288.221821 307.584 
L 290.24436 307.584 
L 292.266898 307.584 
L 294.289437 307.584 
L 296.311976 307.584 
L 298.334514 307.584 
L 300.357053 307.584 
L 302.379591 307.584 
L 304.40213 307.584 
L 306.424669 307.584 
L 308.447207 307.584 
L 310.469746 307.584 
L 312.492285 307.584 
L 314.514823 307.584 
L 316.537362 307.584 
L 318.5599 307.584 
L 320.582439 307.584 
L 322.604978 307.584 
L 324.627516 307.584 
L 326.650055 307.584 
L 328.672593 307.584 
L 330.695132 307.584 
L 330.695132 307.583875 
L 330.695132 307.583875 
L 328.672593 307.583811 
L 326.650055 307.583671 
L 324.627516 307.583421 
L 322.604978 307.583009 
L 320.582439 307.582369 
L 318.5599 307.58142 
L 316.537362 307.580074 
L 314.514823 307.578245 
L 312.492285 307.575854 
L 310.469746 307.572849 
L 308.447207 307.569206 
L 306.424669 307.564938 
L 304.40213 307.560083 
L 302.379591 307.554676 
L 300.357053 307.548702 
L 298.334514 307.542012 
L 296.311976 307.534239 
L 294.289437 307.524711 
L 292.266898 307.51241 
L 290.24436 307.496006 
L 288.221821 307.473997 
L 286.199282 307.444948 
L 284.176744 307.407809 
L 282.154205 307.362232 
L 280.131667 307.308794 
L 278.109128 307.24905 
L 276.086589 307.185367 
L 274.064051 307.120569 
L 272.041512 307.057455 
L 270.018973 306.99831 
L 267.996435 306.944425 
L 265.973896 306.895522 
L 263.951358 306.848702 
L 261.928819 306.796135 
L 259.90628 306.720192 
L 257.883742 306.584028 
L 255.861203 306.315026 
L 253.838665 305.778433 
L 251.816126 304.739826 
L 249.793587 302.819024 
L 247.771049 299.445361 
L 245.74851 293.834426 
L 243.725971 285.016061 
L 241.703433 271.946138 
L 239.680894 253.722734 
L 237.658356 229.895698 
L 235.635817 200.811236 
L 233.613278 167.885885 
L 231.59074 133.682514 
L 229.568201 101.688213 
L 227.545662 75.776215 
L 225.523124 59.449157 
L 223.500585 55.062763 
L 221.478047 63.26662 
L 219.455508 82.845312 
L 217.432969 111.013664 
L 215.410431 144.067297 
L 213.387892 178.179015 
L 211.365353 210.106257 
L 209.342815 237.636602 
L 207.320276 259.71027 
L 205.297738 276.26819 
L 203.275199 287.940925 
L 201.25266 295.704165 
L 199.230122 300.593809 
L 197.207583 303.523433 
L 195.185045 305.202956 
L 193.162506 306.131688 
L 191.139967 306.632376 
L 189.117429 306.898772 
L 187.09489 307.039916 
L 185.072351 307.114002 
L 183.049813 307.151068 
L 181.027274 307.166725 
L 179.004736 307.169771 
L 176.982197 307.166093 
L 174.959658 307.160421 
L 172.93712 307.156905 
L 170.914581 307.159041 
L 168.892042 307.169315 
L 166.869504 307.188835 
L 164.846965 307.217162 
L 162.824427 307.252453 
L 160.801888 307.291897 
L 158.779349 307.33234 
L 156.756811 307.370909 
L 154.734272 307.405487 
L 152.711733 307.434932 
L 150.689195 307.459043 
L 148.666656 307.478336 
L 146.644118 307.493723 
L 144.621579 307.506218 
L 142.59904 307.516712 
L 140.576502 307.525857 
L 138.553963 307.534046 
L 136.531425 307.541453 
L 134.508886 307.548109 
L 132.486347 307.553975 
L 130.463809 307.559002 
L 128.44127 307.563178 
L 126.418731 307.566542 
L 124.396193 307.569186 
L 122.373654 307.571235 
L 120.351116 307.572821 
L 118.328577 307.574056 
L 116.306038 307.575014 
L 114.2835 307.575732 
L 112.260961 307.576223 
L 110.238422 307.576499 
L 108.215884 307.576592 
L 106.193345 307.57657 
L 104.170807 307.576526 
L 102.148268 307.576567 
L 100.125729 307.576781 
L 98.103191 307.577217 
L 96.080652 307.577877 
L 94.058113 307.578712 
L 92.035575 307.579644 
L 90.013036 307.580583 
L 87.990498 307.581451 
L 85.967959 307.582192 
L 83.94542 307.582782 
L 81.922882 307.583219 
L 79.900343 307.583523 
L 77.877805 307.583718 
L 75.855266 307.583831 
L 73.832727 307.58388 
z
" style="fill:#2ca02c;fill-opacity:0.25;"/>
   </g>
   <g id="matplotlib.axis_1">
    <g id="xtick_1">
     <g id="line2d_1">
      <defs>
       <path d="M 0 0 
L 0 3.5 
" id="ma35a6d8c18" style="stroke:#000000;stroke-width:0.8;"/>
      </defs>
      <g>
       <use style="stroke:#000000;stroke-width:0.8;" x="91.36084" xlink:href="#ma35a6d8c18" y="307.584"/>
      </g>
     </g>
     <g id="text_1">
      <!-- −60 -->
      <defs>
       <path d="M 10.59375 35.5 
L 73.1875 35.5 
L 73.1875 27.203125 
L 10.59375 27.203125 
z
" id="DejaVuSans-2212"/>
       <path d="M 33.015625 40.375 
Q 26.375 40.375 22.484375 35.828125 
Q 18.609375 31.296875 18.609375 23.390625 
Q 18.609375 15.53125 22.484375 10.953125 
Q 26.375 6.390625 33.015625 6.390625 
Q 39.65625 6.390625 43.53125 10.953125 
Q 47.40625 15.53125 47.40625 23.390625 
Q 47.40625 31.296875 43.53125 35.828125 
Q 39.65625 40.375 33.015625 40.375 
z
M 52.59375 71.296875 
L 52.59375 62.3125 
Q 48.875 64.0625 45.09375 64.984375 
Q 41.3125 65.921875 37.59375 65.921875 
Q 27.828125 65.921875 22.671875 59.328125 
Q 17.53125 52.734375 16.796875 39.40625 
Q 19.671875 43.65625 24.015625 45.921875 
Q 28.375 48.1875 33.59375 48.1875 
Q 44.578125 48.1875 50.953125 41.515625 
Q 57.328125 34.859375 57.328125 23.390625 
Q 57.328125 12.15625 50.6875 5.359375 
Q 44.046875 -1.421875 33.015625 -1.421875 
Q 20.359375 -1.421875 13.671875 8.265625 
Q 6.984375 17.96875 6.984375 36.375 
Q 6.984375 53.65625 15.1875 63.9375 
Q 23.390625 74.21875 37.203125 74.21875 
Q 40.921875 74.21875 44.703125 73.484375 
Q 48.484375 72.75 52.59375 71.296875 
z
" id="DejaVuSans-36"/>
       <path d="M 31.78125 66.40625 
Q 24.171875 66.40625 20.328125 58.90625 
Q 16.5 51.421875 16.5 36.375 
Q 16.5 21.390625 20.328125 13.890625 
Q 24.171875 6.390625 31.78125 6.390625 
Q 39.453125 6.390625 43.28125 13.890625 
Q 47.125 21.390625 47.125 36.375 
Q 47.125 51.421875 43.28125 58.90625 
Q 39.453125 66.40625 31.78125 66.40625 
z
M 31.78125 74.21875 
Q 44.046875 74.21875 50.515625 64.515625 
Q 56.984375 54.828125 56.984375 36.375 
Q 56.984375 17.96875 50.515625 8.265625 
Q 44.046875 -1.421875 31.78125 -1.421875 
Q 19.53125 -1.421875 13.0625 8.265625 
Q 6.59375 17.96875 6.59375 36.375 
Q 6.59375 54.828125 13.0625 64.515625 
Q 19.53125 74.21875 31.78125 74.21875 
z
" id="DejaVuSans-30"/>
      </defs>
      <g transform="translate(80.808496 322.182437)scale(0.1 -0.1)">
       <use xlink:href="#DejaVuSans-2212"/>
       <use x="83.789062" xlink:href="#DejaVuSans-36"/>
       <use x="147.412109" xlink:href="#DejaVuSans-30"/>
      </g>
     </g>
    </g>
    <g id="xtick_2">
     <g id="line2d_2">
      <g>
       <use style="stroke:#000000;stroke-width:0.8;" x="135.544613" xlink:href="#ma35a6d8c18" y="307.584"/>
      </g>
     </g>
     <g id="text_2">
      <!-- −40 -->
      <defs>
       <path d="M 37.796875 64.3125 
L 12.890625 25.390625 
L 37.796875 25.390625 
z
M 35.203125 72.90625 
L 47.609375 72.90625 
L 47.609375 25.390625 
L 58.015625 25.390625 
L 58.015625 17.1875 
L 47.609375 17.1875 
L 47.609375 0 
L 37.796875 0 
L 37.796875 17.1875 
L 4.890625 17.1875 
L 4.890625 26.703125 
z
" id="DejaVuSans-34"/>
      </defs>
      <g transform="translate(124.992269 322.182437)scale(0.1 -0.1)">
       <use xlink:href="#DejaVuSans-2212"/>
       <use x="83.789062" xlink:href="#DejaVuSans-34"/>
       <use x="147.412109" xlink:href="#DejaVuSans-30"/>
      </g>
     </g>
    </g>
    <g id="xtick_3">
     <g id="line2d_3">
      <g>
       <use style="stroke:#000000;stroke-width:0.8;" x="179.728385" xlink:href="#ma35a6d8c18" y="307.584"/>
      </g>
     </g>
     <g id="text_3">
      <!-- −20 -->
      <defs>
       <path d="M 19.1875 8.296875 
L 53.609375 8.296875 
L 53.609375 0 
L 7.328125 0 
L 7.328125 8.296875 
Q 12.9375 14.109375 22.625 23.890625 
Q 32.328125 33.6875 34.8125 36.53125 
Q 39.546875 41.84375 41.421875 45.53125 
Q 43.3125 49.21875 43.3125 52.78125 
Q 43.3125 58.59375 39.234375 62.25 
Q 35.15625 65.921875 28.609375 65.921875 
Q 23.96875 65.921875 18.8125 64.3125 
Q 13.671875 62.703125 7.8125 59.421875 
L 7.8125 69.390625 
Q 13.765625 71.78125 18.9375 73 
Q 24.125 74.21875 28.421875 74.21875 
Q 39.75 74.21875 46.484375 68.546875 
Q 53.21875 62.890625 53.21875 53.421875 
Q 53.21875 48.921875 51.53125 44.890625 
Q 49.859375 40.875 45.40625 35.40625 
Q 44.1875 33.984375 37.640625 27.21875 
Q 31.109375 20.453125 19.1875 8.296875 
z
" id="DejaVuSans-32"/>
      </defs>
      <g transform="translate(169.176042 322.182437)scale(0.1 -0.1)">
       <use xlink:href="#DejaVuSans-2212"/>
       <use x="83.789062" xlink:href="#DejaVuSans-32"/>
       <use x="147.412109" xlink:href="#DejaVuSans-30"/>
      </g>
     </g>
    </g>
    <g id="xtick_4">
     <g id="line2d_4">
      <g>
       <use style="stroke:#000000;stroke-width:0.8;" x="223.912158" xlink:href="#ma35a6d8c18" y="307.584"/>
      </g>
     </g>
     <g id="text_4">
      <!-- 0 -->
      <g transform="translate(220.730908 322.182437)scale(0.1 -0.1)">
       <use xlink:href="#DejaVuSans-30"/>
      </g>
     </g>
    </g>
    <g id="xtick_5">
     <g id="line2d_5">
      <g>
       <use style="stroke:#000000;stroke-width:0.8;" x="268.095931" xlink:href="#ma35a6d8c18" y="307.584"/>
      </g>
     </g>
     <g id="text_5">
      <!-- 20 -->
      <g transform="translate(261.733431 322.182437)scale(0.1 -0.1)">
       <use xlink:href="#DejaVuSans-32"/>
       <use x="63.623047" xlink:href="#DejaVuSans-30"/>
      </g>
     </g>
    </g>
    <g id="xtick_6">
     <g id="line2d_6">
      <g>
       <use style="stroke:#000000;stroke-width:0.8;" x="312.279704" xlink:href="#ma35a6d8c18" y="307.584"/>
      </g>
     </g>
     <g id="text_6">
      <!-- 40 -->
      <g transform="translate(305.917204 322.182437)scale(0.1 -0.1)">
       <use xlink:href="#DejaVuSans-34"/>
       <use x="63.623047" xlink:href="#DejaVuSans-30"/>
      </g>
     </g>
    </g>
    <g id="xtick_7">
     <g id="line2d_7">
      <g>
       <use style="stroke:#000000;stroke-width:0.8;" x="356.463477" xlink:href="#ma35a6d8c18" y="307.584"/>
      </g>
     </g>
     <g id="text_7">
      <!-- 60 -->
      <g transform="translate(350.100977 322.182437)scale(0.1 -0.1)">
       <use xlink:href="#DejaVuSans-36"/>
       <use x="63.623047" xlink:href="#DejaVuSans-30"/>
      </g>
     </g>
    </g>
    <g id="xtick_8">
     <g id="line2d_8">
      <g>
       <use style="stroke:#000000;stroke-width:0.8;" x="400.64725" xlink:href="#ma35a6d8c18" y="307.584"/>
      </g>
     </g>
     <g id="text_8">
      <!-- 80 -->
      <defs>
       <path d="M 31.78125 34.625 
Q 24.75 34.625 20.71875 30.859375 
Q 16.703125 27.09375 16.703125 20.515625 
Q 16.703125 13.921875 20.71875 10.15625 
Q 24.75 6.390625 31.78125 6.390625 
Q 38.8125 6.390625 42.859375 10.171875 
Q 46.921875 13.96875 46.921875 20.515625 
Q 46.921875 27.09375 42.890625 30.859375 
Q 38.875 34.625 31.78125 34.625 
z
M 21.921875 38.8125 
Q 15.578125 40.375 12.03125 44.71875 
Q 8.5 49.078125 8.5 55.328125 
Q 8.5 64.0625 14.71875 69.140625 
Q 20.953125 74.21875 31.78125 74.21875 
Q 42.671875 74.21875 48.875 69.140625 
Q 55.078125 64.0625 55.078125 55.328125 
Q 55.078125 49.078125 51.53125 44.71875 
Q 48 40.375 41.703125 38.8125 
Q 48.828125 37.15625 52.796875 32.3125 
Q 56.78125 27.484375 56.78125 20.515625 
Q 56.78125 9.90625 50.3125 4.234375 
Q 43.84375 -1.421875 31.78125 -1.421875 
Q 19.734375 -1.421875 13.25 4.234375 
Q 6.78125 9.90625 6.78125 20.515625 
Q 6.78125 27.484375 10.78125 32.3125 
Q 14.796875 37.15625 21.921875 38.8125 
z
M 18.3125 54.390625 
Q 18.3125 48.734375 21.84375 45.5625 
Q 25.390625 42.390625 31.78125 42.390625 
Q 38.140625 42.390625 41.71875 45.5625 
Q 45.3125 48.734375 45.3125 54.390625 
Q 45.3125 60.0625 41.71875 63.234375 
Q 38.140625 66.40625 31.78125 66.40625 
Q 25.390625 66.40625 21.84375 63.234375 
Q 18.3125 60.0625 18.3125 54.390625 
z
" id="DejaVuSans-38"/>
      </defs>
      <g transform="translate(394.28475 322.182437)scale(0.1 -0.1)">
       <use xlink:href="#DejaVuSans-38"/>
       <use x="63.623047" xlink:href="#DejaVuSans-30"/>
      </g>
     </g>
    </g>
    <g id="text_9">
     <!-- elasticity [a.u.] -->
     <defs>
      <path d="M 56.203125 29.59375 
L 56.203125 25.203125 
L 14.890625 25.203125 
Q 15.484375 15.921875 20.484375 11.0625 
Q 25.484375 6.203125 34.421875 6.203125 
Q 39.59375 6.203125 44.453125 7.46875 
Q 49.3125 8.734375 54.109375 11.28125 
L 54.109375 2.78125 
Q 49.265625 0.734375 44.1875 -0.34375 
Q 39.109375 -1.421875 33.890625 -1.421875 
Q 20.796875 -1.421875 13.15625 6.1875 
Q 5.515625 13.8125 5.515625 26.8125 
Q 5.515625 40.234375 12.765625 48.109375 
Q 20.015625 56 32.328125 56 
Q 43.359375 56 49.78125 48.890625 
Q 56.203125 41.796875 56.203125 29.59375 
z
M 47.21875 32.234375 
Q 47.125 39.59375 43.09375 43.984375 
Q 39.0625 48.390625 32.421875 48.390625 
Q 24.90625 48.390625 20.390625 44.140625 
Q 15.875 39.890625 15.1875 32.171875 
z
" id="DejaVuSans-65"/>
      <path d="M 9.421875 75.984375 
L 18.40625 75.984375 
L 18.40625 0 
L 9.421875 0 
z
" id="DejaVuSans-6c"/>
      <path d="M 34.28125 27.484375 
Q 23.390625 27.484375 19.1875 25 
Q 14.984375 22.515625 14.984375 16.5 
Q 14.984375 11.71875 18.140625 8.90625 
Q 21.296875 6.109375 26.703125 6.109375 
Q 34.1875 6.109375 38.703125 11.40625 
Q 43.21875 16.703125 43.21875 25.484375 
L 43.21875 27.484375 
z
M 52.203125 31.203125 
L 52.203125 0 
L 43.21875 0 
L 43.21875 8.296875 
Q 40.140625 3.328125 35.546875 0.953125 
Q 30.953125 -1.421875 24.3125 -1.421875 
Q 15.921875 -1.421875 10.953125 3.296875 
Q 6 8.015625 6 15.921875 
Q 6 25.140625 12.171875 29.828125 
Q 18.359375 34.515625 30.609375 34.515625 
L 43.21875 34.515625 
L 43.21875 35.40625 
Q 43.21875 41.609375 39.140625 45 
Q 35.0625 48.390625 27.6875 48.390625 
Q 23 48.390625 18.546875 47.265625 
Q 14.109375 46.140625 10.015625 43.890625 
L 10.015625 52.203125 
Q 14.9375 54.109375 19.578125 55.046875 
Q 24.21875 56 28.609375 56 
Q 40.484375 56 46.34375 49.84375 
Q 52.203125 43.703125 52.203125 31.203125 
z
" id="DejaVuSans-61"/>
      <path d="M 44.28125 53.078125 
L 44.28125 44.578125 
Q 40.484375 46.53125 36.375 47.5 
Q 32.28125 48.484375 27.875 48.484375 
Q 21.1875 48.484375 17.84375 46.4375 
Q 14.5 44.390625 14.5 40.28125 
Q 14.5 37.15625 16.890625 35.375 
Q 19.28125 33.59375 26.515625 31.984375 
L 29.59375 31.296875 
Q 39.15625 29.25 43.1875 25.515625 
Q 47.21875 21.78125 47.21875 15.09375 
Q 47.21875 7.46875 41.1875 3.015625 
Q 35.15625 -1.421875 24.609375 -1.421875 
Q 20.21875 -1.421875 15.453125 -0.5625 
Q 10.6875 0.296875 5.421875 2 
L 5.421875 11.28125 
Q 10.40625 8.6875 15.234375 7.390625 
Q 20.0625 6.109375 24.8125 6.109375 
Q 31.15625 6.109375 34.5625 8.28125 
Q 37.984375 10.453125 37.984375 14.40625 
Q 37.984375 18.0625 35.515625 20.015625 
Q 33.0625 21.96875 24.703125 23.78125 
L 21.578125 24.515625 
Q 13.234375 26.265625 9.515625 29.90625 
Q 5.8125 33.546875 5.8125 39.890625 
Q 5.8125 47.609375 11.28125 51.796875 
Q 16.75 56 26.8125 56 
Q 31.78125 56 36.171875 55.265625 
Q 40.578125 54.546875 44.28125 53.078125 
z
" id="DejaVuSans-73"/>
      <path d="M 18.3125 70.21875 
L 18.3125 54.6875 
L 36.8125 54.6875 
L 36.8125 47.703125 
L 18.3125 47.703125 
L 18.3125 18.015625 
Q 18.3125 11.328125 20.140625 9.421875 
Q 21.96875 7.515625 27.59375 7.515625 
L 36.8125 7.515625 
L 36.8125 0 
L 27.59375 0 
Q 17.1875 0 13.234375 3.875 
Q 9.28125 7.765625 9.28125 18.015625 
L 9.28125 47.703125 
L 2.6875 47.703125 
L 2.6875 54.6875 
L 9.28125 54.6875 
L 9.28125 70.21875 
z
" id="DejaVuSans-74"/>
      <path d="M 9.421875 54.6875 
L 18.40625 54.6875 
L 18.40625 0 
L 9.421875 0 
z
M 9.421875 75.984375 
L 18.40625 75.984375 
L 18.40625 64.59375 
L 9.421875 64.59375 
z
" id="DejaVuSans-69"/>
      <path d="M 48.78125 52.59375 
L 48.78125 44.1875 
Q 44.96875 46.296875 41.140625 47.34375 
Q 37.3125 48.390625 33.40625 48.390625 
Q 24.65625 48.390625 19.8125 42.84375 
Q 14.984375 37.3125 14.984375 27.296875 
Q 14.984375 17.28125 19.8125 11.734375 
Q 24.65625 6.203125 33.40625 6.203125 
Q 37.3125 6.203125 41.140625 7.25 
Q 44.96875 8.296875 48.78125 10.40625 
L 48.78125 2.09375 
Q 45.015625 0.34375 40.984375 -0.53125 
Q 36.96875 -1.421875 32.421875 -1.421875 
Q 20.0625 -1.421875 12.78125 6.34375 
Q 5.515625 14.109375 5.515625 27.296875 
Q 5.515625 40.671875 12.859375 48.328125 
Q 20.21875 56 33.015625 56 
Q 37.15625 56 41.109375 55.140625 
Q 45.0625 54.296875 48.78125 52.59375 
z
" id="DejaVuSans-63"/>
      <path d="M 32.171875 -5.078125 
Q 28.375 -14.84375 24.75 -17.8125 
Q 21.140625 -20.796875 15.09375 -20.796875 
L 7.90625 -20.796875 
L 7.90625 -13.28125 
L 13.1875 -13.28125 
Q 16.890625 -13.28125 18.9375 -11.515625 
Q 21 -9.765625 23.484375 -3.21875 
L 25.09375 0.875 
L 2.984375 54.6875 
L 12.5 54.6875 
L 29.59375 11.921875 
L 46.6875 54.6875 
L 56.203125 54.6875 
z
" id="DejaVuSans-79"/>
      <path id="DejaVuSans-20"/>
      <path d="M 8.59375 75.984375 
L 29.296875 75.984375 
L 29.296875 69 
L 17.578125 69 
L 17.578125 -6.203125 
L 29.296875 -6.203125 
L 29.296875 -13.1875 
L 8.59375 -13.1875 
z
" id="DejaVuSans-5b"/>
      <path d="M 10.6875 12.40625 
L 21 12.40625 
L 21 0 
L 10.6875 0 
z
" id="DejaVuSans-2e"/>
      <path d="M 8.5 21.578125 
L 8.5 54.6875 
L 17.484375 54.6875 
L 17.484375 21.921875 
Q 17.484375 14.15625 20.5 10.265625 
Q 23.53125 6.390625 29.59375 6.390625 
Q 36.859375 6.390625 41.078125 11.03125 
Q 45.3125 15.671875 45.3125 23.6875 
L 45.3125 54.6875 
L 54.296875 54.6875 
L 54.296875 0 
L 45.3125 0 
L 45.3125 8.40625 
Q 42.046875 3.421875 37.71875 1 
Q 33.40625 -1.421875 27.6875 -1.421875 
Q 18.265625 -1.421875 13.375 4.4375 
Q 8.5 10.296875 8.5 21.578125 
z
M 31.109375 56 
z
" id="DejaVuSans-75"/>
      <path d="M 30.421875 75.984375 
L 30.421875 -13.1875 
L 9.71875 -13.1875 
L 9.71875 -6.203125 
L 21.390625 -6.203125 
L 21.390625 69 
L 9.71875 69 
L 9.71875 75.984375 
z
" id="DejaVuSans-5d"/>
     </defs>
     <g transform="translate(198.717031 335.860562)scale(0.1 -0.1)">
      <use xlink:href="#DejaVuSans-65"/>
      <use x="61.523438" xlink:href="#DejaVuSans-6c"/>
      <use x="89.306641" xlink:href="#DejaVuSans-61"/>
      <use x="150.585938" xlink:href="#DejaVuSans-73"/>
      <use x="202.685547" xlink:href="#DejaVuSans-74"/>
      <use x="241.894531" xlink:href="#DejaVuSans-69"/>
      <use x="269.677734" xlink:href="#DejaVuSans-63"/>
      <use x="324.658203" xlink:href="#DejaVuSans-69"/>
      <use x="352.441406" xlink:href="#DejaVuSans-74"/>
      <use x="391.650391" xlink:href="#DejaVuSans-79"/>
      <use x="450.830078" xlink:href="#DejaVuSans-20"/>
      <use x="482.617188" xlink:href="#DejaVuSans-5b"/>
      <use x="521.630859" xlink:href="#DejaVuSans-61"/>
      <use x="582.910156" xlink:href="#DejaVuSans-2e"/>
      <use x="614.697266" xlink:href="#DejaVuSans-75"/>
      <use x="678.076172" xlink:href="#DejaVuSans-2e"/>
      <use x="709.863281" xlink:href="#DejaVuSans-5d"/>
     </g>
    </g>
   </g>
   <g id="matplotlib.axis_2">
    <g id="ytick_1">
     <g id="line2d_9">
      <defs>
       <path d="M 0 0 
L -3.5 0 
" id="m24898efa84" style="stroke:#000000;stroke-width:0.8;"/>
      </defs>
      <g>
       <use style="stroke:#000000;stroke-width:0.8;" x="57.6" xlink:href="#m24898efa84" y="307.584"/>
      </g>
     </g>
     <g id="text_10">
      <!-- 0.00 -->
      <g transform="translate(28.334375 311.383219)scale(0.1 -0.1)">
       <use xlink:href="#DejaVuSans-30"/>
       <use x="63.623047" xlink:href="#DejaVuSans-2e"/>
       <use x="95.410156" xlink:href="#DejaVuSans-30"/>
       <use x="159.033203" xlink:href="#DejaVuSans-30"/>
      </g>
     </g>
    </g>
    <g id="ytick_2">
     <g id="line2d_10">
      <g>
       <use style="stroke:#000000;stroke-width:0.8;" x="57.6" xlink:href="#m24898efa84" y="255.397202"/>
      </g>
     </g>
     <g id="text_11">
      <!-- 0.02 -->
      <g transform="translate(28.334375 259.19642)scale(0.1 -0.1)">
       <use xlink:href="#DejaVuSans-30"/>
       <use x="63.623047" xlink:href="#DejaVuSans-2e"/>
       <use x="95.410156" xlink:href="#DejaVuSans-30"/>
       <use x="159.033203" xlink:href="#DejaVuSans-32"/>
      </g>
     </g>
    </g>
    <g id="ytick_3">
     <g id="line2d_11">
      <g>
       <use style="stroke:#000000;stroke-width:0.8;" x="57.6" xlink:href="#m24898efa84" y="203.210403"/>
      </g>
     </g>
     <g id="text_12">
      <!-- 0.04 -->
      <g transform="translate(28.334375 207.009622)scale(0.1 -0.1)">
       <use xlink:href="#DejaVuSans-30"/>
       <use x="63.623047" xlink:href="#DejaVuSans-2e"/>
       <use x="95.410156" xlink:href="#DejaVuSans-30"/>
       <use x="159.033203" xlink:href="#DejaVuSans-34"/>
      </g>
     </g>
    </g>
    <g id="ytick_4">
     <g id="line2d_12">
      <g>
       <use style="stroke:#000000;stroke-width:0.8;" x="57.6" xlink:href="#m24898efa84" y="151.023605"/>
      </g>
     </g>
     <g id="text_13">
      <!-- 0.06 -->
      <g transform="translate(28.334375 154.822823)scale(0.1 -0.1)">
       <use xlink:href="#DejaVuSans-30"/>
       <use x="63.623047" xlink:href="#DejaVuSans-2e"/>
       <use x="95.410156" xlink:href="#DejaVuSans-30"/>
       <use x="159.033203" xlink:href="#DejaVuSans-36"/>
      </g>
     </g>
    </g>
    <g id="ytick_5">
     <g id="line2d_13">
      <g>
       <use style="stroke:#000000;stroke-width:0.8;" x="57.6" xlink:href="#m24898efa84" y="98.836806"/>
      </g>
     </g>
     <g id="text_14">
      <!-- 0.08 -->
      <g transform="translate(28.334375 102.636025)scale(0.1 -0.1)">
       <use xlink:href="#DejaVuSans-30"/>
       <use x="63.623047" xlink:href="#DejaVuSans-2e"/>
       <use x="95.410156" xlink:href="#DejaVuSans-30"/>
       <use x="159.033203" xlink:href="#DejaVuSans-38"/>
      </g>
     </g>
    </g>
    <g id="ytick_6">
     <g id="line2d_14">
      <g>
       <use style="stroke:#000000;stroke-width:0.8;" x="57.6" xlink:href="#m24898efa84" y="46.650008"/>
      </g>
     </g>
     <g id="text_15">
      <!-- 0.10 -->
      <defs>
       <path d="M 12.40625 8.296875 
L 28.515625 8.296875 
L 28.515625 63.921875 
L 10.984375 60.40625 
L 10.984375 69.390625 
L 28.421875 72.90625 
L 38.28125 72.90625 
L 38.28125 8.296875 
L 54.390625 8.296875 
L 54.390625 0 
L 12.40625 0 
z
" id="DejaVuSans-31"/>
      </defs>
      <g transform="translate(28.334375 50.449226)scale(0.1 -0.1)">
       <use xlink:href="#DejaVuSans-30"/>
       <use x="63.623047" xlink:href="#DejaVuSans-2e"/>
       <use x="95.410156" xlink:href="#DejaVuSans-31"/>
       <use x="159.033203" xlink:href="#DejaVuSans-30"/>
      </g>
     </g>
    </g>
    <g id="text_16">
     <!-- density -->
     <defs>
      <path d="M 45.40625 46.390625 
L 45.40625 75.984375 
L 54.390625 75.984375 
L 54.390625 0 
L 45.40625 0 
L 45.40625 8.203125 
Q 42.578125 3.328125 38.25 0.953125 
Q 33.9375 -1.421875 27.875 -1.421875 
Q 17.96875 -1.421875 11.734375 6.484375 
Q 5.515625 14.40625 5.515625 27.296875 
Q 5.515625 40.1875 11.734375 48.09375 
Q 17.96875 56 27.875 56 
Q 33.9375 56 38.25 53.625 
Q 42.578125 51.265625 45.40625 46.390625 
z
M 14.796875 27.296875 
Q 14.796875 17.390625 18.875 11.75 
Q 22.953125 6.109375 30.078125 6.109375 
Q 37.203125 6.109375 41.296875 11.75 
Q 45.40625 17.390625 45.40625 27.296875 
Q 45.40625 37.203125 41.296875 42.84375 
Q 37.203125 48.484375 30.078125 48.484375 
Q 22.953125 48.484375 18.875 42.84375 
Q 14.796875 37.203125 14.796875 27.296875 
z
" id="DejaVuSans-64"/>
      <path d="M 54.890625 33.015625 
L 54.890625 0 
L 45.90625 0 
L 45.90625 32.71875 
Q 45.90625 40.484375 42.875 44.328125 
Q 39.84375 48.1875 33.796875 48.1875 
Q 26.515625 48.1875 22.3125 43.546875 
Q 18.109375 38.921875 18.109375 30.90625 
L 18.109375 0 
L 9.078125 0 
L 9.078125 54.6875 
L 18.109375 54.6875 
L 18.109375 46.1875 
Q 21.34375 51.125 25.703125 53.5625 
Q 30.078125 56 35.796875 56 
Q 45.21875 56 50.046875 50.171875 
Q 54.890625 44.34375 54.890625 33.015625 
z
" id="DejaVuSans-6e"/>
     </defs>
     <g transform="translate(22.254687 192.860812)rotate(-90)scale(0.1 -0.1)">
      <use xlink:href="#DejaVuSans-64"/>
      <use x="63.476562" xlink:href="#DejaVuSans-65"/>
      <use x="125" xlink:href="#DejaVuSans-6e"/>
      <use x="188.378906" xlink:href="#DejaVuSans-73"/>
      <use x="240.478516" xlink:href="#DejaVuSans-69"/>
      <use x="268.261719" xlink:href="#DejaVuSans-74"/>
      <use x="307.470703" xlink:href="#DejaVuSans-79"/>
     </g>
    </g>
   </g>
   <g id="line2d_15">
    <path clip-path="url(#p8cac2fa29c)" d="M 83.601425 307.582123 
L 149.194706 307.491204 
L 156.482848 307.241605 
L 167.415062 306.71194 
L 172.881168 306.723782 
L 187.457453 307.101499 
L 191.101524 306.837678 
L 192.92356 306.474538 
L 194.745595 305.800108 
L 196.567631 304.601546 
L 198.389666 302.555613 
L 200.211702 299.203634 
L 202.033738 293.942418 
L 203.855773 286.046951 
L 205.677809 274.741073 
L 207.499844 259.326205 
L 209.32188 239.363838 
L 211.143915 214.88625 
L 212.965951 186.587391 
L 216.610022 125.116839 
L 218.432058 96.868408 
L 220.254093 74.058386 
L 222.076129 59.232892 
L 223.898164 54.144 
L 225.7202 59.408206 
L 227.542236 74.383138 
L 229.364271 97.296682 
L 231.186307 125.592671 
L 234.830378 187.005643 
L 236.652413 215.227839 
L 238.474449 239.621394 
L 240.296484 259.508496 
L 242.11852 274.867675 
L 243.940556 286.142072 
L 245.762591 294.029466 
L 247.584627 299.301535 
L 249.406662 302.67717 
L 251.228698 304.753584 
L 253.050733 305.984813 
L 254.872769 306.691334 
L 256.694805 307.085056 
L 260.338876 307.407967 
L 265.804982 307.458241 
L 273.093125 307.216312 
L 282.203303 306.813434 
L 287.669409 306.842614 
L 296.779587 307.276192 
L 304.067729 307.51094 
L 314.999943 307.581182 
L 314.999943 307.581182 
" style="fill:none;stroke:#1f77b4;stroke-linecap:square;stroke-width:1.5;"/>
   </g>
   <g id="line2d_16">
    <path clip-path="url(#p8cac2fa29c)" d="M 133.502363 307.583825 
L 175.23227 307.481583 
L 183.578251 307.261534 
L 187.751242 307.013078 
L 189.837737 306.78601 
L 191.924233 306.398354 
L 194.010728 305.701012 
L 196.097223 304.433113 
L 198.183719 302.171548 
L 200.270214 298.283879 
L 202.356709 291.908883 
L 204.443205 282.000217 
L 206.5297 267.47043 
L 208.616195 247.454749 
L 210.702691 221.671806 
L 212.789186 190.799078 
L 216.962177 122.553416 
L 219.048672 92.19888 
L 221.135167 69.710333 
L 223.221663 58.373752 
L 225.308158 59.924626 
L 227.394654 74.110522 
L 229.481149 98.759442 
L 231.567644 130.32842 
L 235.740635 198.240121 
L 237.82713 228.016874 
L 239.913626 252.485091 
L 242.000121 271.216898 
L 244.086616 284.649172 
L 246.173112 293.708037 
L 248.259607 299.472429 
L 250.346102 302.942159 
L 252.432598 304.921058 
L 254.519093 305.990432 
L 256.605589 306.536015 
L 258.692084 306.795924 
L 262.865075 306.950867 
L 277.470542 307.120225 
L 292.07601 307.390462 
L 327.546431 307.558307 
L 354.67087 307.52813 
L 375.535824 307.541595 
L 398.487273 307.583791 
L 398.487273 307.583791 
" style="fill:none;stroke:#ff7f0e;stroke-linecap:square;stroke-width:1.5;"/>
   </g>
   <g id="line2d_17">
    <path clip-path="url(#p8cac2fa29c)" d="M 73.832727 307.58388 
L 148.666656 307.478336 
L 164.846965 307.217162 
L 174.959658 307.160421 
L 185.072351 307.114002 
L 189.117429 306.898772 
L 191.139967 306.632376 
L 193.162506 306.131688 
L 195.185045 305.202956 
L 197.207583 303.523433 
L 199.230122 300.593809 
L 201.25266 295.704165 
L 203.275199 287.940925 
L 205.297738 276.26819 
L 207.320276 259.71027 
L 209.342815 237.636602 
L 211.365353 210.106257 
L 213.387892 178.179015 
L 217.432969 111.013664 
L 219.455508 82.845312 
L 221.478047 63.26662 
L 223.500585 55.062763 
L 225.523124 59.449157 
L 227.545662 75.776215 
L 229.568201 101.688213 
L 231.59074 133.682514 
L 235.635817 200.811236 
L 237.658356 229.895698 
L 239.680894 253.722734 
L 241.703433 271.946138 
L 243.725971 285.016061 
L 245.74851 293.834426 
L 247.771049 299.445361 
L 249.793587 302.819024 
L 251.816126 304.739826 
L 253.838665 305.778433 
L 255.861203 306.315026 
L 257.883742 306.584028 
L 261.928819 306.796135 
L 292.266898 307.51241 
L 320.582439 307.582369 
L 330.695132 307.583875 
L 330.695132 307.583875 
" style="fill:none;stroke:#2ca02c;stroke-linecap:square;stroke-width:1.5;"/>
   </g>
   <g id="patch_3">
    <path d="M 57.6 307.584 
L 57.6 41.472 
" style="fill:none;stroke:#000000;stroke-linecap:square;stroke-linejoin:miter;stroke-width:0.8;"/>
   </g>
   <g id="patch_4">
    <path d="M 414.72 307.584 
L 414.72 41.472 
" style="fill:none;stroke:#000000;stroke-linecap:square;stroke-linejoin:miter;stroke-width:0.8;"/>
   </g>
   <g id="patch_5">
    <path d="M 57.6 307.584 
L 414.72 307.584 
" style="fill:none;stroke:#000000;stroke-linecap:square;stroke-linejoin:miter;stroke-width:0.8;"/>
   </g>
   <g id="patch_6">
    <path d="M 57.6 41.472 
L 414.72 41.472 
" style="fill:none;stroke:#000000;stroke-linecap:square;stroke-linejoin:miter;stroke-width:0.8;"/>
   </g>
   <g id="legend_1">
    <g id="patch_7">
     <path d="M 317.329375 93.506375 
L 407.72 93.506375 
Q 409.72 93.506375 409.72 91.506375 
L 409.72 48.472 
Q 409.72 46.472 407.72 46.472 
L 317.329375 46.472 
Q 315.329375 46.472 315.329375 48.472 
L 315.329375 91.506375 
Q 315.329375 93.506375 317.329375 93.506375 
z
" style="fill:#ffffff;opacity:0.8;stroke:#cccccc;stroke-linejoin:miter;"/>
    </g>
    <g id="line2d_18">
     <path d="M 319.329375 54.570438 
L 339.329375 54.570438 
" style="fill:none;stroke:#1f77b4;stroke-linecap:square;stroke-width:1.5;"/>
    </g>
    <g id="line2d_19"/>
    <g id="text_17">
     <!-- ERR260275 -->
     <defs>
      <path d="M 9.8125 72.90625 
L 55.90625 72.90625 
L 55.90625 64.59375 
L 19.671875 64.59375 
L 19.671875 43.015625 
L 54.390625 43.015625 
L 54.390625 34.71875 
L 19.671875 34.71875 
L 19.671875 8.296875 
L 56.78125 8.296875 
L 56.78125 0 
L 9.8125 0 
z
" id="DejaVuSans-45"/>
      <path d="M 44.390625 34.1875 
Q 47.5625 33.109375 50.5625 29.59375 
Q 53.5625 26.078125 56.59375 19.921875 
L 66.609375 0 
L 56 0 
L 46.6875 18.703125 
Q 43.0625 26.03125 39.671875 28.421875 
Q 36.28125 30.8125 30.421875 30.8125 
L 19.671875 30.8125 
L 19.671875 0 
L 9.8125 0 
L 9.8125 72.90625 
L 32.078125 72.90625 
Q 44.578125 72.90625 50.734375 67.671875 
Q 56.890625 62.453125 56.890625 51.90625 
Q 56.890625 45.015625 53.6875 40.46875 
Q 50.484375 35.9375 44.390625 34.1875 
z
M 19.671875 64.796875 
L 19.671875 38.921875 
L 32.078125 38.921875 
Q 39.203125 38.921875 42.84375 42.21875 
Q 46.484375 45.515625 46.484375 51.90625 
Q 46.484375 58.296875 42.84375 61.546875 
Q 39.203125 64.796875 32.078125 64.796875 
z
" id="DejaVuSans-52"/>
      <path d="M 8.203125 72.90625 
L 55.078125 72.90625 
L 55.078125 68.703125 
L 28.609375 0 
L 18.3125 0 
L 43.21875 64.59375 
L 8.203125 64.59375 
z
" id="DejaVuSans-37"/>
      <path d="M 10.796875 72.90625 
L 49.515625 72.90625 
L 49.515625 64.59375 
L 19.828125 64.59375 
L 19.828125 46.734375 
Q 21.96875 47.46875 24.109375 47.828125 
Q 26.265625 48.1875 28.421875 48.1875 
Q 40.625 48.1875 47.75 41.5 
Q 54.890625 34.8125 54.890625 23.390625 
Q 54.890625 11.625 47.5625 5.09375 
Q 40.234375 -1.421875 26.90625 -1.421875 
Q 22.3125 -1.421875 17.546875 -0.640625 
Q 12.796875 0.140625 7.71875 1.703125 
L 7.71875 11.625 
Q 12.109375 9.234375 16.796875 8.0625 
Q 21.484375 6.890625 26.703125 6.890625 
Q 35.15625 6.890625 40.078125 11.328125 
Q 45.015625 15.765625 45.015625 23.390625 
Q 45.015625 31 40.078125 35.4375 
Q 35.15625 39.890625 26.703125 39.890625 
Q 22.75 39.890625 18.8125 39.015625 
Q 14.890625 38.140625 10.796875 36.28125 
z
" id="DejaVuSans-35"/>
     </defs>
     <g transform="translate(347.329375 58.070438)scale(0.1 -0.1)">
      <use xlink:href="#DejaVuSans-45"/>
      <use x="63.183594" xlink:href="#DejaVuSans-52"/>
      <use x="132.666016" xlink:href="#DejaVuSans-52"/>
      <use x="202.148438" xlink:href="#DejaVuSans-32"/>
      <use x="265.771484" xlink:href="#DejaVuSans-36"/>
      <use x="329.394531" xlink:href="#DejaVuSans-30"/>
      <use x="393.017578" xlink:href="#DejaVuSans-32"/>
      <use x="456.640625" xlink:href="#DejaVuSans-37"/>
      <use x="520.263672" xlink:href="#DejaVuSans-35"/>
     </g>
    </g>
    <g id="line2d_20">
     <path d="M 319.329375 69.248563 
L 339.329375 69.248563 
" style="fill:none;stroke:#ff7f0e;stroke-linecap:square;stroke-width:1.5;"/>
    </g>
    <g id="line2d_21"/>
    <g id="text_18">
     <!-- ERR260214 -->
     <g transform="translate(347.329375 72.748563)scale(0.1 -0.1)">
      <use xlink:href="#DejaVuSans-45"/>
      <use x="63.183594" xlink:href="#DejaVuSans-52"/>
      <use x="132.666016" xlink:href="#DejaVuSans-52"/>
      <use x="202.148438" xlink:href="#DejaVuSans-32"/>
      <use x="265.771484" xlink:href="#DejaVuSans-36"/>
      <use x="329.394531" xlink:href="#DejaVuSans-30"/>
      <use x="393.017578" xlink:href="#DejaVuSans-32"/>
      <use x="456.640625" xlink:href="#DejaVuSans-31"/>
      <use x="520.263672" xlink:href="#DejaVuSans-34"/>
     </g>
    </g>
    <g id="line2d_22">
     <path d="M 319.329375 83.926688 
L 339.329375 83.926688 
" style="fill:none;stroke:#2ca02c;stroke-linecap:square;stroke-width:1.5;"/>
    </g>
    <g id="line2d_23"/>
    <g id="text_19">
     <!-- ERR260174 -->
     <g transform="translate(347.329375 87.426688)scale(0.1 -0.1)">
      <use xlink:href="#DejaVuSans-45"/>
      <use x="63.183594" xlink:href="#DejaVuSans-52"/>
      <use x="132.666016" xlink:href="#DejaVuSans-52"/>
      <use x="202.148438" xlink:href="#DejaVuSans-32"/>
      <use x="265.771484" xlink:href="#DejaVuSans-36"/>
      <use x="329.394531" xlink:href="#DejaVuSans-30"/>
      <use x="393.017578" xlink:href="#DejaVuSans-31"/>
      <use x="456.640625" xlink:href="#DejaVuSans-37"/>
      <use x="520.263672" xlink:href="#DejaVuSans-34"/>
     </g>
    </g>
   </g>
  </g>
 </g>
 <defs>
  <clipPath id="p8cac2fa29c">
   <rect height="266.112" width="357.12" x="57.6" y="41.472"/>
  </clipPath>
 </defs>
</svg>
