<?xml version="1.0" encoding="utf-8" standalone="no"?>
<!DOCTYPE svg PUBLIC "-//W3C//DTD SVG 1.1//EN"
  "http://www.w3.org/Graphics/SVG/1.1/DTD/svg11.dtd">
<!-- Created with matplotlib (http://matplotlib.org/) -->
<svg height="345.6pt" version="1.1" viewBox="0 0 460.8 345.6" width="460.8pt" xmlns="http://www.w3.org/2000/svg" xmlns:xlink="http://www.w3.org/1999/xlink">
 <defs>
  <style type="text/css">
*{stroke-linecap:butt;stroke-linejoin:round;}
  </style>
 </defs>
 <g id="figure_1">
  <g id="patch_1">
   <path d="M 0 345.6 
L 460.8 345.6 
L 460.8 0 
L 0 0 
z
" style="fill:#ffffff;"/>
  </g>
  <g id="axes_1">
   <g id="patch_2">
    <path d="M 57.6 307.584 
L 414.72 307.584 
L 414.72 41.472 
L 57.6 41.472 
z
" style="fill:#ffffff;"/>
   </g>
   <g id="PolyCollection_1">
    <path clip-path="url(#p512008986b)" d="M 126.246349 307.583421 
L 126.246349 307.584 
L 127.223508 307.584 
L 128.200667 307.584 
L 129.177827 307.584 
L 130.154986 307.584 
L 131.132145 307.584 
L 132.109305 307.584 
L 133.086464 307.584 
L 134.063623 307.584 
L 135.040782 307.584 
L 136.017942 307.584 
L 136.995101 307.584 
L 137.97226 307.584 
L 138.949419 307.584 
L 139.926579 307.584 
L 140.903738 307.584 
L 141.880897 307.584 
L 142.858057 307.584 
L 143.835216 307.584 
L 144.812375 307.584 
L 145.789534 307.584 
L 146.766694 307.584 
L 147.743853 307.584 
L 148.721012 307.584 
L 149.698171 307.584 
L 150.675331 307.584 
L 151.65249 307.584 
L 152.629649 307.584 
L 153.606809 307.584 
L 154.583968 307.584 
L 155.561127 307.584 
L 156.538286 307.584 
L 157.515446 307.584 
L 158.492605 307.584 
L 159.469764 307.584 
L 160.446923 307.584 
L 161.424083 307.584 
L 162.401242 307.584 
L 163.378401 307.584 
L 164.355561 307.584 
L 165.33272 307.584 
L 166.309879 307.584 
L 167.287038 307.584 
L 168.264198 307.584 
L 169.241357 307.584 
L 170.218516 307.584 
L 171.195675 307.584 
L 172.172835 307.584 
L 173.149994 307.584 
L 174.127153 307.584 
L 175.104312 307.584 
L 176.081472 307.584 
L 177.058631 307.584 
L 178.03579 307.584 
L 179.01295 307.584 
L 179.990109 307.584 
L 180.967268 307.584 
L 181.944427 307.584 
L 182.921587 307.584 
L 183.898746 307.584 
L 184.875905 307.584 
L 185.853064 307.584 
L 186.830224 307.584 
L 187.807383 307.584 
L 188.784542 307.584 
L 189.761702 307.584 
L 190.738861 307.584 
L 191.71602 307.584 
L 192.693179 307.584 
L 193.670339 307.584 
L 194.647498 307.584 
L 195.624657 307.584 
L 196.601816 307.584 
L 197.578976 307.584 
L 198.556135 307.584 
L 199.533294 307.584 
L 200.510454 307.584 
L 201.487613 307.584 
L 202.464772 307.584 
L 203.441931 307.584 
L 204.419091 307.584 
L 205.39625 307.584 
L 206.373409 307.584 
L 207.350568 307.584 
L 208.327728 307.584 
L 209.304887 307.584 
L 210.282046 307.584 
L 211.259206 307.584 
L 212.236365 307.584 
L 213.213524 307.584 
L 214.190683 307.584 
L 215.167843 307.584 
L 216.145002 307.584 
L 217.122161 307.584 
L 218.09932 307.584 
L 219.07648 307.584 
L 220.053639 307.584 
L 221.030798 307.584 
L 222.007957 307.584 
L 222.985117 307.584 
L 223.962276 307.584 
L 224.939435 307.584 
L 225.916595 307.584 
L 226.893754 307.584 
L 227.870913 307.584 
L 228.848072 307.584 
L 229.825232 307.584 
L 230.802391 307.584 
L 231.77955 307.584 
L 232.756709 307.584 
L 233.733869 307.584 
L 234.711028 307.584 
L 235.688187 307.584 
L 236.665347 307.584 
L 237.642506 307.584 
L 238.619665 307.584 
L 239.596824 307.584 
L 240.573984 307.584 
L 241.551143 307.584 
L 242.528302 307.584 
L 243.505461 307.584 
L 244.482621 307.584 
L 245.45978 307.584 
L 246.436939 307.584 
L 247.414099 307.584 
L 248.391258 307.584 
L 249.368417 307.584 
L 250.345576 307.584 
L 250.345576 307.582991 
L 250.345576 307.582991 
L 249.368417 307.582167 
L 248.391258 307.580698 
L 247.414099 307.578195 
L 246.436939 307.574078 
L 245.45978 307.567524 
L 244.482621 307.557397 
L 243.505461 307.542191 
L 242.528302 307.519957 
L 241.551143 307.488232 
L 240.573984 307.44395 
L 239.596824 307.383281 
L 238.619665 307.301348 
L 237.642506 307.191672 
L 236.665347 307.045106 
L 235.688187 306.847897 
L 234.711028 306.578338 
L 233.733869 306.201299 
L 232.756709 305.659862 
L 231.77955 304.863423 
L 230.802391 303.672162 
L 229.825232 301.878909 
L 228.848072 299.191235 
L 227.870913 295.218988 
L 226.893754 289.474867 
L 225.916595 281.397242 
L 224.939435 270.403785 
L 223.962276 255.980507 
L 222.985117 237.80281 
L 222.007957 215.873905 
L 221.030798 190.653974 
L 220.053639 163.144878 
L 219.07648 134.894594 
L 218.09932 107.8961 
L 217.122161 84.377092 
L 216.145002 66.50526 
L 215.167843 56.060796 
L 214.190683 54.144 
L 213.213524 60.984424 
L 212.236365 75.897335 
L 211.259206 97.398686 
L 210.282046 123.451578 
L 209.304887 151.787117 
L 208.327728 180.229408 
L 207.350568 206.960838 
L 206.373409 230.685981 
L 205.39625 250.681705 
L 204.419091 266.748235 
L 203.441931 279.093668 
L 202.464772 288.190194 
L 201.487613 294.635497 
L 200.510454 299.041594 
L 199.533294 301.960666 
L 198.556135 303.846887 
L 197.578976 305.046704 
L 196.601816 305.807667 
L 195.624657 306.296555 
L 194.647498 306.619859 
L 193.670339 306.842391 
L 192.693179 307.002093 
L 191.71602 307.120688 
L 190.738861 307.210717 
L 189.761702 307.279817 
L 188.784542 307.333093 
L 187.807383 307.374324 
L 186.830224 307.406493 
L 185.853064 307.431987 
L 184.875905 307.452667 
L 183.898746 307.469907 
L 182.921587 307.48465 
L 181.944427 307.497478 
L 180.967268 307.508707 
L 179.990109 307.518475 
L 179.01295 307.526834 
L 178.03579 307.533816 
L 177.058631 307.539483 
L 176.081472 307.543947 
L 175.104312 307.547379 
L 174.127153 307.549987 
L 173.149994 307.551993 
L 172.172835 307.553602 
L 171.195675 307.554977 
L 170.218516 307.556225 
L 169.241357 307.557393 
L 168.264198 307.558485 
L 167.287038 307.559478 
L 166.309879 307.560348 
L 165.33272 307.561088 
L 164.355561 307.561719 
L 163.378401 307.56229 
L 162.401242 307.56287 
L 161.424083 307.56353 
L 160.446923 307.564333 
L 159.469764 307.565318 
L 158.492605 307.566498 
L 157.515446 307.567858 
L 156.538286 307.569358 
L 155.561127 307.570942 
L 154.583968 307.572542 
L 153.606809 307.574083 
L 152.629649 307.575494 
L 151.65249 307.576708 
L 150.675331 307.577672 
L 149.698171 307.57835 
L 148.721012 307.57873 
L 147.743853 307.578827 
L 146.766694 307.578683 
L 145.789534 307.578366 
L 144.812375 307.577959 
L 143.835216 307.577555 
L 142.858057 307.57724 
L 141.880897 307.577085 
L 140.903738 307.577136 
L 139.926579 307.577408 
L 138.949419 307.577885 
L 137.97226 307.578526 
L 136.995101 307.579275 
L 136.017942 307.580068 
L 135.040782 307.580845 
L 134.063623 307.581561 
L 133.086464 307.582181 
L 132.109305 307.582691 
L 131.132145 307.583087 
L 130.154986 307.583373 
L 129.177827 307.583558 
L 128.200667 307.583641 
L 127.223508 307.58361 
L 126.246349 307.583421 
z
" style="fill:#1f77b4;fill-opacity:0.25;"/>
   </g>
   <g id="PolyCollection_2">
    <path clip-path="url(#p512008986b)" d="M 73.832727 307.5839 
L 73.832727 307.584 
L 75.950606 307.584 
L 78.068484 307.584 
L 80.186362 307.584 
L 82.304241 307.584 
L 84.422119 307.584 
L 86.539997 307.584 
L 88.657875 307.584 
L 90.775754 307.584 
L 92.893632 307.584 
L 95.01151 307.584 
L 97.129389 307.584 
L 99.247267 307.584 
L 101.365145 307.584 
L 103.483024 307.584 
L 105.600902 307.584 
L 107.71878 307.584 
L 109.836659 307.584 
L 111.954537 307.584 
L 114.072415 307.584 
L 116.190293 307.584 
L 118.308172 307.584 
L 120.42605 307.584 
L 122.543928 307.584 
L 124.661807 307.584 
L 126.779685 307.584 
L 128.897563 307.584 
L 131.015442 307.584 
L 133.13332 307.584 
L 135.251198 307.584 
L 137.369077 307.584 
L 139.486955 307.584 
L 141.604833 307.584 
L 143.722711 307.584 
L 145.84059 307.584 
L 147.958468 307.584 
L 150.076346 307.584 
L 152.194225 307.584 
L 154.312103 307.584 
L 156.429981 307.584 
L 158.54786 307.584 
L 160.665738 307.584 
L 162.783616 307.584 
L 164.901495 307.584 
L 167.019373 307.584 
L 169.137251 307.584 
L 171.255129 307.584 
L 173.373008 307.584 
L 175.490886 307.584 
L 177.608764 307.584 
L 179.726643 307.584 
L 181.844521 307.584 
L 183.962399 307.584 
L 186.080278 307.584 
L 188.198156 307.584 
L 190.316034 307.584 
L 192.433913 307.584 
L 194.551791 307.584 
L 196.669669 307.584 
L 198.787547 307.584 
L 200.905426 307.584 
L 203.023304 307.584 
L 205.141182 307.584 
L 207.259061 307.584 
L 209.376939 307.584 
L 211.494817 307.584 
L 213.612696 307.584 
L 215.730574 307.584 
L 217.848452 307.584 
L 219.966331 307.584 
L 222.084209 307.584 
L 224.202087 307.584 
L 226.319966 307.584 
L 228.437844 307.584 
L 230.555722 307.584 
L 232.6736 307.584 
L 234.791479 307.584 
L 236.909357 307.584 
L 239.027235 307.584 
L 241.145114 307.584 
L 243.262992 307.584 
L 245.38087 307.584 
L 247.498749 307.584 
L 249.616627 307.584 
L 251.734505 307.584 
L 253.852384 307.584 
L 255.970262 307.584 
L 258.08814 307.584 
L 260.206018 307.584 
L 262.323897 307.584 
L 264.441775 307.584 
L 266.559653 307.584 
L 268.677532 307.584 
L 270.79541 307.584 
L 272.913288 307.584 
L 275.031167 307.584 
L 277.149045 307.584 
L 279.266923 307.584 
L 281.384802 307.584 
L 283.50268 307.584 
L 285.620558 307.584 
L 287.738436 307.584 
L 289.856315 307.584 
L 291.974193 307.584 
L 294.092071 307.584 
L 296.20995 307.584 
L 298.327828 307.584 
L 300.445706 307.584 
L 302.563585 307.584 
L 304.681463 307.584 
L 306.799341 307.584 
L 308.91722 307.584 
L 311.035098 307.584 
L 313.152976 307.584 
L 315.270854 307.584 
L 317.388733 307.584 
L 319.506611 307.584 
L 321.624489 307.584 
L 323.742368 307.584 
L 325.860246 307.584 
L 327.978124 307.584 
L 330.096003 307.584 
L 332.213881 307.584 
L 334.331759 307.584 
L 336.449638 307.584 
L 338.567516 307.584 
L 340.685394 307.584 
L 342.803272 307.584 
L 342.803272 307.5839 
L 342.803272 307.5839 
L 340.685394 307.58374 
L 338.567516 307.583307 
L 336.449638 307.58243 
L 334.331759 307.58102 
L 332.213881 307.579262 
L 330.096003 307.577691 
L 327.978124 307.576963 
L 325.860246 307.577421 
L 323.742368 307.578842 
L 321.624489 307.5806 
L 319.506611 307.58209 
L 317.388733 307.582986 
L 315.270854 307.58318 
L 313.152976 307.582518 
L 311.035098 307.580578 
L 308.91722 307.576563 
L 306.799341 307.569149 
L 304.681463 307.555915 
L 302.563585 307.532266 
L 300.445706 307.490768 
L 298.327828 307.423025 
L 296.20995 307.32563 
L 294.092071 307.20807 
L 291.974193 307.095774 
L 289.856315 307.021723 
L 287.738436 307.008644 
L 285.620558 307.054276 
L 283.50268 307.132111 
L 281.384802 307.20721 
L 279.266923 307.254384 
L 277.149045 307.266644 
L 275.031167 307.251917 
L 272.913288 307.224206 
L 270.79541 307.196155 
L 268.677532 307.175891 
L 266.559653 307.166627 
L 264.441775 307.166263 
L 262.323897 307.166599 
L 260.206018 307.154301 
L 258.08814 307.114765 
L 255.970262 307.036244 
L 253.852384 306.909789 
L 251.734505 306.723538 
L 249.616627 306.454912 
L 247.498749 306.065282 
L 245.38087 305.497037 
L 243.262992 304.668467 
L 241.145114 303.467212 
L 239.027235 301.758015 
L 236.909357 299.422128 
L 234.791479 296.40587 
L 232.6736 292.689427 
L 230.555722 288.061003 
L 228.437844 281.659182 
L 226.319966 271.47375 
L 224.202087 254.39347 
L 222.084209 227.681626 
L 219.966331 192.086366 
L 217.848452 154.659352 
L 215.730574 127.655599 
L 213.612696 122.093329 
L 211.494817 140.241107 
L 209.376939 173.886985 
L 207.259061 210.17338 
L 205.141182 239.473019 
L 203.023304 258.902765 
L 200.905426 270.525494 
L 198.787547 277.749241 
L 196.669669 283.061638 
L 194.551791 287.623932 
L 192.433913 291.755798 
L 190.316034 295.447138 
L 188.198156 298.623216 
L 186.080278 301.230308 
L 183.962399 303.256425 
L 181.844521 304.738388 
L 179.726643 305.757342 
L 177.608764 306.419175 
L 175.490886 306.829121 
L 173.373008 307.073712 
L 171.255129 307.215201 
L 169.137251 307.294891 
L 167.019373 307.339153 
L 164.901495 307.364124 
L 162.783616 307.378752 
L 160.665738 307.387749 
L 158.54786 307.394696 
L 156.429981 307.403634 
L 154.312103 307.418058 
L 152.194225 307.438777 
L 150.076346 307.462992 
L 147.958468 307.485642 
L 145.84059 307.502093 
L 143.722711 307.510332 
L 141.604833 307.511275 
L 139.486955 307.50741 
L 137.369077 307.501411 
L 135.251198 307.49583 
L 133.13332 307.493185 
L 131.015442 307.495166 
L 128.897563 307.501339 
L 126.779685 307.509232 
L 124.661807 307.516397 
L 122.543928 307.522475 
L 120.42605 307.529013 
L 118.308172 307.537346 
L 116.190293 307.546971 
L 114.072415 307.555976 
L 111.954537 307.562713 
L 109.836659 307.56691 
L 107.71878 307.569475 
L 105.600902 307.571571 
L 103.483024 307.573862 
L 101.365145 307.576303 
L 99.247267 307.578359 
L 97.129389 307.579436 
L 95.01151 307.579304 
L 92.893632 307.578303 
L 90.775754 307.577232 
L 88.657875 307.576907 
L 86.539997 307.577677 
L 84.422119 307.579259 
L 82.304241 307.581019 
L 80.186362 307.58243 
L 78.068484 307.583307 
L 75.950606 307.58374 
L 73.832727 307.5839 
z
" style="fill:#ff7f0e;fill-opacity:0.25;"/>
   </g>
   <g id="PolyCollection_3">
    <path clip-path="url(#p512008986b)" d="M 87.629984 307.583872 
L 87.629984 307.584 
L 90.07768 307.584 
L 92.525375 307.584 
L 94.97307 307.584 
L 97.420765 307.584 
L 99.86846 307.584 
L 102.316156 307.584 
L 104.763851 307.584 
L 107.211546 307.584 
L 109.659241 307.584 
L 112.106936 307.584 
L 114.554631 307.584 
L 117.002327 307.584 
L 119.450022 307.584 
L 121.897717 307.584 
L 124.345412 307.584 
L 126.793107 307.584 
L 129.240803 307.584 
L 131.688498 307.584 
L 134.136193 307.584 
L 136.583888 307.584 
L 139.031583 307.584 
L 141.479278 307.584 
L 143.926974 307.584 
L 146.374669 307.584 
L 148.822364 307.584 
L 151.270059 307.584 
L 153.717754 307.584 
L 156.16545 307.584 
L 158.613145 307.584 
L 161.06084 307.584 
L 163.508535 307.584 
L 165.95623 307.584 
L 168.403925 307.584 
L 170.851621 307.584 
L 173.299316 307.584 
L 175.747011 307.584 
L 178.194706 307.584 
L 180.642401 307.584 
L 183.090097 307.584 
L 185.537792 307.584 
L 187.985487 307.584 
L 190.433182 307.584 
L 192.880877 307.584 
L 195.328573 307.584 
L 197.776268 307.584 
L 200.223963 307.584 
L 202.671658 307.584 
L 205.119353 307.584 
L 207.567048 307.584 
L 210.014744 307.584 
L 212.462439 307.584 
L 214.910134 307.584 
L 217.357829 307.584 
L 219.805524 307.584 
L 222.25322 307.584 
L 224.700915 307.584 
L 227.14861 307.584 
L 229.596305 307.584 
L 232.044 307.584 
L 234.491695 307.584 
L 236.939391 307.584 
L 239.387086 307.584 
L 241.834781 307.584 
L 244.282476 307.584 
L 246.730171 307.584 
L 249.177867 307.584 
L 251.625562 307.584 
L 254.073257 307.584 
L 256.520952 307.584 
L 258.968647 307.584 
L 261.416342 307.584 
L 263.864038 307.584 
L 266.311733 307.584 
L 268.759428 307.584 
L 271.207123 307.584 
L 273.654818 307.584 
L 276.102514 307.584 
L 278.550209 307.584 
L 280.997904 307.584 
L 283.445599 307.584 
L 285.893294 307.584 
L 288.340989 307.584 
L 290.788685 307.584 
L 293.23638 307.584 
L 295.684075 307.584 
L 298.13177 307.584 
L 300.579465 307.584 
L 303.027161 307.584 
L 305.474856 307.584 
L 307.922551 307.584 
L 310.370246 307.584 
L 312.817941 307.584 
L 315.265636 307.584 
L 317.713332 307.584 
L 320.161027 307.584 
L 322.608722 307.584 
L 325.056417 307.584 
L 327.504112 307.584 
L 329.951808 307.584 
L 332.399503 307.584 
L 334.847198 307.584 
L 337.294893 307.584 
L 339.742588 307.584 
L 342.190284 307.584 
L 344.637979 307.584 
L 347.085674 307.584 
L 349.533369 307.584 
L 351.981064 307.584 
L 354.428759 307.584 
L 356.876455 307.584 
L 359.32415 307.584 
L 361.771845 307.584 
L 364.21954 307.584 
L 366.667235 307.584 
L 369.114931 307.584 
L 371.562626 307.584 
L 374.010321 307.584 
L 376.458016 307.584 
L 378.905711 307.584 
L 381.353406 307.584 
L 383.801102 307.584 
L 386.248797 307.584 
L 388.696492 307.584 
L 391.144187 307.584 
L 393.591882 307.584 
L 396.039578 307.584 
L 398.487273 307.584 
L 398.487273 307.583698 
L 398.487273 307.583698 
L 396.039578 307.582696 
L 393.591882 307.579095 
L 391.144187 307.568538 
L 388.696492 307.542827 
L 386.248797 307.490464 
L 383.801102 307.400855 
L 381.353406 307.271453 
L 378.905711 307.112984 
L 376.458016 306.947227 
L 374.010321 306.796848 
L 371.562626 306.673075 
L 369.114931 306.57033 
L 366.667235 306.475956 
L 364.21954 306.390478 
L 361.771845 306.335742 
L 359.32415 306.336489 
L 356.876455 306.3959 
L 354.428759 306.493468 
L 351.981064 306.599965 
L 349.533369 306.687342 
L 347.085674 306.732649 
L 344.637979 306.724987 
L 342.190284 306.667135 
L 339.742588 306.561742 
L 337.294893 306.396021 
L 334.847198 306.149263 
L 332.399503 305.824747 
L 329.951808 305.476681 
L 327.504112 305.199868 
L 325.056417 305.082968 
L 322.608722 305.162173 
L 320.161027 305.411575 
L 317.713332 305.769886 
L 315.265636 306.171198 
L 312.817941 306.557156 
L 310.370246 306.880499 
L 307.922551 307.115168 
L 305.474856 307.264828 
L 303.027161 307.354292 
L 300.579465 307.408243 
L 298.13177 307.436552 
L 295.684075 307.4362 
L 293.23638 307.402022 
L 290.788685 307.334072 
L 288.340989 307.239131 
L 285.893294 307.131879 
L 283.445599 307.036146 
L 280.997904 306.9778 
L 278.550209 306.968132 
L 276.102514 306.994204 
L 273.654818 307.029095 
L 271.207123 307.049412 
L 268.759428 307.037082 
L 266.311733 306.964894 
L 263.864038 306.796999 
L 261.416342 306.532145 
L 258.968647 306.254147 
L 256.520952 306.099402 
L 254.073257 306.126847 
L 251.625562 306.229099 
L 249.177867 306.215882 
L 246.730171 305.998093 
L 244.282476 305.671722 
L 241.834781 305.403166 
L 239.387086 305.223447 
L 236.939391 304.927076 
L 234.491695 304.130159 
L 232.044 302.311069 
L 229.596305 298.55994 
L 227.14861 290.898193 
L 224.700915 275.712249 
L 222.25322 249.168284 
L 219.805524 212.121191 
L 217.357829 174.969885 
L 214.910134 154.269412 
L 212.462439 160.05825 
L 210.014744 186.736417 
L 207.567048 218.590131 
L 205.119353 243.030553 
L 202.671658 257.106184 
L 200.223963 264.23345 
L 197.776268 268.498337 
L 195.328573 272.098146 
L 192.880877 275.658876 
L 190.433182 279.175818 
L 187.985487 282.49654 
L 185.537792 285.469453 
L 183.090097 288.044734 
L 180.642401 290.322983 
L 178.194706 292.473207 
L 175.747011 294.603104 
L 173.299316 296.718794 
L 170.851621 298.776852 
L 168.403925 300.730283 
L 165.95623 302.52105 
L 163.508535 304.065191 
L 161.06084 305.281767 
L 158.613145 306.144762 
L 156.16545 306.6991 
L 153.717754 307.026927 
L 151.270059 307.205005 
L 148.822364 307.287574 
L 146.374669 307.309935 
L 143.926974 307.295102 
L 141.479278 307.258716 
L 139.031583 307.21303 
L 136.583888 307.167076 
L 134.136193 307.124575 
L 131.688498 307.08646 
L 129.240803 307.057071 
L 126.793107 307.045272 
L 124.345412 307.058935 
L 121.897717 307.10075 
L 119.450022 307.168821 
L 117.002327 307.25691 
L 114.554631 307.352608 
L 112.106936 307.439298 
L 109.659241 307.503899 
L 107.211546 307.543261 
L 104.763851 307.563123 
L 102.316156 307.572108 
L 99.86846 307.576663 
L 97.420765 307.579692 
L 94.97307 307.581831 
L 92.525375 307.583108 
L 90.07768 307.5837 
L 87.629984 307.583872 
z
" style="fill:#2ca02c;fill-opacity:0.25;"/>
   </g>
   <g id="matplotlib.axis_1">
    <g id="xtick_1">
     <g id="line2d_1">
      <defs>
       <path d="M 0 0 
L 0 3.5 
" id="m688cd118c2" style="stroke:#000000;stroke-width:0.8;"/>
      </defs>
      <g>
       <use style="stroke:#000000;stroke-width:0.8;" x="88.458186" xlink:href="#m688cd118c2" y="307.584"/>
      </g>
     </g>
     <g id="text_1">
      <!-- −100 -->
      <defs>
       <path d="M 10.59375 35.5 
L 73.1875 35.5 
L 73.1875 27.203125 
L 10.59375 27.203125 
z
" id="DejaVuSans-2212"/>
       <path d="M 12.40625 8.296875 
L 28.515625 8.296875 
L 28.515625 63.921875 
L 10.984375 60.40625 
L 10.984375 69.390625 
L 28.421875 72.90625 
L 38.28125 72.90625 
L 38.28125 8.296875 
L 54.390625 8.296875 
L 54.390625 0 
L 12.40625 0 
z
" id="DejaVuSans-31"/>
       <path d="M 31.78125 66.40625 
Q 24.171875 66.40625 20.328125 58.90625 
Q 16.5 51.421875 16.5 36.375 
Q 16.5 21.390625 20.328125 13.890625 
Q 24.171875 6.390625 31.78125 6.390625 
Q 39.453125 6.390625 43.28125 13.890625 
Q 47.125 21.390625 47.125 36.375 
Q 47.125 51.421875 43.28125 58.90625 
Q 39.453125 66.40625 31.78125 66.40625 
z
M 31.78125 74.21875 
Q 44.046875 74.21875 50.515625 64.515625 
Q 56.984375 54.828125 56.984375 36.375 
Q 56.984375 17.96875 50.515625 8.265625 
Q 44.046875 -1.421875 31.78125 -1.421875 
Q 19.53125 -1.421875 13.0625 8.265625 
Q 6.59375 17.96875 6.59375 36.375 
Q 6.59375 54.828125 13.0625 64.515625 
Q 19.53125 74.21875 31.78125 74.21875 
z
" id="DejaVuSans-30"/>
      </defs>
      <g transform="translate(74.724592 322.182437)scale(0.1 -0.1)">
       <use xlink:href="#DejaVuSans-2212"/>
       <use x="83.789062" xlink:href="#DejaVuSans-31"/>
       <use x="147.412109" xlink:href="#DejaVuSans-30"/>
       <use x="211.035156" xlink:href="#DejaVuSans-30"/>
      </g>
     </g>
    </g>
    <g id="xtick_2">
     <g id="line2d_2">
      <g>
       <use style="stroke:#000000;stroke-width:0.8;" x="151.3379" xlink:href="#m688cd118c2" y="307.584"/>
      </g>
     </g>
     <g id="text_2">
      <!-- −50 -->
      <defs>
       <path d="M 10.796875 72.90625 
L 49.515625 72.90625 
L 49.515625 64.59375 
L 19.828125 64.59375 
L 19.828125 46.734375 
Q 21.96875 47.46875 24.109375 47.828125 
Q 26.265625 48.1875 28.421875 48.1875 
Q 40.625 48.1875 47.75 41.5 
Q 54.890625 34.8125 54.890625 23.390625 
Q 54.890625 11.625 47.5625 5.09375 
Q 40.234375 -1.421875 26.90625 -1.421875 
Q 22.3125 -1.421875 17.546875 -0.640625 
Q 12.796875 0.140625 7.71875 1.703125 
L 7.71875 11.625 
Q 12.109375 9.234375 16.796875 8.0625 
Q 21.484375 6.890625 26.703125 6.890625 
Q 35.15625 6.890625 40.078125 11.328125 
Q 45.015625 15.765625 45.015625 23.390625 
Q 45.015625 31 40.078125 35.4375 
Q 35.15625 39.890625 26.703125 39.890625 
Q 22.75 39.890625 18.8125 39.015625 
Q 14.890625 38.140625 10.796875 36.28125 
z
" id="DejaVuSans-35"/>
      </defs>
      <g transform="translate(140.785556 322.182437)scale(0.1 -0.1)">
       <use xlink:href="#DejaVuSans-2212"/>
       <use x="83.789062" xlink:href="#DejaVuSans-35"/>
       <use x="147.412109" xlink:href="#DejaVuSans-30"/>
      </g>
     </g>
    </g>
    <g id="xtick_3">
     <g id="line2d_3">
      <g>
       <use style="stroke:#000000;stroke-width:0.8;" x="214.217614" xlink:href="#m688cd118c2" y="307.584"/>
      </g>
     </g>
     <g id="text_3">
      <!-- 0 -->
      <g transform="translate(211.036364 322.182437)scale(0.1 -0.1)">
       <use xlink:href="#DejaVuSans-30"/>
      </g>
     </g>
    </g>
    <g id="xtick_4">
     <g id="line2d_4">
      <g>
       <use style="stroke:#000000;stroke-width:0.8;" x="277.097328" xlink:href="#m688cd118c2" y="307.584"/>
      </g>
     </g>
     <g id="text_4">
      <!-- 50 -->
      <g transform="translate(270.734828 322.182437)scale(0.1 -0.1)">
       <use xlink:href="#DejaVuSans-35"/>
       <use x="63.623047" xlink:href="#DejaVuSans-30"/>
      </g>
     </g>
    </g>
    <g id="xtick_5">
     <g id="line2d_5">
      <g>
       <use style="stroke:#000000;stroke-width:0.8;" x="339.977042" xlink:href="#m688cd118c2" y="307.584"/>
      </g>
     </g>
     <g id="text_5">
      <!-- 100 -->
      <g transform="translate(330.433292 322.182437)scale(0.1 -0.1)">
       <use xlink:href="#DejaVuSans-31"/>
       <use x="63.623047" xlink:href="#DejaVuSans-30"/>
       <use x="127.246094" xlink:href="#DejaVuSans-30"/>
      </g>
     </g>
    </g>
    <g id="xtick_6">
     <g id="line2d_6">
      <g>
       <use style="stroke:#000000;stroke-width:0.8;" x="402.856755" xlink:href="#m688cd118c2" y="307.584"/>
      </g>
     </g>
     <g id="text_6">
      <!-- 150 -->
      <g transform="translate(393.313005 322.182437)scale(0.1 -0.1)">
       <use xlink:href="#DejaVuSans-31"/>
       <use x="63.623047" xlink:href="#DejaVuSans-35"/>
       <use x="127.246094" xlink:href="#DejaVuSans-30"/>
      </g>
     </g>
    </g>
    <g id="text_7">
     <!-- elasticity [a.u.] -->
     <defs>
      <path d="M 56.203125 29.59375 
L 56.203125 25.203125 
L 14.890625 25.203125 
Q 15.484375 15.921875 20.484375 11.0625 
Q 25.484375 6.203125 34.421875 6.203125 
Q 39.59375 6.203125 44.453125 7.46875 
Q 49.3125 8.734375 54.109375 11.28125 
L 54.109375 2.78125 
Q 49.265625 0.734375 44.1875 -0.34375 
Q 39.109375 -1.421875 33.890625 -1.421875 
Q 20.796875 -1.421875 13.15625 6.1875 
Q 5.515625 13.8125 5.515625 26.8125 
Q 5.515625 40.234375 12.765625 48.109375 
Q 20.015625 56 32.328125 56 
Q 43.359375 56 49.78125 48.890625 
Q 56.203125 41.796875 56.203125 29.59375 
z
M 47.21875 32.234375 
Q 47.125 39.59375 43.09375 43.984375 
Q 39.0625 48.390625 32.421875 48.390625 
Q 24.90625 48.390625 20.390625 44.140625 
Q 15.875 39.890625 15.1875 32.171875 
z
" id="DejaVuSans-65"/>
      <path d="M 9.421875 75.984375 
L 18.40625 75.984375 
L 18.40625 0 
L 9.421875 0 
z
" id="DejaVuSans-6c"/>
      <path d="M 34.28125 27.484375 
Q 23.390625 27.484375 19.1875 25 
Q 14.984375 22.515625 14.984375 16.5 
Q 14.984375 11.71875 18.140625 8.90625 
Q 21.296875 6.109375 26.703125 6.109375 
Q 34.1875 6.109375 38.703125 11.40625 
Q 43.21875 16.703125 43.21875 25.484375 
L 43.21875 27.484375 
z
M 52.203125 31.203125 
L 52.203125 0 
L 43.21875 0 
L 43.21875 8.296875 
Q 40.140625 3.328125 35.546875 0.953125 
Q 30.953125 -1.421875 24.3125 -1.421875 
Q 15.921875 -1.421875 10.953125 3.296875 
Q 6 8.015625 6 15.921875 
Q 6 25.140625 12.171875 29.828125 
Q 18.359375 34.515625 30.609375 34.515625 
L 43.21875 34.515625 
L 43.21875 35.40625 
Q 43.21875 41.609375 39.140625 45 
Q 35.0625 48.390625 27.6875 48.390625 
Q 23 48.390625 18.546875 47.265625 
Q 14.109375 46.140625 10.015625 43.890625 
L 10.015625 52.203125 
Q 14.9375 54.109375 19.578125 55.046875 
Q 24.21875 56 28.609375 56 
Q 40.484375 56 46.34375 49.84375 
Q 52.203125 43.703125 52.203125 31.203125 
z
" id="DejaVuSans-61"/>
      <path d="M 44.28125 53.078125 
L 44.28125 44.578125 
Q 40.484375 46.53125 36.375 47.5 
Q 32.28125 48.484375 27.875 48.484375 
Q 21.1875 48.484375 17.84375 46.4375 
Q 14.5 44.390625 14.5 40.28125 
Q 14.5 37.15625 16.890625 35.375 
Q 19.28125 33.59375 26.515625 31.984375 
L 29.59375 31.296875 
Q 39.15625 29.25 43.1875 25.515625 
Q 47.21875 21.78125 47.21875 15.09375 
Q 47.21875 7.46875 41.1875 3.015625 
Q 35.15625 -1.421875 24.609375 -1.421875 
Q 20.21875 -1.421875 15.453125 -0.5625 
Q 10.6875 0.296875 5.421875 2 
L 5.421875 11.28125 
Q 10.40625 8.6875 15.234375 7.390625 
Q 20.0625 6.109375 24.8125 6.109375 
Q 31.15625 6.109375 34.5625 8.28125 
Q 37.984375 10.453125 37.984375 14.40625 
Q 37.984375 18.0625 35.515625 20.015625 
Q 33.0625 21.96875 24.703125 23.78125 
L 21.578125 24.515625 
Q 13.234375 26.265625 9.515625 29.90625 
Q 5.8125 33.546875 5.8125 39.890625 
Q 5.8125 47.609375 11.28125 51.796875 
Q 16.75 56 26.8125 56 
Q 31.78125 56 36.171875 55.265625 
Q 40.578125 54.546875 44.28125 53.078125 
z
" id="DejaVuSans-73"/>
      <path d="M 18.3125 70.21875 
L 18.3125 54.6875 
L 36.8125 54.6875 
L 36.8125 47.703125 
L 18.3125 47.703125 
L 18.3125 18.015625 
Q 18.3125 11.328125 20.140625 9.421875 
Q 21.96875 7.515625 27.59375 7.515625 
L 36.8125 7.515625 
L 36.8125 0 
L 27.59375 0 
Q 17.1875 0 13.234375 3.875 
Q 9.28125 7.765625 9.28125 18.015625 
L 9.28125 47.703125 
L 2.6875 47.703125 
L 2.6875 54.6875 
L 9.28125 54.6875 
L 9.28125 70.21875 
z
" id="DejaVuSans-74"/>
      <path d="M 9.421875 54.6875 
L 18.40625 54.6875 
L 18.40625 0 
L 9.421875 0 
z
M 9.421875 75.984375 
L 18.40625 75.984375 
L 18.40625 64.59375 
L 9.421875 64.59375 
z
" id="DejaVuSans-69"/>
      <path d="M 48.78125 52.59375 
L 48.78125 44.1875 
Q 44.96875 46.296875 41.140625 47.34375 
Q 37.3125 48.390625 33.40625 48.390625 
Q 24.65625 48.390625 19.8125 42.84375 
Q 14.984375 37.3125 14.984375 27.296875 
Q 14.984375 17.28125 19.8125 11.734375 
Q 24.65625 6.203125 33.40625 6.203125 
Q 37.3125 6.203125 41.140625 7.25 
Q 44.96875 8.296875 48.78125 10.40625 
L 48.78125 2.09375 
Q 45.015625 0.34375 40.984375 -0.53125 
Q 36.96875 -1.421875 32.421875 -1.421875 
Q 20.0625 -1.421875 12.78125 6.34375 
Q 5.515625 14.109375 5.515625 27.296875 
Q 5.515625 40.671875 12.859375 48.328125 
Q 20.21875 56 33.015625 56 
Q 37.15625 56 41.109375 55.140625 
Q 45.0625 54.296875 48.78125 52.59375 
z
" id="DejaVuSans-63"/>
      <path d="M 32.171875 -5.078125 
Q 28.375 -14.84375 24.75 -17.8125 
Q 21.140625 -20.796875 15.09375 -20.796875 
L 7.90625 -20.796875 
L 7.90625 -13.28125 
L 13.1875 -13.28125 
Q 16.890625 -13.28125 18.9375 -11.515625 
Q 21 -9.765625 23.484375 -3.21875 
L 25.09375 0.875 
L 2.984375 54.6875 
L 12.5 54.6875 
L 29.59375 11.921875 
L 46.6875 54.6875 
L 56.203125 54.6875 
z
" id="DejaVuSans-79"/>
      <path id="DejaVuSans-20"/>
      <path d="M 8.59375 75.984375 
L 29.296875 75.984375 
L 29.296875 69 
L 17.578125 69 
L 17.578125 -6.203125 
L 29.296875 -6.203125 
L 29.296875 -13.1875 
L 8.59375 -13.1875 
z
" id="DejaVuSans-5b"/>
      <path d="M 10.6875 12.40625 
L 21 12.40625 
L 21 0 
L 10.6875 0 
z
" id="DejaVuSans-2e"/>
      <path d="M 8.5 21.578125 
L 8.5 54.6875 
L 17.484375 54.6875 
L 17.484375 21.921875 
Q 17.484375 14.15625 20.5 10.265625 
Q 23.53125 6.390625 29.59375 6.390625 
Q 36.859375 6.390625 41.078125 11.03125 
Q 45.3125 15.671875 45.3125 23.6875 
L 45.3125 54.6875 
L 54.296875 54.6875 
L 54.296875 0 
L 45.3125 0 
L 45.3125 8.40625 
Q 42.046875 3.421875 37.71875 1 
Q 33.40625 -1.421875 27.6875 -1.421875 
Q 18.265625 -1.421875 13.375 4.4375 
Q 8.5 10.296875 8.5 21.578125 
z
M 31.109375 56 
z
" id="DejaVuSans-75"/>
      <path d="M 30.421875 75.984375 
L 30.421875 -13.1875 
L 9.71875 -13.1875 
L 9.71875 -6.203125 
L 21.390625 -6.203125 
L 21.390625 69 
L 9.71875 69 
L 9.71875 75.984375 
z
" id="DejaVuSans-5d"/>
     </defs>
     <g transform="translate(198.717031 335.860562)scale(0.1 -0.1)">
      <use xlink:href="#DejaVuSans-65"/>
      <use x="61.523438" xlink:href="#DejaVuSans-6c"/>
      <use x="89.306641" xlink:href="#DejaVuSans-61"/>
      <use x="150.585938" xlink:href="#DejaVuSans-73"/>
      <use x="202.685547" xlink:href="#DejaVuSans-74"/>
      <use x="241.894531" xlink:href="#DejaVuSans-69"/>
      <use x="269.677734" xlink:href="#DejaVuSans-63"/>
      <use x="324.658203" xlink:href="#DejaVuSans-69"/>
      <use x="352.441406" xlink:href="#DejaVuSans-74"/>
      <use x="391.650391" xlink:href="#DejaVuSans-79"/>
      <use x="450.830078" xlink:href="#DejaVuSans-20"/>
      <use x="482.617188" xlink:href="#DejaVuSans-5b"/>
      <use x="521.630859" xlink:href="#DejaVuSans-61"/>
      <use x="582.910156" xlink:href="#DejaVuSans-2e"/>
      <use x="614.697266" xlink:href="#DejaVuSans-75"/>
      <use x="678.076172" xlink:href="#DejaVuSans-2e"/>
      <use x="709.863281" xlink:href="#DejaVuSans-5d"/>
     </g>
    </g>
   </g>
   <g id="matplotlib.axis_2">
    <g id="ytick_1">
     <g id="line2d_7">
      <defs>
       <path d="M 0 0 
L -3.5 0 
" id="mb4445599f5" style="stroke:#000000;stroke-width:0.8;"/>
      </defs>
      <g>
       <use style="stroke:#000000;stroke-width:0.8;" x="57.6" xlink:href="#mb4445599f5" y="307.584"/>
      </g>
     </g>
     <g id="text_8">
      <!-- 0.00 -->
      <g transform="translate(28.334375 311.383219)scale(0.1 -0.1)">
       <use xlink:href="#DejaVuSans-30"/>
       <use x="63.623047" xlink:href="#DejaVuSans-2e"/>
       <use x="95.410156" xlink:href="#DejaVuSans-30"/>
       <use x="159.033203" xlink:href="#DejaVuSans-30"/>
      </g>
     </g>
    </g>
    <g id="ytick_2">
     <g id="line2d_8">
      <g>
       <use style="stroke:#000000;stroke-width:0.8;" x="57.6" xlink:href="#mb4445599f5" y="253.83835"/>
      </g>
     </g>
     <g id="text_9">
      <!-- 0.02 -->
      <defs>
       <path d="M 19.1875 8.296875 
L 53.609375 8.296875 
L 53.609375 0 
L 7.328125 0 
L 7.328125 8.296875 
Q 12.9375 14.109375 22.625 23.890625 
Q 32.328125 33.6875 34.8125 36.53125 
Q 39.546875 41.84375 41.421875 45.53125 
Q 43.3125 49.21875 43.3125 52.78125 
Q 43.3125 58.59375 39.234375 62.25 
Q 35.15625 65.921875 28.609375 65.921875 
Q 23.96875 65.921875 18.8125 64.3125 
Q 13.671875 62.703125 7.8125 59.421875 
L 7.8125 69.390625 
Q 13.765625 71.78125 18.9375 73 
Q 24.125 74.21875 28.421875 74.21875 
Q 39.75 74.21875 46.484375 68.546875 
Q 53.21875 62.890625 53.21875 53.421875 
Q 53.21875 48.921875 51.53125 44.890625 
Q 49.859375 40.875 45.40625 35.40625 
Q 44.1875 33.984375 37.640625 27.21875 
Q 31.109375 20.453125 19.1875 8.296875 
z
" id="DejaVuSans-32"/>
      </defs>
      <g transform="translate(28.334375 257.637569)scale(0.1 -0.1)">
       <use xlink:href="#DejaVuSans-30"/>
       <use x="63.623047" xlink:href="#DejaVuSans-2e"/>
       <use x="95.410156" xlink:href="#DejaVuSans-30"/>
       <use x="159.033203" xlink:href="#DejaVuSans-32"/>
      </g>
     </g>
    </g>
    <g id="ytick_3">
     <g id="line2d_9">
      <g>
       <use style="stroke:#000000;stroke-width:0.8;" x="57.6" xlink:href="#mb4445599f5" y="200.0927"/>
      </g>
     </g>
     <g id="text_10">
      <!-- 0.04 -->
      <defs>
       <path d="M 37.796875 64.3125 
L 12.890625 25.390625 
L 37.796875 25.390625 
z
M 35.203125 72.90625 
L 47.609375 72.90625 
L 47.609375 25.390625 
L 58.015625 25.390625 
L 58.015625 17.1875 
L 47.609375 17.1875 
L 47.609375 0 
L 37.796875 0 
L 37.796875 17.1875 
L 4.890625 17.1875 
L 4.890625 26.703125 
z
" id="DejaVuSans-34"/>
      </defs>
      <g transform="translate(28.334375 203.891919)scale(0.1 -0.1)">
       <use xlink:href="#DejaVuSans-30"/>
       <use x="63.623047" xlink:href="#DejaVuSans-2e"/>
       <use x="95.410156" xlink:href="#DejaVuSans-30"/>
       <use x="159.033203" xlink:href="#DejaVuSans-34"/>
      </g>
     </g>
    </g>
    <g id="ytick_4">
     <g id="line2d_10">
      <g>
       <use style="stroke:#000000;stroke-width:0.8;" x="57.6" xlink:href="#mb4445599f5" y="146.34705"/>
      </g>
     </g>
     <g id="text_11">
      <!-- 0.06 -->
      <defs>
       <path d="M 33.015625 40.375 
Q 26.375 40.375 22.484375 35.828125 
Q 18.609375 31.296875 18.609375 23.390625 
Q 18.609375 15.53125 22.484375 10.953125 
Q 26.375 6.390625 33.015625 6.390625 
Q 39.65625 6.390625 43.53125 10.953125 
Q 47.40625 15.53125 47.40625 23.390625 
Q 47.40625 31.296875 43.53125 35.828125 
Q 39.65625 40.375 33.015625 40.375 
z
M 52.59375 71.296875 
L 52.59375 62.3125 
Q 48.875 64.0625 45.09375 64.984375 
Q 41.3125 65.921875 37.59375 65.921875 
Q 27.828125 65.921875 22.671875 59.328125 
Q 17.53125 52.734375 16.796875 39.40625 
Q 19.671875 43.65625 24.015625 45.921875 
Q 28.375 48.1875 33.59375 48.1875 
Q 44.578125 48.1875 50.953125 41.515625 
Q 57.328125 34.859375 57.328125 23.390625 
Q 57.328125 12.15625 50.6875 5.359375 
Q 44.046875 -1.421875 33.015625 -1.421875 
Q 20.359375 -1.421875 13.671875 8.265625 
Q 6.984375 17.96875 6.984375 36.375 
Q 6.984375 53.65625 15.1875 63.9375 
Q 23.390625 74.21875 37.203125 74.21875 
Q 40.921875 74.21875 44.703125 73.484375 
Q 48.484375 72.75 52.59375 71.296875 
z
" id="DejaVuSans-36"/>
      </defs>
      <g transform="translate(28.334375 150.146269)scale(0.1 -0.1)">
       <use xlink:href="#DejaVuSans-30"/>
       <use x="63.623047" xlink:href="#DejaVuSans-2e"/>
       <use x="95.410156" xlink:href="#DejaVuSans-30"/>
       <use x="159.033203" xlink:href="#DejaVuSans-36"/>
      </g>
     </g>
    </g>
    <g id="ytick_5">
     <g id="line2d_11">
      <g>
       <use style="stroke:#000000;stroke-width:0.8;" x="57.6" xlink:href="#mb4445599f5" y="92.6014"/>
      </g>
     </g>
     <g id="text_12">
      <!-- 0.08 -->
      <defs>
       <path d="M 31.78125 34.625 
Q 24.75 34.625 20.71875 30.859375 
Q 16.703125 27.09375 16.703125 20.515625 
Q 16.703125 13.921875 20.71875 10.15625 
Q 24.75 6.390625 31.78125 6.390625 
Q 38.8125 6.390625 42.859375 10.171875 
Q 46.921875 13.96875 46.921875 20.515625 
Q 46.921875 27.09375 42.890625 30.859375 
Q 38.875 34.625 31.78125 34.625 
z
M 21.921875 38.8125 
Q 15.578125 40.375 12.03125 44.71875 
Q 8.5 49.078125 8.5 55.328125 
Q 8.5 64.0625 14.71875 69.140625 
Q 20.953125 74.21875 31.78125 74.21875 
Q 42.671875 74.21875 48.875 69.140625 
Q 55.078125 64.0625 55.078125 55.328125 
Q 55.078125 49.078125 51.53125 44.71875 
Q 48 40.375 41.703125 38.8125 
Q 48.828125 37.15625 52.796875 32.3125 
Q 56.78125 27.484375 56.78125 20.515625 
Q 56.78125 9.90625 50.3125 4.234375 
Q 43.84375 -1.421875 31.78125 -1.421875 
Q 19.734375 -1.421875 13.25 4.234375 
Q 6.78125 9.90625 6.78125 20.515625 
Q 6.78125 27.484375 10.78125 32.3125 
Q 14.796875 37.15625 21.921875 38.8125 
z
M 18.3125 54.390625 
Q 18.3125 48.734375 21.84375 45.5625 
Q 25.390625 42.390625 31.78125 42.390625 
Q 38.140625 42.390625 41.71875 45.5625 
Q 45.3125 48.734375 45.3125 54.390625 
Q 45.3125 60.0625 41.71875 63.234375 
Q 38.140625 66.40625 31.78125 66.40625 
Q 25.390625 66.40625 21.84375 63.234375 
Q 18.3125 60.0625 18.3125 54.390625 
z
" id="DejaVuSans-38"/>
      </defs>
      <g transform="translate(28.334375 96.400619)scale(0.1 -0.1)">
       <use xlink:href="#DejaVuSans-30"/>
       <use x="63.623047" xlink:href="#DejaVuSans-2e"/>
       <use x="95.410156" xlink:href="#DejaVuSans-30"/>
       <use x="159.033203" xlink:href="#DejaVuSans-38"/>
      </g>
     </g>
    </g>
    <g id="text_13">
     <!-- density -->
     <defs>
      <path d="M 45.40625 46.390625 
L 45.40625 75.984375 
L 54.390625 75.984375 
L 54.390625 0 
L 45.40625 0 
L 45.40625 8.203125 
Q 42.578125 3.328125 38.25 0.953125 
Q 33.9375 -1.421875 27.875 -1.421875 
Q 17.96875 -1.421875 11.734375 6.484375 
Q 5.515625 14.40625 5.515625 27.296875 
Q 5.515625 40.1875 11.734375 48.09375 
Q 17.96875 56 27.875 56 
Q 33.9375 56 38.25 53.625 
Q 42.578125 51.265625 45.40625 46.390625 
z
M 14.796875 27.296875 
Q 14.796875 17.390625 18.875 11.75 
Q 22.953125 6.109375 30.078125 6.109375 
Q 37.203125 6.109375 41.296875 11.75 
Q 45.40625 17.390625 45.40625 27.296875 
Q 45.40625 37.203125 41.296875 42.84375 
Q 37.203125 48.484375 30.078125 48.484375 
Q 22.953125 48.484375 18.875 42.84375 
Q 14.796875 37.203125 14.796875 27.296875 
z
" id="DejaVuSans-64"/>
      <path d="M 54.890625 33.015625 
L 54.890625 0 
L 45.90625 0 
L 45.90625 32.71875 
Q 45.90625 40.484375 42.875 44.328125 
Q 39.84375 48.1875 33.796875 48.1875 
Q 26.515625 48.1875 22.3125 43.546875 
Q 18.109375 38.921875 18.109375 30.90625 
L 18.109375 0 
L 9.078125 0 
L 9.078125 54.6875 
L 18.109375 54.6875 
L 18.109375 46.1875 
Q 21.34375 51.125 25.703125 53.5625 
Q 30.078125 56 35.796875 56 
Q 45.21875 56 50.046875 50.171875 
Q 54.890625 44.34375 54.890625 33.015625 
z
" id="DejaVuSans-6e"/>
     </defs>
     <g transform="translate(22.254687 192.860812)rotate(-90)scale(0.1 -0.1)">
      <use xlink:href="#DejaVuSans-64"/>
      <use x="63.476562" xlink:href="#DejaVuSans-65"/>
      <use x="125" xlink:href="#DejaVuSans-6e"/>
      <use x="188.378906" xlink:href="#DejaVuSans-73"/>
      <use x="240.478516" xlink:href="#DejaVuSans-69"/>
      <use x="268.261719" xlink:href="#DejaVuSans-74"/>
      <use x="307.470703" xlink:href="#DejaVuSans-79"/>
     </g>
    </g>
   </g>
   <g id="line2d_12">
    <path clip-path="url(#p512008986b)" d="M 126.246349 307.583421 
L 182.921587 307.48465 
L 189.761702 307.279817 
L 192.693179 307.002093 
L 194.647498 306.619859 
L 195.624657 306.296555 
L 196.601816 305.807667 
L 197.578976 305.046704 
L 198.556135 303.846887 
L 199.533294 301.960666 
L 200.510454 299.041594 
L 201.487613 294.635497 
L 202.464772 288.190194 
L 203.441931 279.093668 
L 204.419091 266.748235 
L 205.39625 250.681705 
L 206.373409 230.685981 
L 207.350568 206.960838 
L 209.304887 151.787117 
L 211.259206 97.398686 
L 212.236365 75.897335 
L 213.213524 60.984424 
L 214.190683 54.144 
L 215.167843 56.060796 
L 216.145002 66.50526 
L 217.122161 84.377092 
L 218.09932 107.8961 
L 222.007957 215.873905 
L 222.985117 237.80281 
L 223.962276 255.980507 
L 224.939435 270.403785 
L 225.916595 281.397242 
L 226.893754 289.474867 
L 227.870913 295.218988 
L 228.848072 299.191235 
L 229.825232 301.878909 
L 230.802391 303.672162 
L 231.77955 304.863423 
L 232.756709 305.659862 
L 233.733869 306.201299 
L 235.688187 306.847897 
L 237.642506 307.191672 
L 240.573984 307.44395 
L 245.45978 307.567524 
L 250.345576 307.582991 
L 250.345576 307.582991 
" style="fill:none;stroke:#1f77b4;stroke-linecap:square;stroke-width:1.5;"/>
   </g>
   <g id="line2d_13">
    <path clip-path="url(#p512008986b)" d="M 73.832727 307.5839 
L 147.958468 307.485642 
L 171.255129 307.215201 
L 175.490886 306.829121 
L 177.608764 306.419175 
L 179.726643 305.757342 
L 181.844521 304.738388 
L 183.962399 303.256425 
L 186.080278 301.230308 
L 188.198156 298.623216 
L 190.316034 295.447138 
L 192.433913 291.755798 
L 194.551791 287.623932 
L 196.669669 283.061638 
L 198.787547 277.749241 
L 200.905426 270.525494 
L 203.023304 258.902765 
L 205.141182 239.473019 
L 207.259061 210.17338 
L 209.376939 173.886985 
L 211.494817 140.241107 
L 213.612696 122.093329 
L 215.730574 127.655599 
L 217.848452 154.659352 
L 222.084209 227.681626 
L 224.202087 254.39347 
L 226.319966 271.47375 
L 228.437844 281.659182 
L 230.555722 288.061003 
L 232.6736 292.689427 
L 234.791479 296.40587 
L 236.909357 299.422128 
L 239.027235 301.758015 
L 241.145114 303.467212 
L 243.262992 304.668467 
L 245.38087 305.497037 
L 247.498749 306.065282 
L 249.616627 306.454912 
L 253.852384 306.909789 
L 258.08814 307.114765 
L 266.559653 307.166627 
L 283.50268 307.132111 
L 287.738436 307.008644 
L 291.974193 307.095774 
L 300.445706 307.490768 
L 308.91722 307.576563 
L 342.803272 307.5839 
L 342.803272 307.5839 
" style="fill:none;stroke:#ff7f0e;stroke-linecap:square;stroke-width:1.5;"/>
   </g>
   <g id="line2d_14">
    <path clip-path="url(#p512008986b)" d="M 87.629984 307.583872 
L 109.659241 307.503899 
L 129.240803 307.057071 
L 148.822364 307.287574 
L 153.717754 307.026927 
L 156.16545 306.6991 
L 158.613145 306.144762 
L 161.06084 305.281767 
L 163.508535 304.065191 
L 165.95623 302.52105 
L 168.403925 300.730283 
L 173.299316 296.718794 
L 180.642401 290.322983 
L 183.090097 288.044734 
L 185.537792 285.469453 
L 187.985487 282.49654 
L 190.433182 279.175818 
L 197.776268 268.498337 
L 200.223963 264.23345 
L 202.671658 257.106184 
L 205.119353 243.030553 
L 207.567048 218.590131 
L 210.014744 186.736417 
L 212.462439 160.05825 
L 214.910134 154.269412 
L 217.357829 174.969885 
L 222.25322 249.168284 
L 224.700915 275.712249 
L 227.14861 290.898193 
L 229.596305 298.55994 
L 232.044 302.311069 
L 234.491695 304.130159 
L 236.939391 304.927076 
L 239.387086 305.223447 
L 244.282476 305.671722 
L 249.177867 306.215882 
L 251.625562 306.229099 
L 256.520952 306.099402 
L 258.968647 306.254147 
L 263.864038 306.796999 
L 268.759428 307.037082 
L 276.102514 306.994204 
L 280.997904 306.9778 
L 288.340989 307.239131 
L 295.684075 307.4362 
L 303.027161 307.354292 
L 307.922551 307.115168 
L 312.817941 306.557156 
L 320.161027 305.411575 
L 322.608722 305.162173 
L 325.056417 305.082968 
L 327.504112 305.199868 
L 332.399503 305.824747 
L 337.294893 306.396021 
L 342.190284 306.667135 
L 347.085674 306.732649 
L 354.428759 306.493468 
L 359.32415 306.336489 
L 364.21954 306.390478 
L 374.010321 306.796848 
L 386.248797 307.490464 
L 393.591882 307.579095 
L 398.487273 307.583698 
L 398.487273 307.583698 
" style="fill:none;stroke:#2ca02c;stroke-linecap:square;stroke-width:1.5;"/>
   </g>
   <g id="patch_3">
    <path d="M 57.6 307.584 
L 57.6 41.472 
" style="fill:none;stroke:#000000;stroke-linecap:square;stroke-linejoin:miter;stroke-width:0.8;"/>
   </g>
   <g id="patch_4">
    <path d="M 414.72 307.584 
L 414.72 41.472 
" style="fill:none;stroke:#000000;stroke-linecap:square;stroke-linejoin:miter;stroke-width:0.8;"/>
   </g>
   <g id="patch_5">
    <path d="M 57.6 307.584 
L 414.72 307.584 
" style="fill:none;stroke:#000000;stroke-linecap:square;stroke-linejoin:miter;stroke-width:0.8;"/>
   </g>
   <g id="patch_6">
    <path d="M 57.6 41.472 
L 414.72 41.472 
" style="fill:none;stroke:#000000;stroke-linecap:square;stroke-linejoin:miter;stroke-width:0.8;"/>
   </g>
   <g id="legend_1">
    <g id="patch_7">
     <path d="M 317.329375 93.506375 
L 407.72 93.506375 
Q 409.72 93.506375 409.72 91.506375 
L 409.72 48.472 
Q 409.72 46.472 407.72 46.472 
L 317.329375 46.472 
Q 315.329375 46.472 315.329375 48.472 
L 315.329375 91.506375 
Q 315.329375 93.506375 317.329375 93.506375 
z
" style="fill:#ffffff;opacity:0.8;stroke:#cccccc;stroke-linejoin:miter;"/>
    </g>
    <g id="line2d_15">
     <path d="M 319.329375 54.570438 
L 339.329375 54.570438 
" style="fill:none;stroke:#1f77b4;stroke-linecap:square;stroke-width:1.5;"/>
    </g>
    <g id="line2d_16"/>
    <g id="text_14">
     <!-- ERR260275 -->
     <defs>
      <path d="M 9.8125 72.90625 
L 55.90625 72.90625 
L 55.90625 64.59375 
L 19.671875 64.59375 
L 19.671875 43.015625 
L 54.390625 43.015625 
L 54.390625 34.71875 
L 19.671875 34.71875 
L 19.671875 8.296875 
L 56.78125 8.296875 
L 56.78125 0 
L 9.8125 0 
z
" id="DejaVuSans-45"/>
      <path d="M 44.390625 34.1875 
Q 47.5625 33.109375 50.5625 29.59375 
Q 53.5625 26.078125 56.59375 19.921875 
L 66.609375 0 
L 56 0 
L 46.6875 18.703125 
Q 43.0625 26.03125 39.671875 28.421875 
Q 36.28125 30.8125 30.421875 30.8125 
L 19.671875 30.8125 
L 19.671875 0 
L 9.8125 0 
L 9.8125 72.90625 
L 32.078125 72.90625 
Q 44.578125 72.90625 50.734375 67.671875 
Q 56.890625 62.453125 56.890625 51.90625 
Q 56.890625 45.015625 53.6875 40.46875 
Q 50.484375 35.9375 44.390625 34.1875 
z
M 19.671875 64.796875 
L 19.671875 38.921875 
L 32.078125 38.921875 
Q 39.203125 38.921875 42.84375 42.21875 
Q 46.484375 45.515625 46.484375 51.90625 
Q 46.484375 58.296875 42.84375 61.546875 
Q 39.203125 64.796875 32.078125 64.796875 
z
" id="DejaVuSans-52"/>
      <path d="M 8.203125 72.90625 
L 55.078125 72.90625 
L 55.078125 68.703125 
L 28.609375 0 
L 18.3125 0 
L 43.21875 64.59375 
L 8.203125 64.59375 
z
" id="DejaVuSans-37"/>
     </defs>
     <g transform="translate(347.329375 58.070438)scale(0.1 -0.1)">
      <use xlink:href="#DejaVuSans-45"/>
      <use x="63.183594" xlink:href="#DejaVuSans-52"/>
      <use x="132.666016" xlink:href="#DejaVuSans-52"/>
      <use x="202.148438" xlink:href="#DejaVuSans-32"/>
      <use x="265.771484" xlink:href="#DejaVuSans-36"/>
      <use x="329.394531" xlink:href="#DejaVuSans-30"/>
      <use x="393.017578" xlink:href="#DejaVuSans-32"/>
      <use x="456.640625" xlink:href="#DejaVuSans-37"/>
      <use x="520.263672" xlink:href="#DejaVuSans-35"/>
     </g>
    </g>
    <g id="line2d_17">
     <path d="M 319.329375 69.248563 
L 339.329375 69.248563 
" style="fill:none;stroke:#ff7f0e;stroke-linecap:square;stroke-width:1.5;"/>
    </g>
    <g id="line2d_18"/>
    <g id="text_15">
     <!-- ERR260214 -->
     <g transform="translate(347.329375 72.748563)scale(0.1 -0.1)">
      <use xlink:href="#DejaVuSans-45"/>
      <use x="63.183594" xlink:href="#DejaVuSans-52"/>
      <use x="132.666016" xlink:href="#DejaVuSans-52"/>
      <use x="202.148438" xlink:href="#DejaVuSans-32"/>
      <use x="265.771484" xlink:href="#DejaVuSans-36"/>
      <use x="329.394531" xlink:href="#DejaVuSans-30"/>
      <use x="393.017578" xlink:href="#DejaVuSans-32"/>
      <use x="456.640625" xlink:href="#DejaVuSans-31"/>
      <use x="520.263672" xlink:href="#DejaVuSans-34"/>
     </g>
    </g>
    <g id="line2d_19">
     <path d="M 319.329375 83.926688 
L 339.329375 83.926688 
" style="fill:none;stroke:#2ca02c;stroke-linecap:square;stroke-width:1.5;"/>
    </g>
    <g id="line2d_20"/>
    <g id="text_16">
     <!-- ERR260174 -->
     <g transform="translate(347.329375 87.426688)scale(0.1 -0.1)">
      <use xlink:href="#DejaVuSans-45"/>
      <use x="63.183594" xlink:href="#DejaVuSans-52"/>
      <use x="132.666016" xlink:href="#DejaVuSans-52"/>
      <use x="202.148438" xlink:href="#DejaVuSans-32"/>
      <use x="265.771484" xlink:href="#DejaVuSans-36"/>
      <use x="329.394531" xlink:href="#DejaVuSans-30"/>
      <use x="393.017578" xlink:href="#DejaVuSans-31"/>
      <use x="456.640625" xlink:href="#DejaVuSans-37"/>
      <use x="520.263672" xlink:href="#DejaVuSans-34"/>
     </g>
    </g>
   </g>
  </g>
 </g>
 <defs>
  <clipPath id="p512008986b">
   <rect height="266.112" width="357.12" x="57.6" y="41.472"/>
  </clipPath>
 </defs>
</svg>
