<?xml version="1.0" encoding="utf-8" standalone="no"?>
<!DOCTYPE svg PUBLIC "-//W3C//DTD SVG 1.1//EN"
  "http://www.w3.org/Graphics/SVG/1.1/DTD/svg11.dtd">
<!-- Created with matplotlib (http://matplotlib.org/) -->
<svg height="345.6pt" version="1.1" viewBox="0 0 460.8 345.6" width="460.8pt" xmlns="http://www.w3.org/2000/svg" xmlns:xlink="http://www.w3.org/1999/xlink">
 <defs>
  <style type="text/css">
*{stroke-linecap:butt;stroke-linejoin:round;}
  </style>
 </defs>
 <g id="figure_1">
  <g id="patch_1">
   <path d="M 0 345.6 
L 460.8 345.6 
L 460.8 0 
L 0 0 
z
" style="fill:#ffffff;"/>
  </g>
  <g id="axes_1">
   <g id="patch_2">
    <path d="M 57.6 307.584 
L 414.72 307.584 
L 414.72 41.472 
L 57.6 41.472 
z
" style="fill:#ffffff;"/>
   </g>
   <g id="PolyCollection_1">
    <path clip-path="url(#pffcaeb682b)" d="M 82.875305 266.024899 
L 82.875305 307.584 
L 84.612923 307.584 
L 86.35054 307.584 
L 88.088158 307.584 
L 89.825775 307.584 
L 91.563392 307.584 
L 93.30101 307.584 
L 95.038627 307.584 
L 96.776245 307.584 
L 98.513862 307.584 
L 100.251479 307.584 
L 101.989097 307.584 
L 103.726714 307.584 
L 105.464332 307.584 
L 107.201949 307.584 
L 108.939566 307.584 
L 110.677184 307.584 
L 112.414801 307.584 
L 114.152418 307.584 
L 115.890036 307.584 
L 117.627653 307.584 
L 119.365271 307.584 
L 121.102888 307.584 
L 122.840505 307.584 
L 124.578123 307.584 
L 126.31574 307.584 
L 128.053358 307.584 
L 129.790975 307.584 
L 131.528592 307.584 
L 133.26621 307.584 
L 135.003827 307.584 
L 136.741445 307.584 
L 138.479062 307.584 
L 140.216679 307.584 
L 141.954297 307.584 
L 143.691914 307.584 
L 145.429531 307.584 
L 147.167149 307.584 
L 148.904766 307.584 
L 150.642384 307.584 
L 152.380001 307.584 
L 154.117618 307.584 
L 155.855236 307.584 
L 157.592853 307.584 
L 159.330471 307.584 
L 161.068088 307.584 
L 162.805705 307.584 
L 164.543323 307.584 
L 166.28094 307.584 
L 168.018558 307.584 
L 169.756175 307.584 
L 171.493792 307.584 
L 173.23141 307.584 
L 174.969027 307.584 
L 176.706644 307.584 
L 178.444262 307.584 
L 180.181879 307.584 
L 181.919497 307.584 
L 183.657114 307.584 
L 185.394731 307.584 
L 187.132349 307.584 
L 188.869966 307.584 
L 190.607584 307.584 
L 192.345201 307.584 
L 194.082818 307.584 
L 195.820436 307.584 
L 197.558053 307.584 
L 199.295671 307.584 
L 201.033288 307.584 
L 202.770905 307.584 
L 204.508523 307.584 
L 206.24614 307.584 
L 207.983757 307.584 
L 209.721375 307.584 
L 211.458992 307.584 
L 213.19661 307.584 
L 214.934227 307.584 
L 216.671844 307.584 
L 218.409462 307.584 
L 220.147079 307.584 
L 221.884697 307.584 
L 223.622314 307.584 
L 225.359931 307.584 
L 227.097549 307.584 
L 228.835166 307.584 
L 230.572784 307.584 
L 232.310401 307.584 
L 234.048018 307.584 
L 235.785636 307.584 
L 237.523253 307.584 
L 239.26087 307.584 
L 240.998488 307.584 
L 242.736105 307.584 
L 244.473723 307.584 
L 246.21134 307.584 
L 247.948957 307.584 
L 249.686575 307.584 
L 251.424192 307.584 
L 253.16181 307.584 
L 254.899427 307.584 
L 254.899427 194.125987 
L 254.899427 194.125987 
L 253.16181 189.456649 
L 251.424192 184.723089 
L 249.686575 179.932757 
L 247.948957 175.093575 
L 246.21134 170.213921 
L 244.473723 165.30261 
L 242.736105 160.368877 
L 240.998488 155.422345 
L 239.26087 150.473006 
L 237.523253 145.531185 
L 235.785636 140.60751 
L 234.048018 135.712877 
L 232.310401 130.858408 
L 230.572784 126.055417 
L 228.835166 121.315362 
L 227.097549 116.649806 
L 225.359931 112.070364 
L 223.622314 107.588664 
L 221.884697 103.216292 
L 220.147079 98.964746 
L 218.409462 94.845384 
L 216.671844 90.869374 
L 214.934227 87.047646 
L 213.19661 83.390838 
L 211.458992 79.90925 
L 209.721375 76.612794 
L 207.983757 73.510947 
L 206.24614 70.612706 
L 204.508523 67.926542 
L 202.770905 65.460365 
L 201.033288 63.221476 
L 199.295671 61.216539 
L 197.558053 59.451542 
L 195.820436 57.93177 
L 194.082818 56.661779 
L 192.345201 55.64537 
L 190.607584 54.885575 
L 188.869966 54.384637 
L 187.132349 54.144 
L 185.394731 54.164305 
L 183.657114 54.445384 
L 181.919497 54.986262 
L 180.181879 55.785164 
L 178.444262 56.839524 
L 176.706644 58.145997 
L 174.969027 59.700479 
L 173.23141 61.498126 
L 171.493792 63.533383 
L 169.756175 65.800009 
L 168.018558 68.291111 
L 166.28094 70.999175 
L 164.543323 73.91611 
L 162.805705 77.033284 
L 161.068088 80.341567 
L 159.330471 83.831376 
L 157.592853 87.492722 
L 155.855236 91.315255 
L 154.117618 95.288314 
L 152.380001 99.400977 
L 150.642384 103.642109 
L 148.904766 108.000414 
L 147.167149 112.46448 
L 145.429531 117.022833 
L 143.691914 121.663982 
L 141.954297 126.376469 
L 140.216679 131.14891 
L 138.479062 135.970043 
L 136.741445 140.82877 
L 135.003827 145.714197 
L 133.26621 150.615669 
L 131.528592 155.522813 
L 129.790975 160.425563 
L 128.053358 165.314196 
L 126.31574 170.179357 
L 124.578123 175.012087 
L 122.840505 179.803842 
L 121.102888 184.546515 
L 119.365271 189.232451 
L 117.627653 193.854458 
L 115.890036 198.405823 
L 114.152418 202.880317 
L 112.414801 207.272198 
L 110.677184 211.576218 
L 108.939566 215.787616 
L 107.201949 219.902125 
L 105.464332 223.915957 
L 103.726714 227.825802 
L 101.989097 231.628818 
L 100.251479 235.322618 
L 98.513862 238.905259 
L 96.776245 242.375225 
L 95.038627 245.731416 
L 93.30101 248.973125 
L 91.563392 252.100025 
L 89.825775 255.112146 
L 88.088158 258.009859 
L 86.35054 260.793852 
L 84.612923 263.465111 
L 82.875305 266.024899 
z
" style="fill:#1f77b4;fill-opacity:0.25;"/>
   </g>
   <g id="PolyCollection_2">
    <path clip-path="url(#pffcaeb682b)" d="M 98.158679 214.124906 
L 98.158679 307.584 
L 101.1651 307.584 
L 104.17152 307.584 
L 107.177941 307.584 
L 110.184362 307.584 
L 113.190782 307.584 
L 116.197203 307.584 
L 119.203623 307.584 
L 122.210044 307.584 
L 125.216464 307.584 
L 128.222885 307.584 
L 131.229306 307.584 
L 134.235726 307.584 
L 137.242147 307.584 
L 140.248567 307.584 
L 143.254988 307.584 
L 146.261408 307.584 
L 149.267829 307.584 
L 152.27425 307.584 
L 155.28067 307.584 
L 158.287091 307.584 
L 161.293511 307.584 
L 164.299932 307.584 
L 167.306352 307.584 
L 170.312773 307.584 
L 173.319194 307.584 
L 176.325614 307.584 
L 179.332035 307.584 
L 182.338455 307.584 
L 185.344876 307.584 
L 188.351297 307.584 
L 191.357717 307.584 
L 194.364138 307.584 
L 197.370558 307.584 
L 200.376979 307.584 
L 203.383399 307.584 
L 206.38982 307.584 
L 209.396241 307.584 
L 212.402661 307.584 
L 215.409082 307.584 
L 218.415502 307.584 
L 221.421923 307.584 
L 224.428343 307.584 
L 227.434764 307.584 
L 230.441185 307.584 
L 233.447605 307.584 
L 236.454026 307.584 
L 239.460446 307.584 
L 242.466867 307.584 
L 245.473287 307.584 
L 248.479708 307.584 
L 251.486129 307.584 
L 254.492549 307.584 
L 257.49897 307.584 
L 260.50539 307.584 
L 263.511811 307.584 
L 266.518232 307.584 
L 269.524652 307.584 
L 272.531073 307.584 
L 275.537493 307.584 
L 278.543914 307.584 
L 281.550334 307.584 
L 284.556755 307.584 
L 287.563176 307.584 
L 290.569596 307.584 
L 293.576017 307.584 
L 296.582437 307.584 
L 299.588858 307.584 
L 302.595278 307.584 
L 305.601699 307.584 
L 308.60812 307.584 
L 311.61454 307.584 
L 314.620961 307.584 
L 317.627381 307.584 
L 320.633802 307.584 
L 323.640222 307.584 
L 326.646643 307.584 
L 329.653064 307.584 
L 332.659484 307.584 
L 335.665905 307.584 
L 338.672325 307.584 
L 341.678746 307.584 
L 344.685167 307.584 
L 347.691587 307.584 
L 350.698008 307.584 
L 353.704428 307.584 
L 356.710849 307.584 
L 359.717269 307.584 
L 362.72369 307.584 
L 365.730111 307.584 
L 368.736531 307.584 
L 371.742952 307.584 
L 374.749372 307.584 
L 377.755793 307.584 
L 380.762213 307.584 
L 383.768634 307.584 
L 386.775055 307.584 
L 389.781475 307.584 
L 392.787896 307.584 
L 395.794316 307.584 
L 395.794316 293.308937 
L 395.794316 293.308937 
L 392.787896 292.383697 
L 389.781475 291.410339 
L 386.775055 290.387411 
L 383.768634 289.313509 
L 380.762213 288.187282 
L 377.755793 287.007446 
L 374.749372 285.77279 
L 371.742952 284.482186 
L 368.736531 283.134602 
L 365.730111 281.729111 
L 362.72369 280.264902 
L 359.717269 278.741291 
L 356.710849 277.157729 
L 353.704428 275.513818 
L 350.698008 273.809316 
L 347.691587 272.044153 
L 344.685167 270.218436 
L 341.678746 268.332463 
L 338.672325 266.38673 
L 335.665905 264.381941 
L 332.659484 262.319018 
L 329.653064 260.199104 
L 326.646643 258.023577 
L 323.640222 255.79405 
L 320.633802 253.51238 
L 317.627381 251.180669 
L 314.620961 248.801273 
L 311.61454 246.376798 
L 308.60812 243.910105 
L 305.601699 241.404307 
L 302.595278 238.862771 
L 299.588858 236.289112 
L 296.582437 233.687188 
L 293.576017 231.061097 
L 290.569596 228.41517 
L 287.563176 225.753959 
L 284.556755 223.082228 
L 281.550334 220.404944 
L 278.543914 217.727263 
L 275.537493 215.054511 
L 272.531073 212.392175 
L 269.524652 209.745882 
L 266.518232 207.12138 
L 263.511811 204.524521 
L 260.50539 201.961237 
L 257.49897 199.437524 
L 254.492549 196.959411 
L 251.486129 194.532945 
L 248.479708 192.16416 
L 245.473287 189.859059 
L 242.466867 187.623582 
L 239.460446 185.463587 
L 236.454026 183.384821 
L 233.447605 181.392896 
L 230.441185 179.493262 
L 227.434764 177.691186 
L 224.428343 175.991723 
L 221.421923 174.399699 
L 218.415502 172.91968 
L 215.409082 171.555956 
L 212.402661 170.31252 
L 209.396241 169.193046 
L 206.38982 168.200873 
L 203.383399 167.338987 
L 200.376979 166.610008 
L 197.370558 166.016175 
L 194.364138 165.559336 
L 191.357717 165.240939 
L 188.351297 165.062022 
L 185.344876 165.02321 
L 182.338455 165.12471 
L 179.332035 165.366311 
L 176.325614 165.747386 
L 173.319194 166.266889 
L 170.312773 166.923368 
L 167.306352 167.714966 
L 164.299932 168.639433 
L 161.293511 169.694135 
L 158.287091 170.876069 
L 155.28067 172.181874 
L 152.27425 173.607852 
L 149.267829 175.14998 
L 146.261408 176.803936 
L 143.254988 178.565113 
L 140.248567 180.428643 
L 137.242147 182.389422 
L 134.235726 184.442131 
L 131.229306 186.581259 
L 128.222885 188.801133 
L 125.216464 191.095936 
L 122.210044 193.45974 
L 119.203623 195.886525 
L 116.197203 198.37021 
L 113.190782 200.904674 
L 110.184362 203.483784 
L 107.177941 206.101417 
L 104.17152 208.751488 
L 101.1651 211.427967 
L 98.158679 214.124906 
z
" style="fill:#ff7f0e;fill-opacity:0.25;"/>
   </g>
   <g id="PolyCollection_3">
    <path clip-path="url(#pffcaeb682b)" d="M 73.832727 249.41741 
L 73.832727 307.584 
L 77.112066 307.584 
L 80.391405 307.584 
L 83.670744 307.584 
L 86.950083 307.584 
L 90.229421 307.584 
L 93.50876 307.584 
L 96.788099 307.584 
L 100.067438 307.584 
L 103.346777 307.584 
L 106.626116 307.584 
L 109.905455 307.584 
L 113.184793 307.584 
L 116.464132 307.584 
L 119.743471 307.584 
L 123.02281 307.584 
L 126.302149 307.584 
L 129.581488 307.584 
L 132.860826 307.584 
L 136.140165 307.584 
L 139.419504 307.584 
L 142.698843 307.584 
L 145.978182 307.584 
L 149.257521 307.584 
L 152.53686 307.584 
L 155.816198 307.584 
L 159.095537 307.584 
L 162.374876 307.584 
L 165.654215 307.584 
L 168.933554 307.584 
L 172.212893 307.584 
L 175.492231 307.584 
L 178.77157 307.584 
L 182.050909 307.584 
L 185.330248 307.584 
L 188.609587 307.584 
L 191.888926 307.584 
L 195.168264 307.584 
L 198.447603 307.584 
L 201.726942 307.584 
L 205.006281 307.584 
L 208.28562 307.584 
L 211.564959 307.584 
L 214.844298 307.584 
L 218.123636 307.584 
L 221.402975 307.584 
L 224.682314 307.584 
L 227.961653 307.584 
L 231.240992 307.584 
L 234.520331 307.584 
L 237.799669 307.584 
L 241.079008 307.584 
L 244.358347 307.584 
L 247.637686 307.584 
L 250.917025 307.584 
L 254.196364 307.584 
L 257.475702 307.584 
L 260.755041 307.584 
L 264.03438 307.584 
L 267.313719 307.584 
L 270.593058 307.584 
L 273.872397 307.584 
L 277.151736 307.584 
L 280.431074 307.584 
L 283.710413 307.584 
L 286.989752 307.584 
L 290.269091 307.584 
L 293.54843 307.584 
L 296.827769 307.584 
L 300.107107 307.584 
L 303.386446 307.584 
L 306.665785 307.584 
L 309.945124 307.584 
L 313.224463 307.584 
L 316.503802 307.584 
L 319.78314 307.584 
L 323.062479 307.584 
L 326.341818 307.584 
L 329.621157 307.584 
L 332.900496 307.584 
L 336.179835 307.584 
L 339.459174 307.584 
L 342.738512 307.584 
L 346.017851 307.584 
L 349.29719 307.584 
L 352.576529 307.584 
L 355.855868 307.584 
L 359.135207 307.584 
L 362.414545 307.584 
L 365.693884 307.584 
L 368.973223 307.584 
L 372.252562 307.584 
L 375.531901 307.584 
L 378.81124 307.584 
L 382.090579 307.584 
L 385.369917 307.584 
L 388.649256 307.584 
L 391.928595 307.584 
L 395.207934 307.584 
L 398.487273 307.584 
L 398.487273 301.226978 
L 398.487273 301.226978 
L 395.207934 300.584313 
L 391.928595 299.883849 
L 388.649256 299.121526 
L 385.369917 298.29315 
L 382.090579 297.394417 
L 378.81124 296.420925 
L 375.531901 295.368203 
L 372.252562 294.23173 
L 368.973223 293.006971 
L 365.693884 291.689399 
L 362.414545 290.274539 
L 359.135207 288.758001 
L 355.855868 287.13552 
L 352.576529 285.403004 
L 349.29719 283.556576 
L 346.017851 281.592627 
L 342.738512 279.507862 
L 339.459174 277.299355 
L 336.179835 274.964602 
L 332.900496 272.501577 
L 329.621157 269.908783 
L 326.341818 267.185308 
L 323.062479 264.330877 
L 319.78314 261.345906 
L 316.503802 258.231546 
L 313.224463 254.989733 
L 309.945124 251.623229 
L 306.665785 248.135656 
L 303.386446 244.531532 
L 300.107107 240.816297 
L 296.827769 236.996328 
L 293.54843 233.078957 
L 290.269091 229.07247 
L 286.989752 224.986106 
L 283.710413 220.830042 
L 280.431074 216.615373 
L 277.151736 212.354078 
L 273.872397 208.058979 
L 270.593058 203.743693 
L 267.313719 199.422569 
L 264.03438 195.110618 
L 260.755041 190.823435 
L 257.475702 186.577114 
L 254.196364 182.38815 
L 250.917025 178.273338 
L 247.637686 174.249663 
L 244.358347 170.334189 
L 241.079008 166.543937 
L 237.799669 162.895765 
L 234.520331 159.406244 
L 231.240992 156.091534 
L 227.961653 152.967256 
L 224.682314 150.048376 
L 221.402975 147.349079 
L 218.123636 144.882659 
L 214.844298 142.661409 
L 211.564959 140.696516 
L 208.28562 138.997972 
L 205.006281 137.574486 
L 201.726942 136.43341 
L 198.447603 135.580679 
L 195.168264 135.020756 
L 191.888926 134.756598 
L 188.609587 134.789626 
L 185.330248 135.119716 
L 182.050909 135.745198 
L 178.77157 136.662875 
L 175.492231 137.868044 
L 172.212893 139.354545 
L 168.933554 141.114808 
L 165.654215 143.139923 
L 162.374876 145.41971 
L 159.095537 147.942811 
L 155.816198 150.696784 
L 152.53686 153.668201 
L 149.257521 156.842765 
L 145.978182 160.205419 
L 142.698843 163.740471 
L 139.419504 167.43171 
L 136.140165 171.262534 
L 132.860826 175.216074 
L 129.581488 179.275314 
L 126.302149 183.423212 
L 123.02281 187.64282 
L 119.743471 191.917393 
L 116.464132 196.230498 
L 113.184793 200.566112 
L 109.905455 204.908718 
L 106.626116 209.243388 
L 103.346777 213.555862 
L 100.067438 217.832612 
L 96.788099 222.060904 
L 93.50876 226.228847 
L 90.229421 230.325431 
L 86.950083 234.340558 
L 83.670744 238.265063 
L 80.391405 242.090729 
L 77.112066 245.810287 
L 73.832727 249.41741 
z
" style="fill:#2ca02c;fill-opacity:0.25;"/>
   </g>
   <g id="matplotlib.axis_1">
    <g id="xtick_1">
     <g id="line2d_1">
      <defs>
       <path d="M 0 0 
L 0 3.5 
" id="m050ea65926" style="stroke:#000000;stroke-width:0.8;"/>
      </defs>
      <g>
       <use style="stroke:#000000;stroke-width:0.8;" x="90.378185" xlink:href="#m050ea65926" y="307.584"/>
      </g>
     </g>
     <g id="text_1">
      <!-- −100 -->
      <defs>
       <path d="M 10.59375 35.5 
L 73.1875 35.5 
L 73.1875 27.203125 
L 10.59375 27.203125 
z
" id="DejaVuSans-2212"/>
       <path d="M 12.40625 8.296875 
L 28.515625 8.296875 
L 28.515625 63.921875 
L 10.984375 60.40625 
L 10.984375 69.390625 
L 28.421875 72.90625 
L 38.28125 72.90625 
L 38.28125 8.296875 
L 54.390625 8.296875 
L 54.390625 0 
L 12.40625 0 
z
" id="DejaVuSans-31"/>
       <path d="M 31.78125 66.40625 
Q 24.171875 66.40625 20.328125 58.90625 
Q 16.5 51.421875 16.5 36.375 
Q 16.5 21.390625 20.328125 13.890625 
Q 24.171875 6.390625 31.78125 6.390625 
Q 39.453125 6.390625 43.28125 13.890625 
Q 47.125 21.390625 47.125 36.375 
Q 47.125 51.421875 43.28125 58.90625 
Q 39.453125 66.40625 31.78125 66.40625 
z
M 31.78125 74.21875 
Q 44.046875 74.21875 50.515625 64.515625 
Q 56.984375 54.828125 56.984375 36.375 
Q 56.984375 17.96875 50.515625 8.265625 
Q 44.046875 -1.421875 31.78125 -1.421875 
Q 19.53125 -1.421875 13.0625 8.265625 
Q 6.59375 17.96875 6.59375 36.375 
Q 6.59375 54.828125 13.0625 64.515625 
Q 19.53125 74.21875 31.78125 74.21875 
z
" id="DejaVuSans-30"/>
      </defs>
      <g transform="translate(76.644591 322.182437)scale(0.1 -0.1)">
       <use xlink:href="#DejaVuSans-2212"/>
       <use x="83.789062" xlink:href="#DejaVuSans-31"/>
       <use x="147.412109" xlink:href="#DejaVuSans-30"/>
       <use x="211.035156" xlink:href="#DejaVuSans-30"/>
      </g>
     </g>
    </g>
    <g id="xtick_2">
     <g id="line2d_2">
      <g>
       <use style="stroke:#000000;stroke-width:0.8;" x="141.124397" xlink:href="#m050ea65926" y="307.584"/>
      </g>
     </g>
     <g id="text_2">
      <!-- −50 -->
      <defs>
       <path d="M 10.796875 72.90625 
L 49.515625 72.90625 
L 49.515625 64.59375 
L 19.828125 64.59375 
L 19.828125 46.734375 
Q 21.96875 47.46875 24.109375 47.828125 
Q 26.265625 48.1875 28.421875 48.1875 
Q 40.625 48.1875 47.75 41.5 
Q 54.890625 34.8125 54.890625 23.390625 
Q 54.890625 11.625 47.5625 5.09375 
Q 40.234375 -1.421875 26.90625 -1.421875 
Q 22.3125 -1.421875 17.546875 -0.640625 
Q 12.796875 0.140625 7.71875 1.703125 
L 7.71875 11.625 
Q 12.109375 9.234375 16.796875 8.0625 
Q 21.484375 6.890625 26.703125 6.890625 
Q 35.15625 6.890625 40.078125 11.328125 
Q 45.015625 15.765625 45.015625 23.390625 
Q 45.015625 31 40.078125 35.4375 
Q 35.15625 39.890625 26.703125 39.890625 
Q 22.75 39.890625 18.8125 39.015625 
Q 14.890625 38.140625 10.796875 36.28125 
z
" id="DejaVuSans-35"/>
      </defs>
      <g transform="translate(130.572053 322.182437)scale(0.1 -0.1)">
       <use xlink:href="#DejaVuSans-2212"/>
       <use x="83.789062" xlink:href="#DejaVuSans-35"/>
       <use x="147.412109" xlink:href="#DejaVuSans-30"/>
      </g>
     </g>
    </g>
    <g id="xtick_3">
     <g id="line2d_3">
      <g>
       <use style="stroke:#000000;stroke-width:0.8;" x="191.870609" xlink:href="#m050ea65926" y="307.584"/>
      </g>
     </g>
     <g id="text_3">
      <!-- 0 -->
      <g transform="translate(188.689359 322.182437)scale(0.1 -0.1)">
       <use xlink:href="#DejaVuSans-30"/>
      </g>
     </g>
    </g>
    <g id="xtick_4">
     <g id="line2d_4">
      <g>
       <use style="stroke:#000000;stroke-width:0.8;" x="242.61682" xlink:href="#m050ea65926" y="307.584"/>
      </g>
     </g>
     <g id="text_4">
      <!-- 50 -->
      <g transform="translate(236.25432 322.182437)scale(0.1 -0.1)">
       <use xlink:href="#DejaVuSans-35"/>
       <use x="63.623047" xlink:href="#DejaVuSans-30"/>
      </g>
     </g>
    </g>
    <g id="xtick_5">
     <g id="line2d_5">
      <g>
       <use style="stroke:#000000;stroke-width:0.8;" x="293.363032" xlink:href="#m050ea65926" y="307.584"/>
      </g>
     </g>
     <g id="text_5">
      <!-- 100 -->
      <g transform="translate(283.819282 322.182437)scale(0.1 -0.1)">
       <use xlink:href="#DejaVuSans-31"/>
       <use x="63.623047" xlink:href="#DejaVuSans-30"/>
       <use x="127.246094" xlink:href="#DejaVuSans-30"/>
      </g>
     </g>
    </g>
    <g id="xtick_6">
     <g id="line2d_6">
      <g>
       <use style="stroke:#000000;stroke-width:0.8;" x="344.109244" xlink:href="#m050ea65926" y="307.584"/>
      </g>
     </g>
     <g id="text_6">
      <!-- 150 -->
      <g transform="translate(334.565494 322.182437)scale(0.1 -0.1)">
       <use xlink:href="#DejaVuSans-31"/>
       <use x="63.623047" xlink:href="#DejaVuSans-35"/>
       <use x="127.246094" xlink:href="#DejaVuSans-30"/>
      </g>
     </g>
    </g>
    <g id="xtick_7">
     <g id="line2d_7">
      <g>
       <use style="stroke:#000000;stroke-width:0.8;" x="394.855456" xlink:href="#m050ea65926" y="307.584"/>
      </g>
     </g>
     <g id="text_7">
      <!-- 200 -->
      <defs>
       <path d="M 19.1875 8.296875 
L 53.609375 8.296875 
L 53.609375 0 
L 7.328125 0 
L 7.328125 8.296875 
Q 12.9375 14.109375 22.625 23.890625 
Q 32.328125 33.6875 34.8125 36.53125 
Q 39.546875 41.84375 41.421875 45.53125 
Q 43.3125 49.21875 43.3125 52.78125 
Q 43.3125 58.59375 39.234375 62.25 
Q 35.15625 65.921875 28.609375 65.921875 
Q 23.96875 65.921875 18.8125 64.3125 
Q 13.671875 62.703125 7.8125 59.421875 
L 7.8125 69.390625 
Q 13.765625 71.78125 18.9375 73 
Q 24.125 74.21875 28.421875 74.21875 
Q 39.75 74.21875 46.484375 68.546875 
Q 53.21875 62.890625 53.21875 53.421875 
Q 53.21875 48.921875 51.53125 44.890625 
Q 49.859375 40.875 45.40625 35.40625 
Q 44.1875 33.984375 37.640625 27.21875 
Q 31.109375 20.453125 19.1875 8.296875 
z
" id="DejaVuSans-32"/>
      </defs>
      <g transform="translate(385.311706 322.182437)scale(0.1 -0.1)">
       <use xlink:href="#DejaVuSans-32"/>
       <use x="63.623047" xlink:href="#DejaVuSans-30"/>
       <use x="127.246094" xlink:href="#DejaVuSans-30"/>
      </g>
     </g>
    </g>
    <g id="text_8">
     <!-- elasticity [a.u.] -->
     <defs>
      <path d="M 56.203125 29.59375 
L 56.203125 25.203125 
L 14.890625 25.203125 
Q 15.484375 15.921875 20.484375 11.0625 
Q 25.484375 6.203125 34.421875 6.203125 
Q 39.59375 6.203125 44.453125 7.46875 
Q 49.3125 8.734375 54.109375 11.28125 
L 54.109375 2.78125 
Q 49.265625 0.734375 44.1875 -0.34375 
Q 39.109375 -1.421875 33.890625 -1.421875 
Q 20.796875 -1.421875 13.15625 6.1875 
Q 5.515625 13.8125 5.515625 26.8125 
Q 5.515625 40.234375 12.765625 48.109375 
Q 20.015625 56 32.328125 56 
Q 43.359375 56 49.78125 48.890625 
Q 56.203125 41.796875 56.203125 29.59375 
z
M 47.21875 32.234375 
Q 47.125 39.59375 43.09375 43.984375 
Q 39.0625 48.390625 32.421875 48.390625 
Q 24.90625 48.390625 20.390625 44.140625 
Q 15.875 39.890625 15.1875 32.171875 
z
" id="DejaVuSans-65"/>
      <path d="M 9.421875 75.984375 
L 18.40625 75.984375 
L 18.40625 0 
L 9.421875 0 
z
" id="DejaVuSans-6c"/>
      <path d="M 34.28125 27.484375 
Q 23.390625 27.484375 19.1875 25 
Q 14.984375 22.515625 14.984375 16.5 
Q 14.984375 11.71875 18.140625 8.90625 
Q 21.296875 6.109375 26.703125 6.109375 
Q 34.1875 6.109375 38.703125 11.40625 
Q 43.21875 16.703125 43.21875 25.484375 
L 43.21875 27.484375 
z
M 52.203125 31.203125 
L 52.203125 0 
L 43.21875 0 
L 43.21875 8.296875 
Q 40.140625 3.328125 35.546875 0.953125 
Q 30.953125 -1.421875 24.3125 -1.421875 
Q 15.921875 -1.421875 10.953125 3.296875 
Q 6 8.015625 6 15.921875 
Q 6 25.140625 12.171875 29.828125 
Q 18.359375 34.515625 30.609375 34.515625 
L 43.21875 34.515625 
L 43.21875 35.40625 
Q 43.21875 41.609375 39.140625 45 
Q 35.0625 48.390625 27.6875 48.390625 
Q 23 48.390625 18.546875 47.265625 
Q 14.109375 46.140625 10.015625 43.890625 
L 10.015625 52.203125 
Q 14.9375 54.109375 19.578125 55.046875 
Q 24.21875 56 28.609375 56 
Q 40.484375 56 46.34375 49.84375 
Q 52.203125 43.703125 52.203125 31.203125 
z
" id="DejaVuSans-61"/>
      <path d="M 44.28125 53.078125 
L 44.28125 44.578125 
Q 40.484375 46.53125 36.375 47.5 
Q 32.28125 48.484375 27.875 48.484375 
Q 21.1875 48.484375 17.84375 46.4375 
Q 14.5 44.390625 14.5 40.28125 
Q 14.5 37.15625 16.890625 35.375 
Q 19.28125 33.59375 26.515625 31.984375 
L 29.59375 31.296875 
Q 39.15625 29.25 43.1875 25.515625 
Q 47.21875 21.78125 47.21875 15.09375 
Q 47.21875 7.46875 41.1875 3.015625 
Q 35.15625 -1.421875 24.609375 -1.421875 
Q 20.21875 -1.421875 15.453125 -0.5625 
Q 10.6875 0.296875 5.421875 2 
L 5.421875 11.28125 
Q 10.40625 8.6875 15.234375 7.390625 
Q 20.0625 6.109375 24.8125 6.109375 
Q 31.15625 6.109375 34.5625 8.28125 
Q 37.984375 10.453125 37.984375 14.40625 
Q 37.984375 18.0625 35.515625 20.015625 
Q 33.0625 21.96875 24.703125 23.78125 
L 21.578125 24.515625 
Q 13.234375 26.265625 9.515625 29.90625 
Q 5.8125 33.546875 5.8125 39.890625 
Q 5.8125 47.609375 11.28125 51.796875 
Q 16.75 56 26.8125 56 
Q 31.78125 56 36.171875 55.265625 
Q 40.578125 54.546875 44.28125 53.078125 
z
" id="DejaVuSans-73"/>
      <path d="M 18.3125 70.21875 
L 18.3125 54.6875 
L 36.8125 54.6875 
L 36.8125 47.703125 
L 18.3125 47.703125 
L 18.3125 18.015625 
Q 18.3125 11.328125 20.140625 9.421875 
Q 21.96875 7.515625 27.59375 7.515625 
L 36.8125 7.515625 
L 36.8125 0 
L 27.59375 0 
Q 17.1875 0 13.234375 3.875 
Q 9.28125 7.765625 9.28125 18.015625 
L 9.28125 47.703125 
L 2.6875 47.703125 
L 2.6875 54.6875 
L 9.28125 54.6875 
L 9.28125 70.21875 
z
" id="DejaVuSans-74"/>
      <path d="M 9.421875 54.6875 
L 18.40625 54.6875 
L 18.40625 0 
L 9.421875 0 
z
M 9.421875 75.984375 
L 18.40625 75.984375 
L 18.40625 64.59375 
L 9.421875 64.59375 
z
" id="DejaVuSans-69"/>
      <path d="M 48.78125 52.59375 
L 48.78125 44.1875 
Q 44.96875 46.296875 41.140625 47.34375 
Q 37.3125 48.390625 33.40625 48.390625 
Q 24.65625 48.390625 19.8125 42.84375 
Q 14.984375 37.3125 14.984375 27.296875 
Q 14.984375 17.28125 19.8125 11.734375 
Q 24.65625 6.203125 33.40625 6.203125 
Q 37.3125 6.203125 41.140625 7.25 
Q 44.96875 8.296875 48.78125 10.40625 
L 48.78125 2.09375 
Q 45.015625 0.34375 40.984375 -0.53125 
Q 36.96875 -1.421875 32.421875 -1.421875 
Q 20.0625 -1.421875 12.78125 6.34375 
Q 5.515625 14.109375 5.515625 27.296875 
Q 5.515625 40.671875 12.859375 48.328125 
Q 20.21875 56 33.015625 56 
Q 37.15625 56 41.109375 55.140625 
Q 45.0625 54.296875 48.78125 52.59375 
z
" id="DejaVuSans-63"/>
      <path d="M 32.171875 -5.078125 
Q 28.375 -14.84375 24.75 -17.8125 
Q 21.140625 -20.796875 15.09375 -20.796875 
L 7.90625 -20.796875 
L 7.90625 -13.28125 
L 13.1875 -13.28125 
Q 16.890625 -13.28125 18.9375 -11.515625 
Q 21 -9.765625 23.484375 -3.21875 
L 25.09375 0.875 
L 2.984375 54.6875 
L 12.5 54.6875 
L 29.59375 11.921875 
L 46.6875 54.6875 
L 56.203125 54.6875 
z
" id="DejaVuSans-79"/>
      <path id="DejaVuSans-20"/>
      <path d="M 8.59375 75.984375 
L 29.296875 75.984375 
L 29.296875 69 
L 17.578125 69 
L 17.578125 -6.203125 
L 29.296875 -6.203125 
L 29.296875 -13.1875 
L 8.59375 -13.1875 
z
" id="DejaVuSans-5b"/>
      <path d="M 10.6875 12.40625 
L 21 12.40625 
L 21 0 
L 10.6875 0 
z
" id="DejaVuSans-2e"/>
      <path d="M 8.5 21.578125 
L 8.5 54.6875 
L 17.484375 54.6875 
L 17.484375 21.921875 
Q 17.484375 14.15625 20.5 10.265625 
Q 23.53125 6.390625 29.59375 6.390625 
Q 36.859375 6.390625 41.078125 11.03125 
Q 45.3125 15.671875 45.3125 23.6875 
L 45.3125 54.6875 
L 54.296875 54.6875 
L 54.296875 0 
L 45.3125 0 
L 45.3125 8.40625 
Q 42.046875 3.421875 37.71875 1 
Q 33.40625 -1.421875 27.6875 -1.421875 
Q 18.265625 -1.421875 13.375 4.4375 
Q 8.5 10.296875 8.5 21.578125 
z
M 31.109375 56 
z
" id="DejaVuSans-75"/>
      <path d="M 30.421875 75.984375 
L 30.421875 -13.1875 
L 9.71875 -13.1875 
L 9.71875 -6.203125 
L 21.390625 -6.203125 
L 21.390625 69 
L 9.71875 69 
L 9.71875 75.984375 
z
" id="DejaVuSans-5d"/>
     </defs>
     <g transform="translate(198.717031 335.860562)scale(0.1 -0.1)">
      <use xlink:href="#DejaVuSans-65"/>
      <use x="61.523438" xlink:href="#DejaVuSans-6c"/>
      <use x="89.306641" xlink:href="#DejaVuSans-61"/>
      <use x="150.585938" xlink:href="#DejaVuSans-73"/>
      <use x="202.685547" xlink:href="#DejaVuSans-74"/>
      <use x="241.894531" xlink:href="#DejaVuSans-69"/>
      <use x="269.677734" xlink:href="#DejaVuSans-63"/>
      <use x="324.658203" xlink:href="#DejaVuSans-69"/>
      <use x="352.441406" xlink:href="#DejaVuSans-74"/>
      <use x="391.650391" xlink:href="#DejaVuSans-79"/>
      <use x="450.830078" xlink:href="#DejaVuSans-20"/>
      <use x="482.617188" xlink:href="#DejaVuSans-5b"/>
      <use x="521.630859" xlink:href="#DejaVuSans-61"/>
      <use x="582.910156" xlink:href="#DejaVuSans-2e"/>
      <use x="614.697266" xlink:href="#DejaVuSans-75"/>
      <use x="678.076172" xlink:href="#DejaVuSans-2e"/>
      <use x="709.863281" xlink:href="#DejaVuSans-5d"/>
     </g>
    </g>
   </g>
   <g id="matplotlib.axis_2">
    <g id="ytick_1">
     <g id="line2d_8">
      <defs>
       <path d="M 0 0 
L -3.5 0 
" id="m731301e48c" style="stroke:#000000;stroke-width:0.8;"/>
      </defs>
      <g>
       <use style="stroke:#000000;stroke-width:0.8;" x="57.6" xlink:href="#m731301e48c" y="307.584"/>
      </g>
     </g>
     <g id="text_9">
      <!-- 0.000 -->
      <g transform="translate(21.971875 311.383219)scale(0.1 -0.1)">
       <use xlink:href="#DejaVuSans-30"/>
       <use x="63.623047" xlink:href="#DejaVuSans-2e"/>
       <use x="95.410156" xlink:href="#DejaVuSans-30"/>
       <use x="159.033203" xlink:href="#DejaVuSans-30"/>
       <use x="222.65625" xlink:href="#DejaVuSans-30"/>
      </g>
     </g>
    </g>
    <g id="ytick_2">
     <g id="line2d_9">
      <g>
       <use style="stroke:#000000;stroke-width:0.8;" x="57.6" xlink:href="#m731301e48c" y="273.654409"/>
      </g>
     </g>
     <g id="text_10">
      <!-- 0.001 -->
      <g transform="translate(21.971875 277.453628)scale(0.1 -0.1)">
       <use xlink:href="#DejaVuSans-30"/>
       <use x="63.623047" xlink:href="#DejaVuSans-2e"/>
       <use x="95.410156" xlink:href="#DejaVuSans-30"/>
       <use x="159.033203" xlink:href="#DejaVuSans-30"/>
       <use x="222.65625" xlink:href="#DejaVuSans-31"/>
      </g>
     </g>
    </g>
    <g id="ytick_3">
     <g id="line2d_10">
      <g>
       <use style="stroke:#000000;stroke-width:0.8;" x="57.6" xlink:href="#m731301e48c" y="239.724818"/>
      </g>
     </g>
     <g id="text_11">
      <!-- 0.002 -->
      <g transform="translate(21.971875 243.524037)scale(0.1 -0.1)">
       <use xlink:href="#DejaVuSans-30"/>
       <use x="63.623047" xlink:href="#DejaVuSans-2e"/>
       <use x="95.410156" xlink:href="#DejaVuSans-30"/>
       <use x="159.033203" xlink:href="#DejaVuSans-30"/>
       <use x="222.65625" xlink:href="#DejaVuSans-32"/>
      </g>
     </g>
    </g>
    <g id="ytick_4">
     <g id="line2d_11">
      <g>
       <use style="stroke:#000000;stroke-width:0.8;" x="57.6" xlink:href="#m731301e48c" y="205.795227"/>
      </g>
     </g>
     <g id="text_12">
      <!-- 0.003 -->
      <defs>
       <path d="M 40.578125 39.3125 
Q 47.65625 37.796875 51.625 33 
Q 55.609375 28.21875 55.609375 21.1875 
Q 55.609375 10.40625 48.1875 4.484375 
Q 40.765625 -1.421875 27.09375 -1.421875 
Q 22.515625 -1.421875 17.65625 -0.515625 
Q 12.796875 0.390625 7.625 2.203125 
L 7.625 11.71875 
Q 11.71875 9.328125 16.59375 8.109375 
Q 21.484375 6.890625 26.8125 6.890625 
Q 36.078125 6.890625 40.9375 10.546875 
Q 45.796875 14.203125 45.796875 21.1875 
Q 45.796875 27.640625 41.28125 31.265625 
Q 36.765625 34.90625 28.71875 34.90625 
L 20.21875 34.90625 
L 20.21875 43.015625 
L 29.109375 43.015625 
Q 36.375 43.015625 40.234375 45.921875 
Q 44.09375 48.828125 44.09375 54.296875 
Q 44.09375 59.90625 40.109375 62.90625 
Q 36.140625 65.921875 28.71875 65.921875 
Q 24.65625 65.921875 20.015625 65.03125 
Q 15.375 64.15625 9.8125 62.3125 
L 9.8125 71.09375 
Q 15.4375 72.65625 20.34375 73.4375 
Q 25.25 74.21875 29.59375 74.21875 
Q 40.828125 74.21875 47.359375 69.109375 
Q 53.90625 64.015625 53.90625 55.328125 
Q 53.90625 49.265625 50.4375 45.09375 
Q 46.96875 40.921875 40.578125 39.3125 
z
" id="DejaVuSans-33"/>
      </defs>
      <g transform="translate(21.971875 209.594446)scale(0.1 -0.1)">
       <use xlink:href="#DejaVuSans-30"/>
       <use x="63.623047" xlink:href="#DejaVuSans-2e"/>
       <use x="95.410156" xlink:href="#DejaVuSans-30"/>
       <use x="159.033203" xlink:href="#DejaVuSans-30"/>
       <use x="222.65625" xlink:href="#DejaVuSans-33"/>
      </g>
     </g>
    </g>
    <g id="ytick_5">
     <g id="line2d_12">
      <g>
       <use style="stroke:#000000;stroke-width:0.8;" x="57.6" xlink:href="#m731301e48c" y="171.865636"/>
      </g>
     </g>
     <g id="text_13">
      <!-- 0.004 -->
      <defs>
       <path d="M 37.796875 64.3125 
L 12.890625 25.390625 
L 37.796875 25.390625 
z
M 35.203125 72.90625 
L 47.609375 72.90625 
L 47.609375 25.390625 
L 58.015625 25.390625 
L 58.015625 17.1875 
L 47.609375 17.1875 
L 47.609375 0 
L 37.796875 0 
L 37.796875 17.1875 
L 4.890625 17.1875 
L 4.890625 26.703125 
z
" id="DejaVuSans-34"/>
      </defs>
      <g transform="translate(21.971875 175.664855)scale(0.1 -0.1)">
       <use xlink:href="#DejaVuSans-30"/>
       <use x="63.623047" xlink:href="#DejaVuSans-2e"/>
       <use x="95.410156" xlink:href="#DejaVuSans-30"/>
       <use x="159.033203" xlink:href="#DejaVuSans-30"/>
       <use x="222.65625" xlink:href="#DejaVuSans-34"/>
      </g>
     </g>
    </g>
    <g id="ytick_6">
     <g id="line2d_13">
      <g>
       <use style="stroke:#000000;stroke-width:0.8;" x="57.6" xlink:href="#m731301e48c" y="137.936045"/>
      </g>
     </g>
     <g id="text_14">
      <!-- 0.005 -->
      <g transform="translate(21.971875 141.735264)scale(0.1 -0.1)">
       <use xlink:href="#DejaVuSans-30"/>
       <use x="63.623047" xlink:href="#DejaVuSans-2e"/>
       <use x="95.410156" xlink:href="#DejaVuSans-30"/>
       <use x="159.033203" xlink:href="#DejaVuSans-30"/>
       <use x="222.65625" xlink:href="#DejaVuSans-35"/>
      </g>
     </g>
    </g>
    <g id="ytick_7">
     <g id="line2d_14">
      <g>
       <use style="stroke:#000000;stroke-width:0.8;" x="57.6" xlink:href="#m731301e48c" y="104.006454"/>
      </g>
     </g>
     <g id="text_15">
      <!-- 0.006 -->
      <defs>
       <path d="M 33.015625 40.375 
Q 26.375 40.375 22.484375 35.828125 
Q 18.609375 31.296875 18.609375 23.390625 
Q 18.609375 15.53125 22.484375 10.953125 
Q 26.375 6.390625 33.015625 6.390625 
Q 39.65625 6.390625 43.53125 10.953125 
Q 47.40625 15.53125 47.40625 23.390625 
Q 47.40625 31.296875 43.53125 35.828125 
Q 39.65625 40.375 33.015625 40.375 
z
M 52.59375 71.296875 
L 52.59375 62.3125 
Q 48.875 64.0625 45.09375 64.984375 
Q 41.3125 65.921875 37.59375 65.921875 
Q 27.828125 65.921875 22.671875 59.328125 
Q 17.53125 52.734375 16.796875 39.40625 
Q 19.671875 43.65625 24.015625 45.921875 
Q 28.375 48.1875 33.59375 48.1875 
Q 44.578125 48.1875 50.953125 41.515625 
Q 57.328125 34.859375 57.328125 23.390625 
Q 57.328125 12.15625 50.6875 5.359375 
Q 44.046875 -1.421875 33.015625 -1.421875 
Q 20.359375 -1.421875 13.671875 8.265625 
Q 6.984375 17.96875 6.984375 36.375 
Q 6.984375 53.65625 15.1875 63.9375 
Q 23.390625 74.21875 37.203125 74.21875 
Q 40.921875 74.21875 44.703125 73.484375 
Q 48.484375 72.75 52.59375 71.296875 
z
" id="DejaVuSans-36"/>
      </defs>
      <g transform="translate(21.971875 107.805673)scale(0.1 -0.1)">
       <use xlink:href="#DejaVuSans-30"/>
       <use x="63.623047" xlink:href="#DejaVuSans-2e"/>
       <use x="95.410156" xlink:href="#DejaVuSans-30"/>
       <use x="159.033203" xlink:href="#DejaVuSans-30"/>
       <use x="222.65625" xlink:href="#DejaVuSans-36"/>
      </g>
     </g>
    </g>
    <g id="ytick_8">
     <g id="line2d_15">
      <g>
       <use style="stroke:#000000;stroke-width:0.8;" x="57.6" xlink:href="#m731301e48c" y="70.076863"/>
      </g>
     </g>
     <g id="text_16">
      <!-- 0.007 -->
      <defs>
       <path d="M 8.203125 72.90625 
L 55.078125 72.90625 
L 55.078125 68.703125 
L 28.609375 0 
L 18.3125 0 
L 43.21875 64.59375 
L 8.203125 64.59375 
z
" id="DejaVuSans-37"/>
      </defs>
      <g transform="translate(21.971875 73.876082)scale(0.1 -0.1)">
       <use xlink:href="#DejaVuSans-30"/>
       <use x="63.623047" xlink:href="#DejaVuSans-2e"/>
       <use x="95.410156" xlink:href="#DejaVuSans-30"/>
       <use x="159.033203" xlink:href="#DejaVuSans-30"/>
       <use x="222.65625" xlink:href="#DejaVuSans-37"/>
      </g>
     </g>
    </g>
    <g id="text_17">
     <!-- density -->
     <defs>
      <path d="M 45.40625 46.390625 
L 45.40625 75.984375 
L 54.390625 75.984375 
L 54.390625 0 
L 45.40625 0 
L 45.40625 8.203125 
Q 42.578125 3.328125 38.25 0.953125 
Q 33.9375 -1.421875 27.875 -1.421875 
Q 17.96875 -1.421875 11.734375 6.484375 
Q 5.515625 14.40625 5.515625 27.296875 
Q 5.515625 40.1875 11.734375 48.09375 
Q 17.96875 56 27.875 56 
Q 33.9375 56 38.25 53.625 
Q 42.578125 51.265625 45.40625 46.390625 
z
M 14.796875 27.296875 
Q 14.796875 17.390625 18.875 11.75 
Q 22.953125 6.109375 30.078125 6.109375 
Q 37.203125 6.109375 41.296875 11.75 
Q 45.40625 17.390625 45.40625 27.296875 
Q 45.40625 37.203125 41.296875 42.84375 
Q 37.203125 48.484375 30.078125 48.484375 
Q 22.953125 48.484375 18.875 42.84375 
Q 14.796875 37.203125 14.796875 27.296875 
z
" id="DejaVuSans-64"/>
      <path d="M 54.890625 33.015625 
L 54.890625 0 
L 45.90625 0 
L 45.90625 32.71875 
Q 45.90625 40.484375 42.875 44.328125 
Q 39.84375 48.1875 33.796875 48.1875 
Q 26.515625 48.1875 22.3125 43.546875 
Q 18.109375 38.921875 18.109375 30.90625 
L 18.109375 0 
L 9.078125 0 
L 9.078125 54.6875 
L 18.109375 54.6875 
L 18.109375 46.1875 
Q 21.34375 51.125 25.703125 53.5625 
Q 30.078125 56 35.796875 56 
Q 45.21875 56 50.046875 50.171875 
Q 54.890625 44.34375 54.890625 33.015625 
z
" id="DejaVuSans-6e"/>
     </defs>
     <g transform="translate(15.892187 192.860812)rotate(-90)scale(0.1 -0.1)">
      <use xlink:href="#DejaVuSans-64"/>
      <use x="63.476562" xlink:href="#DejaVuSans-65"/>
      <use x="125" xlink:href="#DejaVuSans-6e"/>
      <use x="188.378906" xlink:href="#DejaVuSans-73"/>
      <use x="240.478516" xlink:href="#DejaVuSans-69"/>
      <use x="268.261719" xlink:href="#DejaVuSans-74"/>
      <use x="307.470703" xlink:href="#DejaVuSans-79"/>
     </g>
    </g>
   </g>
   <g id="line2d_16">
    <path clip-path="url(#pffcaeb682b)" d="M 82.875305 266.024899 
L 84.612923 263.465111 
L 86.35054 260.793852 
L 88.088158 258.009859 
L 89.825775 255.112146 
L 91.563392 252.100025 
L 93.30101 248.973125 
L 95.038627 245.731416 
L 96.776245 242.375225 
L 98.513862 238.905259 
L 100.251479 235.322618 
L 101.989097 231.628818 
L 103.726714 227.825802 
L 105.464332 223.915957 
L 107.201949 219.902125 
L 108.939566 215.787616 
L 110.677184 211.576218 
L 112.414801 207.272198 
L 114.152418 202.880317 
L 115.890036 198.405823 
L 117.627653 193.854458 
L 119.365271 189.232451 
L 121.102888 184.546515 
L 122.840505 179.803842 
L 124.578123 175.012087 
L 126.31574 170.179357 
L 128.053358 165.314196 
L 129.790975 160.425563 
L 131.528592 155.522813 
L 133.26621 150.615669 
L 135.003827 145.714197 
L 136.741445 140.82877 
L 138.479062 135.970043 
L 140.216679 131.14891 
L 141.954297 126.376469 
L 143.691914 121.663982 
L 145.429531 117.022833 
L 147.167149 112.46448 
L 148.904766 108.000414 
L 150.642384 103.642109 
L 152.380001 99.400977 
L 154.117618 95.288314 
L 155.855236 91.315255 
L 157.592853 87.492722 
L 159.330471 83.831376 
L 161.068088 80.341567 
L 162.805705 77.033284 
L 164.543323 73.91611 
L 166.28094 70.999175 
L 168.018558 68.291111 
L 169.756175 65.800009 
L 171.493792 63.533383 
L 173.23141 61.498126 
L 174.969027 59.700479 
L 176.706644 58.145997 
L 178.444262 56.839524 
L 180.181879 55.785164 
L 181.919497 54.986262 
L 183.657114 54.445384 
L 185.394731 54.164305 
L 187.132349 54.144 
L 188.869966 54.384637 
L 190.607584 54.885575 
L 192.345201 55.64537 
L 194.082818 56.661779 
L 195.820436 57.93177 
L 197.558053 59.451542 
L 199.295671 61.216539 
L 201.033288 63.221476 
L 202.770905 65.460365 
L 204.508523 67.926542 
L 206.24614 70.612706 
L 207.983757 73.510947 
L 209.721375 76.612794 
L 211.458992 79.90925 
L 213.19661 83.390838 
L 214.934227 87.047646 
L 216.671844 90.869374 
L 218.409462 94.845384 
L 220.147079 98.964746 
L 221.884697 103.216292 
L 223.622314 107.588664 
L 225.359931 112.070364 
L 227.097549 116.649806 
L 228.835166 121.315362 
L 230.572784 126.055417 
L 232.310401 130.858408 
L 234.048018 135.712877 
L 235.785636 140.60751 
L 237.523253 145.531185 
L 239.26087 150.473006 
L 240.998488 155.422345 
L 242.736105 160.368877 
L 244.473723 165.30261 
L 246.21134 170.213921 
L 247.948957 175.093575 
L 249.686575 179.932757 
L 251.424192 184.723089 
L 253.16181 189.456649 
L 254.899427 194.125987 
" style="fill:none;stroke:#1f77b4;stroke-linecap:square;stroke-width:1.5;"/>
   </g>
   <g id="line2d_17">
    <path clip-path="url(#pffcaeb682b)" d="M 98.158679 214.124906 
L 101.1651 211.427967 
L 104.17152 208.751488 
L 107.177941 206.101417 
L 110.184362 203.483784 
L 113.190782 200.904674 
L 116.197203 198.37021 
L 119.203623 195.886525 
L 122.210044 193.45974 
L 125.216464 191.095936 
L 128.222885 188.801133 
L 131.229306 186.581259 
L 134.235726 184.442131 
L 137.242147 182.389422 
L 140.248567 180.428643 
L 143.254988 178.565113 
L 146.261408 176.803936 
L 149.267829 175.14998 
L 152.27425 173.607852 
L 155.28067 172.181874 
L 158.287091 170.876069 
L 161.293511 169.694135 
L 164.299932 168.639433 
L 167.306352 167.714966 
L 170.312773 166.923368 
L 173.319194 166.266889 
L 176.325614 165.747386 
L 179.332035 165.366311 
L 182.338455 165.12471 
L 185.344876 165.02321 
L 188.351297 165.062022 
L 191.357717 165.240939 
L 194.364138 165.559336 
L 197.370558 166.016175 
L 200.376979 166.610008 
L 203.383399 167.338987 
L 206.38982 168.200873 
L 209.396241 169.193046 
L 212.402661 170.31252 
L 215.409082 171.555956 
L 218.415502 172.91968 
L 221.421923 174.399699 
L 224.428343 175.991723 
L 227.434764 177.691186 
L 230.441185 179.493262 
L 233.447605 181.392896 
L 236.454026 183.384821 
L 239.460446 185.463587 
L 242.466867 187.623582 
L 245.473287 189.859059 
L 248.479708 192.16416 
L 251.486129 194.532945 
L 254.492549 196.959411 
L 257.49897 199.437524 
L 260.50539 201.961237 
L 263.511811 204.524521 
L 266.518232 207.12138 
L 269.524652 209.745882 
L 272.531073 212.392175 
L 275.537493 215.054511 
L 278.543914 217.727263 
L 281.550334 220.404944 
L 284.556755 223.082228 
L 287.563176 225.753959 
L 290.569596 228.41517 
L 293.576017 231.061097 
L 296.582437 233.687188 
L 299.588858 236.289112 
L 302.595278 238.862771 
L 305.601699 241.404307 
L 308.60812 243.910105 
L 311.61454 246.376798 
L 314.620961 248.801273 
L 317.627381 251.180669 
L 320.633802 253.51238 
L 323.640222 255.79405 
L 326.646643 258.023577 
L 329.653064 260.199104 
L 332.659484 262.319018 
L 335.665905 264.381941 
L 338.672325 266.38673 
L 341.678746 268.332463 
L 344.685167 270.218436 
L 347.691587 272.044153 
L 350.698008 273.809316 
L 353.704428 275.513818 
L 356.710849 277.157729 
L 359.717269 278.741291 
L 362.72369 280.264902 
L 365.730111 281.729111 
L 368.736531 283.134602 
L 371.742952 284.482186 
L 374.749372 285.77279 
L 377.755793 287.007446 
L 380.762213 288.187282 
L 383.768634 289.313509 
L 386.775055 290.387411 
L 389.781475 291.410339 
L 392.787896 292.383697 
L 395.794316 293.308937 
" style="fill:none;stroke:#ff7f0e;stroke-linecap:square;stroke-width:1.5;"/>
   </g>
   <g id="line2d_18">
    <path clip-path="url(#pffcaeb682b)" d="M 73.832727 249.41741 
L 77.112066 245.810287 
L 80.391405 242.090729 
L 83.670744 238.265063 
L 86.950083 234.340558 
L 90.229421 230.325431 
L 93.50876 226.228847 
L 96.788099 222.060904 
L 100.067438 217.832612 
L 103.346777 213.555862 
L 106.626116 209.243388 
L 109.905455 204.908718 
L 113.184793 200.566112 
L 116.464132 196.230498 
L 119.743471 191.917393 
L 123.02281 187.64282 
L 126.302149 183.423212 
L 129.581488 179.275314 
L 132.860826 175.216074 
L 136.140165 171.262534 
L 139.419504 167.43171 
L 142.698843 163.740471 
L 145.978182 160.205419 
L 149.257521 156.842765 
L 152.53686 153.668201 
L 155.816198 150.696784 
L 159.095537 147.942811 
L 162.374876 145.41971 
L 165.654215 143.139923 
L 168.933554 141.114808 
L 172.212893 139.354545 
L 175.492231 137.868044 
L 178.77157 136.662875 
L 182.050909 135.745198 
L 185.330248 135.119716 
L 188.609587 134.789626 
L 191.888926 134.756598 
L 195.168264 135.020756 
L 198.447603 135.580679 
L 201.726942 136.43341 
L 205.006281 137.574486 
L 208.28562 138.997972 
L 211.564959 140.696516 
L 214.844298 142.661409 
L 218.123636 144.882659 
L 221.402975 147.349079 
L 224.682314 150.048376 
L 227.961653 152.967256 
L 231.240992 156.091534 
L 234.520331 159.406244 
L 237.799669 162.895765 
L 241.079008 166.543937 
L 244.358347 170.334189 
L 247.637686 174.249663 
L 250.917025 178.273338 
L 254.196364 182.38815 
L 257.475702 186.577114 
L 260.755041 190.823435 
L 264.03438 195.110618 
L 267.313719 199.422569 
L 270.593058 203.743693 
L 273.872397 208.058979 
L 277.151736 212.354078 
L 280.431074 216.615373 
L 283.710413 220.830042 
L 286.989752 224.986106 
L 290.269091 229.07247 
L 293.54843 233.078957 
L 296.827769 236.996328 
L 300.107107 240.816297 
L 303.386446 244.531532 
L 306.665785 248.135656 
L 309.945124 251.623229 
L 313.224463 254.989733 
L 316.503802 258.231546 
L 319.78314 261.345906 
L 323.062479 264.330877 
L 326.341818 267.185308 
L 329.621157 269.908783 
L 332.900496 272.501577 
L 336.179835 274.964602 
L 339.459174 277.299355 
L 342.738512 279.507862 
L 346.017851 281.592627 
L 349.29719 283.556576 
L 352.576529 285.403004 
L 355.855868 287.13552 
L 359.135207 288.758001 
L 362.414545 290.274539 
L 365.693884 291.689399 
L 368.973223 293.006971 
L 372.252562 294.23173 
L 375.531901 295.368203 
L 378.81124 296.420925 
L 382.090579 297.394417 
L 385.369917 298.29315 
L 388.649256 299.121526 
L 391.928595 299.883849 
L 395.207934 300.584313 
L 398.487273 301.226978 
" style="fill:none;stroke:#2ca02c;stroke-linecap:square;stroke-width:1.5;"/>
   </g>
   <g id="patch_3">
    <path d="M 57.6 307.584 
L 57.6 41.472 
" style="fill:none;stroke:#000000;stroke-linecap:square;stroke-linejoin:miter;stroke-width:0.8;"/>
   </g>
   <g id="patch_4">
    <path d="M 414.72 307.584 
L 414.72 41.472 
" style="fill:none;stroke:#000000;stroke-linecap:square;stroke-linejoin:miter;stroke-width:0.8;"/>
   </g>
   <g id="patch_5">
    <path d="M 57.6 307.584 
L 414.72 307.584 
" style="fill:none;stroke:#000000;stroke-linecap:square;stroke-linejoin:miter;stroke-width:0.8;"/>
   </g>
   <g id="patch_6">
    <path d="M 57.6 41.472 
L 414.72 41.472 
" style="fill:none;stroke:#000000;stroke-linecap:square;stroke-linejoin:miter;stroke-width:0.8;"/>
   </g>
   <g id="legend_1">
    <g id="patch_7">
     <path d="M 317.329375 93.506375 
L 407.72 93.506375 
Q 409.72 93.506375 409.72 91.506375 
L 409.72 48.472 
Q 409.72 46.472 407.72 46.472 
L 317.329375 46.472 
Q 315.329375 46.472 315.329375 48.472 
L 315.329375 91.506375 
Q 315.329375 93.506375 317.329375 93.506375 
z
" style="fill:#ffffff;opacity:0.8;stroke:#cccccc;stroke-linejoin:miter;"/>
    </g>
    <g id="line2d_19">
     <path d="M 319.329375 54.570438 
L 339.329375 54.570438 
" style="fill:none;stroke:#1f77b4;stroke-linecap:square;stroke-width:1.5;"/>
    </g>
    <g id="line2d_20"/>
    <g id="text_18">
     <!-- ERR260275 -->
     <defs>
      <path d="M 9.8125 72.90625 
L 55.90625 72.90625 
L 55.90625 64.59375 
L 19.671875 64.59375 
L 19.671875 43.015625 
L 54.390625 43.015625 
L 54.390625 34.71875 
L 19.671875 34.71875 
L 19.671875 8.296875 
L 56.78125 8.296875 
L 56.78125 0 
L 9.8125 0 
z
" id="DejaVuSans-45"/>
      <path d="M 44.390625 34.1875 
Q 47.5625 33.109375 50.5625 29.59375 
Q 53.5625 26.078125 56.59375 19.921875 
L 66.609375 0 
L 56 0 
L 46.6875 18.703125 
Q 43.0625 26.03125 39.671875 28.421875 
Q 36.28125 30.8125 30.421875 30.8125 
L 19.671875 30.8125 
L 19.671875 0 
L 9.8125 0 
L 9.8125 72.90625 
L 32.078125 72.90625 
Q 44.578125 72.90625 50.734375 67.671875 
Q 56.890625 62.453125 56.890625 51.90625 
Q 56.890625 45.015625 53.6875 40.46875 
Q 50.484375 35.9375 44.390625 34.1875 
z
M 19.671875 64.796875 
L 19.671875 38.921875 
L 32.078125 38.921875 
Q 39.203125 38.921875 42.84375 42.21875 
Q 46.484375 45.515625 46.484375 51.90625 
Q 46.484375 58.296875 42.84375 61.546875 
Q 39.203125 64.796875 32.078125 64.796875 
z
" id="DejaVuSans-52"/>
     </defs>
     <g transform="translate(347.329375 58.070438)scale(0.1 -0.1)">
      <use xlink:href="#DejaVuSans-45"/>
      <use x="63.183594" xlink:href="#DejaVuSans-52"/>
      <use x="132.666016" xlink:href="#DejaVuSans-52"/>
      <use x="202.148438" xlink:href="#DejaVuSans-32"/>
      <use x="265.771484" xlink:href="#DejaVuSans-36"/>
      <use x="329.394531" xlink:href="#DejaVuSans-30"/>
      <use x="393.017578" xlink:href="#DejaVuSans-32"/>
      <use x="456.640625" xlink:href="#DejaVuSans-37"/>
      <use x="520.263672" xlink:href="#DejaVuSans-35"/>
     </g>
    </g>
    <g id="line2d_21">
     <path d="M 319.329375 69.248563 
L 339.329375 69.248563 
" style="fill:none;stroke:#ff7f0e;stroke-linecap:square;stroke-width:1.5;"/>
    </g>
    <g id="line2d_22"/>
    <g id="text_19">
     <!-- ERR260214 -->
     <g transform="translate(347.329375 72.748563)scale(0.1 -0.1)">
      <use xlink:href="#DejaVuSans-45"/>
      <use x="63.183594" xlink:href="#DejaVuSans-52"/>
      <use x="132.666016" xlink:href="#DejaVuSans-52"/>
      <use x="202.148438" xlink:href="#DejaVuSans-32"/>
      <use x="265.771484" xlink:href="#DejaVuSans-36"/>
      <use x="329.394531" xlink:href="#DejaVuSans-30"/>
      <use x="393.017578" xlink:href="#DejaVuSans-32"/>
      <use x="456.640625" xlink:href="#DejaVuSans-31"/>
      <use x="520.263672" xlink:href="#DejaVuSans-34"/>
     </g>
    </g>
    <g id="line2d_23">
     <path d="M 319.329375 83.926688 
L 339.329375 83.926688 
" style="fill:none;stroke:#2ca02c;stroke-linecap:square;stroke-width:1.5;"/>
    </g>
    <g id="line2d_24"/>
    <g id="text_20">
     <!-- ERR260174 -->
     <g transform="translate(347.329375 87.426688)scale(0.1 -0.1)">
      <use xlink:href="#DejaVuSans-45"/>
      <use x="63.183594" xlink:href="#DejaVuSans-52"/>
      <use x="132.666016" xlink:href="#DejaVuSans-52"/>
      <use x="202.148438" xlink:href="#DejaVuSans-32"/>
      <use x="265.771484" xlink:href="#DejaVuSans-36"/>
      <use x="329.394531" xlink:href="#DejaVuSans-30"/>
      <use x="393.017578" xlink:href="#DejaVuSans-31"/>
      <use x="456.640625" xlink:href="#DejaVuSans-37"/>
      <use x="520.263672" xlink:href="#DejaVuSans-34"/>
     </g>
    </g>
   </g>
  </g>
 </g>
 <defs>
  <clipPath id="pffcaeb682b">
   <rect height="266.112" width="357.12" x="57.6" y="41.472"/>
  </clipPath>
 </defs>
</svg>
