<?xml version="1.0" encoding="utf-8" standalone="no"?>
<!DOCTYPE svg PUBLIC "-//W3C//DTD SVG 1.1//EN"
  "http://www.w3.org/Graphics/SVG/1.1/DTD/svg11.dtd">
<!-- Created with matplotlib (http://matplotlib.org/) -->
<svg height="345.6pt" version="1.1" viewBox="0 0 460.8 345.6" width="460.8pt" xmlns="http://www.w3.org/2000/svg" xmlns:xlink="http://www.w3.org/1999/xlink">
 <defs>
  <style type="text/css">
*{stroke-linecap:butt;stroke-linejoin:round;}
  </style>
 </defs>
 <g id="figure_1">
  <g id="patch_1">
   <path d="M 0 345.6 
L 460.8 345.6 
L 460.8 0 
L 0 0 
z
" style="fill:#ffffff;"/>
  </g>
  <g id="axes_1">
   <g id="patch_2">
    <path d="M 57.6 307.584 
L 414.72 307.584 
L 414.72 41.472 
L 57.6 41.472 
z
" style="fill:#ffffff;"/>
   </g>
   <g id="PolyCollection_1">
    <path clip-path="url(#pdba267de41)" d="M 73.832727 295.113144 
L 73.832727 307.584 
L 77.112066 307.584 
L 80.391405 307.584 
L 83.670744 307.584 
L 86.950083 307.584 
L 90.229421 307.584 
L 93.50876 307.584 
L 96.788099 307.584 
L 100.067438 307.584 
L 103.346777 307.584 
L 106.626116 307.584 
L 109.905455 307.584 
L 113.184793 307.584 
L 116.464132 307.584 
L 119.743471 307.584 
L 123.02281 307.584 
L 126.302149 307.584 
L 129.581488 307.584 
L 132.860826 307.584 
L 136.140165 307.584 
L 139.419504 307.584 
L 142.698843 307.584 
L 145.978182 307.584 
L 149.257521 307.584 
L 152.53686 307.584 
L 155.816198 307.584 
L 159.095537 307.584 
L 162.374876 307.584 
L 165.654215 307.584 
L 168.933554 307.584 
L 172.212893 307.584 
L 175.492231 307.584 
L 178.77157 307.584 
L 182.050909 307.584 
L 185.330248 307.584 
L 188.609587 307.584 
L 191.888926 307.584 
L 195.168264 307.584 
L 198.447603 307.584 
L 201.726942 307.584 
L 205.006281 307.584 
L 208.28562 307.584 
L 211.564959 307.584 
L 214.844298 307.584 
L 218.123636 307.584 
L 221.402975 307.584 
L 224.682314 307.584 
L 227.961653 307.584 
L 231.240992 307.584 
L 234.520331 307.584 
L 237.799669 307.584 
L 241.079008 307.584 
L 244.358347 307.584 
L 247.637686 307.584 
L 250.917025 307.584 
L 254.196364 307.584 
L 257.475702 307.584 
L 260.755041 307.584 
L 264.03438 307.584 
L 267.313719 307.584 
L 270.593058 307.584 
L 273.872397 307.584 
L 277.151736 307.584 
L 280.431074 307.584 
L 283.710413 307.584 
L 286.989752 307.584 
L 290.269091 307.584 
L 293.54843 307.584 
L 296.827769 307.584 
L 300.107107 307.584 
L 303.386446 307.584 
L 306.665785 307.584 
L 309.945124 307.584 
L 313.224463 307.584 
L 316.503802 307.584 
L 319.78314 307.584 
L 323.062479 307.584 
L 326.341818 307.584 
L 329.621157 307.584 
L 332.900496 307.584 
L 336.179835 307.584 
L 339.459174 307.584 
L 342.738512 307.584 
L 346.017851 307.584 
L 349.29719 307.584 
L 352.576529 307.584 
L 355.855868 307.584 
L 359.135207 307.584 
L 362.414545 307.584 
L 365.693884 307.584 
L 368.973223 307.584 
L 372.252562 307.584 
L 375.531901 307.584 
L 378.81124 307.584 
L 382.090579 307.584 
L 385.369917 307.584 
L 388.649256 307.584 
L 391.928595 307.584 
L 395.207934 307.584 
L 398.487273 307.584 
L 398.487273 281.716916 
L 398.487273 281.716916 
L 395.207934 279.543174 
L 391.928595 277.240393 
L 388.649256 274.806537 
L 385.369917 272.240149 
L 382.090579 269.540409 
L 378.81124 266.707189 
L 375.531901 263.741108 
L 372.252562 260.643589 
L 368.973223 257.416902 
L 365.693884 254.064212 
L 362.414545 250.589614 
L 359.135207 246.998173 
L 355.855868 243.295941 
L 352.576529 239.489982 
L 349.29719 235.588378 
L 346.017851 231.60023 
L 342.738512 227.535651 
L 339.459174 223.405745 
L 336.179835 219.222579 
L 332.900496 214.999141 
L 329.621157 210.749291 
L 326.341818 206.487696 
L 323.062479 202.229763 
L 319.78314 197.99155 
L 316.503802 193.789679 
L 313.224463 189.64123 
L 309.945124 185.563635 
L 306.665785 181.574554 
L 303.386446 177.69176 
L 300.107107 173.932999 
L 296.827769 170.315865 
L 293.54843 166.857659 
L 290.269091 163.575253 
L 286.989752 160.484955 
L 283.710413 157.602368 
L 280.431074 154.942266 
L 277.151736 152.518458 
L 273.872397 150.343677 
L 270.593058 148.429462 
L 267.313719 146.786056 
L 264.03438 145.422314 
L 260.755041 144.345622 
L 257.475702 143.561831 
L 254.196364 143.075203 
L 250.917025 142.888369 
L 247.637686 143.002308 
L 244.358347 143.416334 
L 241.079008 144.128106 
L 237.799669 145.133647 
L 234.520331 146.427384 
L 231.240992 148.002194 
L 227.961653 149.849473 
L 224.682314 151.959214 
L 221.402975 154.320097 
L 218.123636 156.919587 
L 214.844298 159.744052 
L 211.564959 162.778876 
L 208.28562 166.008587 
L 205.006281 169.41699 
L 201.726942 172.987303 
L 198.447603 176.702289 
L 195.168264 180.544399 
L 191.888926 184.49591 
L 188.609587 188.539056 
L 185.330248 192.656159 
L 182.050909 196.829758 
L 178.77157 201.042727 
L 175.492231 205.278385 
L 172.212893 209.520602 
L 168.933554 213.753891 
L 165.654215 217.963497 
L 162.374876 222.135466 
L 159.095537 226.256712 
L 155.816198 230.315065 
L 152.53686 234.299322 
L 149.257521 238.199265 
L 145.978182 242.005693 
L 142.698843 245.710424 
L 139.419504 249.3063 
L 136.140165 252.787173 
L 132.860826 256.147893 
L 129.581488 259.384277 
L 126.302149 262.49308 
L 123.02281 265.471955 
L 119.743471 268.319406 
L 116.464132 271.034743 
L 113.184793 273.618027 
L 109.905455 276.070014 
L 106.626116 278.392098 
L 103.346777 280.586253 
L 100.067438 282.654969 
L 96.788099 284.601198 
L 93.50876 286.428291 
L 90.229421 288.139944 
L 86.950083 289.740139 
L 83.670744 291.233092 
L 80.391405 292.623205 
L 77.112066 293.915013 
L 73.832727 295.113144 
z
" style="fill:#1f77b4;fill-opacity:0.25;"/>
   </g>
   <g id="PolyCollection_2">
    <path clip-path="url(#pdba267de41)" d="M 127.903824 281.575696 
L 127.903824 307.584 
L 129.721785 307.584 
L 131.539745 307.584 
L 133.357705 307.584 
L 135.175666 307.584 
L 136.993626 307.584 
L 138.811586 307.584 
L 140.629547 307.584 
L 142.447507 307.584 
L 144.265468 307.584 
L 146.083428 307.584 
L 147.901388 307.584 
L 149.719349 307.584 
L 151.537309 307.584 
L 153.355269 307.584 
L 155.17323 307.584 
L 156.99119 307.584 
L 158.80915 307.584 
L 160.627111 307.584 
L 162.445071 307.584 
L 164.263032 307.584 
L 166.080992 307.584 
L 167.898952 307.584 
L 169.716913 307.584 
L 171.534873 307.584 
L 173.352833 307.584 
L 175.170794 307.584 
L 176.988754 307.584 
L 178.806715 307.584 
L 180.624675 307.584 
L 182.442635 307.584 
L 184.260596 307.584 
L 186.078556 307.584 
L 187.896516 307.584 
L 189.714477 307.584 
L 191.532437 307.584 
L 193.350397 307.584 
L 195.168358 307.584 
L 196.986318 307.584 
L 198.804279 307.584 
L 200.622239 307.584 
L 202.440199 307.584 
L 204.25816 307.584 
L 206.07612 307.584 
L 207.89408 307.584 
L 209.712041 307.584 
L 211.530001 307.584 
L 213.347961 307.584 
L 215.165922 307.584 
L 216.983882 307.584 
L 218.801843 307.584 
L 220.619803 307.584 
L 222.437763 307.584 
L 224.255724 307.584 
L 226.073684 307.584 
L 227.891644 307.584 
L 229.709605 307.584 
L 231.527565 307.584 
L 233.345526 307.584 
L 235.163486 307.584 
L 236.981446 307.584 
L 238.799407 307.584 
L 240.617367 307.584 
L 242.435327 307.584 
L 244.253288 307.584 
L 246.071248 307.584 
L 247.889208 307.584 
L 249.707169 307.584 
L 251.525129 307.584 
L 253.34309 307.584 
L 255.16105 307.584 
L 256.97901 307.584 
L 258.796971 307.584 
L 260.614931 307.584 
L 262.432891 307.584 
L 264.250852 307.584 
L 266.068812 307.584 
L 267.886773 307.584 
L 269.704733 307.584 
L 271.522693 307.584 
L 273.340654 307.584 
L 275.158614 307.584 
L 276.976574 307.584 
L 278.794535 307.584 
L 280.612495 307.584 
L 282.430455 307.584 
L 284.248416 307.584 
L 286.066376 307.584 
L 287.884337 307.584 
L 289.702297 307.584 
L 291.520257 307.584 
L 293.338218 307.584 
L 295.156178 307.584 
L 296.974138 307.584 
L 298.792099 307.584 
L 300.610059 307.584 
L 302.42802 307.584 
L 304.24598 307.584 
L 306.06394 307.584 
L 307.881901 307.584 
L 307.881901 195.291861 
L 307.881901 195.291861 
L 306.06394 190.634748 
L 304.24598 185.925567 
L 302.42802 181.173284 
L 300.610059 176.387365 
L 298.792099 171.577748 
L 296.974138 166.754817 
L 295.156178 161.929367 
L 293.338218 157.112569 
L 291.520257 152.315928 
L 289.702297 147.551241 
L 287.884337 142.830553 
L 286.066376 138.166104 
L 284.248416 133.570279 
L 282.430455 129.055558 
L 280.612495 124.634454 
L 278.794535 120.319459 
L 276.976574 116.122985 
L 275.158614 112.057308 
L 273.340654 108.134499 
L 271.522693 104.366375 
L 269.704733 100.764431 
L 267.886773 97.339787 
L 266.068812 94.103127 
L 264.250852 91.064643 
L 262.432891 88.233983 
L 260.614931 85.620201 
L 258.796971 83.231702 
L 256.97901 81.076203 
L 255.16105 79.16069 
L 253.34309 77.491376 
L 251.525129 76.073673 
L 249.707169 74.912157 
L 247.889208 74.010546 
L 246.071248 73.371682 
L 244.253288 72.997513 
L 242.435327 72.889081 
L 240.617367 73.046525 
L 238.799407 73.469074 
L 236.981446 74.155054 
L 235.163486 75.101904 
L 233.345526 76.306184 
L 231.527565 77.763603 
L 229.709605 79.469038 
L 227.891644 81.416569 
L 226.073684 83.59951 
L 224.255724 86.01045 
L 222.437763 88.64129 
L 220.619803 91.483295 
L 218.801843 94.527136 
L 216.983882 97.762944 
L 215.165922 101.180364 
L 213.347961 104.768606 
L 211.530001 108.516506 
L 209.712041 112.412581 
L 207.89408 116.445085 
L 206.07612 120.602073 
L 204.25816 124.871452 
L 202.440199 129.241045 
L 200.622239 133.698644 
L 198.804279 138.232064 
L 196.986318 142.829202 
L 195.168358 147.478081 
L 193.350397 152.166907 
L 191.532437 156.884111 
L 189.714477 161.618395 
L 187.896516 166.358774 
L 186.078556 171.094611 
L 184.260596 175.815657 
L 182.442635 180.512077 
L 180.624675 185.17448 
L 178.806715 189.793948 
L 176.988754 194.362049 
L 175.170794 198.870859 
L 173.352833 203.312977 
L 171.534873 207.681532 
L 169.716913 211.970192 
L 167.898952 216.173169 
L 166.080992 220.285216 
L 164.263032 224.301628 
L 162.445071 228.218235 
L 160.627111 232.031395 
L 158.80915 235.737983 
L 156.99119 239.33538 
L 155.17323 242.821454 
L 153.355269 246.194549 
L 151.537309 249.453462 
L 149.719349 252.597427 
L 147.901388 255.626089 
L 146.083428 258.539489 
L 144.265468 261.338033 
L 142.447507 264.022476 
L 140.629547 266.593892 
L 138.811586 269.053654 
L 136.993626 271.403407 
L 135.175666 273.645045 
L 133.357705 275.780687 
L 131.539745 277.812652 
L 129.721785 279.743438 
L 127.903824 281.575696 
z
" style="fill:#ff7f0e;fill-opacity:0.25;"/>
   </g>
   <g id="PolyCollection_3">
    <path clip-path="url(#pdba267de41)" d="M 89.117019 305.197287 
L 89.117019 307.584 
L 91.633391 307.584 
L 94.149762 307.584 
L 96.666134 307.584 
L 99.182505 307.584 
L 101.698877 307.584 
L 104.215248 307.584 
L 106.73162 307.584 
L 109.247991 307.584 
L 111.764363 307.584 
L 114.280734 307.584 
L 116.797106 307.584 
L 119.313477 307.584 
L 121.829849 307.584 
L 124.34622 307.584 
L 126.862592 307.584 
L 129.378963 307.584 
L 131.895335 307.584 
L 134.411706 307.584 
L 136.928078 307.584 
L 139.444449 307.584 
L 141.960821 307.584 
L 144.477192 307.584 
L 146.993564 307.584 
L 149.509935 307.584 
L 152.026307 307.584 
L 154.542678 307.584 
L 157.05905 307.584 
L 159.575421 307.584 
L 162.091793 307.584 
L 164.608164 307.584 
L 167.124535 307.584 
L 169.640907 307.584 
L 172.157278 307.584 
L 174.67365 307.584 
L 177.190021 307.584 
L 179.706393 307.584 
L 182.222764 307.584 
L 184.739136 307.584 
L 187.255507 307.584 
L 189.771879 307.584 
L 192.28825 307.584 
L 194.804622 307.584 
L 197.320993 307.584 
L 199.837365 307.584 
L 202.353736 307.584 
L 204.870108 307.584 
L 207.386479 307.584 
L 209.902851 307.584 
L 212.419222 307.584 
L 214.935594 307.584 
L 217.451965 307.584 
L 219.968337 307.584 
L 222.484708 307.584 
L 225.00108 307.584 
L 227.517451 307.584 
L 230.033823 307.584 
L 232.550194 307.584 
L 235.066566 307.584 
L 237.582937 307.584 
L 240.099309 307.584 
L 242.61568 307.584 
L 245.132052 307.584 
L 247.648423 307.584 
L 250.164795 307.584 
L 252.681166 307.584 
L 255.197538 307.584 
L 257.713909 307.584 
L 260.23028 307.584 
L 262.746652 307.584 
L 265.263023 307.584 
L 267.779395 307.584 
L 270.295766 307.584 
L 272.812138 307.584 
L 275.328509 307.584 
L 277.844881 307.584 
L 280.361252 307.584 
L 282.877624 307.584 
L 285.393995 307.584 
L 287.910367 307.584 
L 290.426738 307.584 
L 292.94311 307.584 
L 295.459481 307.584 
L 297.975853 307.584 
L 300.492224 307.584 
L 303.008596 307.584 
L 305.524967 307.584 
L 308.041339 307.584 
L 310.55771 307.584 
L 313.074082 307.584 
L 315.590453 307.584 
L 318.106825 307.584 
L 320.623196 307.584 
L 323.139568 307.584 
L 325.655939 307.584 
L 328.172311 307.584 
L 330.688682 307.584 
L 333.205054 307.584 
L 335.721425 307.584 
L 338.237797 307.584 
L 338.237797 259.207195 
L 338.237797 259.207195 
L 335.721425 254.611929 
L 333.205054 249.727618 
L 330.688682 244.553713 
L 328.172311 239.091944 
L 325.655939 233.346509 
L 323.139568 227.32424 
L 320.623196 221.034754 
L 318.106825 214.490575 
L 315.590453 207.707229 
L 313.074082 200.703306 
L 310.55771 193.500484 
L 308.041339 186.123514 
L 305.524967 178.600165 
L 303.008596 170.961126 
L 300.492224 163.239856 
L 297.975853 155.472396 
L 295.459481 147.697133 
L 292.94311 139.954521 
L 290.426738 132.286755 
L 287.910367 124.737414 
L 285.393995 117.351064 
L 282.877624 110.172831 
L 280.361252 103.24795 
L 277.844881 96.621295 
L 275.328509 90.336895 
L 272.812138 84.43745 
L 270.295766 78.963845 
L 267.779395 73.954671 
L 265.263023 69.445778 
L 262.746652 65.469834 
L 260.23028 62.055934 
L 257.713909 59.229239 
L 255.197538 57.010662 
L 252.681166 55.416611 
L 250.164795 54.458779 
L 247.648423 54.144 
L 245.132052 54.474168 
L 242.61568 55.446214 
L 240.099309 57.05215 
L 237.582937 59.279178 
L 235.066566 62.109857 
L 232.550194 65.522329 
L 230.033823 69.490599 
L 227.517451 73.984866 
L 225.00108 78.97189 
L 222.484708 84.415407 
L 219.968337 90.276563 
L 217.451965 96.514375 
L 214.935594 103.086207 
L 212.419222 109.948252 
L 209.902851 117.056013 
L 207.386479 124.364777 
L 204.870108 131.83007 
L 202.353736 139.408101 
L 199.837365 147.056166 
L 197.320993 154.73303 
L 194.804622 162.39927 
L 192.28825 170.017572 
L 189.771879 177.552997 
L 187.255507 184.973194 
L 184.739136 192.248575 
L 182.222764 199.352437 
L 179.706393 206.26105 
L 177.190021 212.953695 
L 174.67365 219.412666 
L 172.157278 225.623233 
L 169.640907 231.573571 
L 167.124535 237.254659 
L 164.608164 242.660151 
L 162.091793 247.786226 
L 159.575421 252.631415 
L 157.05905 257.196418 
L 154.542678 261.483912 
L 152.026307 265.498342 
L 149.509935 269.245719 
L 146.993564 272.733416 
L 144.477192 275.969961 
L 141.960821 278.964844 
L 139.444449 281.728327 
L 136.928078 284.271264 
L 134.411706 286.604935 
L 131.895335 288.740892 
L 129.378963 290.690818 
L 126.862592 292.466397 
L 124.34622 294.079209 
L 121.829849 295.540626 
L 119.313477 296.86173 
L 116.797106 298.053245 
L 114.280734 299.125477 
L 111.764363 300.088272 
L 109.247991 300.950978 
L 106.73162 301.722428 
L 104.215248 302.410921 
L 101.698877 303.024215 
L 99.182505 303.569535 
L 96.666134 304.053573 
L 94.149762 304.482507 
L 91.633391 304.862013 
L 89.117019 305.197287 
z
" style="fill:#2ca02c;fill-opacity:0.25;"/>
   </g>
   <g id="matplotlib.axis_1">
    <g id="xtick_1">
     <g id="line2d_1">
      <defs>
       <path d="M 0 0 
L 0 3.5 
" id="m895d19e7e9" style="stroke:#000000;stroke-width:0.8;"/>
      </defs>
      <g>
       <use style="stroke:#000000;stroke-width:0.8;" x="91.462677" xlink:href="#m895d19e7e9" y="307.584"/>
      </g>
     </g>
     <g id="text_1">
      <!-- −100 -->
      <defs>
       <path d="M 10.59375 35.5 
L 73.1875 35.5 
L 73.1875 27.203125 
L 10.59375 27.203125 
z
" id="DejaVuSans-2212"/>
       <path d="M 12.40625 8.296875 
L 28.515625 8.296875 
L 28.515625 63.921875 
L 10.984375 60.40625 
L 10.984375 69.390625 
L 28.421875 72.90625 
L 38.28125 72.90625 
L 38.28125 8.296875 
L 54.390625 8.296875 
L 54.390625 0 
L 12.40625 0 
z
" id="DejaVuSans-31"/>
       <path d="M 31.78125 66.40625 
Q 24.171875 66.40625 20.328125 58.90625 
Q 16.5 51.421875 16.5 36.375 
Q 16.5 21.390625 20.328125 13.890625 
Q 24.171875 6.390625 31.78125 6.390625 
Q 39.453125 6.390625 43.28125 13.890625 
Q 47.125 21.390625 47.125 36.375 
Q 47.125 51.421875 43.28125 58.90625 
Q 39.453125 66.40625 31.78125 66.40625 
z
M 31.78125 74.21875 
Q 44.046875 74.21875 50.515625 64.515625 
Q 56.984375 54.828125 56.984375 36.375 
Q 56.984375 17.96875 50.515625 8.265625 
Q 44.046875 -1.421875 31.78125 -1.421875 
Q 19.53125 -1.421875 13.0625 8.265625 
Q 6.59375 17.96875 6.59375 36.375 
Q 6.59375 54.828125 13.0625 64.515625 
Q 19.53125 74.21875 31.78125 74.21875 
z
" id="DejaVuSans-30"/>
      </defs>
      <g transform="translate(77.729083 322.182437)scale(0.1 -0.1)">
       <use xlink:href="#DejaVuSans-2212"/>
       <use x="83.789062" xlink:href="#DejaVuSans-31"/>
       <use x="147.412109" xlink:href="#DejaVuSans-30"/>
       <use x="211.035156" xlink:href="#DejaVuSans-30"/>
      </g>
     </g>
    </g>
    <g id="xtick_2">
     <g id="line2d_2">
      <g>
       <use style="stroke:#000000;stroke-width:0.8;" x="169.649692" xlink:href="#m895d19e7e9" y="307.584"/>
      </g>
     </g>
     <g id="text_2">
      <!-- −50 -->
      <defs>
       <path d="M 10.796875 72.90625 
L 49.515625 72.90625 
L 49.515625 64.59375 
L 19.828125 64.59375 
L 19.828125 46.734375 
Q 21.96875 47.46875 24.109375 47.828125 
Q 26.265625 48.1875 28.421875 48.1875 
Q 40.625 48.1875 47.75 41.5 
Q 54.890625 34.8125 54.890625 23.390625 
Q 54.890625 11.625 47.5625 5.09375 
Q 40.234375 -1.421875 26.90625 -1.421875 
Q 22.3125 -1.421875 17.546875 -0.640625 
Q 12.796875 0.140625 7.71875 1.703125 
L 7.71875 11.625 
Q 12.109375 9.234375 16.796875 8.0625 
Q 21.484375 6.890625 26.703125 6.890625 
Q 35.15625 6.890625 40.078125 11.328125 
Q 45.015625 15.765625 45.015625 23.390625 
Q 45.015625 31 40.078125 35.4375 
Q 35.15625 39.890625 26.703125 39.890625 
Q 22.75 39.890625 18.8125 39.015625 
Q 14.890625 38.140625 10.796875 36.28125 
z
" id="DejaVuSans-35"/>
      </defs>
      <g transform="translate(159.097348 322.182437)scale(0.1 -0.1)">
       <use xlink:href="#DejaVuSans-2212"/>
       <use x="83.789062" xlink:href="#DejaVuSans-35"/>
       <use x="147.412109" xlink:href="#DejaVuSans-30"/>
      </g>
     </g>
    </g>
    <g id="xtick_3">
     <g id="line2d_3">
      <g>
       <use style="stroke:#000000;stroke-width:0.8;" x="247.836707" xlink:href="#m895d19e7e9" y="307.584"/>
      </g>
     </g>
     <g id="text_3">
      <!-- 0 -->
      <g transform="translate(244.655457 322.182437)scale(0.1 -0.1)">
       <use xlink:href="#DejaVuSans-30"/>
      </g>
     </g>
    </g>
    <g id="xtick_4">
     <g id="line2d_4">
      <g>
       <use style="stroke:#000000;stroke-width:0.8;" x="326.023722" xlink:href="#m895d19e7e9" y="307.584"/>
      </g>
     </g>
     <g id="text_4">
      <!-- 50 -->
      <g transform="translate(319.661222 322.182437)scale(0.1 -0.1)">
       <use xlink:href="#DejaVuSans-35"/>
       <use x="63.623047" xlink:href="#DejaVuSans-30"/>
      </g>
     </g>
    </g>
    <g id="xtick_5">
     <g id="line2d_5">
      <g>
       <use style="stroke:#000000;stroke-width:0.8;" x="404.210736" xlink:href="#m895d19e7e9" y="307.584"/>
      </g>
     </g>
     <g id="text_5">
      <!-- 100 -->
      <g transform="translate(394.666986 322.182437)scale(0.1 -0.1)">
       <use xlink:href="#DejaVuSans-31"/>
       <use x="63.623047" xlink:href="#DejaVuSans-30"/>
       <use x="127.246094" xlink:href="#DejaVuSans-30"/>
      </g>
     </g>
    </g>
    <g id="text_6">
     <!-- elasticity [a.u.] -->
     <defs>
      <path d="M 56.203125 29.59375 
L 56.203125 25.203125 
L 14.890625 25.203125 
Q 15.484375 15.921875 20.484375 11.0625 
Q 25.484375 6.203125 34.421875 6.203125 
Q 39.59375 6.203125 44.453125 7.46875 
Q 49.3125 8.734375 54.109375 11.28125 
L 54.109375 2.78125 
Q 49.265625 0.734375 44.1875 -0.34375 
Q 39.109375 -1.421875 33.890625 -1.421875 
Q 20.796875 -1.421875 13.15625 6.1875 
Q 5.515625 13.8125 5.515625 26.8125 
Q 5.515625 40.234375 12.765625 48.109375 
Q 20.015625 56 32.328125 56 
Q 43.359375 56 49.78125 48.890625 
Q 56.203125 41.796875 56.203125 29.59375 
z
M 47.21875 32.234375 
Q 47.125 39.59375 43.09375 43.984375 
Q 39.0625 48.390625 32.421875 48.390625 
Q 24.90625 48.390625 20.390625 44.140625 
Q 15.875 39.890625 15.1875 32.171875 
z
" id="DejaVuSans-65"/>
      <path d="M 9.421875 75.984375 
L 18.40625 75.984375 
L 18.40625 0 
L 9.421875 0 
z
" id="DejaVuSans-6c"/>
      <path d="M 34.28125 27.484375 
Q 23.390625 27.484375 19.1875 25 
Q 14.984375 22.515625 14.984375 16.5 
Q 14.984375 11.71875 18.140625 8.90625 
Q 21.296875 6.109375 26.703125 6.109375 
Q 34.1875 6.109375 38.703125 11.40625 
Q 43.21875 16.703125 43.21875 25.484375 
L 43.21875 27.484375 
z
M 52.203125 31.203125 
L 52.203125 0 
L 43.21875 0 
L 43.21875 8.296875 
Q 40.140625 3.328125 35.546875 0.953125 
Q 30.953125 -1.421875 24.3125 -1.421875 
Q 15.921875 -1.421875 10.953125 3.296875 
Q 6 8.015625 6 15.921875 
Q 6 25.140625 12.171875 29.828125 
Q 18.359375 34.515625 30.609375 34.515625 
L 43.21875 34.515625 
L 43.21875 35.40625 
Q 43.21875 41.609375 39.140625 45 
Q 35.0625 48.390625 27.6875 48.390625 
Q 23 48.390625 18.546875 47.265625 
Q 14.109375 46.140625 10.015625 43.890625 
L 10.015625 52.203125 
Q 14.9375 54.109375 19.578125 55.046875 
Q 24.21875 56 28.609375 56 
Q 40.484375 56 46.34375 49.84375 
Q 52.203125 43.703125 52.203125 31.203125 
z
" id="DejaVuSans-61"/>
      <path d="M 44.28125 53.078125 
L 44.28125 44.578125 
Q 40.484375 46.53125 36.375 47.5 
Q 32.28125 48.484375 27.875 48.484375 
Q 21.1875 48.484375 17.84375 46.4375 
Q 14.5 44.390625 14.5 40.28125 
Q 14.5 37.15625 16.890625 35.375 
Q 19.28125 33.59375 26.515625 31.984375 
L 29.59375 31.296875 
Q 39.15625 29.25 43.1875 25.515625 
Q 47.21875 21.78125 47.21875 15.09375 
Q 47.21875 7.46875 41.1875 3.015625 
Q 35.15625 -1.421875 24.609375 -1.421875 
Q 20.21875 -1.421875 15.453125 -0.5625 
Q 10.6875 0.296875 5.421875 2 
L 5.421875 11.28125 
Q 10.40625 8.6875 15.234375 7.390625 
Q 20.0625 6.109375 24.8125 6.109375 
Q 31.15625 6.109375 34.5625 8.28125 
Q 37.984375 10.453125 37.984375 14.40625 
Q 37.984375 18.0625 35.515625 20.015625 
Q 33.0625 21.96875 24.703125 23.78125 
L 21.578125 24.515625 
Q 13.234375 26.265625 9.515625 29.90625 
Q 5.8125 33.546875 5.8125 39.890625 
Q 5.8125 47.609375 11.28125 51.796875 
Q 16.75 56 26.8125 56 
Q 31.78125 56 36.171875 55.265625 
Q 40.578125 54.546875 44.28125 53.078125 
z
" id="DejaVuSans-73"/>
      <path d="M 18.3125 70.21875 
L 18.3125 54.6875 
L 36.8125 54.6875 
L 36.8125 47.703125 
L 18.3125 47.703125 
L 18.3125 18.015625 
Q 18.3125 11.328125 20.140625 9.421875 
Q 21.96875 7.515625 27.59375 7.515625 
L 36.8125 7.515625 
L 36.8125 0 
L 27.59375 0 
Q 17.1875 0 13.234375 3.875 
Q 9.28125 7.765625 9.28125 18.015625 
L 9.28125 47.703125 
L 2.6875 47.703125 
L 2.6875 54.6875 
L 9.28125 54.6875 
L 9.28125 70.21875 
z
" id="DejaVuSans-74"/>
      <path d="M 9.421875 54.6875 
L 18.40625 54.6875 
L 18.40625 0 
L 9.421875 0 
z
M 9.421875 75.984375 
L 18.40625 75.984375 
L 18.40625 64.59375 
L 9.421875 64.59375 
z
" id="DejaVuSans-69"/>
      <path d="M 48.78125 52.59375 
L 48.78125 44.1875 
Q 44.96875 46.296875 41.140625 47.34375 
Q 37.3125 48.390625 33.40625 48.390625 
Q 24.65625 48.390625 19.8125 42.84375 
Q 14.984375 37.3125 14.984375 27.296875 
Q 14.984375 17.28125 19.8125 11.734375 
Q 24.65625 6.203125 33.40625 6.203125 
Q 37.3125 6.203125 41.140625 7.25 
Q 44.96875 8.296875 48.78125 10.40625 
L 48.78125 2.09375 
Q 45.015625 0.34375 40.984375 -0.53125 
Q 36.96875 -1.421875 32.421875 -1.421875 
Q 20.0625 -1.421875 12.78125 6.34375 
Q 5.515625 14.109375 5.515625 27.296875 
Q 5.515625 40.671875 12.859375 48.328125 
Q 20.21875 56 33.015625 56 
Q 37.15625 56 41.109375 55.140625 
Q 45.0625 54.296875 48.78125 52.59375 
z
" id="DejaVuSans-63"/>
      <path d="M 32.171875 -5.078125 
Q 28.375 -14.84375 24.75 -17.8125 
Q 21.140625 -20.796875 15.09375 -20.796875 
L 7.90625 -20.796875 
L 7.90625 -13.28125 
L 13.1875 -13.28125 
Q 16.890625 -13.28125 18.9375 -11.515625 
Q 21 -9.765625 23.484375 -3.21875 
L 25.09375 0.875 
L 2.984375 54.6875 
L 12.5 54.6875 
L 29.59375 11.921875 
L 46.6875 54.6875 
L 56.203125 54.6875 
z
" id="DejaVuSans-79"/>
      <path id="DejaVuSans-20"/>
      <path d="M 8.59375 75.984375 
L 29.296875 75.984375 
L 29.296875 69 
L 17.578125 69 
L 17.578125 -6.203125 
L 29.296875 -6.203125 
L 29.296875 -13.1875 
L 8.59375 -13.1875 
z
" id="DejaVuSans-5b"/>
      <path d="M 10.6875 12.40625 
L 21 12.40625 
L 21 0 
L 10.6875 0 
z
" id="DejaVuSans-2e"/>
      <path d="M 8.5 21.578125 
L 8.5 54.6875 
L 17.484375 54.6875 
L 17.484375 21.921875 
Q 17.484375 14.15625 20.5 10.265625 
Q 23.53125 6.390625 29.59375 6.390625 
Q 36.859375 6.390625 41.078125 11.03125 
Q 45.3125 15.671875 45.3125 23.6875 
L 45.3125 54.6875 
L 54.296875 54.6875 
L 54.296875 0 
L 45.3125 0 
L 45.3125 8.40625 
Q 42.046875 3.421875 37.71875 1 
Q 33.40625 -1.421875 27.6875 -1.421875 
Q 18.265625 -1.421875 13.375 4.4375 
Q 8.5 10.296875 8.5 21.578125 
z
M 31.109375 56 
z
" id="DejaVuSans-75"/>
      <path d="M 30.421875 75.984375 
L 30.421875 -13.1875 
L 9.71875 -13.1875 
L 9.71875 -6.203125 
L 21.390625 -6.203125 
L 21.390625 69 
L 9.71875 69 
L 9.71875 75.984375 
z
" id="DejaVuSans-5d"/>
     </defs>
     <g transform="translate(198.717031 335.860562)scale(0.1 -0.1)">
      <use xlink:href="#DejaVuSans-65"/>
      <use x="61.523438" xlink:href="#DejaVuSans-6c"/>
      <use x="89.306641" xlink:href="#DejaVuSans-61"/>
      <use x="150.585938" xlink:href="#DejaVuSans-73"/>
      <use x="202.685547" xlink:href="#DejaVuSans-74"/>
      <use x="241.894531" xlink:href="#DejaVuSans-69"/>
      <use x="269.677734" xlink:href="#DejaVuSans-63"/>
      <use x="324.658203" xlink:href="#DejaVuSans-69"/>
      <use x="352.441406" xlink:href="#DejaVuSans-74"/>
      <use x="391.650391" xlink:href="#DejaVuSans-79"/>
      <use x="450.830078" xlink:href="#DejaVuSans-20"/>
      <use x="482.617188" xlink:href="#DejaVuSans-5b"/>
      <use x="521.630859" xlink:href="#DejaVuSans-61"/>
      <use x="582.910156" xlink:href="#DejaVuSans-2e"/>
      <use x="614.697266" xlink:href="#DejaVuSans-75"/>
      <use x="678.076172" xlink:href="#DejaVuSans-2e"/>
      <use x="709.863281" xlink:href="#DejaVuSans-5d"/>
     </g>
    </g>
   </g>
   <g id="matplotlib.axis_2">
    <g id="ytick_1">
     <g id="line2d_6">
      <defs>
       <path d="M 0 0 
L -3.5 0 
" id="m663483f727" style="stroke:#000000;stroke-width:0.8;"/>
      </defs>
      <g>
       <use style="stroke:#000000;stroke-width:0.8;" x="57.6" xlink:href="#m663483f727" y="307.584"/>
      </g>
     </g>
     <g id="text_7">
      <!-- 0.000 -->
      <g transform="translate(21.971875 311.383219)scale(0.1 -0.1)">
       <use xlink:href="#DejaVuSans-30"/>
       <use x="63.623047" xlink:href="#DejaVuSans-2e"/>
       <use x="95.410156" xlink:href="#DejaVuSans-30"/>
       <use x="159.033203" xlink:href="#DejaVuSans-30"/>
       <use x="222.65625" xlink:href="#DejaVuSans-30"/>
      </g>
     </g>
    </g>
    <g id="ytick_2">
     <g id="line2d_7">
      <g>
       <use style="stroke:#000000;stroke-width:0.8;" x="57.6" xlink:href="#m663483f727" y="266.872123"/>
      </g>
     </g>
     <g id="text_8">
      <!-- 0.002 -->
      <defs>
       <path d="M 19.1875 8.296875 
L 53.609375 8.296875 
L 53.609375 0 
L 7.328125 0 
L 7.328125 8.296875 
Q 12.9375 14.109375 22.625 23.890625 
Q 32.328125 33.6875 34.8125 36.53125 
Q 39.546875 41.84375 41.421875 45.53125 
Q 43.3125 49.21875 43.3125 52.78125 
Q 43.3125 58.59375 39.234375 62.25 
Q 35.15625 65.921875 28.609375 65.921875 
Q 23.96875 65.921875 18.8125 64.3125 
Q 13.671875 62.703125 7.8125 59.421875 
L 7.8125 69.390625 
Q 13.765625 71.78125 18.9375 73 
Q 24.125 74.21875 28.421875 74.21875 
Q 39.75 74.21875 46.484375 68.546875 
Q 53.21875 62.890625 53.21875 53.421875 
Q 53.21875 48.921875 51.53125 44.890625 
Q 49.859375 40.875 45.40625 35.40625 
Q 44.1875 33.984375 37.640625 27.21875 
Q 31.109375 20.453125 19.1875 8.296875 
z
" id="DejaVuSans-32"/>
      </defs>
      <g transform="translate(21.971875 270.671342)scale(0.1 -0.1)">
       <use xlink:href="#DejaVuSans-30"/>
       <use x="63.623047" xlink:href="#DejaVuSans-2e"/>
       <use x="95.410156" xlink:href="#DejaVuSans-30"/>
       <use x="159.033203" xlink:href="#DejaVuSans-30"/>
       <use x="222.65625" xlink:href="#DejaVuSans-32"/>
      </g>
     </g>
    </g>
    <g id="ytick_3">
     <g id="line2d_8">
      <g>
       <use style="stroke:#000000;stroke-width:0.8;" x="57.6" xlink:href="#m663483f727" y="226.160246"/>
      </g>
     </g>
     <g id="text_9">
      <!-- 0.004 -->
      <defs>
       <path d="M 37.796875 64.3125 
L 12.890625 25.390625 
L 37.796875 25.390625 
z
M 35.203125 72.90625 
L 47.609375 72.90625 
L 47.609375 25.390625 
L 58.015625 25.390625 
L 58.015625 17.1875 
L 47.609375 17.1875 
L 47.609375 0 
L 37.796875 0 
L 37.796875 17.1875 
L 4.890625 17.1875 
L 4.890625 26.703125 
z
" id="DejaVuSans-34"/>
      </defs>
      <g transform="translate(21.971875 229.959464)scale(0.1 -0.1)">
       <use xlink:href="#DejaVuSans-30"/>
       <use x="63.623047" xlink:href="#DejaVuSans-2e"/>
       <use x="95.410156" xlink:href="#DejaVuSans-30"/>
       <use x="159.033203" xlink:href="#DejaVuSans-30"/>
       <use x="222.65625" xlink:href="#DejaVuSans-34"/>
      </g>
     </g>
    </g>
    <g id="ytick_4">
     <g id="line2d_9">
      <g>
       <use style="stroke:#000000;stroke-width:0.8;" x="57.6" xlink:href="#m663483f727" y="185.448368"/>
      </g>
     </g>
     <g id="text_10">
      <!-- 0.006 -->
      <defs>
       <path d="M 33.015625 40.375 
Q 26.375 40.375 22.484375 35.828125 
Q 18.609375 31.296875 18.609375 23.390625 
Q 18.609375 15.53125 22.484375 10.953125 
Q 26.375 6.390625 33.015625 6.390625 
Q 39.65625 6.390625 43.53125 10.953125 
Q 47.40625 15.53125 47.40625 23.390625 
Q 47.40625 31.296875 43.53125 35.828125 
Q 39.65625 40.375 33.015625 40.375 
z
M 52.59375 71.296875 
L 52.59375 62.3125 
Q 48.875 64.0625 45.09375 64.984375 
Q 41.3125 65.921875 37.59375 65.921875 
Q 27.828125 65.921875 22.671875 59.328125 
Q 17.53125 52.734375 16.796875 39.40625 
Q 19.671875 43.65625 24.015625 45.921875 
Q 28.375 48.1875 33.59375 48.1875 
Q 44.578125 48.1875 50.953125 41.515625 
Q 57.328125 34.859375 57.328125 23.390625 
Q 57.328125 12.15625 50.6875 5.359375 
Q 44.046875 -1.421875 33.015625 -1.421875 
Q 20.359375 -1.421875 13.671875 8.265625 
Q 6.984375 17.96875 6.984375 36.375 
Q 6.984375 53.65625 15.1875 63.9375 
Q 23.390625 74.21875 37.203125 74.21875 
Q 40.921875 74.21875 44.703125 73.484375 
Q 48.484375 72.75 52.59375 71.296875 
z
" id="DejaVuSans-36"/>
      </defs>
      <g transform="translate(21.971875 189.247587)scale(0.1 -0.1)">
       <use xlink:href="#DejaVuSans-30"/>
       <use x="63.623047" xlink:href="#DejaVuSans-2e"/>
       <use x="95.410156" xlink:href="#DejaVuSans-30"/>
       <use x="159.033203" xlink:href="#DejaVuSans-30"/>
       <use x="222.65625" xlink:href="#DejaVuSans-36"/>
      </g>
     </g>
    </g>
    <g id="ytick_5">
     <g id="line2d_10">
      <g>
       <use style="stroke:#000000;stroke-width:0.8;" x="57.6" xlink:href="#m663483f727" y="144.736491"/>
      </g>
     </g>
     <g id="text_11">
      <!-- 0.008 -->
      <defs>
       <path d="M 31.78125 34.625 
Q 24.75 34.625 20.71875 30.859375 
Q 16.703125 27.09375 16.703125 20.515625 
Q 16.703125 13.921875 20.71875 10.15625 
Q 24.75 6.390625 31.78125 6.390625 
Q 38.8125 6.390625 42.859375 10.171875 
Q 46.921875 13.96875 46.921875 20.515625 
Q 46.921875 27.09375 42.890625 30.859375 
Q 38.875 34.625 31.78125 34.625 
z
M 21.921875 38.8125 
Q 15.578125 40.375 12.03125 44.71875 
Q 8.5 49.078125 8.5 55.328125 
Q 8.5 64.0625 14.71875 69.140625 
Q 20.953125 74.21875 31.78125 74.21875 
Q 42.671875 74.21875 48.875 69.140625 
Q 55.078125 64.0625 55.078125 55.328125 
Q 55.078125 49.078125 51.53125 44.71875 
Q 48 40.375 41.703125 38.8125 
Q 48.828125 37.15625 52.796875 32.3125 
Q 56.78125 27.484375 56.78125 20.515625 
Q 56.78125 9.90625 50.3125 4.234375 
Q 43.84375 -1.421875 31.78125 -1.421875 
Q 19.734375 -1.421875 13.25 4.234375 
Q 6.78125 9.90625 6.78125 20.515625 
Q 6.78125 27.484375 10.78125 32.3125 
Q 14.796875 37.15625 21.921875 38.8125 
z
M 18.3125 54.390625 
Q 18.3125 48.734375 21.84375 45.5625 
Q 25.390625 42.390625 31.78125 42.390625 
Q 38.140625 42.390625 41.71875 45.5625 
Q 45.3125 48.734375 45.3125 54.390625 
Q 45.3125 60.0625 41.71875 63.234375 
Q 38.140625 66.40625 31.78125 66.40625 
Q 25.390625 66.40625 21.84375 63.234375 
Q 18.3125 60.0625 18.3125 54.390625 
z
" id="DejaVuSans-38"/>
      </defs>
      <g transform="translate(21.971875 148.53571)scale(0.1 -0.1)">
       <use xlink:href="#DejaVuSans-30"/>
       <use x="63.623047" xlink:href="#DejaVuSans-2e"/>
       <use x="95.410156" xlink:href="#DejaVuSans-30"/>
       <use x="159.033203" xlink:href="#DejaVuSans-30"/>
       <use x="222.65625" xlink:href="#DejaVuSans-38"/>
      </g>
     </g>
    </g>
    <g id="ytick_6">
     <g id="line2d_11">
      <g>
       <use style="stroke:#000000;stroke-width:0.8;" x="57.6" xlink:href="#m663483f727" y="104.024614"/>
      </g>
     </g>
     <g id="text_12">
      <!-- 0.010 -->
      <g transform="translate(21.971875 107.823833)scale(0.1 -0.1)">
       <use xlink:href="#DejaVuSans-30"/>
       <use x="63.623047" xlink:href="#DejaVuSans-2e"/>
       <use x="95.410156" xlink:href="#DejaVuSans-30"/>
       <use x="159.033203" xlink:href="#DejaVuSans-31"/>
       <use x="222.65625" xlink:href="#DejaVuSans-30"/>
      </g>
     </g>
    </g>
    <g id="ytick_7">
     <g id="line2d_12">
      <g>
       <use style="stroke:#000000;stroke-width:0.8;" x="57.6" xlink:href="#m663483f727" y="63.312737"/>
      </g>
     </g>
     <g id="text_13">
      <!-- 0.012 -->
      <g transform="translate(21.971875 67.111956)scale(0.1 -0.1)">
       <use xlink:href="#DejaVuSans-30"/>
       <use x="63.623047" xlink:href="#DejaVuSans-2e"/>
       <use x="95.410156" xlink:href="#DejaVuSans-30"/>
       <use x="159.033203" xlink:href="#DejaVuSans-31"/>
       <use x="222.65625" xlink:href="#DejaVuSans-32"/>
      </g>
     </g>
    </g>
    <g id="text_14">
     <!-- density -->
     <defs>
      <path d="M 45.40625 46.390625 
L 45.40625 75.984375 
L 54.390625 75.984375 
L 54.390625 0 
L 45.40625 0 
L 45.40625 8.203125 
Q 42.578125 3.328125 38.25 0.953125 
Q 33.9375 -1.421875 27.875 -1.421875 
Q 17.96875 -1.421875 11.734375 6.484375 
Q 5.515625 14.40625 5.515625 27.296875 
Q 5.515625 40.1875 11.734375 48.09375 
Q 17.96875 56 27.875 56 
Q 33.9375 56 38.25 53.625 
Q 42.578125 51.265625 45.40625 46.390625 
z
M 14.796875 27.296875 
Q 14.796875 17.390625 18.875 11.75 
Q 22.953125 6.109375 30.078125 6.109375 
Q 37.203125 6.109375 41.296875 11.75 
Q 45.40625 17.390625 45.40625 27.296875 
Q 45.40625 37.203125 41.296875 42.84375 
Q 37.203125 48.484375 30.078125 48.484375 
Q 22.953125 48.484375 18.875 42.84375 
Q 14.796875 37.203125 14.796875 27.296875 
z
" id="DejaVuSans-64"/>
      <path d="M 54.890625 33.015625 
L 54.890625 0 
L 45.90625 0 
L 45.90625 32.71875 
Q 45.90625 40.484375 42.875 44.328125 
Q 39.84375 48.1875 33.796875 48.1875 
Q 26.515625 48.1875 22.3125 43.546875 
Q 18.109375 38.921875 18.109375 30.90625 
L 18.109375 0 
L 9.078125 0 
L 9.078125 54.6875 
L 18.109375 54.6875 
L 18.109375 46.1875 
Q 21.34375 51.125 25.703125 53.5625 
Q 30.078125 56 35.796875 56 
Q 45.21875 56 50.046875 50.171875 
Q 54.890625 44.34375 54.890625 33.015625 
z
" id="DejaVuSans-6e"/>
     </defs>
     <g transform="translate(15.892187 192.860812)rotate(-90)scale(0.1 -0.1)">
      <use xlink:href="#DejaVuSans-64"/>
      <use x="63.476562" xlink:href="#DejaVuSans-65"/>
      <use x="125" xlink:href="#DejaVuSans-6e"/>
      <use x="188.378906" xlink:href="#DejaVuSans-73"/>
      <use x="240.478516" xlink:href="#DejaVuSans-69"/>
      <use x="268.261719" xlink:href="#DejaVuSans-74"/>
      <use x="307.470703" xlink:href="#DejaVuSans-79"/>
     </g>
    </g>
   </g>
   <g id="line2d_13">
    <path clip-path="url(#pdba267de41)" d="M 73.832727 295.113144 
L 77.112066 293.915013 
L 80.391405 292.623205 
L 83.670744 291.233092 
L 86.950083 289.740139 
L 90.229421 288.139944 
L 93.50876 286.428291 
L 96.788099 284.601198 
L 100.067438 282.654969 
L 103.346777 280.586253 
L 106.626116 278.392098 
L 109.905455 276.070014 
L 113.184793 273.618027 
L 116.464132 271.034743 
L 119.743471 268.319406 
L 123.02281 265.471955 
L 126.302149 262.49308 
L 129.581488 259.384277 
L 132.860826 256.147893 
L 136.140165 252.787173 
L 139.419504 249.3063 
L 142.698843 245.710424 
L 145.978182 242.005693 
L 149.257521 238.199265 
L 152.53686 234.299322 
L 155.816198 230.315065 
L 159.095537 226.256712 
L 162.374876 222.135466 
L 165.654215 217.963497 
L 168.933554 213.753891 
L 172.212893 209.520602 
L 175.492231 205.278385 
L 178.77157 201.042727 
L 182.050909 196.829758 
L 185.330248 192.656159 
L 188.609587 188.539056 
L 191.888926 184.49591 
L 195.168264 180.544399 
L 198.447603 176.702289 
L 201.726942 172.987303 
L 205.006281 169.41699 
L 208.28562 166.008587 
L 211.564959 162.778876 
L 214.844298 159.744052 
L 218.123636 156.919587 
L 221.402975 154.320097 
L 224.682314 151.959214 
L 227.961653 149.849473 
L 231.240992 148.002194 
L 234.520331 146.427384 
L 237.799669 145.133647 
L 241.079008 144.128106 
L 244.358347 143.416334 
L 247.637686 143.002308 
L 250.917025 142.888369 
L 254.196364 143.075203 
L 257.475702 143.561831 
L 260.755041 144.345622 
L 264.03438 145.422314 
L 267.313719 146.786056 
L 270.593058 148.429462 
L 273.872397 150.343677 
L 277.151736 152.518458 
L 280.431074 154.942266 
L 283.710413 157.602368 
L 286.989752 160.484955 
L 290.269091 163.575253 
L 293.54843 166.857659 
L 296.827769 170.315865 
L 300.107107 173.932999 
L 303.386446 177.69176 
L 306.665785 181.574554 
L 309.945124 185.563635 
L 313.224463 189.64123 
L 316.503802 193.789679 
L 319.78314 197.99155 
L 323.062479 202.229763 
L 326.341818 206.487696 
L 329.621157 210.749291 
L 332.900496 214.999141 
L 336.179835 219.222579 
L 339.459174 223.405745 
L 342.738512 227.535651 
L 346.017851 231.60023 
L 349.29719 235.588378 
L 352.576529 239.489982 
L 355.855868 243.295941 
L 359.135207 246.998173 
L 362.414545 250.589614 
L 365.693884 254.064212 
L 368.973223 257.416902 
L 372.252562 260.643589 
L 375.531901 263.741108 
L 378.81124 266.707189 
L 382.090579 269.540409 
L 385.369917 272.240149 
L 388.649256 274.806537 
L 391.928595 277.240393 
L 395.207934 279.543174 
L 398.487273 281.716916 
" style="fill:none;stroke:#1f77b4;stroke-linecap:square;stroke-width:1.5;"/>
   </g>
   <g id="line2d_14">
    <path clip-path="url(#pdba267de41)" d="M 127.903824 281.575696 
L 129.721785 279.743438 
L 131.539745 277.812652 
L 133.357705 275.780687 
L 135.175666 273.645045 
L 136.993626 271.403407 
L 138.811586 269.053654 
L 140.629547 266.593892 
L 142.447507 264.022476 
L 144.265468 261.338033 
L 146.083428 258.539489 
L 147.901388 255.626089 
L 149.719349 252.597427 
L 151.537309 249.453462 
L 153.355269 246.194549 
L 155.17323 242.821454 
L 156.99119 239.33538 
L 158.80915 235.737983 
L 160.627111 232.031395 
L 162.445071 228.218235 
L 164.263032 224.301628 
L 166.080992 220.285216 
L 167.898952 216.173169 
L 169.716913 211.970192 
L 171.534873 207.681532 
L 173.352833 203.312977 
L 175.170794 198.870859 
L 176.988754 194.362049 
L 178.806715 189.793948 
L 180.624675 185.17448 
L 182.442635 180.512077 
L 184.260596 175.815657 
L 186.078556 171.094611 
L 187.896516 166.358774 
L 189.714477 161.618395 
L 191.532437 156.884111 
L 193.350397 152.166907 
L 195.168358 147.478081 
L 196.986318 142.829202 
L 198.804279 138.232064 
L 200.622239 133.698644 
L 202.440199 129.241045 
L 204.25816 124.871452 
L 206.07612 120.602073 
L 207.89408 116.445085 
L 209.712041 112.412581 
L 211.530001 108.516506 
L 213.347961 104.768606 
L 215.165922 101.180364 
L 216.983882 97.762944 
L 218.801843 94.527136 
L 220.619803 91.483295 
L 222.437763 88.64129 
L 224.255724 86.01045 
L 226.073684 83.59951 
L 227.891644 81.416569 
L 229.709605 79.469038 
L 231.527565 77.763603 
L 233.345526 76.306184 
L 235.163486 75.101904 
L 236.981446 74.155054 
L 238.799407 73.469074 
L 240.617367 73.046525 
L 242.435327 72.889081 
L 244.253288 72.997513 
L 246.071248 73.371682 
L 247.889208 74.010546 
L 249.707169 74.912157 
L 251.525129 76.073673 
L 253.34309 77.491376 
L 255.16105 79.16069 
L 256.97901 81.076203 
L 258.796971 83.231702 
L 260.614931 85.620201 
L 262.432891 88.233983 
L 264.250852 91.064643 
L 266.068812 94.103127 
L 267.886773 97.339787 
L 269.704733 100.764431 
L 271.522693 104.366375 
L 273.340654 108.134499 
L 275.158614 112.057308 
L 276.976574 116.122985 
L 278.794535 120.319459 
L 280.612495 124.634454 
L 282.430455 129.055558 
L 284.248416 133.570279 
L 286.066376 138.166104 
L 287.884337 142.830553 
L 289.702297 147.551241 
L 291.520257 152.315928 
L 293.338218 157.112569 
L 295.156178 161.929367 
L 296.974138 166.754817 
L 298.792099 171.577748 
L 300.610059 176.387365 
L 302.42802 181.173284 
L 304.24598 185.925567 
L 306.06394 190.634748 
L 307.881901 195.291861 
" style="fill:none;stroke:#ff7f0e;stroke-linecap:square;stroke-width:1.5;"/>
   </g>
   <g id="line2d_15">
    <path clip-path="url(#pdba267de41)" d="M 89.117019 305.197287 
L 91.633391 304.862013 
L 94.149762 304.482507 
L 96.666134 304.053573 
L 99.182505 303.569535 
L 101.698877 303.024215 
L 104.215248 302.410921 
L 106.73162 301.722428 
L 109.247991 300.950978 
L 111.764363 300.088272 
L 114.280734 299.125477 
L 116.797106 298.053245 
L 119.313477 296.86173 
L 121.829849 295.540626 
L 124.34622 294.079209 
L 126.862592 292.466397 
L 129.378963 290.690818 
L 131.895335 288.740892 
L 134.411706 286.604935 
L 136.928078 284.271264 
L 139.444449 281.728327 
L 141.960821 278.964844 
L 144.477192 275.969961 
L 146.993564 272.733416 
L 149.509935 269.245719 
L 152.026307 265.498342 
L 154.542678 261.483912 
L 157.05905 257.196418 
L 159.575421 252.631415 
L 162.091793 247.786226 
L 164.608164 242.660151 
L 167.124535 237.254659 
L 169.640907 231.573571 
L 172.157278 225.623233 
L 174.67365 219.412666 
L 177.190021 212.953695 
L 179.706393 206.26105 
L 182.222764 199.352437 
L 184.739136 192.248575 
L 187.255507 184.973194 
L 189.771879 177.552997 
L 192.28825 170.017572 
L 194.804622 162.39927 
L 197.320993 154.73303 
L 199.837365 147.056166 
L 202.353736 139.408101 
L 204.870108 131.83007 
L 207.386479 124.364777 
L 209.902851 117.056013 
L 212.419222 109.948252 
L 214.935594 103.086207 
L 217.451965 96.514375 
L 219.968337 90.276563 
L 222.484708 84.415407 
L 225.00108 78.97189 
L 227.517451 73.984866 
L 230.033823 69.490599 
L 232.550194 65.522329 
L 235.066566 62.109857 
L 237.582937 59.279178 
L 240.099309 57.05215 
L 242.61568 55.446214 
L 245.132052 54.474168 
L 247.648423 54.144 
L 250.164795 54.458779 
L 252.681166 55.416611 
L 255.197538 57.010662 
L 257.713909 59.229239 
L 260.23028 62.055934 
L 262.746652 65.469834 
L 265.263023 69.445778 
L 267.779395 73.954671 
L 270.295766 78.963845 
L 272.812138 84.43745 
L 275.328509 90.336895 
L 277.844881 96.621295 
L 280.361252 103.24795 
L 282.877624 110.172831 
L 285.393995 117.351064 
L 287.910367 124.737414 
L 290.426738 132.286755 
L 292.94311 139.954521 
L 295.459481 147.697133 
L 297.975853 155.472396 
L 300.492224 163.239856 
L 303.008596 170.961126 
L 305.524967 178.600165 
L 308.041339 186.123514 
L 310.55771 193.500484 
L 313.074082 200.703306 
L 315.590453 207.707229 
L 318.106825 214.490575 
L 320.623196 221.034754 
L 323.139568 227.32424 
L 325.655939 233.346509 
L 328.172311 239.091944 
L 330.688682 244.553713 
L 333.205054 249.727618 
L 335.721425 254.611929 
L 338.237797 259.207195 
" style="fill:none;stroke:#2ca02c;stroke-linecap:square;stroke-width:1.5;"/>
   </g>
   <g id="patch_3">
    <path d="M 57.6 307.584 
L 57.6 41.472 
" style="fill:none;stroke:#000000;stroke-linecap:square;stroke-linejoin:miter;stroke-width:0.8;"/>
   </g>
   <g id="patch_4">
    <path d="M 414.72 307.584 
L 414.72 41.472 
" style="fill:none;stroke:#000000;stroke-linecap:square;stroke-linejoin:miter;stroke-width:0.8;"/>
   </g>
   <g id="patch_5">
    <path d="M 57.6 307.584 
L 414.72 307.584 
" style="fill:none;stroke:#000000;stroke-linecap:square;stroke-linejoin:miter;stroke-width:0.8;"/>
   </g>
   <g id="patch_6">
    <path d="M 57.6 41.472 
L 414.72 41.472 
" style="fill:none;stroke:#000000;stroke-linecap:square;stroke-linejoin:miter;stroke-width:0.8;"/>
   </g>
   <g id="legend_1">
    <g id="patch_7">
     <path d="M 317.329375 93.506375 
L 407.72 93.506375 
Q 409.72 93.506375 409.72 91.506375 
L 409.72 48.472 
Q 409.72 46.472 407.72 46.472 
L 317.329375 46.472 
Q 315.329375 46.472 315.329375 48.472 
L 315.329375 91.506375 
Q 315.329375 93.506375 317.329375 93.506375 
z
" style="fill:#ffffff;opacity:0.8;stroke:#cccccc;stroke-linejoin:miter;"/>
    </g>
    <g id="line2d_16">
     <path d="M 319.329375 54.570438 
L 339.329375 54.570438 
" style="fill:none;stroke:#1f77b4;stroke-linecap:square;stroke-width:1.5;"/>
    </g>
    <g id="line2d_17"/>
    <g id="text_15">
     <!-- ERR260275 -->
     <defs>
      <path d="M 9.8125 72.90625 
L 55.90625 72.90625 
L 55.90625 64.59375 
L 19.671875 64.59375 
L 19.671875 43.015625 
L 54.390625 43.015625 
L 54.390625 34.71875 
L 19.671875 34.71875 
L 19.671875 8.296875 
L 56.78125 8.296875 
L 56.78125 0 
L 9.8125 0 
z
" id="DejaVuSans-45"/>
      <path d="M 44.390625 34.1875 
Q 47.5625 33.109375 50.5625 29.59375 
Q 53.5625 26.078125 56.59375 19.921875 
L 66.609375 0 
L 56 0 
L 46.6875 18.703125 
Q 43.0625 26.03125 39.671875 28.421875 
Q 36.28125 30.8125 30.421875 30.8125 
L 19.671875 30.8125 
L 19.671875 0 
L 9.8125 0 
L 9.8125 72.90625 
L 32.078125 72.90625 
Q 44.578125 72.90625 50.734375 67.671875 
Q 56.890625 62.453125 56.890625 51.90625 
Q 56.890625 45.015625 53.6875 40.46875 
Q 50.484375 35.9375 44.390625 34.1875 
z
M 19.671875 64.796875 
L 19.671875 38.921875 
L 32.078125 38.921875 
Q 39.203125 38.921875 42.84375 42.21875 
Q 46.484375 45.515625 46.484375 51.90625 
Q 46.484375 58.296875 42.84375 61.546875 
Q 39.203125 64.796875 32.078125 64.796875 
z
" id="DejaVuSans-52"/>
      <path d="M 8.203125 72.90625 
L 55.078125 72.90625 
L 55.078125 68.703125 
L 28.609375 0 
L 18.3125 0 
L 43.21875 64.59375 
L 8.203125 64.59375 
z
" id="DejaVuSans-37"/>
     </defs>
     <g transform="translate(347.329375 58.070438)scale(0.1 -0.1)">
      <use xlink:href="#DejaVuSans-45"/>
      <use x="63.183594" xlink:href="#DejaVuSans-52"/>
      <use x="132.666016" xlink:href="#DejaVuSans-52"/>
      <use x="202.148438" xlink:href="#DejaVuSans-32"/>
      <use x="265.771484" xlink:href="#DejaVuSans-36"/>
      <use x="329.394531" xlink:href="#DejaVuSans-30"/>
      <use x="393.017578" xlink:href="#DejaVuSans-32"/>
      <use x="456.640625" xlink:href="#DejaVuSans-37"/>
      <use x="520.263672" xlink:href="#DejaVuSans-35"/>
     </g>
    </g>
    <g id="line2d_18">
     <path d="M 319.329375 69.248563 
L 339.329375 69.248563 
" style="fill:none;stroke:#ff7f0e;stroke-linecap:square;stroke-width:1.5;"/>
    </g>
    <g id="line2d_19"/>
    <g id="text_16">
     <!-- ERR260214 -->
     <g transform="translate(347.329375 72.748563)scale(0.1 -0.1)">
      <use xlink:href="#DejaVuSans-45"/>
      <use x="63.183594" xlink:href="#DejaVuSans-52"/>
      <use x="132.666016" xlink:href="#DejaVuSans-52"/>
      <use x="202.148438" xlink:href="#DejaVuSans-32"/>
      <use x="265.771484" xlink:href="#DejaVuSans-36"/>
      <use x="329.394531" xlink:href="#DejaVuSans-30"/>
      <use x="393.017578" xlink:href="#DejaVuSans-32"/>
      <use x="456.640625" xlink:href="#DejaVuSans-31"/>
      <use x="520.263672" xlink:href="#DejaVuSans-34"/>
     </g>
    </g>
    <g id="line2d_20">
     <path d="M 319.329375 83.926688 
L 339.329375 83.926688 
" style="fill:none;stroke:#2ca02c;stroke-linecap:square;stroke-width:1.5;"/>
    </g>
    <g id="line2d_21"/>
    <g id="text_17">
     <!-- ERR260174 -->
     <g transform="translate(347.329375 87.426688)scale(0.1 -0.1)">
      <use xlink:href="#DejaVuSans-45"/>
      <use x="63.183594" xlink:href="#DejaVuSans-52"/>
      <use x="132.666016" xlink:href="#DejaVuSans-52"/>
      <use x="202.148438" xlink:href="#DejaVuSans-32"/>
      <use x="265.771484" xlink:href="#DejaVuSans-36"/>
      <use x="329.394531" xlink:href="#DejaVuSans-30"/>
      <use x="393.017578" xlink:href="#DejaVuSans-31"/>
      <use x="456.640625" xlink:href="#DejaVuSans-37"/>
      <use x="520.263672" xlink:href="#DejaVuSans-34"/>
     </g>
    </g>
   </g>
  </g>
 </g>
 <defs>
  <clipPath id="pdba267de41">
   <rect height="266.112" width="357.12" x="57.6" y="41.472"/>
  </clipPath>
 </defs>
</svg>
