<?xml version="1.0" encoding="utf-8" standalone="no"?>
<!DOCTYPE svg PUBLIC "-//W3C//DTD SVG 1.1//EN"
  "http://www.w3.org/Graphics/SVG/1.1/DTD/svg11.dtd">
<!-- Created with matplotlib (http://matplotlib.org/) -->
<svg height="432pt" version="1.1" viewBox="0 0 288 432" width="288pt" xmlns="http://www.w3.org/2000/svg" xmlns:xlink="http://www.w3.org/1999/xlink">
 <defs>
  <style type="text/css">
*{stroke-linecap:butt;stroke-linejoin:round;}
  </style>
 </defs>
 <g id="figure_1">
  <g id="patch_1">
   <path d="M 0 432 
L 288 432 
L 288 0 
L 0 0 
z
" style="fill:#ffffff;"/>
  </g>
  <g id="axes_1">
   <g id="patch_2">
    <path d="M 36 384.48 
L 259.2 384.48 
L 259.2 51.84 
L 36 51.84 
z
" style="fill:#ffffff;"/>
   </g>
   <g id="matplotlib.axis_1">
    <g id="xtick_1">
     <g id="line2d_1">
      <defs>
       <path d="M 0 0 
L 0 6 
" id="mb2d3b0162a" style="stroke:#262626;"/>
      </defs>
      <g>
       <use style="fill:#262626;stroke:#262626;" x="73.2" xlink:href="#mb2d3b0162a" y="384.48"/>
      </g>
     </g>
     <g id="text_1">
      <!-- CTRL -->
      <defs>
       <path d="M 64.40625 67.28125 
L 64.40625 56.890625 
Q 59.421875 61.53125 53.78125 63.8125 
Q 48.140625 66.109375 41.796875 66.109375 
Q 29.296875 66.109375 22.65625 58.46875 
Q 16.015625 50.828125 16.015625 36.375 
Q 16.015625 21.96875 22.65625 14.328125 
Q 29.296875 6.6875 41.796875 6.6875 
Q 48.140625 6.6875 53.78125 8.984375 
Q 59.421875 11.28125 64.40625 15.921875 
L 64.40625 5.609375 
Q 59.234375 2.09375 53.4375 0.328125 
Q 47.65625 -1.421875 41.21875 -1.421875 
Q 24.65625 -1.421875 15.125 8.703125 
Q 5.609375 18.84375 5.609375 36.375 
Q 5.609375 53.953125 15.125 64.078125 
Q 24.65625 74.21875 41.21875 74.21875 
Q 47.75 74.21875 53.53125 72.484375 
Q 59.328125 70.75 64.40625 67.28125 
z
" id="DejaVuSans-43"/>
       <path d="M -0.296875 72.90625 
L 61.375 72.90625 
L 61.375 64.59375 
L 35.5 64.59375 
L 35.5 0 
L 25.59375 0 
L 25.59375 64.59375 
L -0.296875 64.59375 
z
" id="DejaVuSans-54"/>
       <path d="M 44.390625 34.1875 
Q 47.5625 33.109375 50.5625 29.59375 
Q 53.5625 26.078125 56.59375 19.921875 
L 66.609375 0 
L 56 0 
L 46.6875 18.703125 
Q 43.0625 26.03125 39.671875 28.421875 
Q 36.28125 30.8125 30.421875 30.8125 
L 19.671875 30.8125 
L 19.671875 0 
L 9.8125 0 
L 9.8125 72.90625 
L 32.078125 72.90625 
Q 44.578125 72.90625 50.734375 67.671875 
Q 56.890625 62.453125 56.890625 51.90625 
Q 56.890625 45.015625 53.6875 40.46875 
Q 50.484375 35.9375 44.390625 34.1875 
z
M 19.671875 64.796875 
L 19.671875 38.921875 
L 32.078125 38.921875 
Q 39.203125 38.921875 42.84375 42.21875 
Q 46.484375 45.515625 46.484375 51.90625 
Q 46.484375 58.296875 42.84375 61.546875 
Q 39.203125 64.796875 32.078125 64.796875 
z
" id="DejaVuSans-52"/>
       <path d="M 9.8125 72.90625 
L 19.671875 72.90625 
L 19.671875 8.296875 
L 55.171875 8.296875 
L 55.171875 0 
L 9.8125 0 
z
" id="DejaVuSans-4c"/>
      </defs>
      <g style="fill:#262626;" transform="translate(60.394531 405.078438)scale(0.1 -0.1)">
       <use xlink:href="#DejaVuSans-43"/>
       <use x="69.824219" xlink:href="#DejaVuSans-54"/>
       <use x="130.908203" xlink:href="#DejaVuSans-52"/>
       <use x="200.390625" xlink:href="#DejaVuSans-4c"/>
      </g>
     </g>
    </g>
    <g id="xtick_2">
     <g id="line2d_2">
      <g>
       <use style="fill:#262626;stroke:#262626;" x="147.6" xlink:href="#mb2d3b0162a" y="384.48"/>
      </g>
     </g>
     <g id="text_2">
      <!-- metformin+ -->
      <defs>
       <path d="M 52 44.1875 
Q 55.375 50.25 60.0625 53.125 
Q 64.75 56 71.09375 56 
Q 79.640625 56 84.28125 50.015625 
Q 88.921875 44.046875 88.921875 33.015625 
L 88.921875 0 
L 79.890625 0 
L 79.890625 32.71875 
Q 79.890625 40.578125 77.09375 44.375 
Q 74.3125 48.1875 68.609375 48.1875 
Q 61.625 48.1875 57.5625 43.546875 
Q 53.515625 38.921875 53.515625 30.90625 
L 53.515625 0 
L 44.484375 0 
L 44.484375 32.71875 
Q 44.484375 40.625 41.703125 44.40625 
Q 38.921875 48.1875 33.109375 48.1875 
Q 26.21875 48.1875 22.15625 43.53125 
Q 18.109375 38.875 18.109375 30.90625 
L 18.109375 0 
L 9.078125 0 
L 9.078125 54.6875 
L 18.109375 54.6875 
L 18.109375 46.1875 
Q 21.1875 51.21875 25.484375 53.609375 
Q 29.78125 56 35.6875 56 
Q 41.65625 56 45.828125 52.96875 
Q 50 49.953125 52 44.1875 
z
" id="DejaVuSans-6d"/>
       <path d="M 56.203125 29.59375 
L 56.203125 25.203125 
L 14.890625 25.203125 
Q 15.484375 15.921875 20.484375 11.0625 
Q 25.484375 6.203125 34.421875 6.203125 
Q 39.59375 6.203125 44.453125 7.46875 
Q 49.3125 8.734375 54.109375 11.28125 
L 54.109375 2.78125 
Q 49.265625 0.734375 44.1875 -0.34375 
Q 39.109375 -1.421875 33.890625 -1.421875 
Q 20.796875 -1.421875 13.15625 6.1875 
Q 5.515625 13.8125 5.515625 26.8125 
Q 5.515625 40.234375 12.765625 48.109375 
Q 20.015625 56 32.328125 56 
Q 43.359375 56 49.78125 48.890625 
Q 56.203125 41.796875 56.203125 29.59375 
z
M 47.21875 32.234375 
Q 47.125 39.59375 43.09375 43.984375 
Q 39.0625 48.390625 32.421875 48.390625 
Q 24.90625 48.390625 20.390625 44.140625 
Q 15.875 39.890625 15.1875 32.171875 
z
" id="DejaVuSans-65"/>
       <path d="M 18.3125 70.21875 
L 18.3125 54.6875 
L 36.8125 54.6875 
L 36.8125 47.703125 
L 18.3125 47.703125 
L 18.3125 18.015625 
Q 18.3125 11.328125 20.140625 9.421875 
Q 21.96875 7.515625 27.59375 7.515625 
L 36.8125 7.515625 
L 36.8125 0 
L 27.59375 0 
Q 17.1875 0 13.234375 3.875 
Q 9.28125 7.765625 9.28125 18.015625 
L 9.28125 47.703125 
L 2.6875 47.703125 
L 2.6875 54.6875 
L 9.28125 54.6875 
L 9.28125 70.21875 
z
" id="DejaVuSans-74"/>
       <path d="M 37.109375 75.984375 
L 37.109375 68.5 
L 28.515625 68.5 
Q 23.6875 68.5 21.796875 66.546875 
Q 19.921875 64.59375 19.921875 59.515625 
L 19.921875 54.6875 
L 34.71875 54.6875 
L 34.71875 47.703125 
L 19.921875 47.703125 
L 19.921875 0 
L 10.890625 0 
L 10.890625 47.703125 
L 2.296875 47.703125 
L 2.296875 54.6875 
L 10.890625 54.6875 
L 10.890625 58.5 
Q 10.890625 67.625 15.140625 71.796875 
Q 19.390625 75.984375 28.609375 75.984375 
z
" id="DejaVuSans-66"/>
       <path d="M 30.609375 48.390625 
Q 23.390625 48.390625 19.1875 42.75 
Q 14.984375 37.109375 14.984375 27.296875 
Q 14.984375 17.484375 19.15625 11.84375 
Q 23.34375 6.203125 30.609375 6.203125 
Q 37.796875 6.203125 41.984375 11.859375 
Q 46.1875 17.53125 46.1875 27.296875 
Q 46.1875 37.015625 41.984375 42.703125 
Q 37.796875 48.390625 30.609375 48.390625 
z
M 30.609375 56 
Q 42.328125 56 49.015625 48.375 
Q 55.71875 40.765625 55.71875 27.296875 
Q 55.71875 13.875 49.015625 6.21875 
Q 42.328125 -1.421875 30.609375 -1.421875 
Q 18.84375 -1.421875 12.171875 6.21875 
Q 5.515625 13.875 5.515625 27.296875 
Q 5.515625 40.765625 12.171875 48.375 
Q 18.84375 56 30.609375 56 
z
" id="DejaVuSans-6f"/>
       <path d="M 41.109375 46.296875 
Q 39.59375 47.171875 37.8125 47.578125 
Q 36.03125 48 33.890625 48 
Q 26.265625 48 22.1875 43.046875 
Q 18.109375 38.09375 18.109375 28.8125 
L 18.109375 0 
L 9.078125 0 
L 9.078125 54.6875 
L 18.109375 54.6875 
L 18.109375 46.1875 
Q 20.953125 51.171875 25.484375 53.578125 
Q 30.03125 56 36.53125 56 
Q 37.453125 56 38.578125 55.875 
Q 39.703125 55.765625 41.0625 55.515625 
z
" id="DejaVuSans-72"/>
       <path d="M 9.421875 54.6875 
L 18.40625 54.6875 
L 18.40625 0 
L 9.421875 0 
z
M 9.421875 75.984375 
L 18.40625 75.984375 
L 18.40625 64.59375 
L 9.421875 64.59375 
z
" id="DejaVuSans-69"/>
       <path d="M 54.890625 33.015625 
L 54.890625 0 
L 45.90625 0 
L 45.90625 32.71875 
Q 45.90625 40.484375 42.875 44.328125 
Q 39.84375 48.1875 33.796875 48.1875 
Q 26.515625 48.1875 22.3125 43.546875 
Q 18.109375 38.921875 18.109375 30.90625 
L 18.109375 0 
L 9.078125 0 
L 9.078125 54.6875 
L 18.109375 54.6875 
L 18.109375 46.1875 
Q 21.34375 51.125 25.703125 53.5625 
Q 30.078125 56 35.796875 56 
Q 45.21875 56 50.046875 50.171875 
Q 54.890625 44.34375 54.890625 33.015625 
z
" id="DejaVuSans-6e"/>
       <path d="M 46 62.703125 
L 46 35.5 
L 73.1875 35.5 
L 73.1875 27.203125 
L 46 27.203125 
L 46 0 
L 37.796875 0 
L 37.796875 27.203125 
L 10.59375 27.203125 
L 10.59375 35.5 
L 37.796875 35.5 
L 37.796875 62.703125 
z
" id="DejaVuSans-2b"/>
      </defs>
      <g style="fill:#262626;" transform="translate(117.200781 405.078438)scale(0.1 -0.1)">
       <use xlink:href="#DejaVuSans-6d"/>
       <use x="97.412109" xlink:href="#DejaVuSans-65"/>
       <use x="158.935547" xlink:href="#DejaVuSans-74"/>
       <use x="198.144531" xlink:href="#DejaVuSans-66"/>
       <use x="233.349609" xlink:href="#DejaVuSans-6f"/>
       <use x="294.53125" xlink:href="#DejaVuSans-72"/>
       <use x="335.628906" xlink:href="#DejaVuSans-6d"/>
       <use x="433.041016" xlink:href="#DejaVuSans-69"/>
       <use x="460.824219" xlink:href="#DejaVuSans-6e"/>
       <use x="524.203125" xlink:href="#DejaVuSans-2b"/>
      </g>
     </g>
    </g>
    <g id="xtick_3">
     <g id="line2d_3">
      <g>
       <use style="fill:#262626;stroke:#262626;" x="222" xlink:href="#mb2d3b0162a" y="384.48"/>
      </g>
     </g>
     <g id="text_3">
      <!-- metformin- -->
      <defs>
       <path d="M 4.890625 31.390625 
L 31.203125 31.390625 
L 31.203125 23.390625 
L 4.890625 23.390625 
z
" id="DejaVuSans-2d"/>
      </defs>
      <g style="fill:#262626;" transform="translate(193.986719 405.078438)scale(0.1 -0.1)">
       <use xlink:href="#DejaVuSans-6d"/>
       <use x="97.412109" xlink:href="#DejaVuSans-65"/>
       <use x="158.935547" xlink:href="#DejaVuSans-74"/>
       <use x="198.144531" xlink:href="#DejaVuSans-66"/>
       <use x="233.349609" xlink:href="#DejaVuSans-6f"/>
       <use x="294.53125" xlink:href="#DejaVuSans-72"/>
       <use x="335.628906" xlink:href="#DejaVuSans-6d"/>
       <use x="433.041016" xlink:href="#DejaVuSans-69"/>
       <use x="460.824219" xlink:href="#DejaVuSans-6e"/>
       <use x="524.203125" xlink:href="#DejaVuSans-2d"/>
      </g>
     </g>
    </g>
    <g id="text_4">
     <!-- type -->
     <defs>
      <path d="M 32.171875 -5.078125 
Q 28.375 -14.84375 24.75 -17.8125 
Q 21.140625 -20.796875 15.09375 -20.796875 
L 7.90625 -20.796875 
L 7.90625 -13.28125 
L 13.1875 -13.28125 
Q 16.890625 -13.28125 18.9375 -11.515625 
Q 21 -9.765625 23.484375 -3.21875 
L 25.09375 0.875 
L 2.984375 54.6875 
L 12.5 54.6875 
L 29.59375 11.921875 
L 46.6875 54.6875 
L 56.203125 54.6875 
z
" id="DejaVuSans-79"/>
      <path d="M 18.109375 8.203125 
L 18.109375 -20.796875 
L 9.078125 -20.796875 
L 9.078125 54.6875 
L 18.109375 54.6875 
L 18.109375 46.390625 
Q 20.953125 51.265625 25.265625 53.625 
Q 29.59375 56 35.59375 56 
Q 45.5625 56 51.78125 48.09375 
Q 58.015625 40.1875 58.015625 27.296875 
Q 58.015625 14.40625 51.78125 6.484375 
Q 45.5625 -1.421875 35.59375 -1.421875 
Q 29.59375 -1.421875 25.265625 0.953125 
Q 20.953125 3.328125 18.109375 8.203125 
z
M 48.6875 27.296875 
Q 48.6875 37.203125 44.609375 42.84375 
Q 40.53125 48.484375 33.40625 48.484375 
Q 26.265625 48.484375 22.1875 42.84375 
Q 18.109375 37.203125 18.109375 27.296875 
Q 18.109375 17.390625 22.1875 11.75 
Q 26.265625 6.109375 33.40625 6.109375 
Q 40.53125 6.109375 44.609375 11.75 
Q 48.6875 17.390625 48.6875 27.296875 
z
" id="DejaVuSans-70"/>
     </defs>
     <g style="fill:#262626;" transform="translate(135.312656 419.516406)scale(0.11 -0.11)">
      <use xlink:href="#DejaVuSans-74"/>
      <use x="39.208984" xlink:href="#DejaVuSans-79"/>
      <use x="98.388672" xlink:href="#DejaVuSans-70"/>
      <use x="161.865234" xlink:href="#DejaVuSans-65"/>
     </g>
    </g>
   </g>
   <g id="matplotlib.axis_2">
    <g id="ytick_1">
     <g id="line2d_4">
      <defs>
       <path d="M 0 0 
L -6 0 
" id="mb384d4b799" style="stroke:#262626;"/>
      </defs>
      <g>
       <use style="fill:#262626;stroke:#262626;" x="36" xlink:href="#mb384d4b799" y="367.560055"/>
      </g>
     </g>
     <g id="text_5">
      <!-- −6 -->
      <defs>
       <path d="M 10.59375 35.5 
L 73.1875 35.5 
L 73.1875 27.203125 
L 10.59375 27.203125 
z
" id="DejaVuSans-2212"/>
       <path d="M 33.015625 40.375 
Q 26.375 40.375 22.484375 35.828125 
Q 18.609375 31.296875 18.609375 23.390625 
Q 18.609375 15.53125 22.484375 10.953125 
Q 26.375 6.390625 33.015625 6.390625 
Q 39.65625 6.390625 43.53125 10.953125 
Q 47.40625 15.53125 47.40625 23.390625 
Q 47.40625 31.296875 43.53125 35.828125 
Q 39.65625 40.375 33.015625 40.375 
z
M 52.59375 71.296875 
L 52.59375 62.3125 
Q 48.875 64.0625 45.09375 64.984375 
Q 41.3125 65.921875 37.59375 65.921875 
Q 27.828125 65.921875 22.671875 59.328125 
Q 17.53125 52.734375 16.796875 39.40625 
Q 19.671875 43.65625 24.015625 45.921875 
Q 28.375 48.1875 33.59375 48.1875 
Q 44.578125 48.1875 50.953125 41.515625 
Q 57.328125 34.859375 57.328125 23.390625 
Q 57.328125 12.15625 50.6875 5.359375 
Q 44.046875 -1.421875 33.015625 -1.421875 
Q 20.359375 -1.421875 13.671875 8.265625 
Q 6.984375 17.96875 6.984375 36.375 
Q 6.984375 53.65625 15.1875 63.9375 
Q 23.390625 74.21875 37.203125 74.21875 
Q 40.921875 74.21875 44.703125 73.484375 
Q 48.484375 72.75 52.59375 71.296875 
z
" id="DejaVuSans-36"/>
      </defs>
      <g style="fill:#262626;" transform="translate(8.257812 371.359274)scale(0.1 -0.1)">
       <use xlink:href="#DejaVuSans-2212"/>
       <use x="83.789062" xlink:href="#DejaVuSans-36"/>
      </g>
     </g>
    </g>
    <g id="ytick_2">
     <g id="line2d_5">
      <g>
       <use style="fill:#262626;stroke:#262626;" x="36" xlink:href="#mb384d4b799" y="322.241641"/>
      </g>
     </g>
     <g id="text_6">
      <!-- −5 -->
      <defs>
       <path d="M 10.796875 72.90625 
L 49.515625 72.90625 
L 49.515625 64.59375 
L 19.828125 64.59375 
L 19.828125 46.734375 
Q 21.96875 47.46875 24.109375 47.828125 
Q 26.265625 48.1875 28.421875 48.1875 
Q 40.625 48.1875 47.75 41.5 
Q 54.890625 34.8125 54.890625 23.390625 
Q 54.890625 11.625 47.5625 5.09375 
Q 40.234375 -1.421875 26.90625 -1.421875 
Q 22.3125 -1.421875 17.546875 -0.640625 
Q 12.796875 0.140625 7.71875 1.703125 
L 7.71875 11.625 
Q 12.109375 9.234375 16.796875 8.0625 
Q 21.484375 6.890625 26.703125 6.890625 
Q 35.15625 6.890625 40.078125 11.328125 
Q 45.015625 15.765625 45.015625 23.390625 
Q 45.015625 31 40.078125 35.4375 
Q 35.15625 39.890625 26.703125 39.890625 
Q 22.75 39.890625 18.8125 39.015625 
Q 14.890625 38.140625 10.796875 36.28125 
z
" id="DejaVuSans-35"/>
      </defs>
      <g style="fill:#262626;" transform="translate(8.257812 326.04086)scale(0.1 -0.1)">
       <use xlink:href="#DejaVuSans-2212"/>
       <use x="83.789062" xlink:href="#DejaVuSans-35"/>
      </g>
     </g>
    </g>
    <g id="ytick_3">
     <g id="line2d_6">
      <g>
       <use style="fill:#262626;stroke:#262626;" x="36" xlink:href="#mb384d4b799" y="276.923227"/>
      </g>
     </g>
     <g id="text_7">
      <!-- −4 -->
      <defs>
       <path d="M 37.796875 64.3125 
L 12.890625 25.390625 
L 37.796875 25.390625 
z
M 35.203125 72.90625 
L 47.609375 72.90625 
L 47.609375 25.390625 
L 58.015625 25.390625 
L 58.015625 17.1875 
L 47.609375 17.1875 
L 47.609375 0 
L 37.796875 0 
L 37.796875 17.1875 
L 4.890625 17.1875 
L 4.890625 26.703125 
z
" id="DejaVuSans-34"/>
      </defs>
      <g style="fill:#262626;" transform="translate(8.257812 280.722446)scale(0.1 -0.1)">
       <use xlink:href="#DejaVuSans-2212"/>
       <use x="83.789062" xlink:href="#DejaVuSans-34"/>
      </g>
     </g>
    </g>
    <g id="ytick_4">
     <g id="line2d_7">
      <g>
       <use style="fill:#262626;stroke:#262626;" x="36" xlink:href="#mb384d4b799" y="231.604813"/>
      </g>
     </g>
     <g id="text_8">
      <!-- −3 -->
      <defs>
       <path d="M 40.578125 39.3125 
Q 47.65625 37.796875 51.625 33 
Q 55.609375 28.21875 55.609375 21.1875 
Q 55.609375 10.40625 48.1875 4.484375 
Q 40.765625 -1.421875 27.09375 -1.421875 
Q 22.515625 -1.421875 17.65625 -0.515625 
Q 12.796875 0.390625 7.625 2.203125 
L 7.625 11.71875 
Q 11.71875 9.328125 16.59375 8.109375 
Q 21.484375 6.890625 26.8125 6.890625 
Q 36.078125 6.890625 40.9375 10.546875 
Q 45.796875 14.203125 45.796875 21.1875 
Q 45.796875 27.640625 41.28125 31.265625 
Q 36.765625 34.90625 28.71875 34.90625 
L 20.21875 34.90625 
L 20.21875 43.015625 
L 29.109375 43.015625 
Q 36.375 43.015625 40.234375 45.921875 
Q 44.09375 48.828125 44.09375 54.296875 
Q 44.09375 59.90625 40.109375 62.90625 
Q 36.140625 65.921875 28.71875 65.921875 
Q 24.65625 65.921875 20.015625 65.03125 
Q 15.375 64.15625 9.8125 62.3125 
L 9.8125 71.09375 
Q 15.4375 72.65625 20.34375 73.4375 
Q 25.25 74.21875 29.59375 74.21875 
Q 40.828125 74.21875 47.359375 69.109375 
Q 53.90625 64.015625 53.90625 55.328125 
Q 53.90625 49.265625 50.4375 45.09375 
Q 46.96875 40.921875 40.578125 39.3125 
z
" id="DejaVuSans-33"/>
      </defs>
      <g style="fill:#262626;" transform="translate(8.257812 235.404032)scale(0.1 -0.1)">
       <use xlink:href="#DejaVuSans-2212"/>
       <use x="83.789062" xlink:href="#DejaVuSans-33"/>
      </g>
     </g>
    </g>
    <g id="ytick_5">
     <g id="line2d_8">
      <g>
       <use style="fill:#262626;stroke:#262626;" x="36" xlink:href="#mb384d4b799" y="186.286399"/>
      </g>
     </g>
     <g id="text_9">
      <!-- −2 -->
      <defs>
       <path d="M 19.1875 8.296875 
L 53.609375 8.296875 
L 53.609375 0 
L 7.328125 0 
L 7.328125 8.296875 
Q 12.9375 14.109375 22.625 23.890625 
Q 32.328125 33.6875 34.8125 36.53125 
Q 39.546875 41.84375 41.421875 45.53125 
Q 43.3125 49.21875 43.3125 52.78125 
Q 43.3125 58.59375 39.234375 62.25 
Q 35.15625 65.921875 28.609375 65.921875 
Q 23.96875 65.921875 18.8125 64.3125 
Q 13.671875 62.703125 7.8125 59.421875 
L 7.8125 69.390625 
Q 13.765625 71.78125 18.9375 73 
Q 24.125 74.21875 28.421875 74.21875 
Q 39.75 74.21875 46.484375 68.546875 
Q 53.21875 62.890625 53.21875 53.421875 
Q 53.21875 48.921875 51.53125 44.890625 
Q 49.859375 40.875 45.40625 35.40625 
Q 44.1875 33.984375 37.640625 27.21875 
Q 31.109375 20.453125 19.1875 8.296875 
z
" id="DejaVuSans-32"/>
      </defs>
      <g style="fill:#262626;" transform="translate(8.257812 190.085618)scale(0.1 -0.1)">
       <use xlink:href="#DejaVuSans-2212"/>
       <use x="83.789062" xlink:href="#DejaVuSans-32"/>
      </g>
     </g>
    </g>
    <g id="ytick_6">
     <g id="line2d_9">
      <g>
       <use style="fill:#262626;stroke:#262626;" x="36" xlink:href="#mb384d4b799" y="140.967985"/>
      </g>
     </g>
     <g id="text_10">
      <!-- −1 -->
      <defs>
       <path d="M 12.40625 8.296875 
L 28.515625 8.296875 
L 28.515625 63.921875 
L 10.984375 60.40625 
L 10.984375 69.390625 
L 28.421875 72.90625 
L 38.28125 72.90625 
L 38.28125 8.296875 
L 54.390625 8.296875 
L 54.390625 0 
L 12.40625 0 
z
" id="DejaVuSans-31"/>
      </defs>
      <g style="fill:#262626;" transform="translate(8.257812 144.767204)scale(0.1 -0.1)">
       <use xlink:href="#DejaVuSans-2212"/>
       <use x="83.789062" xlink:href="#DejaVuSans-31"/>
      </g>
     </g>
    </g>
    <g id="ytick_7">
     <g id="line2d_10">
      <g>
       <use style="fill:#262626;stroke:#262626;" x="36" xlink:href="#mb384d4b799" y="95.649572"/>
      </g>
     </g>
     <g id="text_11">
      <!-- 0 -->
      <defs>
       <path d="M 31.78125 66.40625 
Q 24.171875 66.40625 20.328125 58.90625 
Q 16.5 51.421875 16.5 36.375 
Q 16.5 21.390625 20.328125 13.890625 
Q 24.171875 6.390625 31.78125 6.390625 
Q 39.453125 6.390625 43.28125 13.890625 
Q 47.125 21.390625 47.125 36.375 
Q 47.125 51.421875 43.28125 58.90625 
Q 39.453125 66.40625 31.78125 66.40625 
z
M 31.78125 74.21875 
Q 44.046875 74.21875 50.515625 64.515625 
Q 56.984375 54.828125 56.984375 36.375 
Q 56.984375 17.96875 50.515625 8.265625 
Q 44.046875 -1.421875 31.78125 -1.421875 
Q 19.53125 -1.421875 13.0625 8.265625 
Q 6.59375 17.96875 6.59375 36.375 
Q 6.59375 54.828125 13.0625 64.515625 
Q 19.53125 74.21875 31.78125 74.21875 
z
" id="DejaVuSans-30"/>
      </defs>
      <g style="fill:#262626;" transform="translate(16.6375 99.44879)scale(0.1 -0.1)">
       <use xlink:href="#DejaVuSans-30"/>
      </g>
     </g>
    </g>
    <g id="text_12">
     <!-- flux -->
     <defs>
      <path d="M 9.421875 75.984375 
L 18.40625 75.984375 
L 18.40625 0 
L 9.421875 0 
z
" id="DejaVuSans-6c"/>
      <path d="M 8.5 21.578125 
L 8.5 54.6875 
L 17.484375 54.6875 
L 17.484375 21.921875 
Q 17.484375 14.15625 20.5 10.265625 
Q 23.53125 6.390625 29.59375 6.390625 
Q 36.859375 6.390625 41.078125 11.03125 
Q 45.3125 15.671875 45.3125 23.6875 
L 45.3125 54.6875 
L 54.296875 54.6875 
L 54.296875 0 
L 45.3125 0 
L 45.3125 8.40625 
Q 42.046875 3.421875 37.71875 1 
Q 33.40625 -1.421875 27.6875 -1.421875 
Q 18.265625 -1.421875 13.375 4.4375 
Q 8.5 10.296875 8.5 21.578125 
z
M 31.109375 56 
z
" id="DejaVuSans-75"/>
      <path d="M 54.890625 54.6875 
L 35.109375 28.078125 
L 55.90625 0 
L 45.3125 0 
L 29.390625 21.484375 
L 13.484375 0 
L 2.875 0 
L 24.125 28.609375 
L 4.6875 54.6875 
L 15.28125 54.6875 
L 29.78125 35.203125 
L 44.28125 54.6875 
z
" id="DejaVuSans-78"/>
     </defs>
     <g style="fill:#262626;" transform="translate(1.970156 228.365078)rotate(-90)scale(0.11 -0.11)">
      <use xlink:href="#DejaVuSans-66"/>
      <use x="35.205078" xlink:href="#DejaVuSans-6c"/>
      <use x="62.988281" xlink:href="#DejaVuSans-75"/>
      <use x="126.367188" xlink:href="#DejaVuSans-78"/>
     </g>
    </g>
   </g>
   <g id="patch_3">
    <path d="M 36 384.48 
L 36 51.84 
" style="fill:none;stroke:#262626;stroke-linecap:square;stroke-linejoin:miter;stroke-width:1.25;"/>
   </g>
   <g id="patch_4">
    <path d="M 259.2 384.48 
L 259.2 51.84 
" style="fill:none;stroke:#262626;stroke-linecap:square;stroke-linejoin:miter;stroke-width:1.25;"/>
   </g>
   <g id="patch_5">
    <path d="M 36 384.48 
L 259.2 384.48 
" style="fill:none;stroke:#262626;stroke-linecap:square;stroke-linejoin:miter;stroke-width:1.25;"/>
   </g>
   <g id="patch_6">
    <path d="M 36 51.84 
L 259.2 51.84 
" style="fill:none;stroke:#262626;stroke-linecap:square;stroke-linejoin:miter;stroke-width:1.25;"/>
   </g>
   <g id="PathCollection_1">
    <defs>
     <path d="M 0 2.5 
C 0.663008 2.5 1.29895 2.236584 1.767767 1.767767 
C 2.236584 1.29895 2.5 0.663008 2.5 0 
C 2.5 -0.663008 2.236584 -1.29895 1.767767 -1.767767 
C 1.29895 -2.236584 0.663008 -2.5 0 -2.5 
C -0.663008 -2.5 -1.29895 -2.236584 -1.767767 -1.767767 
C -2.236584 -1.29895 -2.5 -0.663008 -2.5 0 
C -2.5 0.663008 -2.236584 1.29895 -1.767767 1.767767 
C -1.29895 2.236584 -0.663008 2.5 0 2.5 
z
" id="C0_0_c0c43740e3"/>
    </defs>
    <g clip-path="url(#p8a84a7355c)">
     <use style="fill:#4c72b0;" x="71.580821" xlink:href="#C0_0_c0c43740e3" y="367.560055"/>
    </g>
    <g clip-path="url(#p8a84a7355c)">
     <use style="fill:#4c72b0;" x="78.951888" xlink:href="#C0_0_c0c43740e3" y="367.560055"/>
    </g>
    <g clip-path="url(#p8a84a7355c)">
     <use style="fill:#4c72b0;" x="67.186075" xlink:href="#C0_0_c0c43740e3" y="209.815672"/>
    </g>
    <g clip-path="url(#p8a84a7355c)">
     <use style="fill:#4c72b0;" x="69.323522" xlink:href="#C0_0_c0c43740e3" y="367.560055"/>
    </g>
    <g clip-path="url(#p8a84a7355c)">
     <use style="fill:#4c72b0;" x="72.663352" xlink:href="#C0_0_c0c43740e3" y="367.560055"/>
    </g>
    <g clip-path="url(#p8a84a7355c)">
     <use style="fill:#4c72b0;" x="75.787726" xlink:href="#C0_0_c0c43740e3" y="351.332556"/>
    </g>
    <g clip-path="url(#p8a84a7355c)">
     <use style="fill:#4c72b0;" x="68.158715" xlink:href="#C0_0_c0c43740e3" y="367.560055"/>
    </g>
    <g clip-path="url(#p8a84a7355c)">
     <use style="fill:#4c72b0;" x="80.222218" xlink:href="#C0_0_c0c43740e3" y="367.560055"/>
    </g>
    <g clip-path="url(#p8a84a7355c)">
     <use style="fill:#4c72b0;" x="77.935009" xlink:href="#C0_0_c0c43740e3" y="367.560055"/>
    </g>
    <g clip-path="url(#p8a84a7355c)">
     <use style="fill:#4c72b0;" x="69.551658" xlink:href="#C0_0_c0c43740e3" y="367.560055"/>
    </g>
    <g clip-path="url(#p8a84a7355c)">
     <use style="fill:#4c72b0;" x="66.696451" xlink:href="#C0_0_c0c43740e3" y="367.560055"/>
    </g>
    <g clip-path="url(#p8a84a7355c)">
     <use style="fill:#4c72b0;" x="73.10618" xlink:href="#C0_0_c0c43740e3" y="367.560055"/>
    </g>
    <g clip-path="url(#p8a84a7355c)">
     <use style="fill:#4c72b0;" x="72.261135" xlink:href="#C0_0_c0c43740e3" y="367.560055"/>
    </g>
    <g clip-path="url(#p8a84a7355c)">
     <use style="fill:#4c72b0;" x="75.030688" xlink:href="#C0_0_c0c43740e3" y="367.560055"/>
    </g>
    <g clip-path="url(#p8a84a7355c)">
     <use style="fill:#4c72b0;" x="67.899835" xlink:href="#C0_0_c0c43740e3" y="367.560055"/>
    </g>
    <g clip-path="url(#p8a84a7355c)">
     <use style="fill:#4c72b0;" x="69.648509" xlink:href="#C0_0_c0c43740e3" y="367.560055"/>
    </g>
    <g clip-path="url(#p8a84a7355c)">
     <use style="fill:#4c72b0;" x="72.56763" xlink:href="#C0_0_c0c43740e3" y="194.753708"/>
    </g>
    <g clip-path="url(#p8a84a7355c)">
     <use style="fill:#4c72b0;" x="66.950869" xlink:href="#C0_0_c0c43740e3" y="217.591856"/>
    </g>
    <g clip-path="url(#p8a84a7355c)">
     <use style="fill:#4c72b0;" x="77.238728" xlink:href="#C0_0_c0c43740e3" y="367.560055"/>
    </g>
    <g clip-path="url(#p8a84a7355c)">
     <use style="fill:#4c72b0;" x="74.998942" xlink:href="#C0_0_c0c43740e3" y="367.560055"/>
    </g>
    <g clip-path="url(#p8a84a7355c)">
     <use style="fill:#4c72b0;" x="65.986924" xlink:href="#C0_0_c0c43740e3" y="182.661848"/>
    </g>
    <g clip-path="url(#p8a84a7355c)">
     <use style="fill:#4c72b0;" x="80.551778" xlink:href="#C0_0_c0c43740e3" y="367.560055"/>
    </g>
    <g clip-path="url(#p8a84a7355c)">
     <use style="fill:#4c72b0;" x="80.458365" xlink:href="#C0_0_c0c43740e3" y="367.560055"/>
    </g>
    <g clip-path="url(#p8a84a7355c)">
     <use style="fill:#4c72b0;" x="76.365838" xlink:href="#C0_0_c0c43740e3" y="367.560055"/>
    </g>
    <g clip-path="url(#p8a84a7355c)">
     <use style="fill:#4c72b0;" x="78.09731" xlink:href="#C0_0_c0c43740e3" y="367.560055"/>
    </g>
    <g clip-path="url(#p8a84a7355c)">
     <use style="fill:#4c72b0;" x="69.036489" xlink:href="#C0_0_c0c43740e3" y="367.560055"/>
    </g>
    <g clip-path="url(#p8a84a7355c)">
     <use style="fill:#4c72b0;" x="71.19194" xlink:href="#C0_0_c0c43740e3" y="367.560055"/>
    </g>
    <g clip-path="url(#p8a84a7355c)">
     <use style="fill:#4c72b0;" x="74.834119" xlink:href="#C0_0_c0c43740e3" y="367.560055"/>
    </g>
    <g clip-path="url(#p8a84a7355c)">
     <use style="fill:#4c72b0;" x="67.193668" xlink:href="#C0_0_c0c43740e3" y="367.560055"/>
    </g>
    <g clip-path="url(#p8a84a7355c)">
     <use style="fill:#4c72b0;" x="78.893865" xlink:href="#C0_0_c0c43740e3" y="367.560055"/>
    </g>
    <g clip-path="url(#p8a84a7355c)">
     <use style="fill:#4c72b0;" x="66.332344" xlink:href="#C0_0_c0c43740e3" y="367.560055"/>
    </g>
    <g clip-path="url(#p8a84a7355c)">
     <use style="fill:#4c72b0;" x="65.86853" xlink:href="#C0_0_c0c43740e3" y="367.560055"/>
    </g>
    <g clip-path="url(#p8a84a7355c)">
     <use style="fill:#4c72b0;" x="66.673734" xlink:href="#C0_0_c0c43740e3" y="367.560055"/>
    </g>
    <g clip-path="url(#p8a84a7355c)">
     <use style="fill:#4c72b0;" x="71.657772" xlink:href="#C0_0_c0c43740e3" y="367.560055"/>
    </g>
    <g clip-path="url(#p8a84a7355c)">
     <use style="fill:#4c72b0;" x="69.136483" xlink:href="#C0_0_c0c43740e3" y="367.560055"/>
    </g>
    <g clip-path="url(#p8a84a7355c)">
     <use style="fill:#4c72b0;" x="78.754875" xlink:href="#C0_0_c0c43740e3" y="367.560055"/>
    </g>
    <g clip-path="url(#p8a84a7355c)">
     <use style="fill:#4c72b0;" x="74.776328" xlink:href="#C0_0_c0c43740e3" y="367.560055"/>
    </g>
    <g clip-path="url(#p8a84a7355c)">
     <use style="fill:#4c72b0;" x="77.960934" xlink:href="#C0_0_c0c43740e3" y="367.560055"/>
    </g>
    <g clip-path="url(#p8a84a7355c)">
     <use style="fill:#4c72b0;" x="70.550407" xlink:href="#C0_0_c0c43740e3" y="367.560055"/>
    </g>
    <g clip-path="url(#p8a84a7355c)">
     <use style="fill:#4c72b0;" x="68.214526" xlink:href="#C0_0_c0c43740e3" y="367.560055"/>
    </g>
    <g clip-path="url(#p8a84a7355c)">
     <use style="fill:#4c72b0;" x="79.330092" xlink:href="#C0_0_c0c43740e3" y="367.560055"/>
    </g>
    <g clip-path="url(#p8a84a7355c)">
     <use style="fill:#4c72b0;" x="79.950003" xlink:href="#C0_0_c0c43740e3" y="367.560055"/>
    </g>
    <g clip-path="url(#p8a84a7355c)">
     <use style="fill:#4c72b0;" x="70.791317" xlink:href="#C0_0_c0c43740e3" y="67.20523"/>
    </g>
    <g clip-path="url(#p8a84a7355c)">
     <use style="fill:#4c72b0;" x="76.356002" xlink:href="#C0_0_c0c43740e3" y="211.400086"/>
    </g>
    <g clip-path="url(#p8a84a7355c)">
     <use style="fill:#4c72b0;" x="79.957958" xlink:href="#C0_0_c0c43740e3" y="367.560055"/>
    </g>
    <g clip-path="url(#p8a84a7355c)">
     <use style="fill:#4c72b0;" x="73.857191" xlink:href="#C0_0_c0c43740e3" y="367.560055"/>
    </g>
    <g clip-path="url(#p8a84a7355c)">
     <use style="fill:#4c72b0;" x="74.826577" xlink:href="#C0_0_c0c43740e3" y="367.560055"/>
    </g>
    <g clip-path="url(#p8a84a7355c)">
     <use style="fill:#4c72b0;" x="73.448988" xlink:href="#C0_0_c0c43740e3" y="367.560055"/>
    </g>
    <g clip-path="url(#p8a84a7355c)">
     <use style="fill:#4c72b0;" x="79.819241" xlink:href="#C0_0_c0c43740e3" y="318.807897"/>
    </g>
    <g clip-path="url(#p8a84a7355c)">
     <use style="fill:#4c72b0;" x="75.357129" xlink:href="#C0_0_c0c43740e3" y="367.560055"/>
    </g>
    <g clip-path="url(#p8a84a7355c)">
     <use style="fill:#4c72b0;" x="71.486154" xlink:href="#C0_0_c0c43740e3" y="367.560055"/>
    </g>
    <g clip-path="url(#p8a84a7355c)">
     <use style="fill:#4c72b0;" x="69.938354" xlink:href="#C0_0_c0c43740e3" y="367.560055"/>
    </g>
    <g clip-path="url(#p8a84a7355c)">
     <use style="fill:#4c72b0;" x="66.140601" xlink:href="#C0_0_c0c43740e3" y="367.560055"/>
    </g>
    <g clip-path="url(#p8a84a7355c)">
     <use style="fill:#4c72b0;" x="71.417384" xlink:href="#C0_0_c0c43740e3" y="208.43976"/>
    </g>
    <g clip-path="url(#p8a84a7355c)">
     <use style="fill:#4c72b0;" x="67.23111" xlink:href="#C0_0_c0c43740e3" y="367.560055"/>
    </g>
    <g clip-path="url(#p8a84a7355c)">
     <use style="fill:#4c72b0;" x="74.676754" xlink:href="#C0_0_c0c43740e3" y="367.560055"/>
    </g>
    <g clip-path="url(#p8a84a7355c)">
     <use style="fill:#4c72b0;" x="68.775059" xlink:href="#C0_0_c0c43740e3" y="367.560055"/>
    </g>
    <g clip-path="url(#p8a84a7355c)">
     <use style="fill:#4c72b0;" x="79.551916" xlink:href="#C0_0_c0c43740e3" y="367.560055"/>
    </g>
    <g clip-path="url(#p8a84a7355c)">
     <use style="fill:#4c72b0;" x="70.705424" xlink:href="#C0_0_c0c43740e3" y="367.560055"/>
    </g>
    <g clip-path="url(#p8a84a7355c)">
     <use style="fill:#4c72b0;" x="76.644756" xlink:href="#C0_0_c0c43740e3" y="367.560055"/>
    </g>
    <g clip-path="url(#p8a84a7355c)">
     <use style="fill:#4c72b0;" x="68.480942" xlink:href="#C0_0_c0c43740e3" y="191.020069"/>
    </g>
    <g clip-path="url(#p8a84a7355c)">
     <use style="fill:#4c72b0;" x="67.058524" xlink:href="#C0_0_c0c43740e3" y="349.932943"/>
    </g>
    <g clip-path="url(#p8a84a7355c)">
     <use style="fill:#4c72b0;" x="69.599117" xlink:href="#C0_0_c0c43740e3" y="367.560055"/>
    </g>
   </g>
   <g id="PathCollection_2">
    <defs>
     <path d="M 0 2.5 
C 0.663008 2.5 1.29895 2.236584 1.767767 1.767767 
C 2.236584 1.29895 2.5 0.663008 2.5 0 
C 2.5 -0.663008 2.236584 -1.29895 1.767767 -1.767767 
C 1.29895 -2.236584 0.663008 -2.5 0 -2.5 
C -0.663008 -2.5 -1.29895 -2.236584 -1.767767 -1.767767 
C -2.236584 -1.29895 -2.5 -0.663008 -2.5 0 
C -2.5 0.663008 -2.236584 1.29895 -1.767767 1.767767 
C -1.29895 2.236584 -0.663008 2.5 0 2.5 
z
" id="C1_0_b193b27bcd"/>
    </defs>
    <g clip-path="url(#p8a84a7355c)">
     <use style="fill:#55a868;" x="153.67739" xlink:href="#C1_0_b193b27bcd" y="367.560055"/>
    </g>
    <g clip-path="url(#p8a84a7355c)">
     <use style="fill:#55a868;" x="154.497642" xlink:href="#C1_0_b193b27bcd" y="367.560055"/>
    </g>
    <g clip-path="url(#p8a84a7355c)">
     <use style="fill:#55a868;" x="140.998182" xlink:href="#C1_0_b193b27bcd" y="185.225407"/>
    </g>
    <g clip-path="url(#p8a84a7355c)">
     <use style="fill:#55a868;" x="146.84766" xlink:href="#C1_0_b193b27bcd" y="367.560055"/>
    </g>
    <g clip-path="url(#p8a84a7355c)">
     <use style="fill:#55a868;" x="141.248121" xlink:href="#C1_0_b193b27bcd" y="272.513208"/>
    </g>
    <g clip-path="url(#p8a84a7355c)">
     <use style="fill:#55a868;" x="152.924541" xlink:href="#C1_0_b193b27bcd" y="367.560055"/>
    </g>
    <g clip-path="url(#p8a84a7355c)">
     <use style="fill:#55a868;" x="141.377044" xlink:href="#C1_0_b193b27bcd" y="194.877462"/>
    </g>
    <g clip-path="url(#p8a84a7355c)">
     <use style="fill:#55a868;" x="144.019453" xlink:href="#C1_0_b193b27bcd" y="367.560055"/>
    </g>
    <g clip-path="url(#p8a84a7355c)">
     <use style="fill:#55a868;" x="145.425367" xlink:href="#C1_0_b193b27bcd" y="367.560055"/>
    </g>
    <g clip-path="url(#p8a84a7355c)">
     <use style="fill:#55a868;" x="144.079066" xlink:href="#C1_0_b193b27bcd" y="367.560055"/>
    </g>
    <g clip-path="url(#p8a84a7355c)">
     <use style="fill:#55a868;" x="149.575915" xlink:href="#C1_0_b193b27bcd" y="367.560055"/>
    </g>
    <g clip-path="url(#p8a84a7355c)">
     <use style="fill:#55a868;" x="154.581469" xlink:href="#C1_0_b193b27bcd" y="367.560055"/>
    </g>
    <g clip-path="url(#p8a84a7355c)">
     <use style="fill:#55a868;" x="142.044563" xlink:href="#C1_0_b193b27bcd" y="367.560055"/>
    </g>
    <g clip-path="url(#p8a84a7355c)">
     <use style="fill:#55a868;" x="147.018221" xlink:href="#C1_0_b193b27bcd" y="367.560055"/>
    </g>
    <g clip-path="url(#p8a84a7355c)">
     <use style="fill:#55a868;" x="147.82708" xlink:href="#C1_0_b193b27bcd" y="367.560055"/>
    </g>
    <g clip-path="url(#p8a84a7355c)">
     <use style="fill:#55a868;" x="149.515736" xlink:href="#C1_0_b193b27bcd" y="332.993159"/>
    </g>
    <g clip-path="url(#p8a84a7355c)">
     <use style="fill:#55a868;" x="152.983631" xlink:href="#C1_0_b193b27bcd" y="217.284031"/>
    </g>
    <g clip-path="url(#p8a84a7355c)">
     <use style="fill:#55a868;" x="144.256813" xlink:href="#C1_0_b193b27bcd" y="367.560055"/>
    </g>
    <g clip-path="url(#p8a84a7355c)">
     <use style="fill:#55a868;" x="148.593668" xlink:href="#C1_0_b193b27bcd" y="367.560055"/>
    </g>
    <g clip-path="url(#p8a84a7355c)">
     <use style="fill:#55a868;" x="154.407776" xlink:href="#C1_0_b193b27bcd" y="134.976885"/>
    </g>
    <g clip-path="url(#p8a84a7355c)">
     <use style="fill:#55a868;" x="151.145065" xlink:href="#C1_0_b193b27bcd" y="367.560055"/>
    </g>
    <g clip-path="url(#p8a84a7355c)">
     <use style="fill:#55a868;" x="148.074193" xlink:href="#C1_0_b193b27bcd" y="188.451137"/>
    </g>
    <g clip-path="url(#p8a84a7355c)">
     <use style="fill:#55a868;" x="141.236633" xlink:href="#C1_0_b193b27bcd" y="190.923194"/>
    </g>
    <g clip-path="url(#p8a84a7355c)">
     <use style="fill:#55a868;" x="143.53688" xlink:href="#C1_0_b193b27bcd" y="367.560055"/>
    </g>
   </g>
   <g id="PathCollection_3">
    <defs>
     <path d="M 0 2.5 
C 0.663008 2.5 1.29895 2.236584 1.767767 1.767767 
C 2.236584 1.29895 2.5 0.663008 2.5 0 
C 2.5 -0.663008 2.236584 -1.29895 1.767767 -1.767767 
C 1.29895 -2.236584 0.663008 -2.5 0 -2.5 
C -0.663008 -2.5 -1.29895 -2.236584 -1.767767 -1.767767 
C -2.236584 -1.29895 -2.5 -0.663008 -2.5 0 
C -2.5 0.663008 -2.236584 1.29895 -1.767767 1.767767 
C -1.29895 2.236584 -0.663008 2.5 0 2.5 
z
" id="C2_0_727049acaf"/>
    </defs>
    <g clip-path="url(#p8a84a7355c)">
     <use style="fill:#c44e52;" x="214.895488" xlink:href="#C2_0_727049acaf" y="367.560055"/>
    </g>
    <g clip-path="url(#p8a84a7355c)">
     <use style="fill:#c44e52;" x="218.778325" xlink:href="#C2_0_727049acaf" y="367.560055"/>
    </g>
    <g clip-path="url(#p8a84a7355c)">
     <use style="fill:#c44e52;" x="225.524343" xlink:href="#C2_0_727049acaf" y="367.560055"/>
    </g>
    <g clip-path="url(#p8a84a7355c)">
     <use style="fill:#c44e52;" x="222.491953" xlink:href="#C2_0_727049acaf" y="333.653554"/>
    </g>
    <g clip-path="url(#p8a84a7355c)">
     <use style="fill:#c44e52;" x="228.276721" xlink:href="#C2_0_727049acaf" y="367.560055"/>
    </g>
    <g clip-path="url(#p8a84a7355c)">
     <use style="fill:#c44e52;" x="216.247037" xlink:href="#C2_0_727049acaf" y="329.904953"/>
    </g>
    <g clip-path="url(#p8a84a7355c)">
     <use style="fill:#c44e52;" x="227.047871" xlink:href="#C2_0_727049acaf" y="367.560055"/>
    </g>
    <g clip-path="url(#p8a84a7355c)">
     <use style="fill:#c44e52;" x="226.415436" xlink:href="#C2_0_727049acaf" y="367.560055"/>
    </g>
    <g clip-path="url(#p8a84a7355c)">
     <use style="fill:#c44e52;" x="228.923198" xlink:href="#C2_0_727049acaf" y="367.560055"/>
    </g>
    <g clip-path="url(#p8a84a7355c)">
     <use style="fill:#c44e52;" x="220.024686" xlink:href="#C2_0_727049acaf" y="367.560055"/>
    </g>
    <g clip-path="url(#p8a84a7355c)">
     <use style="fill:#c44e52;" x="224.035431" xlink:href="#C2_0_727049acaf" y="367.560055"/>
    </g>
   </g>
  </g>
 </g>
 <defs>
  <clipPath id="p8a84a7355c">
   <rect height="332.64" width="223.2" x="36" y="51.84"/>
  </clipPath>
 </defs>
</svg>
