<?xml version="1.0" encoding="utf-8" standalone="no"?>
<!DOCTYPE svg PUBLIC "-//W3C//DTD SVG 1.1//EN"
  "http://www.w3.org/Graphics/SVG/1.1/DTD/svg11.dtd">
<!-- Created with matplotlib (http://matplotlib.org/) -->
<svg height="576pt" version="1.1" viewBox="0 0 576 576" width="576pt" xmlns="http://www.w3.org/2000/svg" xmlns:xlink="http://www.w3.org/1999/xlink">
 <defs>
  <style type="text/css">
*{stroke-linecap:butt;stroke-linejoin:round;}
  </style>
 </defs>
 <g id="figure_1">
  <g id="patch_1">
   <path d="M 0 576 
L 576 576 
L 576 0 
L 0 0 
z
" style="fill:#ffffff;"/>
  </g>
  <g id="axes_1">
   <g id="patch_2">
    <path d="M 72 512.64 
L 518.4 512.64 
L 518.4 69.12 
L 72 69.12 
z
" style="fill:#ffffff;"/>
   </g>
   <g id="patch_3">
    <path clip-path="url(#pd603da9f9c)" d="M 76.058182 89.28 
L 108.523636 89.28 
L 108.523636 89.28 
L 76.058182 89.28 
L 76.058182 89.28 
z
" style="fill:#94c9de;stroke:#6f6f6f;stroke-linejoin:miter;stroke-width:1.5;"/>
   </g>
   <g id="patch_4">
    <path clip-path="url(#pd603da9f9c)" d="M 116.64 89.28 
L 149.105455 89.28 
L 149.105455 89.28 
L 116.64 89.28 
L 116.64 89.28 
z
" style="fill:#94c9de;stroke:#6f6f6f;stroke-linejoin:miter;stroke-width:1.5;"/>
   </g>
   <g id="patch_5">
    <path clip-path="url(#pd603da9f9c)" d="M 157.221818 130.537674 
L 189.687273 130.537674 
L 189.687273 101.604213 
L 157.221818 101.604213 
L 157.221818 130.537674 
z
" style="fill:#94c9de;stroke:#6f6f6f;stroke-linejoin:miter;stroke-width:1.5;"/>
   </g>
   <g id="patch_6">
    <path clip-path="url(#pd603da9f9c)" d="M 197.803636 229.321293 
L 230.269091 229.321293 
L 230.269091 119.84124 
L 197.803636 119.84124 
L 197.803636 229.321293 
z
" style="fill:#94c9de;stroke:#6f6f6f;stroke-linejoin:miter;stroke-width:1.5;"/>
   </g>
   <g id="patch_7">
    <path clip-path="url(#pd603da9f9c)" d="M 238.385455 258.888755 
L 270.850909 258.888755 
L 270.850909 125.68383 
L 238.385455 125.68383 
L 238.385455 258.888755 
z
" style="fill:#94c9de;stroke:#6f6f6f;stroke-linejoin:miter;stroke-width:1.5;"/>
   </g>
   <g id="patch_8">
    <path clip-path="url(#pd603da9f9c)" d="M 278.967273 289.585116 
L 311.432727 289.585116 
L 311.432727 143.393327 
L 278.967273 143.393327 
L 278.967273 289.585116 
z
" style="fill:#94c9de;stroke:#6f6f6f;stroke-linejoin:miter;stroke-width:1.5;"/>
   </g>
   <g id="patch_9">
    <path clip-path="url(#pd603da9f9c)" d="M 319.549091 302.222836 
L 352.014545 302.222836 
L 352.014545 213.365581 
L 319.549091 213.365581 
L 319.549091 302.222836 
z
" style="fill:#94c9de;stroke:#6f6f6f;stroke-linejoin:miter;stroke-width:1.5;"/>
   </g>
   <g id="patch_10">
    <path clip-path="url(#pd603da9f9c)" d="M 360.130909 316.845144 
L 392.596364 316.845144 
L 392.596364 230.826977 
L 360.130909 230.826977 
L 360.130909 316.845144 
z
" style="fill:#94c9de;stroke:#6f6f6f;stroke-linejoin:miter;stroke-width:1.5;"/>
   </g>
   <g id="patch_11">
    <path clip-path="url(#pd603da9f9c)" d="M 400.712727 427.804508 
L 433.178182 427.804508 
L 433.178182 281.815814 
L 400.712727 281.815814 
L 400.712727 427.804508 
z
" style="fill:#94c9de;stroke:#6f6f6f;stroke-linejoin:miter;stroke-width:1.5;"/>
   </g>
   <g id="patch_12">
    <path clip-path="url(#pd603da9f9c)" d="M 441.294545 424.002719 
L 473.76 424.002719 
L 473.76 359.28966 
L 441.294545 359.28966 
L 441.294545 424.002719 
z
" style="fill:#94c9de;stroke:#6f6f6f;stroke-linejoin:miter;stroke-width:1.5;"/>
   </g>
   <g id="patch_13">
    <path clip-path="url(#pd603da9f9c)" d="M 481.876364 460.59907 
L 514.341818 460.59907 
L 514.341818 439.345116 
L 481.876364 439.345116 
L 481.876364 460.59907 
z
" style="fill:#94c9de;stroke:#6f6f6f;stroke-linejoin:miter;stroke-width:1.5;"/>
   </g>
   <g id="matplotlib.axis_1">
    <g id="xtick_1">
     <g id="line2d_1">
      <defs>
       <path d="M 0 0 
L 0 3.5 
" id="mbed1f97919" style="stroke:#000000;stroke-width:0.8;"/>
      </defs>
      <g>
       <use style="stroke:#000000;stroke-width:0.8;" x="92.290909" xlink:href="#mbed1f97919" y="512.64"/>
      </g>
     </g>
     <g id="text_1">
      <!-- 0.1 -->
      <defs>
       <path d="M 31.78125 66.40625 
Q 24.171875 66.40625 20.328125 58.90625 
Q 16.5 51.421875 16.5 36.375 
Q 16.5 21.390625 20.328125 13.890625 
Q 24.171875 6.390625 31.78125 6.390625 
Q 39.453125 6.390625 43.28125 13.890625 
Q 47.125 21.390625 47.125 36.375 
Q 47.125 51.421875 43.28125 58.90625 
Q 39.453125 66.40625 31.78125 66.40625 
z
M 31.78125 74.21875 
Q 44.046875 74.21875 50.515625 64.515625 
Q 56.984375 54.828125 56.984375 36.375 
Q 56.984375 17.96875 50.515625 8.265625 
Q 44.046875 -1.421875 31.78125 -1.421875 
Q 19.53125 -1.421875 13.0625 8.265625 
Q 6.59375 17.96875 6.59375 36.375 
Q 6.59375 54.828125 13.0625 64.515625 
Q 19.53125 74.21875 31.78125 74.21875 
z
" id="DejaVuSans-30"/>
       <path d="M 10.6875 12.40625 
L 21 12.40625 
L 21 0 
L 10.6875 0 
z
" id="DejaVuSans-2e"/>
       <path d="M 12.40625 8.296875 
L 28.515625 8.296875 
L 28.515625 63.921875 
L 10.984375 60.40625 
L 10.984375 69.390625 
L 28.421875 72.90625 
L 38.28125 72.90625 
L 38.28125 8.296875 
L 54.390625 8.296875 
L 54.390625 0 
L 12.40625 0 
z
" id="DejaVuSans-31"/>
      </defs>
      <g transform="translate(84.339347 527.238438)scale(0.1 -0.1)">
       <use xlink:href="#DejaVuSans-30"/>
       <use x="63.623047" xlink:href="#DejaVuSans-2e"/>
       <use x="95.410156" xlink:href="#DejaVuSans-31"/>
      </g>
     </g>
    </g>
    <g id="xtick_2">
     <g id="line2d_2">
      <g>
       <use style="stroke:#000000;stroke-width:0.8;" x="132.872727" xlink:href="#mbed1f97919" y="512.64"/>
      </g>
     </g>
     <g id="text_2">
      <!-- 0.2 -->
      <defs>
       <path d="M 19.1875 8.296875 
L 53.609375 8.296875 
L 53.609375 0 
L 7.328125 0 
L 7.328125 8.296875 
Q 12.9375 14.109375 22.625 23.890625 
Q 32.328125 33.6875 34.8125 36.53125 
Q 39.546875 41.84375 41.421875 45.53125 
Q 43.3125 49.21875 43.3125 52.78125 
Q 43.3125 58.59375 39.234375 62.25 
Q 35.15625 65.921875 28.609375 65.921875 
Q 23.96875 65.921875 18.8125 64.3125 
Q 13.671875 62.703125 7.8125 59.421875 
L 7.8125 69.390625 
Q 13.765625 71.78125 18.9375 73 
Q 24.125 74.21875 28.421875 74.21875 
Q 39.75 74.21875 46.484375 68.546875 
Q 53.21875 62.890625 53.21875 53.421875 
Q 53.21875 48.921875 51.53125 44.890625 
Q 49.859375 40.875 45.40625 35.40625 
Q 44.1875 33.984375 37.640625 27.21875 
Q 31.109375 20.453125 19.1875 8.296875 
z
" id="DejaVuSans-32"/>
      </defs>
      <g transform="translate(124.921165 527.238438)scale(0.1 -0.1)">
       <use xlink:href="#DejaVuSans-30"/>
       <use x="63.623047" xlink:href="#DejaVuSans-2e"/>
       <use x="95.410156" xlink:href="#DejaVuSans-32"/>
      </g>
     </g>
    </g>
    <g id="xtick_3">
     <g id="line2d_3">
      <g>
       <use style="stroke:#000000;stroke-width:0.8;" x="173.454545" xlink:href="#mbed1f97919" y="512.64"/>
      </g>
     </g>
     <g id="text_3">
      <!-- 0.3 -->
      <defs>
       <path d="M 40.578125 39.3125 
Q 47.65625 37.796875 51.625 33 
Q 55.609375 28.21875 55.609375 21.1875 
Q 55.609375 10.40625 48.1875 4.484375 
Q 40.765625 -1.421875 27.09375 -1.421875 
Q 22.515625 -1.421875 17.65625 -0.515625 
Q 12.796875 0.390625 7.625 2.203125 
L 7.625 11.71875 
Q 11.71875 9.328125 16.59375 8.109375 
Q 21.484375 6.890625 26.8125 6.890625 
Q 36.078125 6.890625 40.9375 10.546875 
Q 45.796875 14.203125 45.796875 21.1875 
Q 45.796875 27.640625 41.28125 31.265625 
Q 36.765625 34.90625 28.71875 34.90625 
L 20.21875 34.90625 
L 20.21875 43.015625 
L 29.109375 43.015625 
Q 36.375 43.015625 40.234375 45.921875 
Q 44.09375 48.828125 44.09375 54.296875 
Q 44.09375 59.90625 40.109375 62.90625 
Q 36.140625 65.921875 28.71875 65.921875 
Q 24.65625 65.921875 20.015625 65.03125 
Q 15.375 64.15625 9.8125 62.3125 
L 9.8125 71.09375 
Q 15.4375 72.65625 20.34375 73.4375 
Q 25.25 74.21875 29.59375 74.21875 
Q 40.828125 74.21875 47.359375 69.109375 
Q 53.90625 64.015625 53.90625 55.328125 
Q 53.90625 49.265625 50.4375 45.09375 
Q 46.96875 40.921875 40.578125 39.3125 
z
" id="DejaVuSans-33"/>
      </defs>
      <g transform="translate(165.502983 527.238438)scale(0.1 -0.1)">
       <use xlink:href="#DejaVuSans-30"/>
       <use x="63.623047" xlink:href="#DejaVuSans-2e"/>
       <use x="95.410156" xlink:href="#DejaVuSans-33"/>
      </g>
     </g>
    </g>
    <g id="xtick_4">
     <g id="line2d_4">
      <g>
       <use style="stroke:#000000;stroke-width:0.8;" x="214.036364" xlink:href="#mbed1f97919" y="512.64"/>
      </g>
     </g>
     <g id="text_4">
      <!-- 0.4 -->
      <defs>
       <path d="M 37.796875 64.3125 
L 12.890625 25.390625 
L 37.796875 25.390625 
z
M 35.203125 72.90625 
L 47.609375 72.90625 
L 47.609375 25.390625 
L 58.015625 25.390625 
L 58.015625 17.1875 
L 47.609375 17.1875 
L 47.609375 0 
L 37.796875 0 
L 37.796875 17.1875 
L 4.890625 17.1875 
L 4.890625 26.703125 
z
" id="DejaVuSans-34"/>
      </defs>
      <g transform="translate(206.084801 527.238438)scale(0.1 -0.1)">
       <use xlink:href="#DejaVuSans-30"/>
       <use x="63.623047" xlink:href="#DejaVuSans-2e"/>
       <use x="95.410156" xlink:href="#DejaVuSans-34"/>
      </g>
     </g>
    </g>
    <g id="xtick_5">
     <g id="line2d_5">
      <g>
       <use style="stroke:#000000;stroke-width:0.8;" x="254.618182" xlink:href="#mbed1f97919" y="512.64"/>
      </g>
     </g>
     <g id="text_5">
      <!-- 0.5 -->
      <defs>
       <path d="M 10.796875 72.90625 
L 49.515625 72.90625 
L 49.515625 64.59375 
L 19.828125 64.59375 
L 19.828125 46.734375 
Q 21.96875 47.46875 24.109375 47.828125 
Q 26.265625 48.1875 28.421875 48.1875 
Q 40.625 48.1875 47.75 41.5 
Q 54.890625 34.8125 54.890625 23.390625 
Q 54.890625 11.625 47.5625 5.09375 
Q 40.234375 -1.421875 26.90625 -1.421875 
Q 22.3125 -1.421875 17.546875 -0.640625 
Q 12.796875 0.140625 7.71875 1.703125 
L 7.71875 11.625 
Q 12.109375 9.234375 16.796875 8.0625 
Q 21.484375 6.890625 26.703125 6.890625 
Q 35.15625 6.890625 40.078125 11.328125 
Q 45.015625 15.765625 45.015625 23.390625 
Q 45.015625 31 40.078125 35.4375 
Q 35.15625 39.890625 26.703125 39.890625 
Q 22.75 39.890625 18.8125 39.015625 
Q 14.890625 38.140625 10.796875 36.28125 
z
" id="DejaVuSans-35"/>
      </defs>
      <g transform="translate(246.666619 527.238438)scale(0.1 -0.1)">
       <use xlink:href="#DejaVuSans-30"/>
       <use x="63.623047" xlink:href="#DejaVuSans-2e"/>
       <use x="95.410156" xlink:href="#DejaVuSans-35"/>
      </g>
     </g>
    </g>
    <g id="xtick_6">
     <g id="line2d_6">
      <g>
       <use style="stroke:#000000;stroke-width:0.8;" x="295.2" xlink:href="#mbed1f97919" y="512.64"/>
      </g>
     </g>
     <g id="text_6">
      <!-- 0.6 -->
      <defs>
       <path d="M 33.015625 40.375 
Q 26.375 40.375 22.484375 35.828125 
Q 18.609375 31.296875 18.609375 23.390625 
Q 18.609375 15.53125 22.484375 10.953125 
Q 26.375 6.390625 33.015625 6.390625 
Q 39.65625 6.390625 43.53125 10.953125 
Q 47.40625 15.53125 47.40625 23.390625 
Q 47.40625 31.296875 43.53125 35.828125 
Q 39.65625 40.375 33.015625 40.375 
z
M 52.59375 71.296875 
L 52.59375 62.3125 
Q 48.875 64.0625 45.09375 64.984375 
Q 41.3125 65.921875 37.59375 65.921875 
Q 27.828125 65.921875 22.671875 59.328125 
Q 17.53125 52.734375 16.796875 39.40625 
Q 19.671875 43.65625 24.015625 45.921875 
Q 28.375 48.1875 33.59375 48.1875 
Q 44.578125 48.1875 50.953125 41.515625 
Q 57.328125 34.859375 57.328125 23.390625 
Q 57.328125 12.15625 50.6875 5.359375 
Q 44.046875 -1.421875 33.015625 -1.421875 
Q 20.359375 -1.421875 13.671875 8.265625 
Q 6.984375 17.96875 6.984375 36.375 
Q 6.984375 53.65625 15.1875 63.9375 
Q 23.390625 74.21875 37.203125 74.21875 
Q 40.921875 74.21875 44.703125 73.484375 
Q 48.484375 72.75 52.59375 71.296875 
z
" id="DejaVuSans-36"/>
      </defs>
      <g transform="translate(287.248437 527.238438)scale(0.1 -0.1)">
       <use xlink:href="#DejaVuSans-30"/>
       <use x="63.623047" xlink:href="#DejaVuSans-2e"/>
       <use x="95.410156" xlink:href="#DejaVuSans-36"/>
      </g>
     </g>
    </g>
    <g id="xtick_7">
     <g id="line2d_7">
      <g>
       <use style="stroke:#000000;stroke-width:0.8;" x="335.781818" xlink:href="#mbed1f97919" y="512.64"/>
      </g>
     </g>
     <g id="text_7">
      <!-- 0.7 -->
      <defs>
       <path d="M 8.203125 72.90625 
L 55.078125 72.90625 
L 55.078125 68.703125 
L 28.609375 0 
L 18.3125 0 
L 43.21875 64.59375 
L 8.203125 64.59375 
z
" id="DejaVuSans-37"/>
      </defs>
      <g transform="translate(327.830256 527.238438)scale(0.1 -0.1)">
       <use xlink:href="#DejaVuSans-30"/>
       <use x="63.623047" xlink:href="#DejaVuSans-2e"/>
       <use x="95.410156" xlink:href="#DejaVuSans-37"/>
      </g>
     </g>
    </g>
    <g id="xtick_8">
     <g id="line2d_8">
      <g>
       <use style="stroke:#000000;stroke-width:0.8;" x="376.363636" xlink:href="#mbed1f97919" y="512.64"/>
      </g>
     </g>
     <g id="text_8">
      <!-- 0.8 -->
      <defs>
       <path d="M 31.78125 34.625 
Q 24.75 34.625 20.71875 30.859375 
Q 16.703125 27.09375 16.703125 20.515625 
Q 16.703125 13.921875 20.71875 10.15625 
Q 24.75 6.390625 31.78125 6.390625 
Q 38.8125 6.390625 42.859375 10.171875 
Q 46.921875 13.96875 46.921875 20.515625 
Q 46.921875 27.09375 42.890625 30.859375 
Q 38.875 34.625 31.78125 34.625 
z
M 21.921875 38.8125 
Q 15.578125 40.375 12.03125 44.71875 
Q 8.5 49.078125 8.5 55.328125 
Q 8.5 64.0625 14.71875 69.140625 
Q 20.953125 74.21875 31.78125 74.21875 
Q 42.671875 74.21875 48.875 69.140625 
Q 55.078125 64.0625 55.078125 55.328125 
Q 55.078125 49.078125 51.53125 44.71875 
Q 48 40.375 41.703125 38.8125 
Q 48.828125 37.15625 52.796875 32.3125 
Q 56.78125 27.484375 56.78125 20.515625 
Q 56.78125 9.90625 50.3125 4.234375 
Q 43.84375 -1.421875 31.78125 -1.421875 
Q 19.734375 -1.421875 13.25 4.234375 
Q 6.78125 9.90625 6.78125 20.515625 
Q 6.78125 27.484375 10.78125 32.3125 
Q 14.796875 37.15625 21.921875 38.8125 
z
M 18.3125 54.390625 
Q 18.3125 48.734375 21.84375 45.5625 
Q 25.390625 42.390625 31.78125 42.390625 
Q 38.140625 42.390625 41.71875 45.5625 
Q 45.3125 48.734375 45.3125 54.390625 
Q 45.3125 60.0625 41.71875 63.234375 
Q 38.140625 66.40625 31.78125 66.40625 
Q 25.390625 66.40625 21.84375 63.234375 
Q 18.3125 60.0625 18.3125 54.390625 
z
" id="DejaVuSans-38"/>
      </defs>
      <g transform="translate(368.412074 527.238438)scale(0.1 -0.1)">
       <use xlink:href="#DejaVuSans-30"/>
       <use x="63.623047" xlink:href="#DejaVuSans-2e"/>
       <use x="95.410156" xlink:href="#DejaVuSans-38"/>
      </g>
     </g>
    </g>
    <g id="xtick_9">
     <g id="line2d_9">
      <g>
       <use style="stroke:#000000;stroke-width:0.8;" x="416.945455" xlink:href="#mbed1f97919" y="512.64"/>
      </g>
     </g>
     <g id="text_9">
      <!-- 0.9 -->
      <defs>
       <path d="M 10.984375 1.515625 
L 10.984375 10.5 
Q 14.703125 8.734375 18.5 7.8125 
Q 22.3125 6.890625 25.984375 6.890625 
Q 35.75 6.890625 40.890625 13.453125 
Q 46.046875 20.015625 46.78125 33.40625 
Q 43.953125 29.203125 39.59375 26.953125 
Q 35.25 24.703125 29.984375 24.703125 
Q 19.046875 24.703125 12.671875 31.3125 
Q 6.296875 37.9375 6.296875 49.421875 
Q 6.296875 60.640625 12.9375 67.421875 
Q 19.578125 74.21875 30.609375 74.21875 
Q 43.265625 74.21875 49.921875 64.515625 
Q 56.59375 54.828125 56.59375 36.375 
Q 56.59375 19.140625 48.40625 8.859375 
Q 40.234375 -1.421875 26.421875 -1.421875 
Q 22.703125 -1.421875 18.890625 -0.6875 
Q 15.09375 0.046875 10.984375 1.515625 
z
M 30.609375 32.421875 
Q 37.25 32.421875 41.125 36.953125 
Q 45.015625 41.5 45.015625 49.421875 
Q 45.015625 57.28125 41.125 61.84375 
Q 37.25 66.40625 30.609375 66.40625 
Q 23.96875 66.40625 20.09375 61.84375 
Q 16.21875 57.28125 16.21875 49.421875 
Q 16.21875 41.5 20.09375 36.953125 
Q 23.96875 32.421875 30.609375 32.421875 
z
" id="DejaVuSans-39"/>
      </defs>
      <g transform="translate(408.993892 527.238438)scale(0.1 -0.1)">
       <use xlink:href="#DejaVuSans-30"/>
       <use x="63.623047" xlink:href="#DejaVuSans-2e"/>
       <use x="95.410156" xlink:href="#DejaVuSans-39"/>
      </g>
     </g>
    </g>
    <g id="xtick_10">
     <g id="line2d_10">
      <g>
       <use style="stroke:#000000;stroke-width:0.8;" x="457.527273" xlink:href="#mbed1f97919" y="512.64"/>
      </g>
     </g>
     <g id="text_10">
      <!-- 1.0 -->
      <g transform="translate(449.57571 527.238438)scale(0.1 -0.1)">
       <use xlink:href="#DejaVuSans-31"/>
       <use x="63.623047" xlink:href="#DejaVuSans-2e"/>
       <use x="95.410156" xlink:href="#DejaVuSans-30"/>
      </g>
     </g>
    </g>
    <g id="xtick_11">
     <g id="line2d_11">
      <g>
       <use style="stroke:#000000;stroke-width:0.8;" x="498.109091" xlink:href="#mbed1f97919" y="512.64"/>
      </g>
     </g>
     <g id="text_11">
      <!-- none -->
      <defs>
       <path d="M 54.890625 33.015625 
L 54.890625 0 
L 45.90625 0 
L 45.90625 32.71875 
Q 45.90625 40.484375 42.875 44.328125 
Q 39.84375 48.1875 33.796875 48.1875 
Q 26.515625 48.1875 22.3125 43.546875 
Q 18.109375 38.921875 18.109375 30.90625 
L 18.109375 0 
L 9.078125 0 
L 9.078125 54.6875 
L 18.109375 54.6875 
L 18.109375 46.1875 
Q 21.34375 51.125 25.703125 53.5625 
Q 30.078125 56 35.796875 56 
Q 45.21875 56 50.046875 50.171875 
Q 54.890625 44.34375 54.890625 33.015625 
z
" id="DejaVuSans-6e"/>
       <path d="M 30.609375 48.390625 
Q 23.390625 48.390625 19.1875 42.75 
Q 14.984375 37.109375 14.984375 27.296875 
Q 14.984375 17.484375 19.15625 11.84375 
Q 23.34375 6.203125 30.609375 6.203125 
Q 37.796875 6.203125 41.984375 11.859375 
Q 46.1875 17.53125 46.1875 27.296875 
Q 46.1875 37.015625 41.984375 42.703125 
Q 37.796875 48.390625 30.609375 48.390625 
z
M 30.609375 56 
Q 42.328125 56 49.015625 48.375 
Q 55.71875 40.765625 55.71875 27.296875 
Q 55.71875 13.875 49.015625 6.21875 
Q 42.328125 -1.421875 30.609375 -1.421875 
Q 18.84375 -1.421875 12.171875 6.21875 
Q 5.515625 13.875 5.515625 27.296875 
Q 5.515625 40.765625 12.171875 48.375 
Q 18.84375 56 30.609375 56 
z
" id="DejaVuSans-6f"/>
       <path d="M 56.203125 29.59375 
L 56.203125 25.203125 
L 14.890625 25.203125 
Q 15.484375 15.921875 20.484375 11.0625 
Q 25.484375 6.203125 34.421875 6.203125 
Q 39.59375 6.203125 44.453125 7.46875 
Q 49.3125 8.734375 54.109375 11.28125 
L 54.109375 2.78125 
Q 49.265625 0.734375 44.1875 -0.34375 
Q 39.109375 -1.421875 33.890625 -1.421875 
Q 20.796875 -1.421875 13.15625 6.1875 
Q 5.515625 13.8125 5.515625 26.8125 
Q 5.515625 40.234375 12.765625 48.109375 
Q 20.015625 56 32.328125 56 
Q 43.359375 56 49.78125 48.890625 
Q 56.203125 41.796875 56.203125 29.59375 
z
M 47.21875 32.234375 
Q 47.125 39.59375 43.09375 43.984375 
Q 39.0625 48.390625 32.421875 48.390625 
Q 24.90625 48.390625 20.390625 44.140625 
Q 15.875 39.890625 15.1875 32.171875 
z
" id="DejaVuSans-65"/>
      </defs>
      <g transform="translate(485.635653 527.238438)scale(0.1 -0.1)">
       <use xlink:href="#DejaVuSans-6e"/>
       <use x="63.378906" xlink:href="#DejaVuSans-6f"/>
       <use x="124.560547" xlink:href="#DejaVuSans-6e"/>
       <use x="187.939453" xlink:href="#DejaVuSans-65"/>
      </g>
     </g>
    </g>
    <g id="text_12">
     <!-- tradeoff -->
     <defs>
      <path d="M 18.3125 70.21875 
L 18.3125 54.6875 
L 36.8125 54.6875 
L 36.8125 47.703125 
L 18.3125 47.703125 
L 18.3125 18.015625 
Q 18.3125 11.328125 20.140625 9.421875 
Q 21.96875 7.515625 27.59375 7.515625 
L 36.8125 7.515625 
L 36.8125 0 
L 27.59375 0 
Q 17.1875 0 13.234375 3.875 
Q 9.28125 7.765625 9.28125 18.015625 
L 9.28125 47.703125 
L 2.6875 47.703125 
L 2.6875 54.6875 
L 9.28125 54.6875 
L 9.28125 70.21875 
z
" id="DejaVuSans-74"/>
      <path d="M 41.109375 46.296875 
Q 39.59375 47.171875 37.8125 47.578125 
Q 36.03125 48 33.890625 48 
Q 26.265625 48 22.1875 43.046875 
Q 18.109375 38.09375 18.109375 28.8125 
L 18.109375 0 
L 9.078125 0 
L 9.078125 54.6875 
L 18.109375 54.6875 
L 18.109375 46.1875 
Q 20.953125 51.171875 25.484375 53.578125 
Q 30.03125 56 36.53125 56 
Q 37.453125 56 38.578125 55.875 
Q 39.703125 55.765625 41.0625 55.515625 
z
" id="DejaVuSans-72"/>
      <path d="M 34.28125 27.484375 
Q 23.390625 27.484375 19.1875 25 
Q 14.984375 22.515625 14.984375 16.5 
Q 14.984375 11.71875 18.140625 8.90625 
Q 21.296875 6.109375 26.703125 6.109375 
Q 34.1875 6.109375 38.703125 11.40625 
Q 43.21875 16.703125 43.21875 25.484375 
L 43.21875 27.484375 
z
M 52.203125 31.203125 
L 52.203125 0 
L 43.21875 0 
L 43.21875 8.296875 
Q 40.140625 3.328125 35.546875 0.953125 
Q 30.953125 -1.421875 24.3125 -1.421875 
Q 15.921875 -1.421875 10.953125 3.296875 
Q 6 8.015625 6 15.921875 
Q 6 25.140625 12.171875 29.828125 
Q 18.359375 34.515625 30.609375 34.515625 
L 43.21875 34.515625 
L 43.21875 35.40625 
Q 43.21875 41.609375 39.140625 45 
Q 35.0625 48.390625 27.6875 48.390625 
Q 23 48.390625 18.546875 47.265625 
Q 14.109375 46.140625 10.015625 43.890625 
L 10.015625 52.203125 
Q 14.9375 54.109375 19.578125 55.046875 
Q 24.21875 56 28.609375 56 
Q 40.484375 56 46.34375 49.84375 
Q 52.203125 43.703125 52.203125 31.203125 
z
" id="DejaVuSans-61"/>
      <path d="M 45.40625 46.390625 
L 45.40625 75.984375 
L 54.390625 75.984375 
L 54.390625 0 
L 45.40625 0 
L 45.40625 8.203125 
Q 42.578125 3.328125 38.25 0.953125 
Q 33.9375 -1.421875 27.875 -1.421875 
Q 17.96875 -1.421875 11.734375 6.484375 
Q 5.515625 14.40625 5.515625 27.296875 
Q 5.515625 40.1875 11.734375 48.09375 
Q 17.96875 56 27.875 56 
Q 33.9375 56 38.25 53.625 
Q 42.578125 51.265625 45.40625 46.390625 
z
M 14.796875 27.296875 
Q 14.796875 17.390625 18.875 11.75 
Q 22.953125 6.109375 30.078125 6.109375 
Q 37.203125 6.109375 41.296875 11.75 
Q 45.40625 17.390625 45.40625 27.296875 
Q 45.40625 37.203125 41.296875 42.84375 
Q 37.203125 48.484375 30.078125 48.484375 
Q 22.953125 48.484375 18.875 42.84375 
Q 14.796875 37.203125 14.796875 27.296875 
z
" id="DejaVuSans-64"/>
      <path d="M 37.109375 75.984375 
L 37.109375 68.5 
L 28.515625 68.5 
Q 23.6875 68.5 21.796875 66.546875 
Q 19.921875 64.59375 19.921875 59.515625 
L 19.921875 54.6875 
L 34.71875 54.6875 
L 34.71875 47.703125 
L 19.921875 47.703125 
L 19.921875 0 
L 10.890625 0 
L 10.890625 47.703125 
L 2.296875 47.703125 
L 2.296875 54.6875 
L 10.890625 54.6875 
L 10.890625 58.5 
Q 10.890625 67.625 15.140625 71.796875 
Q 19.390625 75.984375 28.609375 75.984375 
z
" id="DejaVuSans-66"/>
     </defs>
     <g transform="translate(275.289844 540.916563)scale(0.1 -0.1)">
      <use xlink:href="#DejaVuSans-74"/>
      <use x="39.208984" xlink:href="#DejaVuSans-72"/>
      <use x="80.322266" xlink:href="#DejaVuSans-61"/>
      <use x="141.601562" xlink:href="#DejaVuSans-64"/>
      <use x="205.078125" xlink:href="#DejaVuSans-65"/>
      <use x="266.601562" xlink:href="#DejaVuSans-6f"/>
      <use x="327.783203" xlink:href="#DejaVuSans-66"/>
      <use x="362.988281" xlink:href="#DejaVuSans-66"/>
     </g>
    </g>
   </g>
   <g id="matplotlib.axis_2">
    <g id="ytick_1">
     <g id="line2d_12">
      <defs>
       <path d="M 0 0 
L -3.5 0 
" id="m0ed76c133f" style="stroke:#000000;stroke-width:0.8;"/>
      </defs>
      <g>
       <use style="stroke:#000000;stroke-width:0.8;" x="72" xlink:href="#m0ed76c133f" y="501.856744"/>
      </g>
     </g>
     <g id="text_13">
      <!-- 0.0 -->
      <g transform="translate(49.096875 505.655963)scale(0.1 -0.1)">
       <use xlink:href="#DejaVuSans-30"/>
       <use x="63.623047" xlink:href="#DejaVuSans-2e"/>
       <use x="95.410156" xlink:href="#DejaVuSans-30"/>
      </g>
     </g>
    </g>
    <g id="ytick_2">
     <g id="line2d_13">
      <g>
       <use style="stroke:#000000;stroke-width:0.8;" x="72" xlink:href="#m0ed76c133f" y="419.341395"/>
      </g>
     </g>
     <g id="text_14">
      <!-- 0.2 -->
      <g transform="translate(49.096875 423.140614)scale(0.1 -0.1)">
       <use xlink:href="#DejaVuSans-30"/>
       <use x="63.623047" xlink:href="#DejaVuSans-2e"/>
       <use x="95.410156" xlink:href="#DejaVuSans-32"/>
      </g>
     </g>
    </g>
    <g id="ytick_3">
     <g id="line2d_14">
      <g>
       <use style="stroke:#000000;stroke-width:0.8;" x="72" xlink:href="#m0ed76c133f" y="336.826047"/>
      </g>
     </g>
     <g id="text_15">
      <!-- 0.4 -->
      <g transform="translate(49.096875 340.625265)scale(0.1 -0.1)">
       <use xlink:href="#DejaVuSans-30"/>
       <use x="63.623047" xlink:href="#DejaVuSans-2e"/>
       <use x="95.410156" xlink:href="#DejaVuSans-34"/>
      </g>
     </g>
    </g>
    <g id="ytick_4">
     <g id="line2d_15">
      <g>
       <use style="stroke:#000000;stroke-width:0.8;" x="72" xlink:href="#m0ed76c133f" y="254.310698"/>
      </g>
     </g>
     <g id="text_16">
      <!-- 0.6 -->
      <g transform="translate(49.096875 258.109916)scale(0.1 -0.1)">
       <use xlink:href="#DejaVuSans-30"/>
       <use x="63.623047" xlink:href="#DejaVuSans-2e"/>
       <use x="95.410156" xlink:href="#DejaVuSans-36"/>
      </g>
     </g>
    </g>
    <g id="ytick_5">
     <g id="line2d_16">
      <g>
       <use style="stroke:#000000;stroke-width:0.8;" x="72" xlink:href="#m0ed76c133f" y="171.795349"/>
      </g>
     </g>
     <g id="text_17">
      <!-- 0.8 -->
      <g transform="translate(49.096875 175.594568)scale(0.1 -0.1)">
       <use xlink:href="#DejaVuSans-30"/>
       <use x="63.623047" xlink:href="#DejaVuSans-2e"/>
       <use x="95.410156" xlink:href="#DejaVuSans-38"/>
      </g>
     </g>
    </g>
    <g id="ytick_6">
     <g id="line2d_17">
      <g>
       <use style="stroke:#000000;stroke-width:0.8;" x="72" xlink:href="#m0ed76c133f" y="89.28"/>
      </g>
     </g>
     <g id="text_18">
      <!-- 1.0 -->
      <g transform="translate(49.096875 93.079219)scale(0.1 -0.1)">
       <use xlink:href="#DejaVuSans-31"/>
       <use x="63.623047" xlink:href="#DejaVuSans-2e"/>
       <use x="95.410156" xlink:href="#DejaVuSans-30"/>
      </g>
     </g>
    </g>
    <g id="text_19">
     <!-- fraction growing -->
     <defs>
      <path d="M 48.78125 52.59375 
L 48.78125 44.1875 
Q 44.96875 46.296875 41.140625 47.34375 
Q 37.3125 48.390625 33.40625 48.390625 
Q 24.65625 48.390625 19.8125 42.84375 
Q 14.984375 37.3125 14.984375 27.296875 
Q 14.984375 17.28125 19.8125 11.734375 
Q 24.65625 6.203125 33.40625 6.203125 
Q 37.3125 6.203125 41.140625 7.25 
Q 44.96875 8.296875 48.78125 10.40625 
L 48.78125 2.09375 
Q 45.015625 0.34375 40.984375 -0.53125 
Q 36.96875 -1.421875 32.421875 -1.421875 
Q 20.0625 -1.421875 12.78125 6.34375 
Q 5.515625 14.109375 5.515625 27.296875 
Q 5.515625 40.671875 12.859375 48.328125 
Q 20.21875 56 33.015625 56 
Q 37.15625 56 41.109375 55.140625 
Q 45.0625 54.296875 48.78125 52.59375 
z
" id="DejaVuSans-63"/>
      <path d="M 9.421875 54.6875 
L 18.40625 54.6875 
L 18.40625 0 
L 9.421875 0 
z
M 9.421875 75.984375 
L 18.40625 75.984375 
L 18.40625 64.59375 
L 9.421875 64.59375 
z
" id="DejaVuSans-69"/>
      <path id="DejaVuSans-20"/>
      <path d="M 45.40625 27.984375 
Q 45.40625 37.75 41.375 43.109375 
Q 37.359375 48.484375 30.078125 48.484375 
Q 22.859375 48.484375 18.828125 43.109375 
Q 14.796875 37.75 14.796875 27.984375 
Q 14.796875 18.265625 18.828125 12.890625 
Q 22.859375 7.515625 30.078125 7.515625 
Q 37.359375 7.515625 41.375 12.890625 
Q 45.40625 18.265625 45.40625 27.984375 
z
M 54.390625 6.78125 
Q 54.390625 -7.171875 48.1875 -13.984375 
Q 42 -20.796875 29.203125 -20.796875 
Q 24.46875 -20.796875 20.265625 -20.09375 
Q 16.0625 -19.390625 12.109375 -17.921875 
L 12.109375 -9.1875 
Q 16.0625 -11.328125 19.921875 -12.34375 
Q 23.78125 -13.375 27.78125 -13.375 
Q 36.625 -13.375 41.015625 -8.765625 
Q 45.40625 -4.15625 45.40625 5.171875 
L 45.40625 9.625 
Q 42.625 4.78125 38.28125 2.390625 
Q 33.9375 0 27.875 0 
Q 17.828125 0 11.671875 7.65625 
Q 5.515625 15.328125 5.515625 27.984375 
Q 5.515625 40.671875 11.671875 48.328125 
Q 17.828125 56 27.875 56 
Q 33.9375 56 38.28125 53.609375 
Q 42.625 51.21875 45.40625 46.390625 
L 45.40625 54.6875 
L 54.390625 54.6875 
z
" id="DejaVuSans-67"/>
      <path d="M 4.203125 54.6875 
L 13.1875 54.6875 
L 24.421875 12.015625 
L 35.59375 54.6875 
L 46.1875 54.6875 
L 57.421875 12.015625 
L 68.609375 54.6875 
L 77.59375 54.6875 
L 63.28125 0 
L 52.6875 0 
L 40.921875 44.828125 
L 29.109375 0 
L 18.5 0 
z
" id="DejaVuSans-77"/>
     </defs>
     <g transform="translate(43.017187 331.783906)rotate(-90)scale(0.1 -0.1)">
      <use xlink:href="#DejaVuSans-66"/>
      <use x="35.205078" xlink:href="#DejaVuSans-72"/>
      <use x="76.318359" xlink:href="#DejaVuSans-61"/>
      <use x="137.597656" xlink:href="#DejaVuSans-63"/>
      <use x="192.578125" xlink:href="#DejaVuSans-74"/>
      <use x="231.787109" xlink:href="#DejaVuSans-69"/>
      <use x="259.570312" xlink:href="#DejaVuSans-6f"/>
      <use x="320.751953" xlink:href="#DejaVuSans-6e"/>
      <use x="384.130859" xlink:href="#DejaVuSans-20"/>
      <use x="415.917969" xlink:href="#DejaVuSans-67"/>
      <use x="479.394531" xlink:href="#DejaVuSans-72"/>
      <use x="520.476562" xlink:href="#DejaVuSans-6f"/>
      <use x="581.658203" xlink:href="#DejaVuSans-77"/>
      <use x="663.445312" xlink:href="#DejaVuSans-69"/>
      <use x="691.228516" xlink:href="#DejaVuSans-6e"/>
      <use x="754.607422" xlink:href="#DejaVuSans-67"/>
     </g>
    </g>
   </g>
   <g id="line2d_18">
    <path clip-path="url(#pd603da9f9c)" d="M 92.290909 89.28 
L 92.290909 89.28 
" style="fill:none;stroke:#6f6f6f;stroke-linecap:square;stroke-width:1.5;"/>
   </g>
   <g id="line2d_19">
    <path clip-path="url(#pd603da9f9c)" d="M 92.290909 89.28 
L 92.290909 89.28 
" style="fill:none;stroke:#6f6f6f;stroke-linecap:square;stroke-width:1.5;"/>
   </g>
   <g id="line2d_20">
    <path clip-path="url(#pd603da9f9c)" d="M 84.174545 89.28 
L 100.407273 89.28 
" style="fill:none;stroke:#6f6f6f;stroke-linecap:square;stroke-width:1.5;"/>
   </g>
   <g id="line2d_21">
    <path clip-path="url(#pd603da9f9c)" d="M 84.174545 89.28 
L 100.407273 89.28 
" style="fill:none;stroke:#6f6f6f;stroke-linecap:square;stroke-width:1.5;"/>
   </g>
   <g id="line2d_22">
    <defs>
     <path d="M -0 3.535534 
L 2.12132 0 
L -0 -3.535534 
L -2.12132 -0 
z
" id="md638b34e5b" style="stroke:#6f6f6f;stroke-linejoin:miter;"/>
    </defs>
    <g clip-path="url(#pd603da9f9c)">
     <use style="fill:#6f6f6f;stroke:#6f6f6f;stroke-linejoin:miter;" x="92.290909" xlink:href="#md638b34e5b" y="425.453643"/>
     <use style="fill:#6f6f6f;stroke:#6f6f6f;stroke-linejoin:miter;" x="92.290909" xlink:href="#md638b34e5b" y="125.156239"/>
     <use style="fill:#6f6f6f;stroke:#6f6f6f;stroke-linejoin:miter;" x="92.290909" xlink:href="#md638b34e5b" y="100.137283"/>
     <use style="fill:#6f6f6f;stroke:#6f6f6f;stroke-linejoin:miter;" x="92.290909" xlink:href="#md638b34e5b" y="129.206782"/>
    </g>
   </g>
   <g id="line2d_23">
    <path clip-path="url(#pd603da9f9c)" d="M 132.872727 89.28 
L 132.872727 89.28 
" style="fill:none;stroke:#6f6f6f;stroke-linecap:square;stroke-width:1.5;"/>
   </g>
   <g id="line2d_24">
    <path clip-path="url(#pd603da9f9c)" d="M 132.872727 89.28 
L 132.872727 89.28 
" style="fill:none;stroke:#6f6f6f;stroke-linecap:square;stroke-width:1.5;"/>
   </g>
   <g id="line2d_25">
    <path clip-path="url(#pd603da9f9c)" d="M 124.756364 89.28 
L 140.989091 89.28 
" style="fill:none;stroke:#6f6f6f;stroke-linecap:square;stroke-width:1.5;"/>
   </g>
   <g id="line2d_26">
    <path clip-path="url(#pd603da9f9c)" d="M 124.756364 89.28 
L 140.989091 89.28 
" style="fill:none;stroke:#6f6f6f;stroke-linecap:square;stroke-width:1.5;"/>
   </g>
   <g id="line2d_27">
    <g clip-path="url(#pd603da9f9c)">
     <use style="fill:#6f6f6f;stroke:#6f6f6f;stroke-linejoin:miter;" x="132.872727" xlink:href="#md638b34e5b" y="425.453643"/>
     <use style="fill:#6f6f6f;stroke:#6f6f6f;stroke-linejoin:miter;" x="132.872727" xlink:href="#md638b34e5b" y="128.573023"/>
     <use style="fill:#6f6f6f;stroke:#6f6f6f;stroke-linejoin:miter;" x="132.872727" xlink:href="#md638b34e5b" y="171.795349"/>
     <use style="fill:#6f6f6f;stroke:#6f6f6f;stroke-linejoin:miter;" x="132.872727" xlink:href="#md638b34e5b" y="122.28614"/>
     <use style="fill:#6f6f6f;stroke:#6f6f6f;stroke-linejoin:miter;" x="132.872727" xlink:href="#md638b34e5b" y="98.656744"/>
     <use style="fill:#6f6f6f;stroke:#6f6f6f;stroke-linejoin:miter;" x="132.872727" xlink:href="#md638b34e5b" y="126.786977"/>
     <use style="fill:#6f6f6f;stroke:#6f6f6f;stroke-linejoin:miter;" x="132.872727" xlink:href="#md638b34e5b" y="132.709131"/>
     <use style="fill:#6f6f6f;stroke:#6f6f6f;stroke-linejoin:miter;" x="132.872727" xlink:href="#md638b34e5b" y="106.470698"/>
     <use style="fill:#6f6f6f;stroke:#6f6f6f;stroke-linejoin:miter;" x="132.872727" xlink:href="#md638b34e5b" y="119.84124"/>
     <use style="fill:#6f6f6f;stroke:#6f6f6f;stroke-linejoin:miter;" x="132.872727" xlink:href="#md638b34e5b" y="122.732168"/>
     <use style="fill:#6f6f6f;stroke:#6f6f6f;stroke-linejoin:miter;" x="132.872727" xlink:href="#md638b34e5b" y="126.786977"/>
     <use style="fill:#6f6f6f;stroke:#6f6f6f;stroke-linejoin:miter;" x="132.872727" xlink:href="#md638b34e5b" y="118.749767"/>
     <use style="fill:#6f6f6f;stroke:#6f6f6f;stroke-linejoin:miter;" x="132.872727" xlink:href="#md638b34e5b" y="115.897854"/>
     <use style="fill:#6f6f6f;stroke:#6f6f6f;stroke-linejoin:miter;" x="132.872727" xlink:href="#md638b34e5b" y="111.581446"/>
     <use style="fill:#6f6f6f;stroke:#6f6f6f;stroke-linejoin:miter;" x="132.872727" xlink:href="#md638b34e5b" y="131.960353"/>
     <use style="fill:#6f6f6f;stroke:#6f6f6f;stroke-linejoin:miter;" x="132.872727" xlink:href="#md638b34e5b" y="129.206782"/>
     <use style="fill:#6f6f6f;stroke:#6f6f6f;stroke-linejoin:miter;" x="132.872727" xlink:href="#md638b34e5b" y="262.296054"/>
     <use style="fill:#6f6f6f;stroke:#6f6f6f;stroke-linejoin:miter;" x="132.872727" xlink:href="#md638b34e5b" y="222.760711"/>
     <use style="fill:#6f6f6f;stroke:#6f6f6f;stroke-linejoin:miter;" x="132.872727" xlink:href="#md638b34e5b" y="116.785116"/>
     <use style="fill:#6f6f6f;stroke:#6f6f6f;stroke-linejoin:miter;" x="132.872727" xlink:href="#md638b34e5b" y="119.84124"/>
     <use style="fill:#6f6f6f;stroke:#6f6f6f;stroke-linejoin:miter;" x="132.872727" xlink:href="#md638b34e5b" y="111.581446"/>
     <use style="fill:#6f6f6f;stroke:#6f6f6f;stroke-linejoin:miter;" x="132.872727" xlink:href="#md638b34e5b" y="113.54922"/>
     <use style="fill:#6f6f6f;stroke:#6f6f6f;stroke-linejoin:miter;" x="132.872727" xlink:href="#md638b34e5b" y="101.41461"/>
     <use style="fill:#6f6f6f;stroke:#6f6f6f;stroke-linejoin:miter;" x="132.872727" xlink:href="#md638b34e5b" y="103.506784"/>
     <use style="fill:#6f6f6f;stroke:#6f6f6f;stroke-linejoin:miter;" x="132.872727" xlink:href="#md638b34e5b" y="111.581446"/>
     <use style="fill:#6f6f6f;stroke:#6f6f6f;stroke-linejoin:miter;" x="132.872727" xlink:href="#md638b34e5b" y="98.656744"/>
     <use style="fill:#6f6f6f;stroke:#6f6f6f;stroke-linejoin:miter;" x="132.872727" xlink:href="#md638b34e5b" y="118.749767"/>
     <use style="fill:#6f6f6f;stroke:#6f6f6f;stroke-linejoin:miter;" x="132.872727" xlink:href="#md638b34e5b" y="115.897854"/>
    </g>
   </g>
   <g id="line2d_28">
    <path clip-path="url(#pd603da9f9c)" d="M 173.454545 130.537674 
L 173.454545 171.795349 
" style="fill:none;stroke:#6f6f6f;stroke-linecap:square;stroke-width:1.5;"/>
   </g>
   <g id="line2d_29">
    <path clip-path="url(#pd603da9f9c)" d="M 173.454545 101.604213 
L 173.454545 89.28 
" style="fill:none;stroke:#6f6f6f;stroke-linecap:square;stroke-width:1.5;"/>
   </g>
   <g id="line2d_30">
    <path clip-path="url(#pd603da9f9c)" d="M 165.338182 171.795349 
L 181.570909 171.795349 
" style="fill:none;stroke:#6f6f6f;stroke-linecap:square;stroke-width:1.5;"/>
   </g>
   <g id="line2d_31">
    <path clip-path="url(#pd603da9f9c)" d="M 165.338182 89.28 
L 181.570909 89.28 
" style="fill:none;stroke:#6f6f6f;stroke-linecap:square;stroke-width:1.5;"/>
   </g>
   <g id="line2d_32">
    <g clip-path="url(#pd603da9f9c)">
     <use style="fill:#6f6f6f;stroke:#6f6f6f;stroke-linejoin:miter;" x="173.454545" xlink:href="#md638b34e5b" y="210.626101"/>
     <use style="fill:#6f6f6f;stroke:#6f6f6f;stroke-linejoin:miter;" x="173.454545" xlink:href="#md638b34e5b" y="176.796279"/>
     <use style="fill:#6f6f6f;stroke:#6f6f6f;stroke-linejoin:miter;" x="173.454545" xlink:href="#md638b34e5b" y="195.068909"/>
     <use style="fill:#6f6f6f;stroke:#6f6f6f;stroke-linejoin:miter;" x="173.454545" xlink:href="#md638b34e5b" y="207.15907"/>
     <use style="fill:#6f6f6f;stroke:#6f6f6f;stroke-linejoin:miter;" x="173.454545" xlink:href="#md638b34e5b" y="425.453643"/>
     <use style="fill:#6f6f6f;stroke:#6f6f6f;stroke-linejoin:miter;" x="173.454545" xlink:href="#md638b34e5b" y="203.094274"/>
     <use style="fill:#6f6f6f;stroke:#6f6f6f;stroke-linejoin:miter;" x="173.454545" xlink:href="#md638b34e5b" y="211.177674"/>
     <use style="fill:#6f6f6f;stroke:#6f6f6f;stroke-linejoin:miter;" x="173.454545" xlink:href="#md638b34e5b" y="219.567393"/>
     <use style="fill:#6f6f6f;stroke:#6f6f6f;stroke-linejoin:miter;" x="173.454545" xlink:href="#md638b34e5b" y="245.390119"/>
     <use style="fill:#6f6f6f;stroke:#6f6f6f;stroke-linejoin:miter;" x="173.454545" xlink:href="#md638b34e5b" y="222.760711"/>
     <use style="fill:#6f6f6f;stroke:#6f6f6f;stroke-linejoin:miter;" x="173.454545" xlink:href="#md638b34e5b" y="226.805581"/>
     <use style="fill:#6f6f6f;stroke:#6f6f6f;stroke-linejoin:miter;" x="173.454545" xlink:href="#md638b34e5b" y="195.751418"/>
     <use style="fill:#6f6f6f;stroke:#6f6f6f;stroke-linejoin:miter;" x="173.454545" xlink:href="#md638b34e5b" y="178.485783"/>
     <use style="fill:#6f6f6f;stroke:#6f6f6f;stroke-linejoin:miter;" x="173.454545" xlink:href="#md638b34e5b" y="245.774627"/>
     <use style="fill:#6f6f6f;stroke:#6f6f6f;stroke-linejoin:miter;" x="173.454545" xlink:href="#md638b34e5b" y="217.321059"/>
     <use style="fill:#6f6f6f;stroke:#6f6f6f;stroke-linejoin:miter;" x="173.454545" xlink:href="#md638b34e5b" y="222.369272"/>
     <use style="fill:#6f6f6f;stroke:#6f6f6f;stroke-linejoin:miter;" x="173.454545" xlink:href="#md638b34e5b" y="262.296054"/>
     <use style="fill:#6f6f6f;stroke:#6f6f6f;stroke-linejoin:miter;" x="173.454545" xlink:href="#md638b34e5b" y="247.029932"/>
     <use style="fill:#6f6f6f;stroke:#6f6f6f;stroke-linejoin:miter;" x="173.454545" xlink:href="#md638b34e5b" y="199.300465"/>
     <use style="fill:#6f6f6f;stroke:#6f6f6f;stroke-linejoin:miter;" x="173.454545" xlink:href="#md638b34e5b" y="183.583256"/>
     <use style="fill:#6f6f6f;stroke:#6f6f6f;stroke-linejoin:miter;" x="173.454545" xlink:href="#md638b34e5b" y="216.226691"/>
     <use style="fill:#6f6f6f;stroke:#6f6f6f;stroke-linejoin:miter;" x="173.454545" xlink:href="#md638b34e5b" y="211.937951"/>
     <use style="fill:#6f6f6f;stroke:#6f6f6f;stroke-linejoin:miter;" x="173.454545" xlink:href="#md638b34e5b" y="211.177674"/>
     <use style="fill:#6f6f6f;stroke:#6f6f6f;stroke-linejoin:miter;" x="173.454545" xlink:href="#md638b34e5b" y="230.734884"/>
     <use style="fill:#6f6f6f;stroke:#6f6f6f;stroke-linejoin:miter;" x="173.454545" xlink:href="#md638b34e5b" y="275.604981"/>
     <use style="fill:#6f6f6f;stroke:#6f6f6f;stroke-linejoin:miter;" x="173.454545" xlink:href="#md638b34e5b" y="222.369272"/>
     <use style="fill:#6f6f6f;stroke:#6f6f6f;stroke-linejoin:miter;" x="173.454545" xlink:href="#md638b34e5b" y="207.15907"/>
    </g>
   </g>
   <g id="line2d_33">
    <path clip-path="url(#pd603da9f9c)" d="M 214.036364 229.321293 
L 214.036364 325.03814 
" style="fill:none;stroke:#6f6f6f;stroke-linecap:square;stroke-width:1.5;"/>
   </g>
   <g id="line2d_34">
    <path clip-path="url(#pd603da9f9c)" d="M 214.036364 119.84124 
L 214.036364 89.28 
" style="fill:none;stroke:#6f6f6f;stroke-linecap:square;stroke-width:1.5;"/>
   </g>
   <g id="line2d_35">
    <path clip-path="url(#pd603da9f9c)" d="M 205.92 325.03814 
L 222.152727 325.03814 
" style="fill:none;stroke:#6f6f6f;stroke-linecap:square;stroke-width:1.5;"/>
   </g>
   <g id="line2d_36">
    <path clip-path="url(#pd603da9f9c)" d="M 205.92 89.28 
L 222.152727 89.28 
" style="fill:none;stroke:#6f6f6f;stroke-linecap:square;stroke-width:1.5;"/>
   </g>
   <g id="line2d_37">
    <g clip-path="url(#pd603da9f9c)">
     <use style="fill:#6f6f6f;stroke:#6f6f6f;stroke-linejoin:miter;" x="214.036364" xlink:href="#md638b34e5b" y="425.453643"/>
    </g>
   </g>
   <g id="line2d_38">
    <path clip-path="url(#pd603da9f9c)" d="M 254.618182 258.888755 
L 254.618182 448.621035 
" style="fill:none;stroke:#6f6f6f;stroke-linecap:square;stroke-width:1.5;"/>
   </g>
   <g id="line2d_39">
    <path clip-path="url(#pd603da9f9c)" d="M 254.618182 125.68383 
L 254.618182 89.28 
" style="fill:none;stroke:#6f6f6f;stroke-linecap:square;stroke-width:1.5;"/>
   </g>
   <g id="line2d_40">
    <path clip-path="url(#pd603da9f9c)" d="M 246.501818 448.621035 
L 262.734545 448.621035 
" style="fill:none;stroke:#6f6f6f;stroke-linecap:square;stroke-width:1.5;"/>
   </g>
   <g id="line2d_41">
    <path clip-path="url(#pd603da9f9c)" d="M 246.501818 89.28 
L 262.734545 89.28 
" style="fill:none;stroke:#6f6f6f;stroke-linecap:square;stroke-width:1.5;"/>
   </g>
   <g id="line2d_42"/>
   <g id="line2d_43">
    <path clip-path="url(#pd603da9f9c)" d="M 295.2 289.585116 
L 295.2 448.621035 
" style="fill:none;stroke:#6f6f6f;stroke-linecap:square;stroke-width:1.5;"/>
   </g>
   <g id="line2d_44">
    <path clip-path="url(#pd603da9f9c)" d="M 295.2 143.393327 
L 295.2 89.28 
" style="fill:none;stroke:#6f6f6f;stroke-linecap:square;stroke-width:1.5;"/>
   </g>
   <g id="line2d_45">
    <path clip-path="url(#pd603da9f9c)" d="M 287.083636 448.621035 
L 303.316364 448.621035 
" style="fill:none;stroke:#6f6f6f;stroke-linecap:square;stroke-width:1.5;"/>
   </g>
   <g id="line2d_46">
    <path clip-path="url(#pd603da9f9c)" d="M 287.083636 89.28 
L 303.316364 89.28 
" style="fill:none;stroke:#6f6f6f;stroke-linecap:square;stroke-width:1.5;"/>
   </g>
   <g id="line2d_47"/>
   <g id="line2d_48">
    <path clip-path="url(#pd603da9f9c)" d="M 335.781818 302.222836 
L 335.781818 435.312108 
" style="fill:none;stroke:#6f6f6f;stroke-linecap:square;stroke-width:1.5;"/>
   </g>
   <g id="line2d_49">
    <path clip-path="url(#pd603da9f9c)" d="M 335.781818 213.365581 
L 335.781818 89.28 
" style="fill:none;stroke:#6f6f6f;stroke-linecap:square;stroke-width:1.5;"/>
   </g>
   <g id="line2d_50">
    <path clip-path="url(#pd603da9f9c)" d="M 327.665455 435.312108 
L 343.898182 435.312108 
" style="fill:none;stroke:#6f6f6f;stroke-linecap:square;stroke-width:1.5;"/>
   </g>
   <g id="line2d_51">
    <path clip-path="url(#pd603da9f9c)" d="M 327.665455 89.28 
L 343.898182 89.28 
" style="fill:none;stroke:#6f6f6f;stroke-linecap:square;stroke-width:1.5;"/>
   </g>
   <g id="line2d_52">
    <g clip-path="url(#pd603da9f9c)">
     <use style="fill:#6f6f6f;stroke:#6f6f6f;stroke-linejoin:miter;" x="335.781818" xlink:href="#md638b34e5b" y="442.917209"/>
     <use style="fill:#6f6f6f;stroke:#6f6f6f;stroke-linejoin:miter;" x="335.781818" xlink:href="#md638b34e5b" y="435.844465"/>
     <use style="fill:#6f6f6f;stroke:#6f6f6f;stroke-linejoin:miter;" x="335.781818" xlink:href="#md638b34e5b" y="445.596279"/>
     <use style="fill:#6f6f6f;stroke:#6f6f6f;stroke-linejoin:miter;" x="335.781818" xlink:href="#md638b34e5b" y="447.57033"/>
     <use style="fill:#6f6f6f;stroke:#6f6f6f;stroke-linejoin:miter;" x="335.781818" xlink:href="#md638b34e5b" y="450.284651"/>
     <use style="fill:#6f6f6f;stroke:#6f6f6f;stroke-linejoin:miter;" x="335.781818" xlink:href="#md638b34e5b" y="451.847442"/>
     <use style="fill:#6f6f6f;stroke:#6f6f6f;stroke-linejoin:miter;" x="335.781818" xlink:href="#md638b34e5b" y="442.917209"/>
     <use style="fill:#6f6f6f;stroke:#6f6f6f;stroke-linejoin:miter;" x="335.781818" xlink:href="#md638b34e5b" y="448.621035"/>
     <use style="fill:#6f6f6f;stroke:#6f6f6f;stroke-linejoin:miter;" x="335.781818" xlink:href="#md638b34e5b" y="446.10313"/>
     <use style="fill:#6f6f6f;stroke:#6f6f6f;stroke-linejoin:miter;" x="335.781818" xlink:href="#md638b34e5b" y="444.949607"/>
     <use style="fill:#6f6f6f;stroke:#6f6f6f;stroke-linejoin:miter;" x="335.781818" xlink:href="#md638b34e5b" y="441.183694"/>
     <use style="fill:#6f6f6f;stroke:#6f6f6f;stroke-linejoin:miter;" x="335.781818" xlink:href="#md638b34e5b" y="446.10313"/>
    </g>
   </g>
   <g id="line2d_53">
    <path clip-path="url(#pd603da9f9c)" d="M 376.363636 316.845144 
L 376.363636 445.596279 
" style="fill:none;stroke:#6f6f6f;stroke-linecap:square;stroke-width:1.5;"/>
   </g>
   <g id="line2d_54">
    <path clip-path="url(#pd603da9f9c)" d="M 376.363636 230.826977 
L 376.363636 108.033488 
" style="fill:none;stroke:#6f6f6f;stroke-linecap:square;stroke-width:1.5;"/>
   </g>
   <g id="line2d_55">
    <path clip-path="url(#pd603da9f9c)" d="M 368.247273 445.596279 
L 384.48 445.596279 
" style="fill:none;stroke:#6f6f6f;stroke-linecap:square;stroke-width:1.5;"/>
   </g>
   <g id="line2d_56">
    <path clip-path="url(#pd603da9f9c)" d="M 368.247273 108.033488 
L 384.48 108.033488 
" style="fill:none;stroke:#6f6f6f;stroke-linecap:square;stroke-width:1.5;"/>
   </g>
   <g id="line2d_57">
    <g clip-path="url(#pd603da9f9c)">
     <use style="fill:#6f6f6f;stroke:#6f6f6f;stroke-linejoin:miter;" x="376.363636" xlink:href="#md638b34e5b" y="447.57033"/>
     <use style="fill:#6f6f6f;stroke:#6f6f6f;stroke-linejoin:miter;" x="376.363636" xlink:href="#md638b34e5b" y="450.284651"/>
     <use style="fill:#6f6f6f;stroke:#6f6f6f;stroke-linejoin:miter;" x="376.363636" xlink:href="#md638b34e5b" y="450.284651"/>
     <use style="fill:#6f6f6f;stroke:#6f6f6f;stroke-linejoin:miter;" x="376.363636" xlink:href="#md638b34e5b" y="451.847442"/>
     <use style="fill:#6f6f6f;stroke:#6f6f6f;stroke-linejoin:miter;" x="376.363636" xlink:href="#md638b34e5b" y="448.621035"/>
     <use style="fill:#6f6f6f;stroke:#6f6f6f;stroke-linejoin:miter;" x="376.363636" xlink:href="#md638b34e5b" y="448.621035"/>
     <use style="fill:#6f6f6f;stroke:#6f6f6f;stroke-linejoin:miter;" x="376.363636" xlink:href="#md638b34e5b" y="446.10313"/>
     <use style="fill:#6f6f6f;stroke:#6f6f6f;stroke-linejoin:miter;" x="376.363636" xlink:href="#md638b34e5b" y="446.10313"/>
     <use style="fill:#6f6f6f;stroke:#6f6f6f;stroke-linejoin:miter;" x="376.363636" xlink:href="#md638b34e5b" y="89.28"/>
    </g>
   </g>
   <g id="line2d_58">
    <path clip-path="url(#pd603da9f9c)" d="M 416.945455 427.804508 
L 416.945455 458.427613 
" style="fill:none;stroke:#6f6f6f;stroke-linecap:square;stroke-width:1.5;"/>
   </g>
   <g id="line2d_59">
    <path clip-path="url(#pd603da9f9c)" d="M 416.945455 281.815814 
L 416.945455 119.84124 
" style="fill:none;stroke:#6f6f6f;stroke-linecap:square;stroke-width:1.5;"/>
   </g>
   <g id="line2d_60">
    <path clip-path="url(#pd603da9f9c)" d="M 408.829091 458.427613 
L 425.061818 458.427613 
" style="fill:none;stroke:#6f6f6f;stroke-linecap:square;stroke-width:1.5;"/>
   </g>
   <g id="line2d_61">
    <path clip-path="url(#pd603da9f9c)" d="M 408.829091 119.84124 
L 425.061818 119.84124 
" style="fill:none;stroke:#6f6f6f;stroke-linecap:square;stroke-width:1.5;"/>
   </g>
   <g id="line2d_62"/>
   <g id="line2d_63">
    <path clip-path="url(#pd603da9f9c)" d="M 457.527273 424.002719 
L 457.527273 476.070698 
" style="fill:none;stroke:#6f6f6f;stroke-linecap:square;stroke-width:1.5;"/>
   </g>
   <g id="line2d_64">
    <path clip-path="url(#pd603da9f9c)" d="M 457.527273 359.28966 
L 457.527273 266.098605 
" style="fill:none;stroke:#6f6f6f;stroke-linecap:square;stroke-width:1.5;"/>
   </g>
   <g id="line2d_65">
    <path clip-path="url(#pd603da9f9c)" d="M 449.410909 476.070698 
L 465.643636 476.070698 
" style="fill:none;stroke:#6f6f6f;stroke-linecap:square;stroke-width:1.5;"/>
   </g>
   <g id="line2d_66">
    <path clip-path="url(#pd603da9f9c)" d="M 449.410909 266.098605 
L 465.643636 266.098605 
" style="fill:none;stroke:#6f6f6f;stroke-linecap:square;stroke-width:1.5;"/>
   </g>
   <g id="line2d_67">
    <g clip-path="url(#pd603da9f9c)">
     <use style="fill:#6f6f6f;stroke:#6f6f6f;stroke-linejoin:miter;" x="457.527273" xlink:href="#md638b34e5b" y="251.810233"/>
     <use style="fill:#6f6f6f;stroke:#6f6f6f;stroke-linejoin:miter;" x="457.527273" xlink:href="#md638b34e5b" y="121.016673"/>
     <use style="fill:#6f6f6f;stroke:#6f6f6f;stroke-linejoin:miter;" x="457.527273" xlink:href="#md638b34e5b" y="196.908716"/>
     <use style="fill:#6f6f6f;stroke:#6f6f6f;stroke-linejoin:miter;" x="457.527273" xlink:href="#md638b34e5b" y="107.218119"/>
    </g>
   </g>
   <g id="line2d_68">
    <path clip-path="url(#pd603da9f9c)" d="M 498.109091 460.59907 
L 498.109091 489.722134 
" style="fill:none;stroke:#6f6f6f;stroke-linecap:square;stroke-width:1.5;"/>
   </g>
   <g id="line2d_69">
    <path clip-path="url(#pd603da9f9c)" d="M 498.109091 439.345116 
L 498.109091 408.694254 
" style="fill:none;stroke:#6f6f6f;stroke-linecap:square;stroke-width:1.5;"/>
   </g>
   <g id="line2d_70">
    <path clip-path="url(#pd603da9f9c)" d="M 489.992727 489.722134 
L 506.225455 489.722134 
" style="fill:none;stroke:#6f6f6f;stroke-linecap:square;stroke-width:1.5;"/>
   </g>
   <g id="line2d_71">
    <path clip-path="url(#pd603da9f9c)" d="M 489.992727 408.694254 
L 506.225455 408.694254 
" style="fill:none;stroke:#6f6f6f;stroke-linecap:square;stroke-width:1.5;"/>
   </g>
   <g id="line2d_72">
    <g clip-path="url(#pd603da9f9c)">
     <use style="fill:#6f6f6f;stroke:#6f6f6f;stroke-linejoin:miter;" x="498.109091" xlink:href="#md638b34e5b" y="492.48"/>
     <use style="fill:#6f6f6f;stroke:#6f6f6f;stroke-linejoin:miter;" x="498.109091" xlink:href="#md638b34e5b" y="196.908716"/>
     <use style="fill:#6f6f6f;stroke:#6f6f6f;stroke-linejoin:miter;" x="498.109091" xlink:href="#md638b34e5b" y="323.073488"/>
     <use style="fill:#6f6f6f;stroke:#6f6f6f;stroke-linejoin:miter;" x="498.109091" xlink:href="#md638b34e5b" y="295.568372"/>
     <use style="fill:#6f6f6f;stroke:#6f6f6f;stroke-linejoin:miter;" x="498.109091" xlink:href="#md638b34e5b" y="325.03814"/>
     <use style="fill:#6f6f6f;stroke:#6f6f6f;stroke-linejoin:miter;" x="498.109091" xlink:href="#md638b34e5b" y="304.537432"/>
     <use style="fill:#6f6f6f;stroke:#6f6f6f;stroke-linejoin:miter;" x="498.109091" xlink:href="#md638b34e5b" y="348.613953"/>
    </g>
   </g>
   <g id="line2d_73">
    <path clip-path="url(#pd603da9f9c)" d="M 76.058182 89.28 
L 108.523636 89.28 
" style="fill:none;stroke:#6f6f6f;stroke-linecap:square;stroke-width:1.5;"/>
   </g>
   <g id="line2d_74">
    <path clip-path="url(#pd603da9f9c)" d="M 116.64 89.28 
L 149.105455 89.28 
" style="fill:none;stroke:#6f6f6f;stroke-linecap:square;stroke-width:1.5;"/>
   </g>
   <g id="line2d_75">
    <path clip-path="url(#pd603da9f9c)" d="M 157.221818 119.84124 
L 189.687273 119.84124 
" style="fill:none;stroke:#6f6f6f;stroke-linecap:square;stroke-width:1.5;"/>
   </g>
   <g id="line2d_76">
    <path clip-path="url(#pd603da9f9c)" d="M 197.803636 133.484651 
L 230.269091 133.484651 
" style="fill:none;stroke:#6f6f6f;stroke-linecap:square;stroke-width:1.5;"/>
   </g>
   <g id="line2d_77">
    <path clip-path="url(#pd603da9f9c)" d="M 238.385455 209.843223 
L 270.850909 209.843223 
" style="fill:none;stroke:#6f6f6f;stroke-linecap:square;stroke-width:1.5;"/>
   </g>
   <g id="line2d_78">
    <path clip-path="url(#pd603da9f9c)" d="M 278.967273 230.91907 
L 311.432727 230.91907 
" style="fill:none;stroke:#6f6f6f;stroke-linecap:square;stroke-width:1.5;"/>
   </g>
   <g id="line2d_79">
    <path clip-path="url(#pd603da9f9c)" d="M 319.549091 262.141299 
L 352.014545 262.141299 
" style="fill:none;stroke:#6f6f6f;stroke-linecap:square;stroke-width:1.5;"/>
   </g>
   <g id="line2d_80">
    <path clip-path="url(#pd603da9f9c)" d="M 360.130909 289.317209 
L 392.596364 289.317209 
" style="fill:none;stroke:#6f6f6f;stroke-linecap:square;stroke-width:1.5;"/>
   </g>
   <g id="line2d_81">
    <path clip-path="url(#pd603da9f9c)" d="M 400.712727 319.837592 
L 433.178182 319.837592 
" style="fill:none;stroke:#6f6f6f;stroke-linecap:square;stroke-width:1.5;"/>
   </g>
   <g id="line2d_82">
    <path clip-path="url(#pd603da9f9c)" d="M 441.294545 388.04247 
L 473.76 388.04247 
" style="fill:none;stroke:#6f6f6f;stroke-linecap:square;stroke-width:1.5;"/>
   </g>
   <g id="line2d_83">
    <path clip-path="url(#pd603da9f9c)" d="M 481.876364 449.62347 
L 514.341818 449.62347 
" style="fill:none;stroke:#6f6f6f;stroke-linecap:square;stroke-width:1.5;"/>
   </g>
   <g id="patch_14">
    <path d="M 72 512.64 
L 72 69.12 
" style="fill:none;stroke:#000000;stroke-linecap:square;stroke-linejoin:miter;stroke-width:0.8;"/>
   </g>
   <g id="patch_15">
    <path d="M 518.4 512.64 
L 518.4 69.12 
" style="fill:none;stroke:#000000;stroke-linecap:square;stroke-linejoin:miter;stroke-width:0.8;"/>
   </g>
   <g id="patch_16">
    <path d="M 72 512.64 
L 518.4 512.64 
" style="fill:none;stroke:#000000;stroke-linecap:square;stroke-linejoin:miter;stroke-width:0.8;"/>
   </g>
   <g id="patch_17">
    <path d="M 72 69.12 
L 518.4 69.12 
" style="fill:none;stroke:#000000;stroke-linecap:square;stroke-linejoin:miter;stroke-width:0.8;"/>
   </g>
  </g>
 </g>
 <defs>
  <clipPath id="pd603da9f9c">
   <rect height="443.52" width="446.4" x="72" y="69.12"/>
  </clipPath>
 </defs>
</svg>
