<?xml version="1.0" encoding="utf-8" standalone="no"?>
<!DOCTYPE svg PUBLIC "-//W3C//DTD SVG 1.1//EN"
  "http://www.w3.org/Graphics/SVG/1.1/DTD/svg11.dtd">
<!-- Created with matplotlib (https://matplotlib.org/) -->
<svg height="504pt" version="1.1" viewBox="0 0 576 504" width="576pt" xmlns="http://www.w3.org/2000/svg" xmlns:xlink="http://www.w3.org/1999/xlink">
 <defs>
  <style type="text/css">
*{stroke-linecap:butt;stroke-linejoin:round;}
  </style>
 </defs>
 <g id="figure_1">
  <g id="patch_1">
   <path d="M 0 504 
L 576 504 
L 576 0 
L 0 0 
z
" style="fill:#ffffff;"/>
  </g>
  <g id="axes_1">
   <g id="patch_2">
    <path d="M 52.95125 384.86 
L 562.68 384.86 
L 562.68 13.32 
L 52.95125 13.32 
z
" style="fill:#ffffff;"/>
   </g>
   <g id="PathCollection_1">
    <defs>
     <path d="M 0 3.383948 
C 0.897434 3.383948 1.758231 3.027394 2.392813 2.392813 
C 3.027394 1.758231 3.383948 0.897434 3.383948 0 
C 3.383948 -0.897434 3.027394 -1.758231 2.392813 -2.392813 
C 1.758231 -3.027394 0.897434 -3.383948 0 -3.383948 
C -0.897434 -3.383948 -1.758231 -3.027394 -2.392813 -2.392813 
C -3.027394 -1.758231 -3.383948 -0.897434 -3.383948 0 
C -3.383948 0.897434 -3.027394 1.758231 -2.392813 2.392813 
C -1.758231 3.027394 -0.897434 3.383948 0 3.383948 
z
" id="C0_0_c904f566a1"/>
    </defs>
    <g clip-path="url(#pd8e64535e1)">
     <use style="fill:#1f77b4;stroke:#1f77b4;stroke-width:2.025;" x="90.225165" xlink:href="#C0_0_c904f566a1" y="224.416762"/>
    </g>
    <g clip-path="url(#pd8e64535e1)">
     <use style="fill:#1f77b4;stroke:#1f77b4;stroke-width:2.025;" x="115.711602" xlink:href="#C0_0_c904f566a1" y="216.566815"/>
    </g>
    <g clip-path="url(#pd8e64535e1)">
     <use style="fill:#1f77b4;stroke:#1f77b4;stroke-width:2.025;" x="141.19804" xlink:href="#C0_0_c904f566a1" y="172.10426"/>
    </g>
    <g clip-path="url(#pd8e64535e1)">
     <use style="fill:#1f77b4;stroke:#1f77b4;stroke-width:2.025;" x="166.684477" xlink:href="#C0_0_c904f566a1" y="193.092128"/>
    </g>
    <g clip-path="url(#pd8e64535e1)">
     <use style="fill:#1f77b4;stroke:#1f77b4;stroke-width:2.025;" x="217.657352" xlink:href="#C0_0_c904f566a1" y="158.192527"/>
    </g>
    <g clip-path="url(#pd8e64535e1)">
     <use style="fill:#1f77b4;stroke:#1f77b4;stroke-width:2.025;" x="243.14379" xlink:href="#C0_0_c904f566a1" y="162.532135"/>
    </g>
    <g clip-path="url(#pd8e64535e1)">
     <use style="fill:#1f77b4;stroke:#1f77b4;stroke-width:2.025;" x="268.630227" xlink:href="#C0_0_c904f566a1" y="185.027483"/>
    </g>
    <g clip-path="url(#pd8e64535e1)">
     <use style="fill:#1f77b4;stroke:#1f77b4;stroke-width:2.025;" x="319.603102" xlink:href="#C0_0_c904f566a1" y="184.457697"/>
    </g>
    <g clip-path="url(#pd8e64535e1)">
     <use style="fill:#1f77b4;stroke:#1f77b4;stroke-width:2.025;" x="345.08954" xlink:href="#C0_0_c904f566a1" y="171.602903"/>
    </g>
    <g clip-path="url(#pd8e64535e1)">
     <use style="fill:#1f77b4;stroke:#1f77b4;stroke-width:2.025;" x="447.03529" xlink:href="#C0_0_c904f566a1" y="191.14953"/>
    </g>
    <g clip-path="url(#pd8e64535e1)">
     <use style="fill:#1f77b4;stroke:#1f77b4;stroke-width:2.025;" x="472.521727" xlink:href="#C0_0_c904f566a1" y="190.947763"/>
    </g>
    <g clip-path="url(#pd8e64535e1)">
     <use style="fill:#1f77b4;stroke:#1f77b4;stroke-width:2.025;" x="498.008165" xlink:href="#C0_0_c904f566a1" y="185.027483"/>
    </g>
    <g clip-path="url(#pd8e64535e1)">
     <use style="fill:#1f77b4;stroke:#1f77b4;stroke-width:2.025;" x="548.98104" xlink:href="#C0_0_c904f566a1" y="180.877279"/>
    </g>
   </g>
   <g id="line2d_1">
    <path clip-path="url(#pd8e64535e1)" d="M 0 0 
" style="fill:none;stroke:#1f77b4;stroke-linecap:square;stroke-width:2.7;"/>
   </g>
   <g id="line2d_2">
    <path clip-path="url(#pd8e64535e1)" d="M 90.225165 258.058187 
L 90.225165 190.775337 
" style="fill:none;stroke:#1f77b4;stroke-linecap:square;stroke-width:2.7;"/>
   </g>
   <g id="line2d_3">
    <path clip-path="url(#pd8e64535e1)" d="M 115.711602 247.824568 
L 115.711602 185.309062 
" style="fill:none;stroke:#1f77b4;stroke-linecap:square;stroke-width:2.7;"/>
   </g>
   <g id="line2d_4">
    <path clip-path="url(#pd8e64535e1)" d="M 141.19804 187.104784 
L 141.19804 157.103736 
" style="fill:none;stroke:#1f77b4;stroke-linecap:square;stroke-width:2.7;"/>
   </g>
   <g id="line2d_5">
    <path clip-path="url(#pd8e64535e1)" d="M 166.684477 209.639436 
L 166.684477 176.54482 
" style="fill:none;stroke:#1f77b4;stroke-linecap:square;stroke-width:2.7;"/>
   </g>
   <g id="line2d_6">
    <path clip-path="url(#pd8e64535e1)" d="M 0 0 
" style="fill:none;stroke:#1f77b4;stroke-linecap:square;stroke-width:2.7;"/>
   </g>
   <g id="line2d_7">
    <path clip-path="url(#pd8e64535e1)" d="M 217.657352 174.660125 
L 217.657352 141.72493 
" style="fill:none;stroke:#1f77b4;stroke-linecap:square;stroke-width:2.7;"/>
   </g>
   <g id="line2d_8">
    <path clip-path="url(#pd8e64535e1)" d="M 243.14379 181.979661 
L 243.14379 143.08461 
" style="fill:none;stroke:#1f77b4;stroke-linecap:square;stroke-width:2.7;"/>
   </g>
   <g id="line2d_9">
    <path clip-path="url(#pd8e64535e1)" d="M 268.630227 185.027483 
L 268.630227 185.027483 
" style="fill:none;stroke:#1f77b4;stroke-linecap:square;stroke-width:2.7;"/>
   </g>
   <g id="line2d_10">
    <path clip-path="url(#pd8e64535e1)" d="M 0 0 
" style="fill:none;stroke:#1f77b4;stroke-linecap:square;stroke-width:2.7;"/>
   </g>
   <g id="line2d_11">
    <path clip-path="url(#pd8e64535e1)" d="M 319.603102 200.760822 
L 319.603102 168.154572 
" style="fill:none;stroke:#1f77b4;stroke-linecap:square;stroke-width:2.7;"/>
   </g>
   <g id="line2d_12">
    <path clip-path="url(#pd8e64535e1)" d="M 345.08954 182.775189 
L 345.08954 160.430616 
" style="fill:none;stroke:#1f77b4;stroke-linecap:square;stroke-width:2.7;"/>
   </g>
   <g id="line2d_13">
    <path clip-path="url(#pd8e64535e1)" d="M 0 0 
" style="fill:none;stroke:#1f77b4;stroke-linecap:square;stroke-width:2.7;"/>
   </g>
   <g id="line2d_14">
    <path clip-path="url(#pd8e64535e1)" d="M 0 0 
" style="fill:none;stroke:#1f77b4;stroke-linecap:square;stroke-width:2.7;"/>
   </g>
   <g id="line2d_15">
    <path clip-path="url(#pd8e64535e1)" d="M 0 0 
" style="fill:none;stroke:#1f77b4;stroke-linecap:square;stroke-width:2.7;"/>
   </g>
   <g id="line2d_16">
    <path clip-path="url(#pd8e64535e1)" d="M 447.03529 207.438302 
L 447.03529 174.860758 
" style="fill:none;stroke:#1f77b4;stroke-linecap:square;stroke-width:2.7;"/>
   </g>
   <g id="line2d_17">
    <path clip-path="url(#pd8e64535e1)" d="M 472.521727 207.606428 
L 472.521727 174.289098 
" style="fill:none;stroke:#1f77b4;stroke-linecap:square;stroke-width:2.7;"/>
   </g>
   <g id="line2d_18">
    <path clip-path="url(#pd8e64535e1)" d="M 498.008165 185.027483 
L 498.008165 185.027483 
" style="fill:none;stroke:#1f77b4;stroke-linecap:square;stroke-width:2.7;"/>
   </g>
   <g id="line2d_19">
    <path clip-path="url(#pd8e64535e1)" d="M 0 0 
" style="fill:none;stroke:#1f77b4;stroke-linecap:square;stroke-width:2.7;"/>
   </g>
   <g id="line2d_20">
    <path clip-path="url(#pd8e64535e1)" d="M 548.98104 183.934965 
L 548.98104 177.819592 
" style="fill:none;stroke:#1f77b4;stroke-linecap:square;stroke-width:2.7;"/>
   </g>
   <g id="matplotlib.axis_1">
    <g id="xtick_1">
     <g id="line2d_21">
      <path clip-path="url(#pd8e64535e1)" d="M 65.694469 384.86 
L 65.694469 13.32 
" style="fill:none;stroke:#dcdcdc;stroke-linecap:square;stroke-width:0.8;"/>
     </g>
     <g id="line2d_22">
      <defs>
       <path d="M 0 0 
L 0 3.5 
" id="m8c7d15f5e6" style="stroke:#000000;stroke-width:0.8;"/>
      </defs>
      <g>
       <use style="stroke:#000000;stroke-width:0.8;" x="65.694469" xlink:href="#m8c7d15f5e6" y="384.86"/>
      </g>
     </g>
     <g id="text_1">
      <!-- Bacteroides -->
      <defs>
       <path d="M 19.671875 34.8125 
L 19.671875 8.109375 
L 35.5 8.109375 
Q 43.453125 8.109375 47.28125 11.40625 
Q 51.125 14.703125 51.125 21.484375 
Q 51.125 28.328125 47.28125 31.5625 
Q 43.453125 34.8125 35.5 34.8125 
z
M 19.671875 64.796875 
L 19.671875 42.828125 
L 34.28125 42.828125 
Q 41.5 42.828125 45.03125 45.53125 
Q 48.578125 48.25 48.578125 53.8125 
Q 48.578125 59.328125 45.03125 62.0625 
Q 41.5 64.796875 34.28125 64.796875 
z
M 9.8125 72.90625 
L 35.015625 72.90625 
Q 46.296875 72.90625 52.390625 68.21875 
Q 58.5 63.53125 58.5 54.890625 
Q 58.5 48.1875 55.375 44.234375 
Q 52.25 40.28125 46.1875 39.3125 
Q 53.46875 37.75 57.5 32.78125 
Q 61.53125 27.828125 61.53125 20.40625 
Q 61.53125 10.640625 54.890625 5.3125 
Q 48.25 0 35.984375 0 
L 9.8125 0 
z
" id="DejaVuSans-66"/>
       <path d="M 34.28125 27.484375 
Q 23.390625 27.484375 19.1875 25 
Q 14.984375 22.515625 14.984375 16.5 
Q 14.984375 11.71875 18.140625 8.90625 
Q 21.296875 6.109375 26.703125 6.109375 
Q 34.1875 6.109375 38.703125 11.40625 
Q 43.21875 16.703125 43.21875 25.484375 
L 43.21875 27.484375 
z
M 52.203125 31.203125 
L 52.203125 0 
L 43.21875 0 
L 43.21875 8.296875 
Q 40.140625 3.328125 35.546875 0.953125 
Q 30.953125 -1.421875 24.3125 -1.421875 
Q 15.921875 -1.421875 10.953125 3.296875 
Q 6 8.015625 6 15.921875 
Q 6 25.140625 12.171875 29.828125 
Q 18.359375 34.515625 30.609375 34.515625 
L 43.21875 34.515625 
L 43.21875 35.40625 
Q 43.21875 41.609375 39.140625 45 
Q 35.0625 48.390625 27.6875 48.390625 
Q 23 48.390625 18.546875 47.265625 
Q 14.109375 46.140625 10.015625 43.890625 
L 10.015625 52.203125 
Q 14.9375 54.109375 19.578125 55.046875 
Q 24.21875 56 28.609375 56 
Q 40.484375 56 46.34375 49.84375 
Q 52.203125 43.703125 52.203125 31.203125 
z
" id="DejaVuSans-97"/>
       <path d="M 48.78125 52.59375 
L 48.78125 44.1875 
Q 44.96875 46.296875 41.140625 47.34375 
Q 37.3125 48.390625 33.40625 48.390625 
Q 24.65625 48.390625 19.8125 42.84375 
Q 14.984375 37.3125 14.984375 27.296875 
Q 14.984375 17.28125 19.8125 11.734375 
Q 24.65625 6.203125 33.40625 6.203125 
Q 37.3125 6.203125 41.140625 7.25 
Q 44.96875 8.296875 48.78125 10.40625 
L 48.78125 2.09375 
Q 45.015625 0.34375 40.984375 -0.53125 
Q 36.96875 -1.421875 32.421875 -1.421875 
Q 20.0625 -1.421875 12.78125 6.34375 
Q 5.515625 14.109375 5.515625 27.296875 
Q 5.515625 40.671875 12.859375 48.328125 
Q 20.21875 56 33.015625 56 
Q 37.15625 56 41.109375 55.140625 
Q 45.0625 54.296875 48.78125 52.59375 
z
" id="DejaVuSans-99"/>
       <path d="M 18.3125 70.21875 
L 18.3125 54.6875 
L 36.8125 54.6875 
L 36.8125 47.703125 
L 18.3125 47.703125 
L 18.3125 18.015625 
Q 18.3125 11.328125 20.140625 9.421875 
Q 21.96875 7.515625 27.59375 7.515625 
L 36.8125 7.515625 
L 36.8125 0 
L 27.59375 0 
Q 17.1875 0 13.234375 3.875 
Q 9.28125 7.765625 9.28125 18.015625 
L 9.28125 47.703125 
L 2.6875 47.703125 
L 2.6875 54.6875 
L 9.28125 54.6875 
L 9.28125 70.21875 
z
" id="DejaVuSans-116"/>
       <path d="M 56.203125 29.59375 
L 56.203125 25.203125 
L 14.890625 25.203125 
Q 15.484375 15.921875 20.484375 11.0625 
Q 25.484375 6.203125 34.421875 6.203125 
Q 39.59375 6.203125 44.453125 7.46875 
Q 49.3125 8.734375 54.109375 11.28125 
L 54.109375 2.78125 
Q 49.265625 0.734375 44.1875 -0.34375 
Q 39.109375 -1.421875 33.890625 -1.421875 
Q 20.796875 -1.421875 13.15625 6.1875 
Q 5.515625 13.8125 5.515625 26.8125 
Q 5.515625 40.234375 12.765625 48.109375 
Q 20.015625 56 32.328125 56 
Q 43.359375 56 49.78125 48.890625 
Q 56.203125 41.796875 56.203125 29.59375 
z
M 47.21875 32.234375 
Q 47.125 39.59375 43.09375 43.984375 
Q 39.0625 48.390625 32.421875 48.390625 
Q 24.90625 48.390625 20.390625 44.140625 
Q 15.875 39.890625 15.1875 32.171875 
z
" id="DejaVuSans-101"/>
       <path d="M 41.109375 46.296875 
Q 39.59375 47.171875 37.8125 47.578125 
Q 36.03125 48 33.890625 48 
Q 26.265625 48 22.1875 43.046875 
Q 18.109375 38.09375 18.109375 28.8125 
L 18.109375 0 
L 9.078125 0 
L 9.078125 54.6875 
L 18.109375 54.6875 
L 18.109375 46.1875 
Q 20.953125 51.171875 25.484375 53.578125 
Q 30.03125 56 36.53125 56 
Q 37.453125 56 38.578125 55.875 
Q 39.703125 55.765625 41.0625 55.515625 
z
" id="DejaVuSans-114"/>
       <path d="M 30.609375 48.390625 
Q 23.390625 48.390625 19.1875 42.75 
Q 14.984375 37.109375 14.984375 27.296875 
Q 14.984375 17.484375 19.15625 11.84375 
Q 23.34375 6.203125 30.609375 6.203125 
Q 37.796875 6.203125 41.984375 11.859375 
Q 46.1875 17.53125 46.1875 27.296875 
Q 46.1875 37.015625 41.984375 42.703125 
Q 37.796875 48.390625 30.609375 48.390625 
z
M 30.609375 56 
Q 42.328125 56 49.015625 48.375 
Q 55.71875 40.765625 55.71875 27.296875 
Q 55.71875 13.875 49.015625 6.21875 
Q 42.328125 -1.421875 30.609375 -1.421875 
Q 18.84375 -1.421875 12.171875 6.21875 
Q 5.515625 13.875 5.515625 27.296875 
Q 5.515625 40.765625 12.171875 48.375 
Q 18.84375 56 30.609375 56 
z
" id="DejaVuSans-111"/>
       <path d="M 9.421875 54.6875 
L 18.40625 54.6875 
L 18.40625 0 
L 9.421875 0 
z
M 9.421875 75.984375 
L 18.40625 75.984375 
L 18.40625 64.59375 
L 9.421875 64.59375 
z
" id="DejaVuSans-105"/>
       <path d="M 45.40625 46.390625 
L 45.40625 75.984375 
L 54.390625 75.984375 
L 54.390625 0 
L 45.40625 0 
L 45.40625 8.203125 
Q 42.578125 3.328125 38.25 0.953125 
Q 33.9375 -1.421875 27.875 -1.421875 
Q 17.96875 -1.421875 11.734375 6.484375 
Q 5.515625 14.40625 5.515625 27.296875 
Q 5.515625 40.1875 11.734375 48.09375 
Q 17.96875 56 27.875 56 
Q 33.9375 56 38.25 53.625 
Q 42.578125 51.265625 45.40625 46.390625 
z
M 14.796875 27.296875 
Q 14.796875 17.390625 18.875 11.75 
Q 22.953125 6.109375 30.078125 6.109375 
Q 37.203125 6.109375 41.296875 11.75 
Q 45.40625 17.390625 45.40625 27.296875 
Q 45.40625 37.203125 41.296875 42.84375 
Q 37.203125 48.484375 30.078125 48.484375 
Q 22.953125 48.484375 18.875 42.84375 
Q 14.796875 37.203125 14.796875 27.296875 
z
" id="DejaVuSans-100"/>
       <path d="M 44.28125 53.078125 
L 44.28125 44.578125 
Q 40.484375 46.53125 36.375 47.5 
Q 32.28125 48.484375 27.875 48.484375 
Q 21.1875 48.484375 17.84375 46.4375 
Q 14.5 44.390625 14.5 40.28125 
Q 14.5 37.15625 16.890625 35.375 
Q 19.28125 33.59375 26.515625 31.984375 
L 29.59375 31.296875 
Q 39.15625 29.25 43.1875 25.515625 
Q 47.21875 21.78125 47.21875 15.09375 
Q 47.21875 7.46875 41.1875 3.015625 
Q 35.15625 -1.421875 24.609375 -1.421875 
Q 20.21875 -1.421875 15.453125 -0.5625 
Q 10.6875 0.296875 5.421875 2 
L 5.421875 11.28125 
Q 10.40625 8.6875 15.234375 7.390625 
Q 20.0625 6.109375 24.8125 6.109375 
Q 31.15625 6.109375 34.5625 8.28125 
Q 37.984375 10.453125 37.984375 14.40625 
Q 37.984375 18.0625 35.515625 20.015625 
Q 33.0625 21.96875 24.703125 23.78125 
L 21.578125 24.515625 
Q 13.234375 26.265625 9.515625 29.90625 
Q 5.8125 33.546875 5.8125 39.890625 
Q 5.8125 47.609375 11.28125 51.796875 
Q 16.75 56 26.8125 56 
Q 31.78125 56 36.171875 55.265625 
Q 40.578125 54.546875 44.28125 53.078125 
z
" id="DejaVuSans-115"/>
      </defs>
      <g transform="translate(68.453844 451.136563)rotate(-90)scale(0.1 -0.1)">
       <use xlink:href="#DejaVuSans-66"/>
       <use x="68.603516" xlink:href="#DejaVuSans-97"/>
       <use x="129.882812" xlink:href="#DejaVuSans-99"/>
       <use x="184.863281" xlink:href="#DejaVuSans-116"/>
       <use x="224.072266" xlink:href="#DejaVuSans-101"/>
       <use x="285.595703" xlink:href="#DejaVuSans-114"/>
       <use x="326.677734" xlink:href="#DejaVuSans-111"/>
       <use x="387.859375" xlink:href="#DejaVuSans-105"/>
       <use x="415.642578" xlink:href="#DejaVuSans-100"/>
       <use x="479.119141" xlink:href="#DejaVuSans-101"/>
       <use x="540.642578" xlink:href="#DejaVuSans-115"/>
      </g>
     </g>
    </g>
    <g id="xtick_2">
     <g id="line2d_23">
      <path clip-path="url(#pd8e64535e1)" d="M 91.180906 384.86 
L 91.180906 13.32 
" style="fill:none;stroke:#dcdcdc;stroke-linecap:square;stroke-width:0.8;"/>
     </g>
     <g id="line2d_24">
      <g>
       <use style="stroke:#000000;stroke-width:0.8;" x="91.180906" xlink:href="#m8c7d15f5e6" y="384.86"/>
      </g>
     </g>
     <g id="text_2">
      <!-- Eubacterium -->
      <defs>
       <path d="M 9.8125 72.90625 
L 55.90625 72.90625 
L 55.90625 64.59375 
L 19.671875 64.59375 
L 19.671875 43.015625 
L 54.390625 43.015625 
L 54.390625 34.71875 
L 19.671875 34.71875 
L 19.671875 8.296875 
L 56.78125 8.296875 
L 56.78125 0 
L 9.8125 0 
z
" id="DejaVuSans-69"/>
       <path d="M 8.5 21.578125 
L 8.5 54.6875 
L 17.484375 54.6875 
L 17.484375 21.921875 
Q 17.484375 14.15625 20.5 10.265625 
Q 23.53125 6.390625 29.59375 6.390625 
Q 36.859375 6.390625 41.078125 11.03125 
Q 45.3125 15.671875 45.3125 23.6875 
L 45.3125 54.6875 
L 54.296875 54.6875 
L 54.296875 0 
L 45.3125 0 
L 45.3125 8.40625 
Q 42.046875 3.421875 37.71875 1 
Q 33.40625 -1.421875 27.6875 -1.421875 
Q 18.265625 -1.421875 13.375 4.4375 
Q 8.5 10.296875 8.5 21.578125 
z
M 31.109375 56 
z
" id="DejaVuSans-117"/>
       <path d="M 48.6875 27.296875 
Q 48.6875 37.203125 44.609375 42.84375 
Q 40.53125 48.484375 33.40625 48.484375 
Q 26.265625 48.484375 22.1875 42.84375 
Q 18.109375 37.203125 18.109375 27.296875 
Q 18.109375 17.390625 22.1875 11.75 
Q 26.265625 6.109375 33.40625 6.109375 
Q 40.53125 6.109375 44.609375 11.75 
Q 48.6875 17.390625 48.6875 27.296875 
z
M 18.109375 46.390625 
Q 20.953125 51.265625 25.265625 53.625 
Q 29.59375 56 35.59375 56 
Q 45.5625 56 51.78125 48.09375 
Q 58.015625 40.1875 58.015625 27.296875 
Q 58.015625 14.40625 51.78125 6.484375 
Q 45.5625 -1.421875 35.59375 -1.421875 
Q 29.59375 -1.421875 25.265625 0.953125 
Q 20.953125 3.328125 18.109375 8.203125 
L 18.109375 0 
L 9.078125 0 
L 9.078125 75.984375 
L 18.109375 75.984375 
z
" id="DejaVuSans-98"/>
       <path d="M 52 44.1875 
Q 55.375 50.25 60.0625 53.125 
Q 64.75 56 71.09375 56 
Q 79.640625 56 84.28125 50.015625 
Q 88.921875 44.046875 88.921875 33.015625 
L 88.921875 0 
L 79.890625 0 
L 79.890625 32.71875 
Q 79.890625 40.578125 77.09375 44.375 
Q 74.3125 48.1875 68.609375 48.1875 
Q 61.625 48.1875 57.5625 43.546875 
Q 53.515625 38.921875 53.515625 30.90625 
L 53.515625 0 
L 44.484375 0 
L 44.484375 32.71875 
Q 44.484375 40.625 41.703125 44.40625 
Q 38.921875 48.1875 33.109375 48.1875 
Q 26.21875 48.1875 22.15625 43.53125 
Q 18.109375 38.875 18.109375 30.90625 
L 18.109375 0 
L 9.078125 0 
L 9.078125 54.6875 
L 18.109375 54.6875 
L 18.109375 46.1875 
Q 21.1875 51.21875 25.484375 53.609375 
Q 29.78125 56 35.6875 56 
Q 41.65625 56 45.828125 52.96875 
Q 50 49.953125 52 44.1875 
z
" id="DejaVuSans-109"/>
      </defs>
      <g transform="translate(93.940281 455.531875)rotate(-90)scale(0.1 -0.1)">
       <use xlink:href="#DejaVuSans-69"/>
       <use x="63.183594" xlink:href="#DejaVuSans-117"/>
       <use x="126.5625" xlink:href="#DejaVuSans-98"/>
       <use x="190.039062" xlink:href="#DejaVuSans-97"/>
       <use x="251.318359" xlink:href="#DejaVuSans-99"/>
       <use x="306.298828" xlink:href="#DejaVuSans-116"/>
       <use x="345.507812" xlink:href="#DejaVuSans-101"/>
       <use x="407.03125" xlink:href="#DejaVuSans-114"/>
       <use x="448.144531" xlink:href="#DejaVuSans-105"/>
       <use x="475.927734" xlink:href="#DejaVuSans-117"/>
       <use x="539.306641" xlink:href="#DejaVuSans-109"/>
      </g>
     </g>
    </g>
    <g id="xtick_3">
     <g id="line2d_25">
      <path clip-path="url(#pd8e64535e1)" d="M 116.667344 384.86 
L 116.667344 13.32 
" style="fill:none;stroke:#dcdcdc;stroke-linecap:square;stroke-width:0.8;"/>
     </g>
     <g id="line2d_26">
      <g>
       <use style="stroke:#000000;stroke-width:0.8;" x="116.667344" xlink:href="#m8c7d15f5e6" y="384.86"/>
      </g>
     </g>
     <g id="text_3">
      <!-- Ruminococcus -->
      <defs>
       <path d="M 44.390625 34.1875 
Q 47.5625 33.109375 50.5625 29.59375 
Q 53.5625 26.078125 56.59375 19.921875 
L 66.609375 0 
L 56 0 
L 46.6875 18.703125 
Q 43.0625 26.03125 39.671875 28.421875 
Q 36.28125 30.8125 30.421875 30.8125 
L 19.671875 30.8125 
L 19.671875 0 
L 9.8125 0 
L 9.8125 72.90625 
L 32.078125 72.90625 
Q 44.578125 72.90625 50.734375 67.671875 
Q 56.890625 62.453125 56.890625 51.90625 
Q 56.890625 45.015625 53.6875 40.46875 
Q 50.484375 35.9375 44.390625 34.1875 
z
M 19.671875 64.796875 
L 19.671875 38.921875 
L 32.078125 38.921875 
Q 39.203125 38.921875 42.84375 42.21875 
Q 46.484375 45.515625 46.484375 51.90625 
Q 46.484375 58.296875 42.84375 61.546875 
Q 39.203125 64.796875 32.078125 64.796875 
z
" id="DejaVuSans-82"/>
       <path d="M 54.890625 33.015625 
L 54.890625 0 
L 45.90625 0 
L 45.90625 32.71875 
Q 45.90625 40.484375 42.875 44.328125 
Q 39.84375 48.1875 33.796875 48.1875 
Q 26.515625 48.1875 22.3125 43.546875 
Q 18.109375 38.921875 18.109375 30.90625 
L 18.109375 0 
L 9.078125 0 
L 9.078125 54.6875 
L 18.109375 54.6875 
L 18.109375 46.1875 
Q 21.34375 51.125 25.703125 53.5625 
Q 30.078125 56 35.796875 56 
Q 45.21875 56 50.046875 50.171875 
Q 54.890625 44.34375 54.890625 33.015625 
z
" id="DejaVuSans-110"/>
      </defs>
      <g transform="translate(119.426719 464.275625)rotate(-90)scale(0.1 -0.1)">
       <use xlink:href="#DejaVuSans-82"/>
       <use x="69.419922" xlink:href="#DejaVuSans-117"/>
       <use x="132.798828" xlink:href="#DejaVuSans-109"/>
       <use x="230.210938" xlink:href="#DejaVuSans-105"/>
       <use x="257.994141" xlink:href="#DejaVuSans-110"/>
       <use x="321.373047" xlink:href="#DejaVuSans-111"/>
       <use x="382.554688" xlink:href="#DejaVuSans-99"/>
       <use x="437.535156" xlink:href="#DejaVuSans-111"/>
       <use x="498.716797" xlink:href="#DejaVuSans-99"/>
       <use x="553.697266" xlink:href="#DejaVuSans-99"/>
       <use x="608.677734" xlink:href="#DejaVuSans-117"/>
       <use x="672.056641" xlink:href="#DejaVuSans-115"/>
      </g>
     </g>
    </g>
    <g id="xtick_4">
     <g id="line2d_27">
      <path clip-path="url(#pd8e64535e1)" d="M 142.153781 384.86 
L 142.153781 13.32 
" style="fill:none;stroke:#dcdcdc;stroke-linecap:square;stroke-width:0.8;"/>
     </g>
     <g id="line2d_28">
      <g>
       <use style="stroke:#000000;stroke-width:0.8;" x="142.153781" xlink:href="#m8c7d15f5e6" y="384.86"/>
      </g>
     </g>
     <g id="text_4">
      <!-- Faecalibacterium -->
      <defs>
       <path d="M 9.8125 72.90625 
L 51.703125 72.90625 
L 51.703125 64.59375 
L 19.671875 64.59375 
L 19.671875 43.109375 
L 48.578125 43.109375 
L 48.578125 34.8125 
L 19.671875 34.8125 
L 19.671875 0 
L 9.8125 0 
z
" id="DejaVuSans-70"/>
       <path d="M 9.421875 75.984375 
L 18.40625 75.984375 
L 18.40625 0 
L 9.421875 0 
z
" id="DejaVuSans-108"/>
      </defs>
      <g transform="translate(144.913156 478.077188)rotate(-90)scale(0.1 -0.1)">
       <use xlink:href="#DejaVuSans-70"/>
       <use x="57.378906" xlink:href="#DejaVuSans-97"/>
       <use x="118.658203" xlink:href="#DejaVuSans-101"/>
       <use x="180.181641" xlink:href="#DejaVuSans-99"/>
       <use x="235.162109" xlink:href="#DejaVuSans-97"/>
       <use x="296.441406" xlink:href="#DejaVuSans-108"/>
       <use x="324.224609" xlink:href="#DejaVuSans-105"/>
       <use x="352.007812" xlink:href="#DejaVuSans-98"/>
       <use x="415.484375" xlink:href="#DejaVuSans-97"/>
       <use x="476.763672" xlink:href="#DejaVuSans-99"/>
       <use x="531.744141" xlink:href="#DejaVuSans-116"/>
       <use x="570.953125" xlink:href="#DejaVuSans-101"/>
       <use x="632.476562" xlink:href="#DejaVuSans-114"/>
       <use x="673.589844" xlink:href="#DejaVuSans-105"/>
       <use x="701.373047" xlink:href="#DejaVuSans-117"/>
       <use x="764.751953" xlink:href="#DejaVuSans-109"/>
      </g>
     </g>
    </g>
    <g id="xtick_5">
     <g id="line2d_29">
      <path clip-path="url(#pd8e64535e1)" d="M 167.640219 384.86 
L 167.640219 13.32 
" style="fill:none;stroke:#dcdcdc;stroke-linecap:square;stroke-width:0.8;"/>
     </g>
     <g id="line2d_30">
      <g>
       <use style="stroke:#000000;stroke-width:0.8;" x="167.640219" xlink:href="#m8c7d15f5e6" y="384.86"/>
      </g>
     </g>
     <g id="text_5">
      <!-- Escherichia -->
      <defs>
       <path d="M 54.890625 33.015625 
L 54.890625 0 
L 45.90625 0 
L 45.90625 32.71875 
Q 45.90625 40.484375 42.875 44.328125 
Q 39.84375 48.1875 33.796875 48.1875 
Q 26.515625 48.1875 22.3125 43.546875 
Q 18.109375 38.921875 18.109375 30.90625 
L 18.109375 0 
L 9.078125 0 
L 9.078125 75.984375 
L 18.109375 75.984375 
L 18.109375 46.1875 
Q 21.34375 51.125 25.703125 53.5625 
Q 30.078125 56 35.796875 56 
Q 45.21875 56 50.046875 50.171875 
Q 54.890625 44.34375 54.890625 33.015625 
z
" id="DejaVuSans-104"/>
      </defs>
      <g transform="translate(170.399594 449.008438)rotate(-90)scale(0.1 -0.1)">
       <use xlink:href="#DejaVuSans-69"/>
       <use x="63.183594" xlink:href="#DejaVuSans-115"/>
       <use x="115.283203" xlink:href="#DejaVuSans-99"/>
       <use x="170.263672" xlink:href="#DejaVuSans-104"/>
       <use x="233.642578" xlink:href="#DejaVuSans-101"/>
       <use x="295.166016" xlink:href="#DejaVuSans-114"/>
       <use x="336.279297" xlink:href="#DejaVuSans-105"/>
       <use x="364.0625" xlink:href="#DejaVuSans-99"/>
       <use x="419.042969" xlink:href="#DejaVuSans-104"/>
       <use x="482.421875" xlink:href="#DejaVuSans-105"/>
       <use x="510.205078" xlink:href="#DejaVuSans-97"/>
      </g>
     </g>
    </g>
    <g id="xtick_6">
     <g id="line2d_31">
      <path clip-path="url(#pd8e64535e1)" d="M 193.126656 384.86 
L 193.126656 13.32 
" style="fill:none;stroke:#dcdcdc;stroke-linecap:square;stroke-width:0.8;"/>
     </g>
     <g id="line2d_32">
      <g>
       <use style="stroke:#000000;stroke-width:0.8;" x="193.126656" xlink:href="#m8c7d15f5e6" y="384.86"/>
      </g>
     </g>
     <g id="text_6">
      <!-- Megamonas -->
      <defs>
       <path d="M 9.8125 72.90625 
L 24.515625 72.90625 
L 43.109375 23.296875 
L 61.8125 72.90625 
L 76.515625 72.90625 
L 76.515625 0 
L 66.890625 0 
L 66.890625 64.015625 
L 48.09375 14.015625 
L 38.1875 14.015625 
L 19.390625 64.015625 
L 19.390625 0 
L 9.8125 0 
z
" id="DejaVuSans-77"/>
       <path d="M 45.40625 27.984375 
Q 45.40625 37.75 41.375 43.109375 
Q 37.359375 48.484375 30.078125 48.484375 
Q 22.859375 48.484375 18.828125 43.109375 
Q 14.796875 37.75 14.796875 27.984375 
Q 14.796875 18.265625 18.828125 12.890625 
Q 22.859375 7.515625 30.078125 7.515625 
Q 37.359375 7.515625 41.375 12.890625 
Q 45.40625 18.265625 45.40625 27.984375 
z
M 54.390625 6.78125 
Q 54.390625 -7.171875 48.1875 -13.984375 
Q 42 -20.796875 29.203125 -20.796875 
Q 24.46875 -20.796875 20.265625 -20.09375 
Q 16.0625 -19.390625 12.109375 -17.921875 
L 12.109375 -9.1875 
Q 16.0625 -11.328125 19.921875 -12.34375 
Q 23.78125 -13.375 27.78125 -13.375 
Q 36.625 -13.375 41.015625 -8.765625 
Q 45.40625 -4.15625 45.40625 5.171875 
L 45.40625 9.625 
Q 42.625 4.78125 38.28125 2.390625 
Q 33.9375 0 27.875 0 
Q 17.828125 0 11.671875 7.65625 
Q 5.515625 15.328125 5.515625 27.984375 
Q 5.515625 40.671875 11.671875 48.328125 
Q 17.828125 56 27.875 56 
Q 33.9375 56 38.28125 53.609375 
Q 42.625 51.21875 45.40625 46.390625 
L 45.40625 54.6875 
L 54.390625 54.6875 
z
" id="DejaVuSans-103"/>
      </defs>
      <g transform="translate(195.886031 452.652188)rotate(-90)scale(0.1 -0.1)">
       <use xlink:href="#DejaVuSans-77"/>
       <use x="86.279297" xlink:href="#DejaVuSans-101"/>
       <use x="147.802734" xlink:href="#DejaVuSans-103"/>
       <use x="211.279297" xlink:href="#DejaVuSans-97"/>
       <use x="272.558594" xlink:href="#DejaVuSans-109"/>
       <use x="369.970703" xlink:href="#DejaVuSans-111"/>
       <use x="431.152344" xlink:href="#DejaVuSans-110"/>
       <use x="494.53125" xlink:href="#DejaVuSans-97"/>
       <use x="555.810547" xlink:href="#DejaVuSans-115"/>
      </g>
     </g>
    </g>
    <g id="xtick_7">
     <g id="line2d_33">
      <path clip-path="url(#pd8e64535e1)" d="M 218.613094 384.86 
L 218.613094 13.32 
" style="fill:none;stroke:#dcdcdc;stroke-linecap:square;stroke-width:0.8;"/>
     </g>
     <g id="line2d_34">
      <g>
       <use style="stroke:#000000;stroke-width:0.8;" x="218.613094" xlink:href="#m8c7d15f5e6" y="384.86"/>
      </g>
     </g>
     <g id="text_7">
      <!-- Roseburia -->
      <g transform="translate(221.372469 441.986562)rotate(-90)scale(0.1 -0.1)">
       <use xlink:href="#DejaVuSans-82"/>
       <use x="69.419922" xlink:href="#DejaVuSans-111"/>
       <use x="130.601562" xlink:href="#DejaVuSans-115"/>
       <use x="182.701172" xlink:href="#DejaVuSans-101"/>
       <use x="244.224609" xlink:href="#DejaVuSans-98"/>
       <use x="307.701172" xlink:href="#DejaVuSans-117"/>
       <use x="371.080078" xlink:href="#DejaVuSans-114"/>
       <use x="412.193359" xlink:href="#DejaVuSans-105"/>
       <use x="439.976562" xlink:href="#DejaVuSans-97"/>
      </g>
     </g>
    </g>
    <g id="xtick_8">
     <g id="line2d_35">
      <path clip-path="url(#pd8e64535e1)" d="M 244.099531 384.86 
L 244.099531 13.32 
" style="fill:none;stroke:#dcdcdc;stroke-linecap:square;stroke-width:0.8;"/>
     </g>
     <g id="line2d_36">
      <g>
       <use style="stroke:#000000;stroke-width:0.8;" x="244.099531" xlink:href="#m8c7d15f5e6" y="384.86"/>
      </g>
     </g>
     <g id="text_8">
      <!-- Coprococcus -->
      <defs>
       <path d="M 64.40625 67.28125 
L 64.40625 56.890625 
Q 59.421875 61.53125 53.78125 63.8125 
Q 48.140625 66.109375 41.796875 66.109375 
Q 29.296875 66.109375 22.65625 58.46875 
Q 16.015625 50.828125 16.015625 36.375 
Q 16.015625 21.96875 22.65625 14.328125 
Q 29.296875 6.6875 41.796875 6.6875 
Q 48.140625 6.6875 53.78125 8.984375 
Q 59.421875 11.28125 64.40625 15.921875 
L 64.40625 5.609375 
Q 59.234375 2.09375 53.4375 0.328125 
Q 47.65625 -1.421875 41.21875 -1.421875 
Q 24.65625 -1.421875 15.125 8.703125 
Q 5.609375 18.84375 5.609375 36.375 
Q 5.609375 53.953125 15.125 64.078125 
Q 24.65625 74.21875 41.21875 74.21875 
Q 47.75 74.21875 53.53125 72.484375 
Q 59.328125 70.75 64.40625 67.28125 
z
" id="DejaVuSans-67"/>
       <path d="M 18.109375 8.203125 
L 18.109375 -20.796875 
L 9.078125 -20.796875 
L 9.078125 54.6875 
L 18.109375 54.6875 
L 18.109375 46.390625 
Q 20.953125 51.265625 25.265625 53.625 
Q 29.59375 56 35.59375 56 
Q 45.5625 56 51.78125 48.09375 
Q 58.015625 40.1875 58.015625 27.296875 
Q 58.015625 14.40625 51.78125 6.484375 
Q 45.5625 -1.421875 35.59375 -1.421875 
Q 29.59375 -1.421875 25.265625 0.953125 
Q 20.953125 3.328125 18.109375 8.203125 
z
M 48.6875 27.296875 
Q 48.6875 37.203125 44.609375 42.84375 
Q 40.53125 48.484375 33.40625 48.484375 
Q 26.265625 48.484375 22.1875 42.84375 
Q 18.109375 37.203125 18.109375 27.296875 
Q 18.109375 17.390625 22.1875 11.75 
Q 26.265625 6.109375 33.40625 6.109375 
Q 40.53125 6.109375 44.609375 11.75 
Q 48.6875 17.390625 48.6875 27.296875 
z
" id="DejaVuSans-112"/>
      </defs>
      <g transform="translate(246.858906 455.6975)rotate(-90)scale(0.1 -0.1)">
       <use xlink:href="#DejaVuSans-67"/>
       <use x="69.824219" xlink:href="#DejaVuSans-111"/>
       <use x="131.005859" xlink:href="#DejaVuSans-112"/>
       <use x="194.482422" xlink:href="#DejaVuSans-114"/>
       <use x="235.564453" xlink:href="#DejaVuSans-111"/>
       <use x="296.746094" xlink:href="#DejaVuSans-99"/>
       <use x="351.726562" xlink:href="#DejaVuSans-111"/>
       <use x="412.908203" xlink:href="#DejaVuSans-99"/>
       <use x="467.888672" xlink:href="#DejaVuSans-99"/>
       <use x="522.869141" xlink:href="#DejaVuSans-117"/>
       <use x="586.248047" xlink:href="#DejaVuSans-115"/>
      </g>
     </g>
    </g>
    <g id="xtick_9">
     <g id="line2d_37">
      <path clip-path="url(#pd8e64535e1)" d="M 269.585969 384.86 
L 269.585969 13.32 
" style="fill:none;stroke:#dcdcdc;stroke-linecap:square;stroke-width:0.8;"/>
     </g>
     <g id="line2d_38">
      <g>
       <use style="stroke:#000000;stroke-width:0.8;" x="269.585969" xlink:href="#m8c7d15f5e6" y="384.86"/>
      </g>
     </g>
     <g id="text_9">
      <!-- Blautia -->
      <g transform="translate(272.345344 426.79125)rotate(-90)scale(0.1 -0.1)">
       <use xlink:href="#DejaVuSans-66"/>
       <use x="68.603516" xlink:href="#DejaVuSans-108"/>
       <use x="96.386719" xlink:href="#DejaVuSans-97"/>
       <use x="157.666016" xlink:href="#DejaVuSans-117"/>
       <use x="221.044922" xlink:href="#DejaVuSans-116"/>
       <use x="260.253906" xlink:href="#DejaVuSans-105"/>
       <use x="288.037109" xlink:href="#DejaVuSans-97"/>
      </g>
     </g>
    </g>
    <g id="xtick_10">
     <g id="line2d_39">
      <path clip-path="url(#pd8e64535e1)" d="M 295.072406 384.86 
L 295.072406 13.32 
" style="fill:none;stroke:#dcdcdc;stroke-linecap:square;stroke-width:0.8;"/>
     </g>
     <g id="line2d_40">
      <g>
       <use style="stroke:#000000;stroke-width:0.8;" x="295.072406" xlink:href="#m8c7d15f5e6" y="384.86"/>
      </g>
     </g>
     <g id="text_10">
      <!-- Cronobacter -->
      <g transform="translate(297.831781 453.685)rotate(-90)scale(0.1 -0.1)">
       <use xlink:href="#DejaVuSans-67"/>
       <use x="69.824219" xlink:href="#DejaVuSans-114"/>
       <use x="110.90625" xlink:href="#DejaVuSans-111"/>
       <use x="172.087891" xlink:href="#DejaVuSans-110"/>
       <use x="235.466797" xlink:href="#DejaVuSans-111"/>
       <use x="296.648438" xlink:href="#DejaVuSans-98"/>
       <use x="360.125" xlink:href="#DejaVuSans-97"/>
       <use x="421.404297" xlink:href="#DejaVuSans-99"/>
       <use x="476.384766" xlink:href="#DejaVuSans-116"/>
       <use x="515.59375" xlink:href="#DejaVuSans-101"/>
       <use x="577.117188" xlink:href="#DejaVuSans-114"/>
      </g>
     </g>
    </g>
    <g id="xtick_11">
     <g id="line2d_41">
      <path clip-path="url(#pd8e64535e1)" d="M 320.558844 384.86 
L 320.558844 13.32 
" style="fill:none;stroke:#dcdcdc;stroke-linecap:square;stroke-width:0.8;"/>
     </g>
     <g id="line2d_42">
      <g>
       <use style="stroke:#000000;stroke-width:0.8;" x="320.558844" xlink:href="#m8c7d15f5e6" y="384.86"/>
      </g>
     </g>
     <g id="text_11">
      <!-- Anaerostipes -->
      <defs>
       <path d="M 34.1875 63.1875 
L 20.796875 26.90625 
L 47.609375 26.90625 
z
M 28.609375 72.90625 
L 39.796875 72.90625 
L 67.578125 0 
L 57.328125 0 
L 50.6875 18.703125 
L 17.828125 18.703125 
L 11.1875 0 
L 0.78125 0 
z
" id="DejaVuSans-65"/>
      </defs>
      <g transform="translate(323.318219 457.164688)rotate(-90)scale(0.1 -0.1)">
       <use xlink:href="#DejaVuSans-65"/>
       <use x="68.408203" xlink:href="#DejaVuSans-110"/>
       <use x="131.787109" xlink:href="#DejaVuSans-97"/>
       <use x="193.066406" xlink:href="#DejaVuSans-101"/>
       <use x="254.589844" xlink:href="#DejaVuSans-114"/>
       <use x="295.671875" xlink:href="#DejaVuSans-111"/>
       <use x="356.853516" xlink:href="#DejaVuSans-115"/>
       <use x="408.953125" xlink:href="#DejaVuSans-116"/>
       <use x="448.162109" xlink:href="#DejaVuSans-105"/>
       <use x="475.945312" xlink:href="#DejaVuSans-112"/>
       <use x="539.421875" xlink:href="#DejaVuSans-101"/>
       <use x="600.945312" xlink:href="#DejaVuSans-115"/>
      </g>
     </g>
    </g>
    <g id="xtick_12">
     <g id="line2d_43">
      <path clip-path="url(#pd8e64535e1)" d="M 346.045281 384.86 
L 346.045281 13.32 
" style="fill:none;stroke:#dcdcdc;stroke-linecap:square;stroke-width:0.8;"/>
     </g>
     <g id="line2d_44">
      <g>
       <use style="stroke:#000000;stroke-width:0.8;" x="346.045281" xlink:href="#m8c7d15f5e6" y="384.86"/>
      </g>
     </g>
     <g id="text_12">
      <!-- Odoribacter -->
      <defs>
       <path d="M 39.40625 66.21875 
Q 28.65625 66.21875 22.328125 58.203125 
Q 16.015625 50.203125 16.015625 36.375 
Q 16.015625 22.609375 22.328125 14.59375 
Q 28.65625 6.59375 39.40625 6.59375 
Q 50.140625 6.59375 56.421875 14.59375 
Q 62.703125 22.609375 62.703125 36.375 
Q 62.703125 50.203125 56.421875 58.203125 
Q 50.140625 66.21875 39.40625 66.21875 
z
M 39.40625 74.21875 
Q 54.734375 74.21875 63.90625 63.9375 
Q 73.09375 53.65625 73.09375 36.375 
Q 73.09375 19.140625 63.90625 8.859375 
Q 54.734375 -1.421875 39.40625 -1.421875 
Q 24.03125 -1.421875 14.8125 8.828125 
Q 5.609375 19.09375 5.609375 36.375 
Q 5.609375 53.65625 14.8125 63.9375 
Q 24.03125 74.21875 39.40625 74.21875 
z
" id="DejaVuSans-79"/>
      </defs>
      <g transform="translate(348.804656 451.2475)rotate(-90)scale(0.1 -0.1)">
       <use xlink:href="#DejaVuSans-79"/>
       <use x="78.710938" xlink:href="#DejaVuSans-100"/>
       <use x="142.1875" xlink:href="#DejaVuSans-111"/>
       <use x="203.369141" xlink:href="#DejaVuSans-114"/>
       <use x="244.482422" xlink:href="#DejaVuSans-105"/>
       <use x="272.265625" xlink:href="#DejaVuSans-98"/>
       <use x="335.742188" xlink:href="#DejaVuSans-97"/>
       <use x="397.021484" xlink:href="#DejaVuSans-99"/>
       <use x="452.001953" xlink:href="#DejaVuSans-116"/>
       <use x="491.210938" xlink:href="#DejaVuSans-101"/>
       <use x="552.734375" xlink:href="#DejaVuSans-114"/>
      </g>
     </g>
    </g>
    <g id="xtick_13">
     <g id="line2d_45">
      <path clip-path="url(#pd8e64535e1)" d="M 371.531719 384.86 
L 371.531719 13.32 
" style="fill:none;stroke:#dcdcdc;stroke-linecap:square;stroke-width:0.8;"/>
     </g>
     <g id="line2d_46">
      <g>
       <use style="stroke:#000000;stroke-width:0.8;" x="371.531719" xlink:href="#m8c7d15f5e6" y="384.86"/>
      </g>
     </g>
     <g id="text_13">
      <!-- Bifidobacterium -->
      <defs>
       <path d="M 37.109375 75.984375 
L 37.109375 68.5 
L 28.515625 68.5 
Q 23.6875 68.5 21.796875 66.546875 
Q 19.921875 64.59375 19.921875 59.515625 
L 19.921875 54.6875 
L 34.71875 54.6875 
L 34.71875 47.703125 
L 19.921875 47.703125 
L 19.921875 0 
L 10.890625 0 
L 10.890625 47.703125 
L 2.296875 47.703125 
L 2.296875 54.6875 
L 10.890625 54.6875 
L 10.890625 58.5 
Q 10.890625 67.625 15.140625 71.796875 
Q 19.390625 75.984375 28.609375 75.984375 
z
" id="DejaVuSans-102"/>
      </defs>
      <g transform="translate(374.291094 471.280313)rotate(-90)scale(0.1 -0.1)">
       <use xlink:href="#DejaVuSans-66"/>
       <use x="68.603516" xlink:href="#DejaVuSans-105"/>
       <use x="96.386719" xlink:href="#DejaVuSans-102"/>
       <use x="131.591797" xlink:href="#DejaVuSans-105"/>
       <use x="159.375" xlink:href="#DejaVuSans-100"/>
       <use x="222.851562" xlink:href="#DejaVuSans-111"/>
       <use x="284.033203" xlink:href="#DejaVuSans-98"/>
       <use x="347.509766" xlink:href="#DejaVuSans-97"/>
       <use x="408.789062" xlink:href="#DejaVuSans-99"/>
       <use x="463.769531" xlink:href="#DejaVuSans-116"/>
       <use x="502.978516" xlink:href="#DejaVuSans-101"/>
       <use x="564.501953" xlink:href="#DejaVuSans-114"/>
       <use x="605.615234" xlink:href="#DejaVuSans-105"/>
       <use x="633.398438" xlink:href="#DejaVuSans-117"/>
       <use x="696.777344" xlink:href="#DejaVuSans-109"/>
      </g>
     </g>
    </g>
    <g id="xtick_14">
     <g id="line2d_47">
      <path clip-path="url(#pd8e64535e1)" d="M 397.018156 384.86 
L 397.018156 13.32 
" style="fill:none;stroke:#dcdcdc;stroke-linecap:square;stroke-width:0.8;"/>
     </g>
     <g id="line2d_48">
      <g>
       <use style="stroke:#000000;stroke-width:0.8;" x="397.018156" xlink:href="#m8c7d15f5e6" y="384.86"/>
      </g>
     </g>
     <g id="text_14">
      <!-- Parabacteroides -->
      <defs>
       <path d="M 19.671875 64.796875 
L 19.671875 37.40625 
L 32.078125 37.40625 
Q 38.96875 37.40625 42.71875 40.96875 
Q 46.484375 44.53125 46.484375 51.125 
Q 46.484375 57.671875 42.71875 61.234375 
Q 38.96875 64.796875 32.078125 64.796875 
z
M 9.8125 72.90625 
L 32.078125 72.90625 
Q 44.34375 72.90625 50.609375 67.359375 
Q 56.890625 61.8125 56.890625 51.125 
Q 56.890625 40.328125 50.609375 34.8125 
Q 44.34375 29.296875 32.078125 29.296875 
L 19.671875 29.296875 
L 19.671875 0 
L 9.8125 0 
z
" id="DejaVuSans-80"/>
      </defs>
      <g transform="translate(399.777531 473.014688)rotate(-90)scale(0.1 -0.1)">
       <use xlink:href="#DejaVuSans-80"/>
       <use x="60.240234" xlink:href="#DejaVuSans-97"/>
       <use x="121.519531" xlink:href="#DejaVuSans-114"/>
       <use x="162.632812" xlink:href="#DejaVuSans-97"/>
       <use x="223.912109" xlink:href="#DejaVuSans-98"/>
       <use x="287.388672" xlink:href="#DejaVuSans-97"/>
       <use x="348.667969" xlink:href="#DejaVuSans-99"/>
       <use x="403.648438" xlink:href="#DejaVuSans-116"/>
       <use x="442.857422" xlink:href="#DejaVuSans-101"/>
       <use x="504.380859" xlink:href="#DejaVuSans-114"/>
       <use x="545.462891" xlink:href="#DejaVuSans-111"/>
       <use x="606.644531" xlink:href="#DejaVuSans-105"/>
       <use x="634.427734" xlink:href="#DejaVuSans-100"/>
       <use x="697.904297" xlink:href="#DejaVuSans-101"/>
       <use x="759.427734" xlink:href="#DejaVuSans-115"/>
      </g>
     </g>
    </g>
    <g id="xtick_15">
     <g id="line2d_49">
      <path clip-path="url(#pd8e64535e1)" d="M 422.504594 384.86 
L 422.504594 13.32 
" style="fill:none;stroke:#dcdcdc;stroke-linecap:square;stroke-width:0.8;"/>
     </g>
     <g id="line2d_50">
      <g>
       <use style="stroke:#000000;stroke-width:0.8;" x="422.504594" xlink:href="#m8c7d15f5e6" y="384.86"/>
      </g>
     </g>
     <g id="text_15">
      <!-- Methanobrevibacter -->
      <defs>
       <path d="M 2.984375 54.6875 
L 12.5 54.6875 
L 29.59375 8.796875 
L 46.6875 54.6875 
L 56.203125 54.6875 
L 35.6875 0 
L 23.484375 0 
z
" id="DejaVuSans-118"/>
      </defs>
      <g transform="translate(425.263969 492.949063)rotate(-90)scale(0.1 -0.1)">
       <use xlink:href="#DejaVuSans-77"/>
       <use x="86.279297" xlink:href="#DejaVuSans-101"/>
       <use x="147.802734" xlink:href="#DejaVuSans-116"/>
       <use x="187.011719" xlink:href="#DejaVuSans-104"/>
       <use x="250.390625" xlink:href="#DejaVuSans-97"/>
       <use x="311.669922" xlink:href="#DejaVuSans-110"/>
       <use x="375.048828" xlink:href="#DejaVuSans-111"/>
       <use x="436.230469" xlink:href="#DejaVuSans-98"/>
       <use x="499.707031" xlink:href="#DejaVuSans-114"/>
       <use x="540.789062" xlink:href="#DejaVuSans-101"/>
       <use x="602.3125" xlink:href="#DejaVuSans-118"/>
       <use x="661.492188" xlink:href="#DejaVuSans-105"/>
       <use x="689.275391" xlink:href="#DejaVuSans-98"/>
       <use x="752.751953" xlink:href="#DejaVuSans-97"/>
       <use x="814.03125" xlink:href="#DejaVuSans-99"/>
       <use x="869.011719" xlink:href="#DejaVuSans-116"/>
       <use x="908.220703" xlink:href="#DejaVuSans-101"/>
       <use x="969.744141" xlink:href="#DejaVuSans-114"/>
      </g>
     </g>
    </g>
    <g id="xtick_16">
     <g id="line2d_51">
      <path clip-path="url(#pd8e64535e1)" d="M 447.991031 384.86 
L 447.991031 13.32 
" style="fill:none;stroke:#dcdcdc;stroke-linecap:square;stroke-width:0.8;"/>
     </g>
     <g id="line2d_52">
      <g>
       <use style="stroke:#000000;stroke-width:0.8;" x="447.991031" xlink:href="#m8c7d15f5e6" y="384.86"/>
      </g>
     </g>
     <g id="text_16">
      <!-- Ruminiclostridium -->
      <g transform="translate(450.750406 482.392812)rotate(-90)scale(0.1 -0.1)">
       <use xlink:href="#DejaVuSans-82"/>
       <use x="69.419922" xlink:href="#DejaVuSans-117"/>
       <use x="132.798828" xlink:href="#DejaVuSans-109"/>
       <use x="230.210938" xlink:href="#DejaVuSans-105"/>
       <use x="257.994141" xlink:href="#DejaVuSans-110"/>
       <use x="321.373047" xlink:href="#DejaVuSans-105"/>
       <use x="349.15625" xlink:href="#DejaVuSans-99"/>
       <use x="404.136719" xlink:href="#DejaVuSans-108"/>
       <use x="431.919922" xlink:href="#DejaVuSans-111"/>
       <use x="493.101562" xlink:href="#DejaVuSans-115"/>
       <use x="545.201172" xlink:href="#DejaVuSans-116"/>
       <use x="584.410156" xlink:href="#DejaVuSans-114"/>
       <use x="625.523438" xlink:href="#DejaVuSans-105"/>
       <use x="653.306641" xlink:href="#DejaVuSans-100"/>
       <use x="716.783203" xlink:href="#DejaVuSans-105"/>
       <use x="744.566406" xlink:href="#DejaVuSans-117"/>
       <use x="807.945312" xlink:href="#DejaVuSans-109"/>
      </g>
     </g>
    </g>
    <g id="xtick_17">
     <g id="line2d_53">
      <path clip-path="url(#pd8e64535e1)" d="M 473.477469 384.86 
L 473.477469 13.32 
" style="fill:none;stroke:#dcdcdc;stroke-linecap:square;stroke-width:0.8;"/>
     </g>
     <g id="line2d_54">
      <g>
       <use style="stroke:#000000;stroke-width:0.8;" x="473.477469" xlink:href="#m8c7d15f5e6" y="384.86"/>
      </g>
     </g>
     <g id="text_17">
      <!-- Klebsiella -->
      <defs>
       <path d="M 9.8125 72.90625 
L 19.671875 72.90625 
L 19.671875 42.09375 
L 52.390625 72.90625 
L 65.09375 72.90625 
L 28.90625 38.921875 
L 67.671875 0 
L 54.6875 0 
L 19.671875 35.109375 
L 19.671875 0 
L 9.8125 0 
z
" id="DejaVuSans-75"/>
      </defs>
      <g transform="translate(476.236844 439.5225)rotate(-90)scale(0.1 -0.1)">
       <use xlink:href="#DejaVuSans-75"/>
       <use x="65.576172" xlink:href="#DejaVuSans-108"/>
       <use x="93.359375" xlink:href="#DejaVuSans-101"/>
       <use x="154.882812" xlink:href="#DejaVuSans-98"/>
       <use x="218.359375" xlink:href="#DejaVuSans-115"/>
       <use x="270.458984" xlink:href="#DejaVuSans-105"/>
       <use x="298.242188" xlink:href="#DejaVuSans-101"/>
       <use x="359.765625" xlink:href="#DejaVuSans-108"/>
       <use x="387.548828" xlink:href="#DejaVuSans-108"/>
       <use x="415.332031" xlink:href="#DejaVuSans-97"/>
      </g>
     </g>
    </g>
    <g id="xtick_18">
     <g id="line2d_55">
      <path clip-path="url(#pd8e64535e1)" d="M 498.963906 384.86 
L 498.963906 13.32 
" style="fill:none;stroke:#dcdcdc;stroke-linecap:square;stroke-width:0.8;"/>
     </g>
     <g id="line2d_56">
      <g>
       <use style="stroke:#000000;stroke-width:0.8;" x="498.963906" xlink:href="#m8c7d15f5e6" y="384.86"/>
      </g>
     </g>
     <g id="text_18">
      <!-- Alistipes -->
      <g transform="translate(501.723281 433.875625)rotate(-90)scale(0.1 -0.1)">
       <use xlink:href="#DejaVuSans-65"/>
       <use x="68.408203" xlink:href="#DejaVuSans-108"/>
       <use x="96.191406" xlink:href="#DejaVuSans-105"/>
       <use x="123.974609" xlink:href="#DejaVuSans-115"/>
       <use x="176.074219" xlink:href="#DejaVuSans-116"/>
       <use x="215.283203" xlink:href="#DejaVuSans-105"/>
       <use x="243.066406" xlink:href="#DejaVuSans-112"/>
       <use x="306.542969" xlink:href="#DejaVuSans-101"/>
       <use x="368.066406" xlink:href="#DejaVuSans-115"/>
      </g>
     </g>
    </g>
    <g id="xtick_19">
     <g id="line2d_57">
      <path clip-path="url(#pd8e64535e1)" d="M 524.450344 384.86 
L 524.450344 13.32 
" style="fill:none;stroke:#dcdcdc;stroke-linecap:square;stroke-width:0.8;"/>
     </g>
     <g id="line2d_58">
      <g>
       <use style="stroke:#000000;stroke-width:0.8;" x="524.450344" xlink:href="#m8c7d15f5e6" y="384.86"/>
      </g>
     </g>
     <g id="text_19">
      <!-- Akkermansia -->
      <defs>
       <path d="M 9.078125 75.984375 
L 18.109375 75.984375 
L 18.109375 31.109375 
L 44.921875 54.6875 
L 56.390625 54.6875 
L 27.390625 29.109375 
L 57.625 0 
L 45.90625 0 
L 18.109375 26.703125 
L 18.109375 0 
L 9.078125 0 
z
" id="DejaVuSans-107"/>
      </defs>
      <g transform="translate(527.209719 456.861562)rotate(-90)scale(0.1 -0.1)">
       <use xlink:href="#DejaVuSans-65"/>
       <use x="68.408203" xlink:href="#DejaVuSans-107"/>
       <use x="126.318359" xlink:href="#DejaVuSans-107"/>
       <use x="184.181641" xlink:href="#DejaVuSans-101"/>
       <use x="245.705078" xlink:href="#DejaVuSans-114"/>
       <use x="286.802734" xlink:href="#DejaVuSans-109"/>
       <use x="384.214844" xlink:href="#DejaVuSans-97"/>
       <use x="445.494141" xlink:href="#DejaVuSans-110"/>
       <use x="508.873047" xlink:href="#DejaVuSans-115"/>
       <use x="560.972656" xlink:href="#DejaVuSans-105"/>
       <use x="588.755859" xlink:href="#DejaVuSans-97"/>
      </g>
     </g>
    </g>
    <g id="xtick_20">
     <g id="line2d_59">
      <path clip-path="url(#pd8e64535e1)" d="M 549.936781 384.86 
L 549.936781 13.32 
" style="fill:none;stroke:#dcdcdc;stroke-linecap:square;stroke-width:0.8;"/>
     </g>
     <g id="line2d_60">
      <g>
       <use style="stroke:#000000;stroke-width:0.8;" x="549.936781" xlink:href="#m8c7d15f5e6" y="384.86"/>
      </g>
     </g>
     <g id="text_20">
      <!-- Lachnoclostridium -->
      <defs>
       <path d="M 9.8125 72.90625 
L 19.671875 72.90625 
L 19.671875 8.296875 
L 55.171875 8.296875 
L 55.171875 0 
L 9.8125 0 
z
" id="DejaVuSans-76"/>
      </defs>
      <g transform="translate(552.696156 483.470937)rotate(-90)scale(0.1 -0.1)">
       <use xlink:href="#DejaVuSans-76"/>
       <use x="55.712891" xlink:href="#DejaVuSans-97"/>
       <use x="116.992188" xlink:href="#DejaVuSans-99"/>
       <use x="171.972656" xlink:href="#DejaVuSans-104"/>
       <use x="235.351562" xlink:href="#DejaVuSans-110"/>
       <use x="298.730469" xlink:href="#DejaVuSans-111"/>
       <use x="359.912109" xlink:href="#DejaVuSans-99"/>
       <use x="414.892578" xlink:href="#DejaVuSans-108"/>
       <use x="442.675781" xlink:href="#DejaVuSans-111"/>
       <use x="503.857422" xlink:href="#DejaVuSans-115"/>
       <use x="555.957031" xlink:href="#DejaVuSans-116"/>
       <use x="595.166016" xlink:href="#DejaVuSans-114"/>
       <use x="636.279297" xlink:href="#DejaVuSans-105"/>
       <use x="664.0625" xlink:href="#DejaVuSans-100"/>
       <use x="727.539062" xlink:href="#DejaVuSans-105"/>
       <use x="755.322266" xlink:href="#DejaVuSans-117"/>
       <use x="818.701172" xlink:href="#DejaVuSans-109"/>
      </g>
     </g>
    </g>
   </g>
   <g id="matplotlib.axis_2">
    <g id="ytick_1">
     <g id="line2d_61">
      <defs>
       <path d="M 0 0 
L -3.5 0 
" id="m20bac64f53" style="stroke:#000000;stroke-width:0.8;"/>
      </defs>
      <g>
       <use style="stroke:#000000;stroke-width:0.8;" x="52.95125" xlink:href="#m20bac64f53" y="343.833807"/>
      </g>
     </g>
     <g id="text_21">
      <!-- −40 -->
      <defs>
       <path d="M 10.59375 35.5 
L 73.1875 35.5 
L 73.1875 27.203125 
L 10.59375 27.203125 
z
" id="DejaVuSans-8722"/>
       <path d="M 37.796875 64.3125 
L 12.890625 25.390625 
L 37.796875 25.390625 
z
M 35.203125 72.90625 
L 47.609375 72.90625 
L 47.609375 25.390625 
L 58.015625 25.390625 
L 58.015625 17.1875 
L 47.609375 17.1875 
L 47.609375 0 
L 37.796875 0 
L 37.796875 17.1875 
L 4.890625 17.1875 
L 4.890625 26.703125 
z
" id="DejaVuSans-52"/>
       <path d="M 31.78125 66.40625 
Q 24.171875 66.40625 20.328125 58.90625 
Q 16.5 51.421875 16.5 36.375 
Q 16.5 21.390625 20.328125 13.890625 
Q 24.171875 6.390625 31.78125 6.390625 
Q 39.453125 6.390625 43.28125 13.890625 
Q 47.125 21.390625 47.125 36.375 
Q 47.125 51.421875 43.28125 58.90625 
Q 39.453125 66.40625 31.78125 66.40625 
z
M 31.78125 74.21875 
Q 44.046875 74.21875 50.515625 64.515625 
Q 56.984375 54.828125 56.984375 36.375 
Q 56.984375 17.96875 50.515625 8.265625 
Q 44.046875 -1.421875 31.78125 -1.421875 
Q 19.53125 -1.421875 13.0625 8.265625 
Q 6.59375 17.96875 6.59375 36.375 
Q 6.59375 54.828125 13.0625 64.515625 
Q 19.53125 74.21875 31.78125 74.21875 
z
" id="DejaVuSans-48"/>
      </defs>
      <g transform="translate(24.846563 347.633026)scale(0.1 -0.1)">
       <use xlink:href="#DejaVuSans-8722"/>
       <use x="83.789062" xlink:href="#DejaVuSans-52"/>
       <use x="147.412109" xlink:href="#DejaVuSans-48"/>
      </g>
     </g>
    </g>
    <g id="ytick_2">
     <g id="line2d_62">
      <g>
       <use style="stroke:#000000;stroke-width:0.8;" x="52.95125" xlink:href="#m20bac64f53" y="264.430645"/>
      </g>
     </g>
     <g id="text_22">
      <!-- −20 -->
      <defs>
       <path d="M 19.1875 8.296875 
L 53.609375 8.296875 
L 53.609375 0 
L 7.328125 0 
L 7.328125 8.296875 
Q 12.9375 14.109375 22.625 23.890625 
Q 32.328125 33.6875 34.8125 36.53125 
Q 39.546875 41.84375 41.421875 45.53125 
Q 43.3125 49.21875 43.3125 52.78125 
Q 43.3125 58.59375 39.234375 62.25 
Q 35.15625 65.921875 28.609375 65.921875 
Q 23.96875 65.921875 18.8125 64.3125 
Q 13.671875 62.703125 7.8125 59.421875 
L 7.8125 69.390625 
Q 13.765625 71.78125 18.9375 73 
Q 24.125 74.21875 28.421875 74.21875 
Q 39.75 74.21875 46.484375 68.546875 
Q 53.21875 62.890625 53.21875 53.421875 
Q 53.21875 48.921875 51.53125 44.890625 
Q 49.859375 40.875 45.40625 35.40625 
Q 44.1875 33.984375 37.640625 27.21875 
Q 31.109375 20.453125 19.1875 8.296875 
z
" id="DejaVuSans-50"/>
      </defs>
      <g transform="translate(24.846563 268.229864)scale(0.1 -0.1)">
       <use xlink:href="#DejaVuSans-8722"/>
       <use x="83.789062" xlink:href="#DejaVuSans-50"/>
       <use x="147.412109" xlink:href="#DejaVuSans-48"/>
      </g>
     </g>
    </g>
    <g id="ytick_3">
     <g id="line2d_63">
      <g>
       <use style="stroke:#000000;stroke-width:0.8;" x="52.95125" xlink:href="#m20bac64f53" y="185.027483"/>
      </g>
     </g>
     <g id="text_23">
      <!-- 0 -->
      <g transform="translate(39.58875 188.826701)scale(0.1 -0.1)">
       <use xlink:href="#DejaVuSans-48"/>
      </g>
     </g>
    </g>
    <g id="ytick_4">
     <g id="line2d_64">
      <g>
       <use style="stroke:#000000;stroke-width:0.8;" x="52.95125" xlink:href="#m20bac64f53" y="105.624321"/>
      </g>
     </g>
     <g id="text_24">
      <!-- 20 -->
      <g transform="translate(33.22625 109.423539)scale(0.1 -0.1)">
       <use xlink:href="#DejaVuSans-50"/>
       <use x="63.623047" xlink:href="#DejaVuSans-48"/>
      </g>
     </g>
    </g>
    <g id="ytick_5">
     <g id="line2d_65">
      <g>
       <use style="stroke:#000000;stroke-width:0.8;" x="52.95125" xlink:href="#m20bac64f53" y="26.221158"/>
      </g>
     </g>
     <g id="text_25">
      <!-- 40 -->
      <g transform="translate(33.22625 30.020377)scale(0.1 -0.1)">
       <use xlink:href="#DejaVuSans-52"/>
       <use x="63.623047" xlink:href="#DejaVuSans-48"/>
      </g>
     </g>
    </g>
    <g id="text_26">
     <!-- tot_flux -->
     <defs>
      <path d="M 50.984375 -16.609375 
L 50.984375 -23.578125 
L -0.984375 -23.578125 
L -0.984375 -16.609375 
z
" id="DejaVuSans-95"/>
      <path d="M 54.890625 54.6875 
L 35.109375 28.078125 
L 55.90625 0 
L 45.3125 0 
L 29.390625 21.484375 
L 13.484375 0 
L 2.875 0 
L 24.125 28.609375 
L 4.6875 54.6875 
L 15.28125 54.6875 
L 29.78125 35.203125 
L 44.28125 54.6875 
z
" id="DejaVuSans-120"/>
     </defs>
     <g transform="translate(18.48875 217.847031)rotate(-90)scale(0.1 -0.1)">
      <use xlink:href="#DejaVuSans-116"/>
      <use x="39.208984" xlink:href="#DejaVuSans-111"/>
      <use x="100.390625" xlink:href="#DejaVuSans-116"/>
      <use x="139.599609" xlink:href="#DejaVuSans-95"/>
      <use x="189.599609" xlink:href="#DejaVuSans-102"/>
      <use x="224.804688" xlink:href="#DejaVuSans-108"/>
      <use x="252.587891" xlink:href="#DejaVuSans-117"/>
      <use x="315.966797" xlink:href="#DejaVuSans-120"/>
     </g>
    </g>
   </g>
   <g id="PathCollection_2">
    <defs>
     <path d="M 0 3.383948 
C 0.897434 3.383948 1.758231 3.027394 2.392813 2.392813 
C 3.027394 1.758231 3.383948 0.897434 3.383948 0 
C 3.383948 -0.897434 3.027394 -1.758231 2.392813 -2.392813 
C 1.758231 -3.027394 0.897434 -3.383948 0 -3.383948 
C -0.897434 -3.383948 -1.758231 -3.027394 -2.392813 -2.392813 
C -3.027394 -1.758231 -3.383948 -0.897434 -3.383948 0 
C -3.383948 0.897434 -3.027394 1.758231 -2.392813 2.392813 
C -1.758231 3.027394 -0.897434 3.383948 0 3.383948 
z
" id="C1_0_72f38f0d44"/>
    </defs>
    <g clip-path="url(#pd8e64535e1)">
     <use style="fill:#ff7f0e;stroke:#ff7f0e;stroke-width:2.025;" x="65.694469" xlink:href="#C1_0_72f38f0d44" y="290.501502"/>
    </g>
    <g clip-path="url(#pd8e64535e1)">
     <use style="fill:#ff7f0e;stroke:#ff7f0e;stroke-width:2.025;" x="91.180906" xlink:href="#C1_0_72f38f0d44" y="96.325454"/>
    </g>
    <g clip-path="url(#pd8e64535e1)">
     <use style="fill:#ff7f0e;stroke:#ff7f0e;stroke-width:2.025;" x="116.667344" xlink:href="#C1_0_72f38f0d44" y="206.619847"/>
    </g>
    <g clip-path="url(#pd8e64535e1)">
     <use style="fill:#ff7f0e;stroke:#ff7f0e;stroke-width:2.025;" x="142.153781" xlink:href="#C1_0_72f38f0d44" y="207.448873"/>
    </g>
    <g clip-path="url(#pd8e64535e1)">
     <use style="fill:#ff7f0e;stroke:#ff7f0e;stroke-width:2.025;" x="167.640219" xlink:href="#C1_0_72f38f0d44" y="181.547166"/>
    </g>
    <g clip-path="url(#pd8e64535e1)">
     <use style="fill:#ff7f0e;stroke:#ff7f0e;stroke-width:2.025;" x="193.126656" xlink:href="#C1_0_72f38f0d44" y="161.166972"/>
    </g>
    <g clip-path="url(#pd8e64535e1)">
     <use style="fill:#ff7f0e;stroke:#ff7f0e;stroke-width:2.025;" x="218.613094" xlink:href="#C1_0_72f38f0d44" y="190.552276"/>
    </g>
    <g clip-path="url(#pd8e64535e1)">
     <use style="fill:#ff7f0e;stroke:#ff7f0e;stroke-width:2.025;" x="244.099531" xlink:href="#C1_0_72f38f0d44" y="176.412566"/>
    </g>
    <g clip-path="url(#pd8e64535e1)">
     <use style="fill:#ff7f0e;stroke:#ff7f0e;stroke-width:2.025;" x="269.585969" xlink:href="#C1_0_72f38f0d44" y="154.452299"/>
    </g>
    <g clip-path="url(#pd8e64535e1)">
     <use style="fill:#ff7f0e;stroke:#ff7f0e;stroke-width:2.025;" x="295.072406" xlink:href="#C1_0_72f38f0d44" y="166.05902"/>
    </g>
    <g clip-path="url(#pd8e64535e1)">
     <use style="fill:#ff7f0e;stroke:#ff7f0e;stroke-width:2.025;" x="320.558844" xlink:href="#C1_0_72f38f0d44" y="187.540474"/>
    </g>
    <g clip-path="url(#pd8e64535e1)">
     <use style="fill:#ff7f0e;stroke:#ff7f0e;stroke-width:2.025;" x="346.045281" xlink:href="#C1_0_72f38f0d44" y="182.647502"/>
    </g>
    <g clip-path="url(#pd8e64535e1)">
     <use style="fill:#ff7f0e;stroke:#ff7f0e;stroke-width:2.025;" x="371.531719" xlink:href="#C1_0_72f38f0d44" y="186.765844"/>
    </g>
    <g clip-path="url(#pd8e64535e1)">
     <use style="fill:#ff7f0e;stroke:#ff7f0e;stroke-width:2.025;" x="397.018156" xlink:href="#C1_0_72f38f0d44" y="188.854123"/>
    </g>
    <g clip-path="url(#pd8e64535e1)">
     <use style="fill:#ff7f0e;stroke:#ff7f0e;stroke-width:2.025;" x="422.504594" xlink:href="#C1_0_72f38f0d44" y="172.237593"/>
    </g>
    <g clip-path="url(#pd8e64535e1)">
     <use style="fill:#ff7f0e;stroke:#ff7f0e;stroke-width:2.025;" x="447.991031" xlink:href="#C1_0_72f38f0d44" y="191.318849"/>
    </g>
    <g clip-path="url(#pd8e64535e1)">
     <use style="fill:#ff7f0e;stroke:#ff7f0e;stroke-width:2.025;" x="473.477469" xlink:href="#C1_0_72f38f0d44" y="179.339964"/>
    </g>
    <g clip-path="url(#pd8e64535e1)">
     <use style="fill:#ff7f0e;stroke:#ff7f0e;stroke-width:2.025;" x="498.963906" xlink:href="#C1_0_72f38f0d44" y="189.622584"/>
    </g>
    <g clip-path="url(#pd8e64535e1)">
     <use style="fill:#ff7f0e;stroke:#ff7f0e;stroke-width:2.025;" x="524.450344" xlink:href="#C1_0_72f38f0d44" y="176.879245"/>
    </g>
    <g clip-path="url(#pd8e64535e1)">
     <use style="fill:#ff7f0e;stroke:#ff7f0e;stroke-width:2.025;" x="549.936781" xlink:href="#C1_0_72f38f0d44" y="175.263964"/>
    </g>
   </g>
   <g id="line2d_66">
    <path clip-path="url(#pd8e64535e1)" d="M 52.95125 185.027483 
L 562.68 185.027483 
" style="fill:none;stroke:#000000;stroke-linecap:square;stroke-width:1.5;"/>
   </g>
   <g id="line2d_67">
    <path clip-path="url(#pd8e64535e1)" d="M 65.694469 367.971818 
L 65.694469 213.031185 
" style="fill:none;stroke:#ff7f0e;stroke-linecap:square;stroke-width:2.7;"/>
   </g>
   <g id="line2d_68">
    <path clip-path="url(#pd8e64535e1)" d="M 91.180906 162.442726 
L 91.180906 30.208182 
" style="fill:none;stroke:#ff7f0e;stroke-linecap:square;stroke-width:2.7;"/>
   </g>
   <g id="line2d_69">
    <path clip-path="url(#pd8e64535e1)" d="M 116.667344 243.218355 
L 116.667344 170.021339 
" style="fill:none;stroke:#ff7f0e;stroke-linecap:square;stroke-width:2.7;"/>
   </g>
   <g id="line2d_70">
    <path clip-path="url(#pd8e64535e1)" d="M 142.153781 232.213964 
L 142.153781 182.683782 
" style="fill:none;stroke:#ff7f0e;stroke-linecap:square;stroke-width:2.7;"/>
   </g>
   <g id="line2d_71">
    <path clip-path="url(#pd8e64535e1)" d="M 167.640219 225.128669 
L 167.640219 137.965663 
" style="fill:none;stroke:#ff7f0e;stroke-linecap:square;stroke-width:2.7;"/>
   </g>
   <g id="line2d_72">
    <path clip-path="url(#pd8e64535e1)" d="M 193.126656 185.703391 
L 193.126656 136.630553 
" style="fill:none;stroke:#ff7f0e;stroke-linecap:square;stroke-width:2.7;"/>
   </g>
   <g id="line2d_73">
    <path clip-path="url(#pd8e64535e1)" d="M 218.613094 205.483066 
L 218.613094 175.621487 
" style="fill:none;stroke:#ff7f0e;stroke-linecap:square;stroke-width:2.7;"/>
   </g>
   <g id="line2d_74">
    <path clip-path="url(#pd8e64535e1)" d="M 244.099531 191.906559 
L 244.099531 160.918574 
" style="fill:none;stroke:#ff7f0e;stroke-linecap:square;stroke-width:2.7;"/>
   </g>
   <g id="line2d_75">
    <path clip-path="url(#pd8e64535e1)" d="M 269.585969 172.677297 
L 269.585969 136.227301 
" style="fill:none;stroke:#ff7f0e;stroke-linecap:square;stroke-width:2.7;"/>
   </g>
   <g id="line2d_76">
    <path clip-path="url(#pd8e64535e1)" d="M 0 0 
" style="fill:none;stroke:#ff7f0e;stroke-linecap:square;stroke-width:2.7;"/>
   </g>
   <g id="line2d_77">
    <path clip-path="url(#pd8e64535e1)" d="M 320.558844 205.032549 
L 320.558844 170.048399 
" style="fill:none;stroke:#ff7f0e;stroke-linecap:square;stroke-width:2.7;"/>
   </g>
   <g id="line2d_78">
    <path clip-path="url(#pd8e64535e1)" d="M 346.045281 190.02555 
L 346.045281 175.269454 
" style="fill:none;stroke:#ff7f0e;stroke-linecap:square;stroke-width:2.7;"/>
   </g>
   <g id="line2d_79">
    <path clip-path="url(#pd8e64535e1)" d="M 371.531719 205.752547 
L 371.531719 167.779141 
" style="fill:none;stroke:#ff7f0e;stroke-linecap:square;stroke-width:2.7;"/>
   </g>
   <g id="line2d_80">
    <path clip-path="url(#pd8e64535e1)" d="M 397.018156 203.694723 
L 397.018156 174.013523 
" style="fill:none;stroke:#ff7f0e;stroke-linecap:square;stroke-width:2.7;"/>
   </g>
   <g id="line2d_81">
    <path clip-path="url(#pd8e64535e1)" d="M 422.504594 197.680749 
L 422.504594 146.794437 
" style="fill:none;stroke:#ff7f0e;stroke-linecap:square;stroke-width:2.7;"/>
   </g>
   <g id="line2d_82">
    <path clip-path="url(#pd8e64535e1)" d="M 447.991031 207.335469 
L 447.991031 175.302229 
" style="fill:none;stroke:#ff7f0e;stroke-linecap:square;stroke-width:2.7;"/>
   </g>
   <g id="line2d_83">
    <path clip-path="url(#pd8e64535e1)" d="M 473.477469 198.752693 
L 473.477469 159.927235 
" style="fill:none;stroke:#ff7f0e;stroke-linecap:square;stroke-width:2.7;"/>
   </g>
   <g id="line2d_84">
    <path clip-path="url(#pd8e64535e1)" d="M 498.963906 204.63726 
L 498.963906 174.607909 
" style="fill:none;stroke:#ff7f0e;stroke-linecap:square;stroke-width:2.7;"/>
   </g>
   <g id="line2d_85">
    <path clip-path="url(#pd8e64535e1)" d="M 524.450344 184.406948 
L 524.450344 169.351541 
" style="fill:none;stroke:#ff7f0e;stroke-linecap:square;stroke-width:2.7;"/>
   </g>
   <g id="line2d_86">
    <path clip-path="url(#pd8e64535e1)" d="M 549.936781 180.148568 
L 549.936781 170.379359 
" style="fill:none;stroke:#ff7f0e;stroke-linecap:square;stroke-width:2.7;"/>
   </g>
   <g id="PathCollection_3">
    <defs>
     <path d="M 0 3.383948 
C 0.897434 3.383948 1.758231 3.027394 2.392813 2.392813 
C 3.027394 1.758231 3.383948 0.897434 3.383948 0 
C 3.383948 -0.897434 3.027394 -1.758231 2.392813 -2.392813 
C 1.758231 -3.027394 0.897434 -3.383948 0 -3.383948 
C -0.897434 -3.383948 -1.758231 -3.027394 -2.392813 -2.392813 
C -3.027394 -1.758231 -3.383948 -0.897434 -3.383948 0 
C -3.383948 0.897434 -3.027394 1.758231 -2.392813 2.392813 
C -1.758231 3.027394 -0.897434 3.383948 0 3.383948 
z
" id="C2_0_2cd7b36ca9"/>
    </defs>
    <g clip-path="url(#pd8e64535e1)">
     <use style="fill:#2ca02c;stroke:#2ca02c;stroke-width:2.025;" x="66.65021" xlink:href="#C2_0_2cd7b36ca9" y="182.944169"/>
    </g>
    <g clip-path="url(#pd8e64535e1)">
     <use style="fill:#2ca02c;stroke:#2ca02c;stroke-width:2.025;" x="92.136648" xlink:href="#C2_0_2cd7b36ca9" y="215.308922"/>
    </g>
    <g clip-path="url(#pd8e64535e1)">
     <use style="fill:#2ca02c;stroke:#2ca02c;stroke-width:2.025;" x="117.623085" xlink:href="#C2_0_2cd7b36ca9" y="183.998873"/>
    </g>
    <g clip-path="url(#pd8e64535e1)">
     <use style="fill:#2ca02c;stroke:#2ca02c;stroke-width:2.025;" x="143.109523" xlink:href="#C2_0_2cd7b36ca9" y="183.075162"/>
    </g>
    <g clip-path="url(#pd8e64535e1)">
     <use style="fill:#2ca02c;stroke:#2ca02c;stroke-width:2.025;" x="168.59596" xlink:href="#C2_0_2cd7b36ca9" y="194.104488"/>
    </g>
    <g clip-path="url(#pd8e64535e1)">
     <use style="fill:#2ca02c;stroke:#2ca02c;stroke-width:2.025;" x="194.082398" xlink:href="#C2_0_2cd7b36ca9" y="183.009385"/>
    </g>
    <g clip-path="url(#pd8e64535e1)">
     <use style="fill:#2ca02c;stroke:#2ca02c;stroke-width:2.025;" x="219.568835" xlink:href="#C2_0_2cd7b36ca9" y="183.096119"/>
    </g>
    <g clip-path="url(#pd8e64535e1)">
     <use style="fill:#2ca02c;stroke:#2ca02c;stroke-width:2.025;" x="245.055273" xlink:href="#C2_0_2cd7b36ca9" y="183.330159"/>
    </g>
    <g clip-path="url(#pd8e64535e1)">
     <use style="fill:#2ca02c;stroke:#2ca02c;stroke-width:2.025;" x="270.54171" xlink:href="#C2_0_2cd7b36ca9" y="183.99818"/>
    </g>
    <g clip-path="url(#pd8e64535e1)">
     <use style="fill:#2ca02c;stroke:#2ca02c;stroke-width:2.025;" x="296.028148" xlink:href="#C2_0_2cd7b36ca9" y="183.618284"/>
    </g>
    <g clip-path="url(#pd8e64535e1)">
     <use style="fill:#2ca02c;stroke:#2ca02c;stroke-width:2.025;" x="347.001023" xlink:href="#C2_0_2cd7b36ca9" y="182.655278"/>
    </g>
    <g clip-path="url(#pd8e64535e1)">
     <use style="fill:#2ca02c;stroke:#2ca02c;stroke-width:2.025;" x="372.48746" xlink:href="#C2_0_2cd7b36ca9" y="183.212955"/>
    </g>
    <g clip-path="url(#pd8e64535e1)">
     <use style="fill:#2ca02c;stroke:#2ca02c;stroke-width:2.025;" x="397.973898" xlink:href="#C2_0_2cd7b36ca9" y="181.81361"/>
    </g>
    <g clip-path="url(#pd8e64535e1)">
     <use style="fill:#2ca02c;stroke:#2ca02c;stroke-width:2.025;" x="423.460335" xlink:href="#C2_0_2cd7b36ca9" y="185.027483"/>
    </g>
    <g clip-path="url(#pd8e64535e1)">
     <use style="fill:#2ca02c;stroke:#2ca02c;stroke-width:2.025;" x="448.946773" xlink:href="#C2_0_2cd7b36ca9" y="183.791959"/>
    </g>
    <g clip-path="url(#pd8e64535e1)">
     <use style="fill:#2ca02c;stroke:#2ca02c;stroke-width:2.025;" x="474.43321" xlink:href="#C2_0_2cd7b36ca9" y="183.685732"/>
    </g>
    <g clip-path="url(#pd8e64535e1)">
     <use style="fill:#2ca02c;stroke:#2ca02c;stroke-width:2.025;" x="499.919648" xlink:href="#C2_0_2cd7b36ca9" y="178.687185"/>
    </g>
    <g clip-path="url(#pd8e64535e1)">
     <use style="fill:#2ca02c;stroke:#2ca02c;stroke-width:2.025;" x="525.406085" xlink:href="#C2_0_2cd7b36ca9" y="182.640887"/>
    </g>
    <g clip-path="url(#pd8e64535e1)">
     <use style="fill:#2ca02c;stroke:#2ca02c;stroke-width:2.025;" x="550.892523" xlink:href="#C2_0_2cd7b36ca9" y="184.025781"/>
    </g>
   </g>
   <g id="line2d_87">
    <path clip-path="url(#pd8e64535e1)" d="M 66.65021 185.154676 
L 66.65021 180.733662 
" style="fill:none;stroke:#2ca02c;stroke-linecap:square;stroke-width:2.7;"/>
   </g>
   <g id="line2d_88">
    <path clip-path="url(#pd8e64535e1)" d="M 92.136648 234.891447 
L 92.136648 195.726398 
" style="fill:none;stroke:#2ca02c;stroke-linecap:square;stroke-width:2.7;"/>
   </g>
   <g id="line2d_89">
    <path clip-path="url(#pd8e64535e1)" d="M 117.623085 184.660708 
L 117.623085 183.337038 
" style="fill:none;stroke:#2ca02c;stroke-linecap:square;stroke-width:2.7;"/>
   </g>
   <g id="line2d_90">
    <path clip-path="url(#pd8e64535e1)" d="M 143.109523 184.176424 
L 143.109523 181.9739 
" style="fill:none;stroke:#2ca02c;stroke-linecap:square;stroke-width:2.7;"/>
   </g>
   <g id="line2d_91">
    <path clip-path="url(#pd8e64535e1)" d="M 168.59596 214.983094 
L 168.59596 173.225882 
" style="fill:none;stroke:#2ca02c;stroke-linecap:square;stroke-width:2.7;"/>
   </g>
   <g id="line2d_92">
    <path clip-path="url(#pd8e64535e1)" d="M 194.082398 184.820189 
L 194.082398 181.198581 
" style="fill:none;stroke:#2ca02c;stroke-linecap:square;stroke-width:2.7;"/>
   </g>
   <g id="line2d_93">
    <path clip-path="url(#pd8e64535e1)" d="M 219.568835 184.333617 
L 219.568835 181.858622 
" style="fill:none;stroke:#2ca02c;stroke-linecap:square;stroke-width:2.7;"/>
   </g>
   <g id="line2d_94">
    <path clip-path="url(#pd8e64535e1)" d="M 245.055273 184.283788 
L 245.055273 182.37653 
" style="fill:none;stroke:#2ca02c;stroke-linecap:square;stroke-width:2.7;"/>
   </g>
   <g id="line2d_95">
    <path clip-path="url(#pd8e64535e1)" d="M 270.54171 184.679657 
L 270.54171 183.316703 
" style="fill:none;stroke:#2ca02c;stroke-linecap:square;stroke-width:2.7;"/>
   </g>
   <g id="line2d_96">
    <path clip-path="url(#pd8e64535e1)" d="M 0 0 
" style="fill:none;stroke:#2ca02c;stroke-linecap:square;stroke-width:2.7;"/>
   </g>
   <g id="line2d_97">
    <path clip-path="url(#pd8e64535e1)" d="M 0 0 
" style="fill:none;stroke:#2ca02c;stroke-linecap:square;stroke-width:2.7;"/>
   </g>
   <g id="line2d_98">
    <path clip-path="url(#pd8e64535e1)" d="M 347.001023 184.616801 
L 347.001023 180.693754 
" style="fill:none;stroke:#2ca02c;stroke-linecap:square;stroke-width:2.7;"/>
   </g>
   <g id="line2d_99">
    <path clip-path="url(#pd8e64535e1)" d="M 372.48746 184.485881 
L 372.48746 181.940029 
" style="fill:none;stroke:#2ca02c;stroke-linecap:square;stroke-width:2.7;"/>
   </g>
   <g id="line2d_100">
    <path clip-path="url(#pd8e64535e1)" d="M 397.973898 185.186907 
L 397.973898 178.440313 
" style="fill:none;stroke:#2ca02c;stroke-linecap:square;stroke-width:2.7;"/>
   </g>
   <g id="line2d_101">
    <path clip-path="url(#pd8e64535e1)" d="M 423.460335 185.027483 
L 423.460335 185.027483 
" style="fill:none;stroke:#2ca02c;stroke-linecap:square;stroke-width:2.7;"/>
   </g>
   <g id="line2d_102">
    <path clip-path="url(#pd8e64535e1)" d="M 448.946773 184.515607 
L 448.946773 183.068311 
" style="fill:none;stroke:#2ca02c;stroke-linecap:square;stroke-width:2.7;"/>
   </g>
   <g id="line2d_103">
    <path clip-path="url(#pd8e64535e1)" d="M 474.43321 185.300869 
L 474.43321 182.070594 
" style="fill:none;stroke:#2ca02c;stroke-linecap:square;stroke-width:2.7;"/>
   </g>
   <g id="line2d_104">
    <path clip-path="url(#pd8e64535e1)" d="M 499.919648 184.504229 
L 499.919648 172.87014 
" style="fill:none;stroke:#2ca02c;stroke-linecap:square;stroke-width:2.7;"/>
   </g>
   <g id="line2d_105">
    <path clip-path="url(#pd8e64535e1)" d="M 525.406085 185.032562 
L 525.406085 180.249213 
" style="fill:none;stroke:#2ca02c;stroke-linecap:square;stroke-width:2.7;"/>
   </g>
   <g id="line2d_106">
    <path clip-path="url(#pd8e64535e1)" d="M 550.892523 184.653036 
L 550.892523 183.398527 
" style="fill:none;stroke:#2ca02c;stroke-linecap:square;stroke-width:2.7;"/>
   </g>
   <g id="legend_1">
    <g id="patch_3">
     <path d="M 469.320625 80.0325 
L 555.68 80.0325 
Q 557.68 80.0325 557.68 78.0325 
L 557.68 20.32 
Q 557.68 18.32 555.68 18.32 
L 469.320625 18.32 
Q 467.320625 18.32 467.320625 20.32 
L 467.320625 78.0325 
Q 467.320625 80.0325 469.320625 80.0325 
z
" style="fill:#ffffff;opacity:0.8;stroke:#cccccc;stroke-linejoin:miter;"/>
    </g>
    <g id="text_27">
     <!-- metabolite -->
     <g transform="translate(485.480781 29.918438)scale(0.1 -0.1)">
      <use xlink:href="#DejaVuSans-109"/>
      <use x="97.412109" xlink:href="#DejaVuSans-101"/>
      <use x="158.935547" xlink:href="#DejaVuSans-116"/>
      <use x="198.144531" xlink:href="#DejaVuSans-97"/>
      <use x="259.423828" xlink:href="#DejaVuSans-98"/>
      <use x="322.900391" xlink:href="#DejaVuSans-111"/>
      <use x="384.082031" xlink:href="#DejaVuSans-108"/>
      <use x="411.865234" xlink:href="#DejaVuSans-105"/>
      <use x="439.648438" xlink:href="#DejaVuSans-116"/>
      <use x="478.857422" xlink:href="#DejaVuSans-101"/>
     </g>
    </g>
    <g id="PathCollection_4">
     <path d="M 481.320625 45.355511 
C 482.218059 45.355511 483.078856 44.998957 483.713438 44.364375 
C 484.348019 43.729794 484.704573 42.868996 484.704573 41.971563 
C 484.704573 41.074129 484.348019 40.213331 483.713438 39.57875 
C 483.078856 38.944168 482.218059 38.587614 481.320625 38.587614 
C 480.423191 38.587614 479.562394 38.944168 478.927812 39.57875 
C 478.293231 40.213331 477.936677 41.074129 477.936677 41.971563 
C 477.936677 42.868996 478.293231 43.729794 478.927812 44.364375 
C 479.562394 44.998957 480.423191 45.355511 481.320625 45.355511 
z
" style="fill:#1f77b4;stroke:#1f77b4;stroke-width:2.025;"/>
    </g>
    <g id="text_28">
     <!-- butyrate -->
     <defs>
      <path d="M 32.171875 -5.078125 
Q 28.375 -14.84375 24.75 -17.8125 
Q 21.140625 -20.796875 15.09375 -20.796875 
L 7.90625 -20.796875 
L 7.90625 -13.28125 
L 13.1875 -13.28125 
Q 16.890625 -13.28125 18.9375 -11.515625 
Q 21 -9.765625 23.484375 -3.21875 
L 25.09375 0.875 
L 2.984375 54.6875 
L 12.5 54.6875 
L 29.59375 11.921875 
L 46.6875 54.6875 
L 56.203125 54.6875 
z
" id="DejaVuSans-121"/>
     </defs>
     <g transform="translate(499.320625 44.596563)scale(0.1 -0.1)">
      <use xlink:href="#DejaVuSans-98"/>
      <use x="63.476562" xlink:href="#DejaVuSans-117"/>
      <use x="126.855469" xlink:href="#DejaVuSans-116"/>
      <use x="166.064453" xlink:href="#DejaVuSans-121"/>
      <use x="225.244141" xlink:href="#DejaVuSans-114"/>
      <use x="266.357422" xlink:href="#DejaVuSans-97"/>
      <use x="327.636719" xlink:href="#DejaVuSans-116"/>
      <use x="366.845703" xlink:href="#DejaVuSans-101"/>
     </g>
    </g>
    <g id="PathCollection_5">
     <path d="M 481.320625 60.033636 
C 482.218059 60.033636 483.078856 59.677082 483.713438 59.0425 
C 484.348019 58.407919 484.704573 57.547121 484.704573 56.649688 
C 484.704573 55.752254 484.348019 54.891456 483.713438 54.256875 
C 483.078856 53.622293 482.218059 53.265739 481.320625 53.265739 
C 480.423191 53.265739 479.562394 53.622293 478.927812 54.256875 
C 478.293231 54.891456 477.936677 55.752254 477.936677 56.649688 
C 477.936677 57.547121 478.293231 58.407919 478.927812 59.0425 
C 479.562394 59.677082 480.423191 60.033636 481.320625 60.033636 
z
" style="fill:#ff7f0e;stroke:#ff7f0e;stroke-width:2.025;"/>
    </g>
    <g id="text_29">
     <!-- acetate -->
     <g transform="translate(499.320625 59.274688)scale(0.1 -0.1)">
      <use xlink:href="#DejaVuSans-97"/>
      <use x="61.279297" xlink:href="#DejaVuSans-99"/>
      <use x="116.259766" xlink:href="#DejaVuSans-101"/>
      <use x="177.783203" xlink:href="#DejaVuSans-116"/>
      <use x="216.992188" xlink:href="#DejaVuSans-97"/>
      <use x="278.271484" xlink:href="#DejaVuSans-116"/>
      <use x="317.480469" xlink:href="#DejaVuSans-101"/>
     </g>
    </g>
    <g id="PathCollection_6">
     <path d="M 481.320625 74.711761 
C 482.218059 74.711761 483.078856 74.355207 483.713438 73.720625 
C 484.348019 73.086044 484.704573 72.225246 484.704573 71.327813 
C 484.704573 70.430379 484.348019 69.569581 483.713438 68.935 
C 483.078856 68.300418 482.218059 67.943864 481.320625 67.943864 
C 480.423191 67.943864 479.562394 68.300418 478.927812 68.935 
C 478.293231 69.569581 477.936677 70.430379 477.936677 71.327813 
C 477.936677 72.225246 478.293231 73.086044 478.927812 73.720625 
C 479.562394 74.355207 480.423191 74.711761 481.320625 74.711761 
z
" style="fill:#2ca02c;stroke:#2ca02c;stroke-width:2.025;"/>
    </g>
    <g id="text_30">
     <!-- propionate -->
     <g transform="translate(499.320625 73.952813)scale(0.1 -0.1)">
      <use xlink:href="#DejaVuSans-112"/>
      <use x="63.476562" xlink:href="#DejaVuSans-114"/>
      <use x="104.558594" xlink:href="#DejaVuSans-111"/>
      <use x="165.740234" xlink:href="#DejaVuSans-112"/>
      <use x="229.216797" xlink:href="#DejaVuSans-105"/>
      <use x="257" xlink:href="#DejaVuSans-111"/>
      <use x="318.181641" xlink:href="#DejaVuSans-110"/>
      <use x="381.560547" xlink:href="#DejaVuSans-97"/>
      <use x="442.839844" xlink:href="#DejaVuSans-116"/>
      <use x="482.048828" xlink:href="#DejaVuSans-101"/>
     </g>
    </g>
   </g>
  </g>
 </g>
 <defs>
  <clipPath id="pd8e64535e1">
   <rect height="371.54" width="509.72875" x="52.95125" y="13.32"/>
  </clipPath>
 </defs>
</svg>
